<svg id="Layer_1" data-name="Layer 1" xmlns="http://www.w3.org/2000/svg" viewBox="0 0 520 520"><defs><style>.cls-1,.cls-2,.cls-5{fill:#fb923c;}.cls-1,.cls-2{isolation:isolate;}.cls-1{opacity:0.2;}.cls-2{opacity:0.15;}.cls-3{fill:#ffb07b;}.cls-4{fill:#f97316;}</style></defs><g id="Layer_1-2" data-name="Layer 1"><path class="cls-1" d="M520,260c0,143.59-116.4,260-260,260S0,403.58,0,260,116.4,0,260,0,520,116.4,520,260Z"/><path class="cls-2" d="M222,277,46,304,350,503c108-49,159-104,170-250L411,176c-56.79,2.27-83-38-83-38"/><polygon class="cls-3" points="44 303.13 44 302.16 335.74 133 335.74 133.97 44 303.13"/><polygon class="cls-3" points="44 303.13 335.74 133.97 338 135.28 46.26 304.44 44 303.13"/><polygon class="cls-4" points="48.18 308.09 46.26 304.44 338 135.28 339.91 138.93 48.18 308.09"/><path class="cls-5" d="M54.74,309.35c286.79-169.48,288.72-167.1,291.19-169.48l11,6.36L65.15,315.39Z"/><polygon class="cls-4" points="67.06 319.05 65.14 315.4 356.88 146.24 358.8 149.89 67.06 319.05"/><path class="cls-5" d="M73.6,320.29C357.39,152.56,362.32,153.2,364.79,150.81l11,6.36L84,326.33Z"/><polygon class="cls-4" points="85.93 329.98 84.02 326.33 375.75 157.17 377.67 160.82 85.93 329.98"/><path class="cls-5" d="M92.48,331.24C378.24,162.7,381.2,164.14,383.67,161.76l11,6.36L102.89,337.28Z"/><polygon class="cls-4" points="104.81 340.93 102.89 337.28 394.63 168.12 396.55 171.77 104.81 340.93"/><path class="cls-5" d="M111.36,342.18C396.54,174.06,400.08,175.09,402.54,172.71l11,6.35L121.77,348.23Z"/><polygon class="cls-4" points="123.69 351.88 121.77 348.23 413.51 179.06 415.42 182.71 123.69 351.88"/><path class="cls-5" d="M130.23,353.13C415.42,184.39,419,186,421.42,183.65l11,6.36L140.65,359.17Z"/><polygon class="cls-4" points="142.57 362.82 140.65 359.17 432.39 190.01 434.3 193.66 142.57 362.82"/><path class="cls-5" d="M149.11,364.08C435.17,195.38,437.83,197,440.3,194.6l11,6.36L159.53,370.12Z"/><polygon class="cls-4" points="161.45 373.77 159.53 370.12 451.26 200.96 453.18 204.61 161.45 373.77"/><path class="cls-5" d="M168,375C451.71,208,456.73,207.92,459.18,205.55l11,6.35L178.41,381.06Z"/><polygon class="cls-4" points="180.32 384.72 178.41 381.06 470.14 211.9 472.06 215.55 180.32 384.72"/><polygon class="cls-3" points="180.32 384.72 472.06 215.55 476 217.84 184.26 387 180.32 384.72"/><path class="cls-3" d="M52.53,310.62l-4.35-2.53L339.91,138.93l4.36,2.52Z"/><path class="cls-3" d="M71.41,321.56,67.05,319,358.79,149.87l4.36,2.53Z"/><path class="cls-3" d="M90.29,332.51,85.93,330,377.67,160.82l4.35,2.53Z"/><path class="cls-3" d="M109.17,343.46l-4.36-2.53L396.54,171.77l4.36,2.52C397.08,176.51,113,341.25,109.17,343.46Z"/><path class="cls-3" d="M128.05,354.4l-4.36-2.52L415.42,182.71l4.36,2.53Z"/><path class="cls-3" d="M146.92,365.35l-4.35-2.53L434.3,193.66l4.36,2.52Z"/><path class="cls-3" d="M165.8,376.29l-4.35-2.52L453.18,204.61l4.36,2.52C453.68,209.37,169.77,374,165.8,376.29Z"/></g></svg>