<?xml version="1.0" encoding="utf-8"?>
<!-- Generator: Adobe Illustrator 26.3.1, SVG Export Plug-In . SVG Version: 6.00 Build 0)  -->
<svg version="1.1" id="Layer_1" xmlns="http://www.w3.org/2000/svg" xmlns:xlink="http://www.w3.org/1999/xlink" x="0px" y="0px"
	 viewBox="0 0 520 520" style="enable-background:new 0 0 520 520;" xml:space="preserve">
<style type="text/css">
	.st0{opacity:0.2;fill:#FB923C;enable-background:new    ;}
	.st1{opacity:0.15;fill:#FB923C;enable-background:new    ;}
	.st2{fill:#FFB07B;}
	.st3{fill:#F97316;}
	.st4{fill:#FB923C;}
</style>
<g>
	<g id="Layer_1_00000121961919421499285410000015787144907223818383_">
		<path class="st0" d="M520,260c0,143.6-116.4,260-260,260S0,403.6,0,260S116.4,0,260,0S520,116.4,520,260z"/>
		<path class="st1" d="M222,277L46,304l304,199c108-49,159-104,170-250l-109-77c-56.8,2.3-83-38-83-38"/>
		<polygon class="st2" points="44,303.1 44,302.2 335.7,133 335.7,134 		"/>
		<polygon class="st2" points="44,303.1 335.7,134 338,135.3 46.3,304.4 		"/>
		<polygon class="st3" points="48.2,308.1 46.3,304.4 338,135.3 339.9,138.9 		"/>
		<path class="st4" d="M54.7,309.4c286.8-169.5,288.7-167.1,291.2-169.5l11,6.4L65.2,315.4L54.7,309.4z"/>
		<polygon class="st3" points="67.1,319 65.1,315.4 356.9,146.2 358.8,149.9 		"/>
		<path class="st4" d="M73.6,320.3c283.8-167.7,288.7-167.1,291.2-169.5l11,6.4L84,326.3L73.6,320.3z"/>
		<polygon class="st3" points="85.9,330 84,326.3 375.8,157.2 377.7,160.8 		"/>
		<path class="st4" d="M92.5,331.2c285.8-168.5,288.7-167.1,291.2-169.5l11,6.4L102.9,337.3L92.5,331.2z"/>
		<polygon class="st3" points="104.8,340.9 102.9,337.3 394.6,168.1 396.5,171.8 		"/>
		<path class="st4" d="M111.4,342.2c285.2-168.1,288.7-167.1,291.2-169.5l11,6.4L121.8,348.2L111.4,342.2z"/>
		<polygon class="st3" points="123.7,351.9 121.8,348.2 413.5,179.1 415.4,182.7 		"/>
		<path class="st4" d="M130.2,353.1C415.4,184.4,419,186,421.4,183.6l11,6.4L140.6,359.2L130.2,353.1z"/>
		<polygon class="st3" points="142.6,362.8 140.6,359.2 432.4,190 434.3,193.7 		"/>
		<path class="st4" d="M149.1,364.1C435.2,195.4,437.8,197,440.3,194.6l11,6.4L159.5,370.1L149.1,364.1z"/>
		<polygon class="st3" points="161.4,373.8 159.5,370.1 451.3,201 453.2,204.6 		"/>
		<path class="st4" d="M168,375c283.7-167,288.7-167.1,291.2-169.4l11,6.4L178.4,381.1L168,375z"/>
		<polygon class="st3" points="180.3,384.7 178.4,381.1 470.1,211.9 472.1,215.6 		"/>
		<polygon class="st2" points="180.3,384.7 472.1,215.6 476,217.8 184.3,387 		"/>
		<path class="st2" d="M52.5,310.6l-4.3-2.5l291.7-169.2l4.4,2.5L52.5,310.6z"/>
		<path class="st2" d="M71.4,321.6l-4.4-2.6l291.7-169.1l4.4,2.5L71.4,321.6z"/>
		<path class="st2" d="M90.3,332.5l-4.4-2.5l291.7-169.2l4.4,2.5L90.3,332.5z"/>
		<path class="st2" d="M109.2,343.5l-4.4-2.5l291.7-169.2l4.4,2.5C397.1,176.5,113,341.2,109.2,343.5z"/>
		<path class="st2" d="M128.1,354.4l-4.4-2.5l291.7-169.2l4.4,2.5L128.1,354.4z"/>
		<path class="st2" d="M146.9,365.4l-4.4-2.5l291.7-169.2l4.4,2.5L146.9,365.4z"/>
		<path class="st2" d="M165.8,376.3l-4.4-2.5l291.7-169.2l4.4,2.5C453.7,209.4,169.8,374,165.8,376.3z"/>
	</g>
</g>
</svg>
