<svg width="91" height="90" viewBox="0 0 91 90" fill="none" xmlns="http://www.w3.org/2000/svg">
<rect opacity="0.1" x="0.242188" width="90" height="90" rx="8" fill="#EF790C"/>
<path d="M57.5664 58.9807L57.5592 59.0007C56.8449 61.0053 55.9558 63.5002 53.5112 64.2816C53.078 64.4192 52.6255 64.4888 52.1702 64.4878C50.3968 64.4878 48.8809 63.5114 47.4208 62.525L51.0638 74.6222C51.1363 74.863 51.2781 75.078 51.472 75.2414C51.6659 75.4047 51.9036 75.5094 52.1565 75.5427C52.4095 75.576 52.6668 75.5366 52.8975 75.4293C53.1282 75.3219 53.3225 75.1511 53.4568 74.9376L56.0707 70.7837C56.2122 70.5588 56.4198 70.3818 56.666 70.276C56.9122 70.1702 57.1853 70.1407 57.4489 70.1915L62.3207 71.1287C62.5711 71.1769 62.8304 71.1528 63.0672 71.0592C63.304 70.9657 63.5083 70.8067 63.6554 70.6015C63.8025 70.3963 63.8862 70.1535 63.8963 69.9025C63.9064 69.6515 63.8426 69.403 63.7125 69.187L57.5664 58.9807Z" fill="#EF790C"/>
<path d="M37.8289 64.4876C37.3737 64.4887 36.9211 64.4191 36.4879 64.2815C34.2331 63.5606 33.3047 61.3858 32.6133 59.4789L26.7671 69.1869C26.637 69.403 26.5731 69.6515 26.5833 69.9025C26.5934 70.1535 26.677 70.3962 26.8242 70.6015C26.9713 70.8067 27.1756 70.9657 27.4124 71.0592C27.6492 71.1528 27.9085 71.1769 28.1589 71.1286L33.0307 70.1914C33.2944 70.1407 33.5675 70.1702 33.8136 70.276C34.0598 70.3818 34.2675 70.5589 34.4089 70.7836L37.0227 74.9375C37.157 75.1511 37.3512 75.3219 37.5819 75.4292C37.8126 75.5366 38.0699 75.576 38.3228 75.5426C38.5757 75.5093 38.8134 75.4047 39.0073 75.2413C39.2011 75.078 39.3429 74.863 39.4154 74.6221L43.1804 62.1198C43.0352 62.2168 42.8952 62.311 42.7729 62.3939C41.2527 63.4236 39.6806 64.4876 37.8289 64.4876Z" fill="#EF790C"/>
<path d="M70 38.4936C70 36.0805 65.1721 34.4483 64.4537 32.2709C63.7092 30.0144 66.6147 25.9053 65.2258 24.027C63.8231 22.1299 58.946 23.587 57.0188 22.207C55.1105 20.8398 55.0197 15.817 52.7272 15.084C50.5151 14.3769 47.4513 18.365 44.9997 18.365C42.5482 18.365 39.4849 14.377 37.2729 15.0841C34.9804 15.8167 34.8895 20.8398 32.9813 22.2069C31.0541 23.5874 26.177 22.13 24.7743 24.0269C23.3855 25.9051 26.2908 30.0143 25.5464 32.2709C24.8281 34.4484 20 36.0809 20 38.4938C20 40.9067 24.8281 42.5391 25.5469 44.7164C26.2913 46.9729 23.3861 51.082 24.7748 52.9603C26.1774 54.8574 31.0544 53.4003 32.9817 54.7803C34.8898 56.1474 34.9807 61.1703 37.2733 61.9033C39.4855 62.6103 42.5492 58.6223 45.0009 58.6223C47.4526 58.6223 50.516 62.6103 52.728 61.9034C55.0203 61.1706 55.1114 56.1475 57.0195 54.7806C58.9468 53.4 63.8238 54.8574 65.2265 52.9606C66.6154 51.0823 63.7102 46.9732 64.4544 44.7166C65.1719 42.5393 70 40.9071 70 38.4936ZM45.0061 51.6151C42.3697 51.6151 39.7925 50.8456 37.6004 49.4038C35.4083 47.9621 33.6998 45.9128 32.6908 43.5153C31.6819 41.1177 31.4179 38.4795 31.9322 35.9342C32.4465 33.389 33.7161 31.051 35.5803 29.2159C37.4445 27.3809 39.8196 26.1312 42.4054 25.6249C44.9912 25.1186 47.6714 25.3784 50.1071 26.3714C52.5429 27.3645 54.6248 29.0462 56.0895 31.204C57.5543 33.3617 58.3361 35.8985 58.3362 38.4936C58.3362 40.2167 57.9914 41.923 57.3215 43.515C56.6517 45.1069 55.6698 46.5534 54.432 47.7719C53.1942 48.9903 51.7247 49.9569 50.1074 50.6163C48.4901 51.2757 46.7567 51.6151 45.0061 51.6151Z" fill="#EF790C"/>
<path d="M50.8603 35.3327H48.3579C48.0709 35.3327 47.7913 35.2433 47.5592 35.0773C47.327 34.9113 47.1542 34.6772 47.0656 34.4085L46.2922 32.0658C46.2036 31.7972 46.0307 31.5631 45.7986 31.3971C45.5664 31.2311 45.2869 31.1417 44.9999 31.1417C44.7129 31.1417 44.4334 31.2311 44.2012 31.3971C43.9691 31.5631 43.7962 31.7972 43.7076 32.0658L42.9343 34.4085C42.8457 34.6772 42.6728 34.9113 42.4407 35.0773C42.2085 35.2433 41.9289 35.3327 41.642 35.3327H39.1396C38.8525 35.3326 38.5728 35.4219 38.3405 35.588C38.1082 35.754 37.9353 35.9882 37.8466 36.257C37.7579 36.5257 37.758 36.8152 37.8468 37.0839C37.9356 37.3526 38.1085 37.5868 38.3409 37.7527L40.3654 39.2007C40.5975 39.3668 40.7703 39.6009 40.8589 39.8695C40.9476 40.1381 40.9476 40.4275 40.8589 40.6961L40.0856 43.0387C39.9971 43.3073 39.9973 43.5966 40.0861 43.8651C40.1748 44.1336 40.3476 44.3676 40.5797 44.5335C40.8118 44.6995 41.0913 44.7888 41.3782 44.7888C41.665 44.7889 41.9445 44.6995 42.1767 44.5336L44.2015 43.0859C44.4336 42.9199 44.7132 42.8304 45.0002 42.8304C45.2872 42.8304 45.5668 42.9199 45.7989 43.0859L47.8231 44.5336C48.0553 44.6996 48.3349 44.789 48.6218 44.7889C48.9088 44.7889 49.1883 44.6995 49.4204 44.5334C49.6526 44.3674 49.8254 44.1333 49.914 43.8647C50.0027 43.5961 50.0027 43.3067 49.9141 43.0381L49.1408 40.6955C49.0522 40.4269 49.0522 40.1375 49.1409 39.8689C49.2296 39.6003 49.4024 39.3662 49.6345 39.2001L51.659 37.7521C51.8911 37.5861 52.0638 37.352 52.1525 37.0834C52.2411 36.8148 52.2411 36.5255 52.1524 36.2569C52.0637 35.9883 51.891 35.7542 51.6589 35.5882C51.4267 35.4222 51.1472 35.3328 50.8603 35.3327Z" fill="#EF790C"/>
</svg>
