<svg id="Layer_1" data-name="Layer 1" xmlns="http://www.w3.org/2000/svg" viewBox="0 0 520 520"><defs><style>.cls-1,.cls-2{fill:#fb923c;isolation:isolate;}.cls-1{opacity:0.2;}.cls-2{opacity:0.15;}.cls-3{fill:#ffb07b;}.cls-4{fill:#ffc7a1;}.cls-5{fill:#f97316;}.cls-6{fill:#ffa76c;}</style></defs><g id="Layer_1-2" data-name="Layer 1"><path class="cls-1" d="M520,260c0,143.59-116.4,260-260,260S0,403.58,0,260,116.4,0,260,0,520,116.4,520,260Z"/><path class="cls-2" d="M520,260l-92-90-214.32,7.86L98,297,332,509C430,478,520,387,520,260Z"/><path class="cls-3" d="M433.48,183.56a19.19,19.19,0,0,0-19.16-19.22H105.82a19.26,19.26,0,0,0-19.3,19.22h0v82.5h347Z"/><path class="cls-4" d="M86.52,266.06v8.57c0,8.22,3.28,16.69,11.12,21.88,3.58,1.92,9,3.64,16.75,3.64H405.7c7.78,0,13.13-1.72,16.71-3.64,7.85-5.19,11.09-13.66,11.09-21.88v-8.57Z"/><path class="cls-5" d="M425.66,252a6.89,6.89,0,0,0-6.87-6.87H101.22A6.89,6.89,0,0,0,94.35,252l.76,14.11H424.9Z"/><path class="cls-6" d="M100,292.13a12.5,12.5,0,0,0,6,1.34c.21,0,.41.06.6.06H413.4c.2,0,.4-.06.61-.06a12.28,12.28,0,0,0,5.95-1.32,9.09,9.09,0,0,0,4-7.78l1-18.31H95.11l1,18.3A9.08,9.08,0,0,0,100,292.13Z"/><path class="cls-5" d="M422.62,271a1.36,1.36,0,0,1-1.36,1.36H98.44A1.36,1.36,0,0,1,97.08,271h0a1.36,1.36,0,0,1,1.36-1.36H421.26A1.36,1.36,0,0,1,422.62,271Z"/><path class="cls-5" d="M420.65,276.93a1.34,1.34,0,0,1-1.33,1.35H100.86a1.34,1.34,0,0,1-1.36-1.34h0a1.36,1.36,0,0,1,1.36-1.36H419.3a1.34,1.34,0,0,1,1.35,1.35Z"/><path class="cls-5" d="M419.3,282.66a1.36,1.36,0,0,1-1.36,1.36H102.06a1.36,1.36,0,0,1-1.36-1.36h0a1.36,1.36,0,0,1,1.36-1.36H417.94A1.36,1.36,0,0,1,419.3,282.66Z"/><path class="cls-5" d="M418.39,288.4a1.34,1.34,0,0,1-1.35,1.35H103a1.34,1.34,0,0,1-1.36-1.34h0A1.36,1.36,0,0,1,103,287H417a1.36,1.36,0,0,1,1.36,1.36Z"/><path class="cls-5" d="M307.16,234.82a3.91,3.91,0,0,1-3.9,3.92h-86.5a3.91,3.91,0,0,1-3.92-3.9v0h0a3.93,3.93,0,0,1,3.91-3.93h86.49a3.93,3.93,0,0,1,3.92,3.92Z"/><path class="cls-5" d="M124.81,355.65a2.47,2.47,0,0,1-2.47-2.39c-.23-6.9,4.41-11.28,8.14-14.8,2.54-2.4,4.73-4.47,4.73-6.5s-2.6-3.7-5.35-5.57c-4-2.69-8.91-6.05-8.91-12.18,0-7,5.85-11.44,10.12-14.66,1.38-1,3.27-2.46,3.55-3.08,1-3.61-.73-5.52-.81-5.6a2.45,2.45,0,0,1,0-3.46l0,0a2.51,2.51,0,0,1,3.52,0c1.4,1.41,3.42,5.18,2,10.39-.56,2.11-2.67,3.7-5.33,5.7-3.63,2.74-8.16,6.15-8.16,10.71,0,3.27,2.67,5.32,6.75,8.09,3.52,2.39,7.52,5.09,7.52,9.66,0,4.16-3.2,7.18-6.28,10.1-3.47,3.27-6.75,6.37-6.6,11a2.46,2.46,0,0,1-2.37,2.55h0Z"/><path class="cls-5" d="M212.21,355.65a2.47,2.47,0,0,1-2.47-2.39c-.23-6.9,4.41-11.28,8.14-14.8,2.54-2.4,4.73-4.47,4.73-6.5s-2.6-3.7-5.35-5.57c-4-2.69-8.91-6.05-8.91-12.18,0-7,5.85-11.44,10.13-14.66,1.37-1,3.26-2.46,3.54-3.08,1-3.61-.73-5.52-.81-5.6a2.46,2.46,0,0,1,0-3.48h0a2.51,2.51,0,0,1,3.52,0c1.4,1.41,3.42,5.18,2,10.39-.56,2.11-2.67,3.7-5.33,5.7-3.63,2.74-8.16,6.15-8.16,10.71,0,3.27,2.68,5.32,6.75,8.09,3.52,2.39,7.52,5.09,7.52,9.66,0,4.16-3.19,7.18-6.28,10.1-3.47,3.27-6.75,6.37-6.6,11a2.46,2.46,0,0,1-2.37,2.55h0Z"/><path class="cls-5" d="M299.61,355.65a2.47,2.47,0,0,1-2.47-2.39c-.23-6.9,4.41-11.28,8.14-14.8,2.54-2.4,4.73-4.47,4.73-6.5s-2.59-3.7-5.34-5.57c-4-2.69-8.92-6.05-8.92-12.18,0-7,5.85-11.44,10.13-14.66,1.37-1,3.26-2.46,3.54-3.08,1-3.61-.73-5.52-.81-5.6a2.46,2.46,0,0,1,0-3.48h0a2.51,2.51,0,0,1,3.52,0c1.41,1.41,3.42,5.18,2,10.39-.56,2.11-2.66,3.7-5.33,5.7-3.63,2.74-8.16,6.15-8.16,10.71,0,3.27,2.68,5.32,6.75,8.09C311,324.69,315,327.39,315,332c0,4.16-3.19,7.18-6.28,10.1-3.47,3.27-6.75,6.37-6.6,11a2.46,2.46,0,0,1-2.37,2.55h-.14Z"/><path class="cls-5" d="M387,355.65a2.47,2.47,0,0,1-2.47-2.39c-.23-6.9,4.41-11.28,8.14-14.8,2.54-2.4,4.73-4.47,4.73-6.5s-2.59-3.7-5.34-5.57c-4-2.69-8.92-6.05-8.92-12.18,0-7,5.85-11.44,10.13-14.66,1.37-1,3.26-2.46,3.54-3.08,1-3.61-.73-5.52-.81-5.6a2.46,2.46,0,0,1,0-3.48h0a2.51,2.51,0,0,1,3.52,0c1.41,1.41,3.42,5.18,2,10.39-.56,2.11-2.66,3.7-5.33,5.7-3.63,2.74-8.15,6.15-8.15,10.71,0,3.27,2.67,5.32,6.74,8.09,3.53,2.39,7.52,5.09,7.52,9.66,0,4.16-3.19,7.18-6.28,10.1-3.47,3.27-6.75,6.37-6.59,11a2.48,2.48,0,0,1-2.39,2.55Z"/></g></svg>