<?xml version="1.0" encoding="utf-8"?>
<!-- Generator: Adobe Illustrator 26.3.1, SVG Export Plug-In . SVG Version: 6.00 Build 0)  -->
<svg version="1.1" id="Layer_1" xmlns="http://www.w3.org/2000/svg" xmlns:xlink="http://www.w3.org/1999/xlink" x="0px" y="0px"
	 viewBox="0 0 520 520" style="enable-background:new 0 0 520 520;" xml:space="preserve">
<style type="text/css">
	.st0{opacity:0.2;fill:#FB923C;enable-background:new    ;}
	.st1{opacity:0.15;fill:#FB923C;enable-background:new    ;}
	.st2{fill:#FFB07B;}
	.st3{fill:#FFC7A1;}
	.st4{fill:#F97316;}
	.st5{fill:#FFA76C;}
</style>
<g>
	<g id="Layer_1_00000043415338046364966480000016570371880888993415_">
		<path class="st0" d="M520,260c0,143.6-116.4,260-260,260S0,403.6,0,260S116.4,0,260,0S520,116.4,520,260z"/>
		<path class="st1" d="M520,260l-92-90l-214.3,7.9L98,297l234,212C430,478,520,387,520,260z"/>
		<path class="st2" d="M433.5,183.6c0-10.6-8.6-19.2-19.2-19.2c0,0,0,0-0.1,0H105.8c-10.6,0-19.3,8.6-19.3,19.2c0,0,0,0,0,0v82.5
			h347L433.5,183.6z"/>
		<path class="st3" d="M86.5,266.1v8.6c0,8.2,3.3,16.7,11.1,21.9c3.6,1.9,9,3.6,16.8,3.6h1.7H404h1.7c7.8,0,13.1-1.7,16.7-3.6
			c7.9-5.2,11.1-13.7,11.1-21.9v-8.6H86.5z"/>
		<path class="st4" d="M425.7,252c0-3.8-3.1-6.9-6.9-6.9H101.2c-3.8,0-6.9,3.1-6.9,6.9l0.8,14.1h329.8L425.7,252z"/>
		<path class="st5" d="M100,292.1c1.9,0.9,3.9,1.4,6,1.3c0.2,0,0.4,0.1,0.6,0.1h306.8c0.2,0,0.4-0.1,0.6-0.1c2.1,0.1,4.1-0.4,6-1.3
			c2.6-1.7,4.1-4.7,4-7.8l1-18.3H95.1l1,18.3C96,287.4,97.5,290.4,100,292.1z"/>
		<path class="st4" d="M422.6,271c0,0.8-0.6,1.4-1.4,1.4H98.4c-0.8,0-1.4-0.6-1.4-1.4l0,0c0-0.8,0.6-1.4,1.4-1.4h322.8
			C422,269.6,422.6,270.2,422.6,271z"/>
		<path class="st4" d="M420.6,276.9c0,0.7-0.6,1.3-1.3,1.4c0,0,0,0,0,0H100.9c-0.7,0-1.4-0.6-1.4-1.3c0,0,0,0,0,0l0,0
			c0-0.8,0.6-1.4,1.4-1.4h318.4C420,275.6,420.6,276.2,420.6,276.9C420.7,276.9,420.7,276.9,420.6,276.9z"/>
		<path class="st4" d="M419.3,282.7c0,0.8-0.6,1.4-1.4,1.4H102.1c-0.8,0-1.4-0.6-1.4-1.4l0,0c0-0.8,0.6-1.4,1.4-1.4h315.9
			C418.7,281.3,419.3,281.9,419.3,282.7z"/>
		<path class="st4" d="M418.4,288.4c0,0.7-0.6,1.4-1.3,1.4c0,0,0,0,0,0H103c-0.7,0-1.4-0.6-1.4-1.3c0,0,0,0,0,0l0,0
			c0-0.8,0.6-1.4,1.3-1.4c0,0,0,0,0,0h314C417.8,287,418.4,287.6,418.4,288.4L418.4,288.4z"/>
		<path class="st4" d="M307.2,234.8c0,2.2-1.7,3.9-3.9,3.9c0,0,0,0,0,0h-86.5c-2.2,0-3.9-1.7-3.9-3.9c0,0,0,0,0,0l0,0
			c0-2.2,1.7-3.9,3.9-3.9c0,0,0,0,0,0h86.5C305.4,230.9,307.2,232.6,307.2,234.8C307.2,234.8,307.2,234.8,307.2,234.8z"/>
		<path class="st4" d="M124.8,355.6c-1.3,0-2.4-1.1-2.5-2.4c-0.2-6.9,4.4-11.3,8.1-14.8c2.5-2.4,4.7-4.5,4.7-6.5s-2.6-3.7-5.4-5.6
			c-4-2.7-8.9-6-8.9-12.2c0-7,5.8-11.4,10.1-14.7c1.4-1,3.3-2.5,3.6-3.1c1-3.6-0.7-5.5-0.8-5.6c-1-1-1-2.5,0-3.5c0,0,0,0,0,0
			c1-1,2.5-1,3.5,0c1.4,1.4,3.4,5.2,2,10.4c-0.6,2.1-2.7,3.7-5.3,5.7c-3.6,2.7-8.2,6.1-8.2,10.7c0,3.3,2.7,5.3,6.8,8.1
			c3.5,2.4,7.5,5.1,7.5,9.7c0,4.2-3.2,7.2-6.3,10.1c-3.5,3.3-6.8,6.4-6.6,11C127.3,354.4,126.2,355.5,124.8,355.6
			C124.9,355.6,124.8,355.6,124.8,355.6L124.8,355.6z"/>
		<path class="st4" d="M212.2,355.6c-1.3,0-2.4-1.1-2.5-2.4c-0.2-6.9,4.4-11.3,8.1-14.8c2.5-2.4,4.7-4.5,4.7-6.5s-2.6-3.7-5.4-5.6
			c-4-2.7-8.9-6-8.9-12.2c0-7,5.9-11.4,10.1-14.7c1.4-1,3.3-2.5,3.5-3.1c1-3.6-0.7-5.5-0.8-5.6c-1-1-1-2.5,0-3.5c0,0,0,0,0,0
			c1-1,2.5-1,3.5,0c1.4,1.4,3.4,5.2,2,10.4c-0.6,2.1-2.7,3.7-5.3,5.7c-3.6,2.7-8.2,6.1-8.2,10.7c0,3.3,2.7,5.3,6.8,8.1
			c3.5,2.4,7.5,5.1,7.5,9.7c0,4.2-3.2,7.2-6.3,10.1c-3.5,3.3-6.8,6.4-6.6,11C214.7,354.4,213.6,355.5,212.2,355.6
			C212.3,355.6,212.2,355.6,212.2,355.6L212.2,355.6z"/>
		<path class="st4" d="M299.6,355.6c-1.3,0-2.4-1.1-2.5-2.4c-0.2-6.9,4.4-11.3,8.1-14.8c2.5-2.4,4.7-4.5,4.7-6.5s-2.6-3.7-5.3-5.6
			c-4-2.7-8.9-6-8.9-12.2c0-7,5.9-11.4,10.1-14.7c1.4-1,3.3-2.5,3.5-3.1c1-3.6-0.7-5.5-0.8-5.6c-1-1-1-2.5,0-3.5c0,0,0,0,0,0
			c1-1,2.5-1,3.5,0c1.4,1.4,3.4,5.2,2,10.4c-0.6,2.1-2.7,3.7-5.3,5.7c-3.6,2.7-8.2,6.1-8.2,10.7c0,3.3,2.7,5.3,6.8,8.1
			c3.6,2.4,7.6,5.1,7.6,9.7c0,4.2-3.2,7.2-6.3,10.1c-3.5,3.3-6.8,6.4-6.6,11c0.1,1.4-1,2.5-2.4,2.5c0,0,0,0,0,0H299.6z"/>
		<path class="st4" d="M387,355.6c-1.3,0-2.4-1.1-2.5-2.4c-0.2-6.9,4.4-11.3,8.1-14.8c2.5-2.4,4.7-4.5,4.7-6.5s-2.6-3.7-5.3-5.6
			c-4-2.7-8.9-6-8.9-12.2c0-7,5.9-11.4,10.1-14.7c1.4-1,3.3-2.5,3.5-3.1c1-3.6-0.7-5.5-0.8-5.6c-1-1-1-2.5,0-3.5c0,0,0,0,0,0
			c1-1,2.5-1,3.5,0c1.4,1.4,3.4,5.2,2,10.4c-0.6,2.1-2.7,3.7-5.3,5.7c-3.6,2.7-8.1,6.1-8.1,10.7c0,3.3,2.7,5.3,6.7,8.1
			c3.5,2.4,7.5,5.1,7.5,9.7c0,4.2-3.2,7.2-6.3,10.1c-3.5,3.3-6.8,6.4-6.6,11C389.5,354.4,388.4,355.5,387,355.6L387,355.6z"/>
	</g>
</g>
</svg>
