<svg width="61" height="56" viewBox="0 0 61 56" fill="none" xmlns="http://www.w3.org/2000/svg">
<path d="M36.8605 20.0208H3.51537C2.77535 20.0208 2.06563 20.3147 1.54234 20.838C1.01904 21.3612 0.72503 22.0709 0.724976 22.8109V44.8653C0.725003 45.6053 1.019 46.3151 1.54229 46.8384C2.06559 47.3616 2.77532 47.6556 3.51537 47.6557H13.8415C14.237 47.6557 14.6164 47.8128 14.8961 48.0925C15.1758 48.3722 15.3329 48.7516 15.3329 49.1471V54.3525C15.3329 54.67 15.4248 54.9807 15.5976 55.2471C15.7703 55.5134 16.0165 55.7241 16.3064 55.8536C16.5963 55.983 16.9175 56.0258 17.2311 55.9767C17.5448 55.9276 17.8375 55.7887 18.0739 55.5768L26.2698 48.2312C26.6835 47.8606 27.2193 47.6556 27.7747 47.6555H36.8604C37.6004 47.6554 38.3101 47.3614 38.8334 46.8381C39.3567 46.3148 39.6506 45.6051 39.6507 44.8651V22.8109C39.6506 22.071 39.3566 21.3613 38.8334 20.838C38.3101 20.3148 37.6005 20.0208 36.8605 20.0208ZM20.1878 38.49H9.21859C9.03418 38.4945 8.85074 38.462 8.67907 38.3946C8.50739 38.3271 8.35094 38.226 8.21893 38.0971C8.08692 37.9683 7.98201 37.8144 7.91039 37.6444C7.83876 37.4744 7.80186 37.2918 7.80186 37.1074C7.80186 36.9229 7.83876 36.7403 7.91039 36.5703C7.98201 36.4003 8.08692 36.2464 8.21893 36.1175C8.35094 35.9887 8.50739 35.8876 8.67907 35.8201C8.85074 35.7527 9.03418 35.7202 9.21859 35.7247H20.1878C20.3722 35.7202 20.5556 35.7527 20.7273 35.8201C20.899 35.8876 21.0554 35.9887 21.1874 36.1175C21.3194 36.2464 21.4243 36.4003 21.496 36.5703C21.5676 36.7403 21.6045 36.9229 21.6045 37.1074C21.6045 37.2918 21.5676 37.4744 21.496 37.6444C21.4243 37.8144 21.3194 37.9683 21.1874 38.0971C21.0554 38.226 20.899 38.3271 20.7273 38.3946C20.5556 38.462 20.3722 38.4945 20.1878 38.49ZM31.158 38.49H26.8799C26.6955 38.4945 26.5121 38.462 26.3404 38.3946C26.1687 38.3271 26.0123 38.226 25.8803 38.0971C25.7483 37.9683 25.6434 37.8144 25.5717 37.6444C25.5001 37.4744 25.4632 37.2918 25.4632 37.1074C25.4632 36.9229 25.5001 36.7403 25.5717 36.5703C25.6434 36.4003 25.7483 36.2464 25.8803 36.1175C26.0123 35.9887 26.1687 35.8876 26.3404 35.8201C26.5121 35.7527 26.6955 35.7202 26.8799 35.7247H31.158C31.5189 35.7335 31.862 35.883 32.1141 36.1414C32.3662 36.3997 32.5074 36.7464 32.5074 37.1074C32.5074 37.4683 32.3662 37.815 32.1141 38.0733C31.862 38.3317 31.5189 38.4812 31.158 38.49ZM31.158 31.4847H9.21859C9.03418 31.4891 8.85074 31.4567 8.67907 31.3892C8.50739 31.3218 8.35094 31.2206 8.21893 31.0918C8.08692 30.963 7.98201 30.809 7.91039 30.6391C7.83876 30.4691 7.80186 30.2865 7.80186 30.102C7.80186 29.9176 7.83876 29.735 7.91039 29.565C7.98201 29.395 8.08692 29.241 8.21893 29.1122C8.35094 28.9834 8.50739 28.8822 8.67907 28.8148C8.85074 28.7473 9.03418 28.7149 9.21859 28.7194H31.158C31.5189 28.7282 31.862 28.8777 32.1141 29.136C32.3662 29.3944 32.5074 29.741 32.5074 30.102C32.5074 30.463 32.3662 30.8097 32.1141 31.068C31.862 31.3263 31.5189 31.4759 31.158 31.4847Z" fill="#EF790C"/>
<path d="M57.9347 0.00341797H24.5896C24.2232 0.00341797 23.8603 0.0755943 23.5218 0.215826C23.1832 0.356058 22.8756 0.561598 22.6165 0.820712C22.3574 1.07983 22.1519 1.38744 22.0117 1.72598C21.8715 2.06453 21.7993 2.42738 21.7993 2.79381V17.2548H36.8605C38.3336 17.2565 39.7458 17.8425 40.7874 18.8841C41.829 19.9257 42.415 21.3379 42.4168 22.811V30.1463L48.4563 35.5591C48.6927 35.7709 48.9854 35.9099 49.2991 35.959C49.6127 36.0081 49.9339 35.9654 50.2238 35.8359C50.5137 35.7065 50.7599 35.4959 50.9327 35.2295C51.1055 34.9632 51.1974 34.6525 51.1975 34.335V29.1296C51.1975 28.9337 51.236 28.7398 51.3109 28.5588C51.3859 28.3779 51.4957 28.2135 51.6342 28.075C51.7727 27.9365 51.9371 27.8266 52.118 27.7517C52.2989 27.6767 52.4929 27.6381 52.6887 27.6381H57.9347C58.3012 27.6381 58.664 27.5659 59.0025 27.4257C59.3411 27.2854 59.6487 27.0799 59.9078 26.8208C60.1669 26.5617 60.3724 26.254 60.5126 25.9155C60.6529 25.5769 60.725 25.2141 60.725 24.8476V2.79381C60.725 2.42738 60.6529 2.06453 60.5126 1.72598C60.3724 1.38744 60.1669 1.07983 59.9078 0.820712C59.6487 0.561598 59.3411 0.356058 59.0025 0.215826C58.664 0.0755943 58.3011 0.00341797 57.9347 0.00341797ZM52.232 18.3442H44.9479C44.7635 18.3487 44.5801 18.3162 44.4084 18.2488C44.2367 18.1813 44.0803 18.0802 43.9482 17.9513C43.8162 17.8225 43.7113 17.6686 43.6397 17.4986C43.5681 17.3286 43.5312 17.146 43.5312 16.9615C43.5312 16.7771 43.5681 16.5945 43.6397 16.4245C43.7113 16.2545 43.8162 16.1006 43.9482 15.9717C44.0803 15.8429 44.2367 15.7418 44.4084 15.6743C44.5801 15.6068 44.7635 15.5744 44.9479 15.5789H52.232C52.4164 15.5744 52.5999 15.6068 52.7715 15.6743C52.9432 15.7418 53.0997 15.8429 53.2317 15.9717C53.3637 16.1006 53.4686 16.2545 53.5402 16.4245C53.6118 16.5945 53.6487 16.7771 53.6487 16.9615C53.6487 17.146 53.6118 17.3286 53.5402 17.4986C53.4686 17.6686 53.3637 17.8225 53.2317 17.9513C53.0997 18.0802 52.9432 18.1813 52.7715 18.2488C52.5999 18.3162 52.4164 18.3487 52.232 18.3442ZM52.232 11.5499H30.2926C30.1082 11.5544 29.9248 11.5219 29.7531 11.4545C29.5814 11.387 29.425 11.2859 29.293 11.1571C29.161 11.0282 29.056 10.8743 28.9844 10.7043C28.9128 10.5343 28.8759 10.3517 28.8759 10.1672C28.8759 9.98279 28.9128 9.8002 28.9844 9.63021C29.056 9.46023 29.161 9.30628 29.293 9.17745C29.425 9.04861 29.5814 8.94749 29.7531 8.88002C29.9248 8.81256 30.1082 8.78011 30.2926 8.7846H52.232C52.4164 8.78011 52.5999 8.81256 52.7715 8.88002C52.9432 8.94749 53.0997 9.04861 53.2317 9.17745C53.3637 9.30628 53.4686 9.46023 53.5402 9.63021C53.6118 9.8002 53.6487 9.98279 53.6487 10.1672C53.6487 10.3517 53.6118 10.5343 53.5402 10.7043C53.4686 10.8743 53.3637 11.0282 53.2317 11.1571C53.0997 11.2859 52.9432 11.387 52.7715 11.4545C52.5999 11.5219 52.4164 11.5544 52.232 11.5499Z" fill="#EF790C"/>
</svg>
