<svg width="61" height="48" viewBox="0 0 61 48" fill="none" xmlns="http://www.w3.org/2000/svg">
<path d="M46.477 18.0132H32.2271V23.2516C32.2271 26.9653 29.1989 29.9868 25.4771 29.9868C21.7552 29.9868 18.7271 26.9653 18.7271 23.2516V11.8767L12.6427 15.5249C10.8333 16.6006 9.7271 18.5557 9.7271 20.6511V25.0757L2.22711 29.3975C0.792739 30.2207 0.295865 32.0541 1.13024 33.4854L8.63022 46.4506C9.45522 47.8818 11.2927 48.3683 12.7271 47.5451L22.4208 41.9605H35.2271C38.5364 41.9605 41.227 39.2758 41.227 35.9737H42.727C44.3864 35.9737 45.727 34.636 45.727 32.9802V26.9934H46.477C47.7239 26.9934 48.727 25.9925 48.727 24.7483V20.2582C48.727 19.0141 47.7239 18.0132 46.477 18.0132ZM60.3239 14.5146L52.8239 1.54937C51.9989 0.118145 50.1614 -0.368285 48.727 0.454904L39.0333 6.03949H29.4521C28.3271 6.03949 27.2302 6.35755 26.2739 6.94687L23.1333 8.90195C22.2521 9.44451 21.7271 10.408 21.7271 11.437V23.2516C21.7271 25.319 23.4052 26.9934 25.4771 26.9934C27.5489 26.9934 29.2271 25.319 29.2271 23.2516V15.0197H46.477C49.3739 15.0197 51.727 17.3677 51.727 20.2582V22.9242L59.227 18.6025C60.6614 17.7699 61.1489 15.9458 60.3239 14.5146Z" fill="#EF790C"/>
</svg>
