<svg width="61" height="36" viewBox="0 0 61 36" fill="none" xmlns="http://www.w3.org/2000/svg">
<path d="M30.725 0.857178C19.7562 0.857178 11.2116 7.39289 0.724976 18C9.75176 27.067 17.3321 35.1429 30.725 35.1429C44.1044 35.1429 53.9482 24.9107 60.725 18.1875C53.7875 10.3125 43.9571 0.857178 30.725 0.857178ZM30.725 30.2277C24.1089 30.2277 18.725 24.7366 18.725 18C18.725 11.25 24.1089 5.77236 30.725 5.77236C37.341 5.77236 42.725 11.2634 42.725 18C42.725 24.75 37.341 30.2277 30.725 30.2277Z" fill="#EF790C"/>
<path d="M30.7249 13.7144C30.7249 12.6563 31.1133 11.6921 31.7428 10.9421C31.408 10.8885 31.0731 10.8617 30.7249 10.8617C26.8678 10.8617 23.7205 14.0626 23.7205 18.0001C23.7205 21.9376 26.8678 25.1385 30.7249 25.1385C34.5821 25.1385 37.7294 21.9376 37.7294 18.0001C37.7294 17.6921 37.7026 17.384 37.6758 17.076C36.9392 17.6519 36.0285 18.0001 35.024 18.0001C32.6401 18.0001 30.7249 16.0849 30.7249 13.7144Z" fill="#EF790C"/>
</svg>
