<svg width="90" height="90" viewBox="0 0 90 90" fill="none" xmlns="http://www.w3.org/2000/svg">
<rect opacity="0.1" width="90" height="90" rx="8" fill="#EF790C"/>
<path d="M32.9081 21.3888L35.5981 20.5288C38.1206 19.7238 40.8157 21.0263 41.8957 23.5713L44.0457 28.6414C44.9807 30.8489 44.4607 33.4464 42.7607 35.0614L38.0231 39.5565C38.3156 42.2465 39.2206 44.8941 40.7357 47.4991C42.1743 50.0195 44.1041 52.2255 46.4107 53.9867L52.1008 52.0866C54.2558 51.3691 56.6058 52.1966 57.9259 54.1392L61.0084 58.6642C62.5459 60.9243 62.2684 64.0393 60.3609 65.9543L58.3184 68.0068C56.2833 70.0494 53.3758 70.7919 50.6883 69.9519C44.3382 67.9718 38.5056 62.0943 33.1806 52.3191C27.848 42.529 25.9655 34.2189 27.5355 27.3989C28.1955 24.5288 30.238 22.2413 32.9081 21.3888V21.3888Z" fill="#EF790C"/>
</svg>
