<?xml version="1.0" encoding="utf-8"?>
<!-- Generator: Adobe Illustrator 26.3.1, SVG Export Plug-In . SVG Version: 6.00 Build 0)  -->
<svg version="1.1" xmlns="http://www.w3.org/2000/svg" xmlns:xlink="http://www.w3.org/1999/xlink" x="0px" y="0px"
	 viewBox="0 0 500 500" style="enable-background:new 0 0 500 500;" xml:space="preserve">
<style type="text/css">
	.st0{fill:#EBEBEB;}
	.st1{fill:#E6E6E6;}
	.st2{fill:#E0E0E0;}
	.st3{opacity:0.5;}
	.st4{fill:#F5F5F5;}
	.st5{fill:#263238;}
	.st6{opacity:0.8;fill:#FAFAFA;enable-background:new    ;}
	.st7{opacity:0.9;}
	.st8{fill:#FAFAFA;}
	.st9{opacity:0.7;fill:#FAFAFA;enable-background:new    ;}
	.st10{fill:#F97316;}
	.st11{fill:#FFFFFF;}
	.st12{opacity:0.2;enable-background:new    ;}
	.st13{fill:#FFC3BD;}
	.st14{opacity:0.4;fill:#FFFFFF;enable-background:new    ;}
	.st15{opacity:0.2;fill:#FFFFFF;enable-background:new    ;}
	.st16{opacity:0.3;enable-background:new    ;}
	.st17{fill:#ED847E;}
	.st18{opacity:0.5;fill:#FFFFFF;enable-background:new    ;}
	.st19{opacity:0.3;fill:#FFFFFF;enable-background:new    ;}
	.st20{opacity:0.2;fill:#FAFAFA;enable-background:new    ;}
	.st21{opacity:0.3;}
</style>
<g id="Layer_1">
	<g id="Layer_1_00000065050698055576599930000003619577854557595069_">
		<rect x="416.8" y="398.5" class="st0" width="33.1" height="0.2"/>
		<rect x="322.5" y="401.2" class="st0" width="8.7" height="0.2"/>
		<rect x="396.6" y="389.2" class="st0" width="19.2" height="0.2"/>
		<rect x="104.6" y="390.9" class="st0" width="6.3" height="0.2"/>
		<rect x="131.5" y="395.1" class="st0" width="93.7" height="0.2"/>
		<rect x="69.2" y="160.2" class="st1" width="351.8" height="15"/>
		<rect x="418" y="158.6" class="st2" width="3.4" height="18.2"/>
		<rect x="301.7" y="158.6" class="st2" width="3.4" height="18.2"/>
		<rect x="185.4" y="158.6" class="st2" width="3.4" height="18.2"/>
		<rect x="69.2" y="158.6" class="st2" width="3.4" height="18.2"/>
		<rect x="351" y="158.6" class="st2" width="23.6" height="18.2"/>
		<rect x="360.9" y="136.2" class="st2" width="4" height="24.8"/>
		<circle class="st2" cx="362.8" cy="134.7" r="10.1"/>
		<path class="st0" d="M370,134.7c0,4-3.2,7.2-7.2,7.2s-7.2-3.2-7.2-7.2s3.2-7.2,7.2-7.2S370,130.7,370,134.7L370,134.7z"/>
		<rect x="69.2" y="190.2" class="st1" width="351.8" height="15"/>
		<rect x="418" y="188.6" class="st2" width="3.4" height="18.2"/>
		<rect x="301.7" y="188.6" class="st2" width="3.4" height="18.2"/>
		<rect x="185.4" y="188.6" class="st2" width="3.4" height="18.2"/>
		<rect x="69.2" y="188.6" class="st2" width="3.4" height="18.2"/>
		<path class="st1" d="M69.2,221.2v15h250.6c13.1,0,23.8,10.6,23.8,23.8l0,0v122.6h15V259.8c0-21.3-17.3-38.6-38.6-38.6L69.2,221.2
			L69.2,221.2z"/>
		<rect x="301.7" y="219.6" class="st2" width="3.4" height="18.2"/>
		<rect x="185.4" y="219.6" class="st2" width="3.4" height="18.2"/>
		<rect x="69.2" y="219.6" class="st2" width="3.4" height="18.2"/>
		<rect x="342" y="379.6" class="st2" width="18.2" height="3.4"/>
		<rect x="342" y="274.4" class="st2" width="18.2" height="3.4"/>
		<g id="freepik--Shadow--inject-48" class="st3">
			<ellipse id="freepik--path--inject-48" class="st4" cx="250" cy="416.2" rx="193.9" ry="11.3"/>
		</g>
		<g id="freepik--Bricks--inject-48" class="st3">
			<path class="st5" d="M430.1,409.9c-0.9-0.2-1.9-0.3-2.8-0.4c-0.9-0.2-1.7-0.9-2.1-1.8c-2.5-1.9-4.2-5.3-5.7-7.4
				c-1-0.2-2-0.4-2.9-0.7h-0.1c-1.5,1-3.2,1.4-5,1.3c-1.9-0.1-3.9-2-3.1-4.1c0.8-2,1.9-3.5,4.1-4c0.8-0.1,1.6-0.2,2.4-0.2h0.3l0,0
				c0,0-0.3,0.2-0.2-0.1c0.6-1.1,1.9-1.7,3.2-1.5c4-1.4,5.7-1.2,5.7-5.6c0-0.6,0.1-1.2,0.3-1.8c0-0.6,0-1.1,0-1.7
				c0.1-2,1.5-5.5,0.7-6.9c-1-1.6-3.5-2.7-4.7-4.5c-0.1-0.1-0.1-0.2-0.2-0.4c-0.9-0.2-1.8-0.7-2.5-1.3c-1.1,0.3-2.2-0.1-2.9-0.9
				l-1.6-0.3c-0.5,0.3-1.1,0.5-1.7,0.4c-1.3,1.8-4.3,2.5-5.5,0c-2.1-4.5-0.9-10.4,5.2-9.6c0.7,0.1,1.4,0.4,2,0.8
				c1-0.1,2.1,0,3.1,0.2c0.7-0.4,1.6-0.7,2.4-0.7h3.9c0-0.1,0-0.2,0.1-0.4c0.1-1.7,0.1-3.3,0-5c-0.2-2.4,0.2-4.9,1-7.2l-0.3-0.8
				c-4.1-0.8-11.4-0.4-13.1-0.8c-0.9-0.2-1.7-0.8-2-1.6c-0.4-0.4-0.8-0.9-1-1.4c-0.5-1.3-0.8-2.6-0.9-4c0-1.2,0.6-2.2,1.6-2.8
				c0.5-0.2,1-0.4,1.5-0.6c0.6-0.7,1.3-1.2,2.1-1.6c0.9-1,2.2-1.6,3.5-1.5h0.3c1.2-0.4,2.3-1,3.2-1.8c1.6-1.3,3-2.9,5.3-2.6h0.1v-12
				c-6.2-0.1-12.5-2.1-16.1-7.5c-1.3-2-0.1-3.7,1.5-4.4c0.1-0.4,0.3-0.7,0.7-0.8l8.8-2.7L404,286.6l-15.4-5.2c0,0-4.1,11.2-9.5,11.1
				s-13.8,10.9-14.7,16.5s5.9,8.2,0,11.1s-4,10.5-6.6,15.7c-2.3,4.8-9.9,0.4-13.6,1.4c-6.6,1.7-5,11.6-13.2,12.5
				c-1.8,0.2-3.6-0.1-5.4,0c-1.6,0.1-3.2,0.6-4.6,1.4c-0.7,0.3-1.3,0.9-1.7,1.5c-1.5,2.9,3.7,6.7,1.5,9.1c-2.9,0.3-5.4,2.4-8.1,3.5
				c-6.3,2.6-13.4,0-20.1-1.4c-6-1.1-12-1.6-18.1-1.4c-4.4,0-9.6,0.3-8,3.9l0.4,0.3c1.2,0.9,2.2,2.2,2.7,3.6
				c0.4,0.4,0.7,0.8,0.9,1.3c0.3,1,0.1,2.1-0.5,2.9c-1,4.4-6.8,6.5-13.3,7.5c-0.1,0.3,0,0.5,0.1,0.8c-4.8,0.7-9.6,1-14.5,0.9
				c-1.9,0.1-3.7-0.1-5.5-0.5c-8,0.3-20.4,1.4-27-3c-6.3-4.2-5.6-10.6-13.6-13.2c-4.5-1.5-3.9-5.1-6.1-8.4
				c-3.1-4.9-8.2-3.2-10.6-8.1c-1.6-3.3-6.8-3.3-8.8-6.4c-1.1-1.8-0.9-4.1-0.5-6.1c0.1-0.5,0.3-0.9,0.6-1.3c0.4-0.4,1-0.5,1.4-0.8
				c0.9-0.7,0.8-2,1.1-3.1c1-3,5.2-3.4,6.5-6.2c-6.5-4.8-16.7-7.8-15.4-18.2c0.5-4.1-12.7-6.1-16.4-12s-10.9,3.6-16.5-8.5
				s-29.2-9.5-31.6-9.5s-6.8,12.1-13,13.7c-3.8,1-1.2,5.2,1.4,9c0.8-0.2,1.7-0.1,2.5,0.3l0.1,0.1c1.1-0.3,2.2-0.2,3.2,0.1
				c2,0.6,3,2.3,3.7,4.2c0.1,0.4,0.2,0.7,0.1,1.1c0.5,0.4,0.9,1,1.1,1.6c0.5,1.7-0.5,3.5-2.2,4l0,0c-0.1,0-0.2,0-0.3,0l-0.2,0.2
				c-1,0.8-2.4,0.9-3.6,0.2c-0.4-0.2-0.9-0.4-1.3-0.7c-0.6,1.1-1.8,2.1-4.5,2.6c-6.2,1.3-7.7,8.8-6.2,13.4c0.2,0.5,0.2,1.1,0.1,1.6
				c2.4,0,4.9,0.3,7.2,0.3c6.3,0.3,6.4,10,0,9.9c-0.3,0-0.7,0-1,0c-0.6,1.4-1.8,2.5-3.2,3c-1.4,0.6-2.8,1.3-4.1,2.1
				c0.4,3.9,1.2,8.5,0.7,12.5c0.6,0.1,1.3,0.3,1.9,0.5c2.1,0.7,3.9,2.2,4.9,4.2c1-0.6,2.3-0.7,3.3-0.1c0.9,0.6,1.5,1.5,1.6,2.6
				c0.2,0.1,0.5,0.1,0.7,0.2c0.1-0.1,0.3-0.1,0.4-0.2c0.4-0.2,0.8-0.3,1.2-0.3c0.4,0,0.9,0.1,1.2,0.3c0.4,0.1,0.7,0.4,1,0.7
				c0.1,0.2,0.3,0.3,0.4,0.5l0.4,0.3c0.4,0.4,0.7,0.9,0.8,1.4c0,0.3,0.1,0.6,0.1,0.9c0,0.4-0.1,0.9-0.3,1.2c-0.1,0.4-0.4,0.7-0.7,1
				c-0.3,0.3-0.6,0.5-1,0.7s-0.8,0.3-1.2,0.3c-0.2,0-0.4,0-0.6-0.1c-0.4,0.6-1,1-1.7,1.1c-1.8,0.4-3.6,0.2-5.3-0.5
				c-0.7,0.2-1.5,0.2-2.3,0.1c-0.5-0.1-1-0.2-1.5-0.4c-1.1,0.7-2.3,1.2-3.6,1.5c0.1,3.4,0.1,6.9-0.2,10.3c0,0.4,0,0.8,0,1.2
				c2.2,0.9,4.3,2.1,6.2,3.6c0.7,0.5,1.2,1.2,1.4,2h0.1c1.5-0.1,3,0.2,4.4,0.8c1.9,0.9,2,3.7,0.7,5.1c-0.3,0.4-0.7,0.7-1.1,1
				c-0.1,1.4-1,2.6-2.4,3c-0.4,0.1-0.9,0.2-1.3,0.2c-1.2,0.9-2.6,1.4-4.1,1.4h-0.2c-0.4,1.4-1.6,2.4-3.1,2.4c-0.2,0-0.5,0-0.7,0l0,0
				c0.1,0-0.7,0.4-0.4,0.2c-0.3,0.3-0.6,0.6-0.8,1c-1,1.6-2.3,2.9-3.9,3.9c-0.5,0.3-1.1,0.4-1.8,0.4c-0.8,1.2-1.6,2.5-2.3,3.8h362.8
				c0.1-0.3,0.1-0.6,0.1-0.9C432,412.3,430.8,411.3,430.1,409.9z"/>
			<path class="st6" d="M430.1,409.9c-0.9-0.2-1.9-0.3-2.8-0.4c-0.9-0.2-1.7-0.9-2.1-1.8c-2.5-1.9-4.2-5.3-5.7-7.4
				c-1-0.2-2-0.4-2.9-0.7h-0.1c-1.5,1-3.2,1.4-5,1.3c-1.9-0.1-3.9-2-3.1-4.1c0.8-2,1.9-3.5,4.1-4c0.8-0.1,1.6-0.2,2.4-0.2h0.3l0,0
				c0,0-0.3,0.2-0.2-0.1c0.6-1.1,1.9-1.7,3.2-1.5c4-1.4,5.7-1.2,5.7-5.6c0-0.6,0.1-1.2,0.3-1.8c0-0.6,0-1.1,0-1.7
				c0.1-2,1.5-5.5,0.7-6.9c-1-1.6-3.5-2.7-4.7-4.5c-0.1-0.1-0.1-0.2-0.2-0.4c-0.9-0.2-1.8-0.7-2.5-1.3c-1.1,0.3-2.2-0.1-2.9-0.9
				l-1.6-0.3c-0.5,0.3-1.1,0.5-1.7,0.4c-1.3,1.8-4.3,2.5-5.5,0c-2.1-4.5-0.9-10.4,5.2-9.6c0.7,0.1,1.4,0.4,2,0.8
				c1-0.1,2.1,0,3.1,0.2c0.7-0.4,1.6-0.7,2.4-0.7h3.9c0-0.1,0-0.2,0.1-0.4c0.1-1.7,0.1-3.3,0-5c-0.2-2.4,0.2-4.9,1-7.2l-0.3-0.8
				c-4.1-0.8-11.4-0.4-13.1-0.8c-0.9-0.2-1.7-0.8-2-1.6c-0.4-0.4-0.8-0.9-1-1.4c-0.5-1.3-0.8-2.6-0.9-4c0-1.2,0.6-2.2,1.6-2.8
				c0.5-0.2,1-0.4,1.5-0.6c0.6-0.7,1.3-1.2,2.1-1.6c0.9-1,2.2-1.6,3.5-1.5h0.3c1.2-0.4,2.3-1,3.2-1.8c1.6-1.3,3-2.9,5.3-2.6h0.1v-12
				c-6.2-0.1-12.5-2.1-16.1-7.5c-1.3-2-0.1-3.7,1.5-4.4c0.1-0.4,0.3-0.7,0.7-0.8l8.8-2.7L404,286.6l-15.4-5.2c0,0-4.1,11.2-9.5,11.1
				s-13.8,10.9-14.7,16.5s5.9,8.2,0,11.1s-4,10.5-6.6,15.7c-2.3,4.8-9.9,0.4-13.6,1.4c-6.6,1.7-5,11.6-13.2,12.5
				c-1.8,0.2-3.6-0.1-5.4,0c-1.6,0.1-3.2,0.6-4.6,1.4c-0.7,0.3-1.3,0.9-1.7,1.5c-1.5,2.9,3.7,6.7,1.5,9.1c-2.9,0.3-5.4,2.4-8.1,3.5
				c-6.3,2.6-13.4,0-20.1-1.4c-6-1.1-12-1.6-18.1-1.4c-4.4,0-9.6,0.3-8,3.9l0.4,0.3c1.2,0.9,2.2,2.2,2.7,3.6
				c0.4,0.4,0.7,0.8,0.9,1.3c0.3,1,0.1,2.1-0.5,2.9c-1,4.4-6.8,6.5-13.3,7.5c-0.1,0.3,0,0.5,0.1,0.8c-4.8,0.7-9.6,1-14.5,0.9
				c-1.9,0.1-3.7-0.1-5.5-0.5c-8,0.3-20.4,1.4-27-3c-6.3-4.2-5.6-10.6-13.6-13.2c-4.5-1.5-3.9-5.1-6.1-8.4
				c-3.1-4.9-8.2-3.2-10.6-8.1c-1.6-3.3-6.8-3.3-8.8-6.4c-1.1-1.8-0.9-4.1-0.5-6.1c0.1-0.5,0.3-0.9,0.6-1.3c0.4-0.4,1-0.5,1.4-0.8
				c0.9-0.7,0.8-2,1.1-3.1c1-3,5.2-3.4,6.5-6.2c-6.5-4.8-16.7-7.8-15.4-18.2c0.5-4.1-12.7-6.1-16.4-12s-10.9,3.6-16.5-8.5
				s-29.2-9.5-31.6-9.5s-6.8,12.1-13,13.7c-3.8,1-1.2,5.2,1.4,9c0.8-0.2,1.7-0.1,2.5,0.3l0.1,0.1c1.1-0.3,2.2-0.2,3.2,0.1
				c2,0.6,3,2.3,3.7,4.2c0.1,0.4,0.2,0.7,0.1,1.1c0.5,0.4,0.9,1,1.1,1.6c0.5,1.7-0.5,3.5-2.2,4l0,0c-0.1,0-0.2,0-0.3,0l-0.2,0.2
				c-1,0.8-2.4,0.9-3.6,0.2c-0.4-0.2-0.9-0.4-1.3-0.7c-0.6,1.1-1.8,2.1-4.5,2.6c-6.2,1.3-7.7,8.8-6.2,13.4c0.2,0.5,0.2,1.1,0.1,1.6
				c2.4,0,4.9,0.3,7.2,0.3c6.3,0.3,6.4,10,0,9.9c-0.3,0-0.7,0-1,0c-0.6,1.4-1.8,2.5-3.2,3c-1.4,0.6-2.8,1.3-4.1,2.1
				c0.4,3.9,1.2,8.5,0.7,12.5c0.6,0.1,1.3,0.3,1.9,0.5c2.1,0.7,3.9,2.2,4.9,4.2c1-0.6,2.3-0.7,3.3-0.1c0.9,0.6,1.5,1.5,1.6,2.6
				c0.2,0.1,0.5,0.1,0.7,0.2c0.1-0.1,0.3-0.1,0.4-0.2c0.4-0.2,0.8-0.3,1.2-0.3c0.4,0,0.9,0.1,1.2,0.3c0.4,0.1,0.7,0.4,1,0.7
				c0.1,0.2,0.3,0.3,0.4,0.5l0.4,0.3c0.4,0.4,0.7,0.9,0.8,1.4c0,0.3,0.1,0.6,0.1,0.9c0,0.4-0.1,0.9-0.3,1.2c-0.1,0.4-0.4,0.7-0.7,1
				c-0.3,0.3-0.6,0.5-1,0.7s-0.8,0.3-1.2,0.3c-0.2,0-0.4,0-0.6-0.1c-0.4,0.6-1,1-1.7,1.1c-1.8,0.4-3.6,0.2-5.3-0.5
				c-0.7,0.2-1.5,0.2-2.3,0.1c-0.5-0.1-1-0.2-1.5-0.4c-1.1,0.7-2.3,1.2-3.6,1.5c0.1,3.4,0.1,6.9-0.2,10.3c0,0.4,0,0.8,0,1.2
				c2.2,0.9,4.3,2.1,6.2,3.6c0.7,0.5,1.2,1.2,1.4,2h0.1c1.5-0.1,3,0.2,4.4,0.8c1.9,0.9,2,3.7,0.7,5.1c-0.3,0.4-0.7,0.7-1.1,1
				c-0.1,1.4-1,2.6-2.4,3c-0.4,0.1-0.9,0.2-1.3,0.2c-1.2,0.9-2.6,1.4-4.1,1.4h-0.2c-0.4,1.4-1.6,2.4-3.1,2.4c-0.2,0-0.5,0-0.7,0l0,0
				c0.1,0-0.7,0.4-0.4,0.2c-0.3,0.3-0.6,0.6-0.8,1c-1,1.6-2.3,2.9-3.9,3.9c-0.5,0.3-1.1,0.4-1.8,0.4c-0.8,1.2-1.6,2.5-2.3,3.8h362.8
				c0.1-0.3,0.1-0.6,0.1-0.9C432,412.3,430.8,411.3,430.1,409.9z"/>
			<rect x="388.6" y="402.2" class="st5" width="35.3" height="12"/>
			<rect x="350.1" y="402.2" class="st5" width="35.3" height="12"/>
			<rect x="311.6" y="402.2" class="st5" width="35.3" height="12"/>
			<rect x="273.1" y="402.2" class="st5" width="35.3" height="12"/>
			<rect x="234.6" y="402.2" class="st5" width="35.3" height="12"/>
			<rect x="196.1" y="402.2" class="st5" width="35.3" height="12"/>
			<rect x="157.6" y="402.2" class="st5" width="35.3" height="12"/>
			<rect x="119.1" y="402.2" class="st5" width="35.3" height="12"/>
			<rect x="80.6" y="402.2" class="st5" width="35.3" height="12"/>
			<rect x="388.6" y="373.4" class="st5" width="35.3" height="12"/>
			<rect x="350.1" y="373.4" class="st5" width="35.3" height="12"/>
			<rect x="311.6" y="373.4" class="st5" width="35.3" height="12"/>
			<rect x="273.1" y="373.4" class="st5" width="35.3" height="12"/>
			<rect x="196.1" y="373.4" class="st5" width="35.3" height="12"/>
			<rect x="157.6" y="373.4" class="st5" width="35.3" height="12"/>
			<rect x="119.1" y="373.4" class="st5" width="35.3" height="12"/>
			<rect x="80.6" y="373.4" class="st5" width="35.3" height="12"/>
			<rect x="388.6" y="344.7" class="st5" width="35.3" height="12"/>
			<rect x="350.1" y="344.7" class="st5" width="35.3" height="12"/>
			<rect x="311.6" y="344.7" class="st5" width="35.3" height="12"/>
			<rect x="157.6" y="344.7" class="st5" width="35.3" height="12"/>
			<rect x="119.1" y="344.7" class="st5" width="35.3" height="12"/>
			<rect x="80.6" y="344.7" class="st5" width="35.3" height="12"/>
			<rect x="388.6" y="315.9" class="st5" width="35.3" height="12"/>
			<rect x="350.1" y="315.9" class="st5" width="35.3" height="12"/>
			
				<rect x="169.1" y="304.4" transform="matrix(0.1829 -0.9831 0.9831 0.1829 -173.4834 435.3681)" class="st5" width="12.1" height="35.3"/>
			<rect x="119.1" y="315.9" class="st5" width="35.3" height="12"/>
			<rect x="80.6" y="315.9" class="st5" width="35.3" height="12"/>
			<rect x="369.4" y="387.8" class="st5" width="35.3" height="12"/>
			<rect x="330.9" y="387.8" class="st5" width="35.3" height="12"/>
			<rect x="292.4" y="387.8" class="st5" width="35.3" height="12"/>
			<rect x="253.9" y="387.8" class="st5" width="35.3" height="12"/>
			<rect x="215.4" y="387.8" class="st5" width="35.3" height="12"/>
			<rect x="176.9" y="387.8" class="st5" width="35.3" height="12"/>
			<rect x="138.4" y="387.8" class="st5" width="35.3" height="12"/>
			<rect x="99.8" y="387.8" class="st5" width="35.3" height="12"/>
			<rect x="369.4" y="359" class="st5" width="35.3" height="12"/>
			<rect x="330.9" y="359" class="st5" width="35.3" height="12"/>
			<rect x="292.4" y="359" class="st5" width="35.3" height="12"/>
			<rect x="253.9" y="359" class="st5" width="35.3" height="12"/>
			<rect x="176.9" y="359" class="st5" width="35.3" height="12"/>
			<rect x="138.4" y="359" class="st5" width="35.3" height="12"/>
			<rect x="99.8" y="359" class="st5" width="35.3" height="12"/>
			<rect x="369.4" y="330.3" class="st5" width="35.3" height="12"/>
			<rect x="330.9" y="330.3" class="st5" width="35.3" height="12"/>
			<rect x="138.4" y="330.3" class="st5" width="35.3" height="12"/>
			<rect x="99.8" y="330.3" class="st5" width="35.3" height="12"/>
			<rect x="383.6" y="287.2" class="st5" width="35.3" height="12"/>
			
				<rect x="346.4" y="293.5" transform="matrix(0.7958 -0.6056 0.6056 0.7958 -107.0292 281.634)" class="st5" width="35.3" height="12"/>
			<rect x="119.1" y="287.2" class="st5" width="35.3" height="12"/>
			<rect x="80.6" y="287.2" class="st5" width="35.3" height="12"/>
			<rect x="369.4" y="301.5" class="st5" width="35.3" height="12"/>
			
				<rect x="138.6" y="302.9" transform="matrix(0.996 -8.960740e-02 8.960740e-02 0.996 -27.0559 15.2533)" class="st5" width="35.5" height="12.1"/>
			<rect x="99.8" y="301.5" class="st5" width="35.3" height="12"/>
			
				<rect x="381" y="261.4" transform="matrix(0.1005 -0.9949 0.9949 0.1005 70.4738 636.0737)" class="st5" width="12" height="35.3"/>
			<rect x="99.8" y="272.8" class="st5" width="35.3" height="12"/>
			<g class="st7">
				<rect x="388.6" y="402.2" class="st8" width="35.3" height="12"/>
				<rect x="350.1" y="402.2" class="st8" width="35.3" height="12"/>
				<rect x="311.6" y="402.2" class="st8" width="35.3" height="12"/>
				<rect x="273.1" y="402.2" class="st8" width="35.3" height="12"/>
				<rect x="234.6" y="402.2" class="st8" width="35.3" height="12"/>
				<rect x="196.1" y="402.2" class="st8" width="35.3" height="12"/>
				<rect x="157.6" y="402.2" class="st8" width="35.3" height="12"/>
				<rect x="119.1" y="402.2" class="st8" width="35.3" height="12"/>
				<rect x="80.6" y="402.2" class="st8" width="35.3" height="12"/>
				<rect x="388.6" y="373.4" class="st8" width="35.3" height="12"/>
				<rect x="350.1" y="373.4" class="st8" width="35.3" height="12"/>
				<rect x="311.6" y="373.4" class="st8" width="35.3" height="12"/>
				<rect x="273.1" y="373.4" class="st8" width="35.3" height="12"/>
				<rect x="196.1" y="373.4" class="st8" width="35.3" height="12"/>
				<rect x="157.6" y="373.4" class="st8" width="35.3" height="12"/>
				<rect x="119.1" y="373.4" class="st8" width="35.3" height="12"/>
				<rect x="80.6" y="373.4" class="st8" width="35.3" height="12"/>
				<rect x="388.6" y="344.7" class="st8" width="35.3" height="12"/>
				<rect x="350.1" y="344.7" class="st8" width="35.3" height="12"/>
				<rect x="311.6" y="344.7" class="st8" width="35.3" height="12"/>
				<rect x="157.6" y="344.7" class="st8" width="35.3" height="12"/>
				<rect x="119.1" y="344.7" class="st8" width="35.3" height="12"/>
				<rect x="80.6" y="344.7" class="st8" width="35.3" height="12"/>
				<rect x="388.6" y="315.9" class="st8" width="35.3" height="12"/>
				<rect x="350.1" y="315.9" class="st8" width="35.3" height="12"/>
				
					<rect x="169.1" y="304.4" transform="matrix(0.1829 -0.9831 0.9831 0.1829 -173.4834 435.3681)" class="st8" width="12.1" height="35.3"/>
				<rect x="119.1" y="315.9" class="st8" width="35.3" height="12"/>
				<rect x="80.6" y="315.9" class="st8" width="35.3" height="12"/>
				<rect x="369.4" y="387.8" class="st8" width="35.3" height="12"/>
				<rect x="330.9" y="387.8" class="st8" width="35.3" height="12"/>
				<rect x="292.4" y="387.8" class="st8" width="35.3" height="12"/>
				<rect x="253.9" y="387.8" class="st8" width="35.3" height="12"/>
				<rect x="215.4" y="387.8" class="st8" width="35.3" height="12"/>
				<rect x="176.9" y="387.8" class="st8" width="35.3" height="12"/>
				<rect x="138.4" y="387.8" class="st8" width="35.3" height="12"/>
				<rect x="99.8" y="387.8" class="st8" width="35.3" height="12"/>
				<rect x="369.4" y="359" class="st8" width="35.3" height="12"/>
				<rect x="330.9" y="359" class="st8" width="35.3" height="12"/>
				<rect x="292.4" y="359" class="st8" width="35.3" height="12"/>
				<rect x="253.9" y="359" class="st8" width="35.3" height="12"/>
				<rect x="176.9" y="359" class="st8" width="35.3" height="12"/>
				<rect x="138.4" y="359" class="st8" width="35.3" height="12"/>
				<rect x="99.8" y="359" class="st8" width="35.3" height="12"/>
				<rect x="369.4" y="330.3" class="st8" width="35.3" height="12"/>
				<rect x="330.9" y="330.3" class="st8" width="35.3" height="12"/>
				<rect x="138.4" y="330.3" class="st8" width="35.3" height="12"/>
				<rect x="99.8" y="330.3" class="st8" width="35.3" height="12"/>
				<rect x="383.6" y="287.2" class="st8" width="35.3" height="12"/>
				
					<rect x="346.4" y="293.5" transform="matrix(0.7958 -0.6056 0.6056 0.7958 -107.0292 281.634)" class="st8" width="35.3" height="12"/>
				<rect x="119.1" y="287.2" class="st8" width="35.3" height="12"/>
				<rect x="80.6" y="287.2" class="st8" width="35.3" height="12"/>
				<rect x="369.4" y="301.5" class="st8" width="35.3" height="12"/>
				
					<rect x="138.6" y="302.9" transform="matrix(0.996 -8.960740e-02 8.960740e-02 0.996 -27.0559 15.2533)" class="st8" width="35.5" height="12.1"/>
				<rect x="99.8" y="301.5" class="st8" width="35.3" height="12"/>
				
					<rect x="381" y="261.4" transform="matrix(0.1005 -0.9949 0.9949 0.1005 70.4738 636.0737)" class="st8" width="12" height="35.3"/>
				<rect x="99.8" y="272.8" class="st8" width="35.3" height="12"/>
			</g>
			<path class="st5" d="M299.5,416.5c-0.8-1-1.8-1.7-3-2.2c-2.3-0.7-2.2-3.1-4.5-4.1s-3.5,0.1-10.5-0.2s-2.8-1-11.5-2.8
				s-3.7-0.1-7.3-0.8s-5.9-0.9-9.2-1.9s-6.1-1.6-9-4.6s-5.8-1.3-8.4-1s-7.1,1-19.2,2.7s-3.7,3.4-6.8,6s-8.7-0.5-11.3,1.3
				s-9.2,4-13.2,3.8c-3.3-0.1-4.9,2.8-5.4,3.9L299.5,416.5z"/>
			<path class="st9" d="M299.5,416.5c-0.8-1-1.8-1.7-3-2.2c-2.3-0.7-2.2-3.1-4.5-4.1s-3.5,0.1-10.5-0.2s-2.8-1-11.5-2.8
				s-3.7-0.1-7.3-0.8s-5.9-0.9-9.2-1.9s-6.1-1.6-9-4.6s-5.8-1.3-8.4-1s-7.1,1-19.2,2.7s-3.7,3.4-6.8,6s-8.7-0.5-11.3,1.3
				s-9.2,4-13.2,3.8c-3.3-0.1-4.9,2.8-5.4,3.9L299.5,416.5z"/>
			<polygon class="st5" points="212.2,403.4 217,410.4 249.2,402.5 244.3,395.4 			"/>
			<polygon class="st6" points="212.2,403.4 217,410.4 249.2,402.5 244.3,395.4 			"/>
			<polygon class="st5" points="244.9,410.4 253.9,402.5 258.9,405.4 265.4,406.3 257.2,414.7 			"/>
			<polygon class="st6" points="244.9,410.4 253.9,402.5 258.9,405.4 265.4,406.3 257.2,414.7 			"/>
			<path class="st5" d="M172.7,416.5c-1.2-1.3-3.4-3.2-4.3-3.4c-1.4-0.3-2.9-0.3-4.4,0c-2.4,0.4-2.2-1.9-4.4-2.7s-6.3-2.4-8.7-3.4
				s-3.8,0-5.3,0.9s-4.8,0.3-8.9,2.5s-7.4,3.9-10.1,4.3c-1.6,0.4-3.1,1-4.5,1.8L172.7,416.5z"/>
			<path class="st9" d="M172.7,416.5c-1.2-1.3-3.4-3.2-4.3-3.4c-1.4-0.3-2.9-0.3-4.4,0c-2.4,0.4-2.2-1.9-4.4-2.7s-6.3-2.4-8.7-3.4
				s-3.8,0-5.3,0.9s-4.8,0.3-8.9,2.5s-7.4,3.9-10.1,4.3c-1.6,0.4-3.1,1-4.5,1.8L172.7,416.5z"/>
		</g>
		<g id="freepik--speech-bubble--inject-48">
			<path class="st10" d="M333.1,169h42.7c4.9,0,8.8,3.9,8.9,8.8l0,0v15c0,4.9-4,8.8-8.8,8.8l0,0h-28.4l-13,13.9l7-13.9H333
				c-4.9,0-8.8-3.9-8.9-8.8l0,0v-15C324.2,173,328.1,169,333.1,169C333,169,333,169,333.1,169z"/>
			<path class="st11" d="M335.2,184.5c-0.1-2.8,2.1-5.2,4.9-5.3s5.2,2.1,5.3,4.9c0.1,2.8-2.1,5.2-4.9,5.3c-0.1,0-0.1,0-0.2,0
				c-2.7,0.1-4.9-1.9-5.1-4.6C335.2,184.7,335.2,184.6,335.2,184.5z M343.9,184.5c0-2-1.6-3.7-3.7-3.8c-2,0-3.7,1.6-3.8,3.7
				c0,2,1.6,3.7,3.7,3.8c0,0,0,0,0.1,0c2,0.1,3.6-1.5,3.7-3.5C343.9,184.6,343.9,184.5,343.9,184.5z"/>
			<path class="st11" d="M346.5,185.6c0-2.1,1.6-3.8,3.7-3.8s3.8,1.6,3.8,3.7c0,2.1-1.6,3.8-3.7,3.8c0,0,0,0-0.1,0
				c-2,0.1-3.7-1.4-3.8-3.4C346.5,185.8,346.5,185.7,346.5,185.6z M352.7,185.6c-0.1-1.3-1.2-2.4-2.5-2.3c-1.3,0.1-2.4,1.2-2.3,2.5
				s1.1,2.3,2.4,2.3s2.4-1,2.4-2.3C352.7,185.8,352.7,185.7,352.7,185.6z"/>
			<path class="st11" d="M363.3,185.6c0.1,1.9-1.4,3.6-3.3,3.7c-0.1,0-0.2,0-0.3,0c-1,0-1.9-0.4-2.5-1.2v3.7h-1.3V182h1.2v1.1
				c0.6-0.8,1.6-1.3,2.6-1.2c1.9-0.1,3.6,1.4,3.7,3.3C363.3,185.4,363.3,185.5,363.3,185.6z M362,185.6c-0.1-1.3-1.2-2.4-2.5-2.3
				c-1.3,0.1-2.4,1.2-2.3,2.5s1.1,2.3,2.4,2.3s2.4-1,2.4-2.3C362,185.8,362,185.7,362,185.6z"/>
			<path class="st11" d="M364.2,188.5l0.5-1c0.8,0.5,1.6,0.7,2.5,0.8c1.2,0,1.7-0.4,1.7-1c0-1.6-4.6-0.2-4.6-3.1
				c0-1.3,1.2-2.2,3-2.2c0.9,0,1.8,0.2,2.6,0.6l-0.6,1c-0.6-0.4-1.3-0.6-2.1-0.6c-1.1,0-1.7,0.4-1.7,1c0,1.7,4.6,0.3,4.6,3.1
				c0,1.3-1.2,2.1-3.1,2.1C366.1,189.3,365.1,189,364.2,188.5z"/>
			<path class="st11" d="M371.7,188.5c0-0.5,0.4-0.9,0.9-0.9l0,0c0.5,0.1,0.8,0.5,0.8,1c0,0.4-0.4,0.7-0.8,0.8
				C372.1,189.3,371.7,189,371.7,188.5L371.7,188.5z M371.8,179.7h1.5l-0.3,6.5h-1L371.8,179.7z"/>
		</g>
		<g id="freepik--Character--inject-48">
			<path class="st11" d="M259.1,291.2c0.4,0.4-0.9,2.2-2.8,4.1s-3.8,3-4.2,2.6s0.9-2.2,2.8-4.1C256.9,292,258.8,290.8,259.1,291.2z"
				/>
			<path class="st10" d="M261.7,295.8l22.2,23c0.5,0.5,0.5,1.3,0,1.8l0,0l-3.1,3c-0.5,0.5-1.3,0.5-1.8,0l0,0l-22.2-23L261.7,295.8z"
				/>
			<polygon class="st10" points="262.7,297 259.8,291.5 252.4,298.6 257.8,301.7 			"/>
			<polygon class="st12" points="262.7,297 259.8,291.5 252.4,298.6 257.8,301.7 			"/>
			<path class="st10" d="M251.8,298l7.4-7.2c0.1-0.1,0.4-0.1,0.5,0l0.7,0.7c0.1,0.1,0.1,0.4,0,0.5l-7.4,7.2c-0.1,0.1-0.4,0.1-0.5,0
				l-0.7-0.7C251.7,298.3,251.7,298.1,251.8,298z"/>
			<path class="st12" d="M283.5,318.5l0.3,0.3c0.5,0.5,0.5,1.3,0,1.8l0,0l-3.1,3c-0.5,0.5-1.3,0.5-1.8,0l0,0l-0.3-0.3L283.5,318.5z"
				/>
			<path class="st12" d="M266.6,305.9L266.6,305.9c-0.2,0.3-0.7,0.3-0.9,0.1c0,0,0,0-0.1-0.1l-3.5-3.6c-0.3-0.3-0.3-0.7,0-1l0,0l0,0
				c0.3-0.3,0.7-0.3,1,0l0,0l3.5,3.6C266.8,305.1,266.9,305.6,266.6,305.9C266.6,305.8,266.6,305.9,266.6,305.9z"/>
			<path class="st13" d="M351.1,261.3c7.3,5.1,13.4,11.6,18.9,18.5c4.8,6.1,7.7,13.4,9.9,20.6c1.5,5.1,2.7,10.2,3.4,15.5l-6.4,1.6
				c-4.1-9.9-8.2-20.5-14.9-28.7c-5-5.1-10.3-10-15.9-14.5c-0.6-0.5-2-1.6-2.6-2.1L351.1,261.3L351.1,261.3z"/>
			<path class="st10" d="M343.3,256.9c11-0.1,20.4,14.2,20.4,14.2l-11.1,11.7c0,0-11.8-6.7-18.3-12.5
				C326.3,263.3,334.9,257,343.3,256.9z"/>
			
				<rect x="357.2" y="262.7" transform="matrix(0.6148 -0.7887 0.7887 0.6148 -71.1558 383.922)" class="st14" width="0.5" height="4.2"/>
			<path class="st14" d="M350.5,259l-0.8-0.6c-0.6-0.3-1.2-0.5-1.8-0.7l2.2,1.7L350.5,259z"/>
			<path class="st14" d="M361.6,268.3l-0.4-0.5l-0.1,0.1L361.6,268.3z"/>
			
				<rect x="353.7" y="260.1" transform="matrix(0.6148 -0.7887 0.7887 0.6148 -70.3263 380.1049)" class="st14" width="0.5" height="3.9"/>
			<path class="st14" d="M334.7,261l-1.1-0.8c-0.1,0.1-0.3,0.2-0.4,0.4l1.1,0.9L334.7,261z"/>
			
				<rect x="346.7" y="268.9" transform="matrix(0.6146 -0.7889 0.7889 0.6146 -79.944 378.1049)" class="st14" width="0.5" height="3.9"/>
			
				<rect x="337.9" y="262.1" transform="matrix(0.6148 -0.7887 0.7887 0.6148 -77.9583 368.4033)" class="st14" width="0.5" height="3.8"/>
			
				<rect x="350.3" y="271.6" transform="matrix(0.6147 -0.7888 0.7888 0.6147 -80.8216 381.9785)" class="st14" width="0.5" height="4.2"/>
			
				<rect x="341.5" y="264.6" transform="matrix(0.6147 -0.7888 0.7888 0.6147 -78.6788 372.3441)" class="st14" width="0.5" height="4.2"/>
			<polygon class="st14" points="354.1,276.8 356.6,278.7 357,278.3 354.5,276.3 			"/>
			
				<rect x="349.2" y="264.4" transform="matrix(0.6147 -0.7888 0.7888 0.6147 -75.0389 379.112)" class="st12" width="2.6" height="3.9"/>
			
				<rect x="340.3" y="257.5" transform="matrix(0.6147 -0.7888 0.7888 0.6147 -72.983 369.4039)" class="st12" width="2.6" height="3.8"/>
			
				<rect x="343.9" y="260.1" transform="matrix(0.6147 -0.7888 0.7888 0.6147 -73.8061 373.3249)" class="st12" width="2.6" height="4.2"/>
			<polygon class="st12" points="357,273.1 359.8,275.3 361.6,273.4 358.6,271 			"/>
			
				<rect x="353" y="267.1" transform="matrix(0.6147 -0.7888 0.7888 0.6147 -75.8252 383.2186)" class="st12" width="2.6" height="4.2"/>
			
				<rect x="333.4" y="266.4" transform="matrix(0.6147 -0.7888 0.7888 0.6147 -82.6677 367.3926)" class="st12" width="2.6" height="3.8"/>
			
				<rect x="342.5" y="273.3" transform="matrix(0.6147 -0.7888 0.7888 0.6147 -84.6454 377.2405)" class="st12" width="2.6" height="3.9"/>
			<path class="st12" d="M331.2,263.9c-0.1,0.5-0.1,1.1,0,1.6l0.8-1L331.2,263.9z"/>
			<path class="st12" d="M350.4,281.6l2.2,1.3l1.3-1.3l-2.1-1.7L350.4,281.6z"/>
			<path class="st12" d="M346.4,275.7l-1.6,2.1l2.2,1.7l1.2,0.8l1.5-2L346.4,275.7z"/>
			
				<rect x="337" y="269" transform="matrix(0.6147 -0.7888 0.7888 0.6147 -83.4908 371.3122)" class="st12" width="2.6" height="4.2"/>
			<path class="st15" d="M332.1,267.9c0.1,0.1,0.1,0.2,0.2,0.3l0.1-0.1L332.1,267.9z"/>
			<path class="st15" d="M341,257.1h-0.2l0.1,0.1L341,257.1z"/>
			<path class="st15" d="M336.8,262.6l2.5-3.3l-1.7-1.3l-0.8,0.3l-2.1,2.7L336.8,262.6z"/>
			
				<rect x="332.3" y="262.4" transform="matrix(0.6147 -0.7888 0.7888 0.6147 -79.2023 365.2713)" class="st15" width="3.9" height="2.6"/>
			
				<rect x="335.3" y="260.7" transform="matrix(0.6147 -0.7888 0.7888 0.6147 -77.3731 365.6392)" class="st14" width="0.5" height="2.6"/>
			
				<rect x="335.3" y="260.7" transform="matrix(0.6147 -0.7888 0.7888 0.6147 -77.3731 365.6392)" class="st15" width="0.5" height="2.6"/>
			<path class="st12" d="M340.9,257.2l-0.1-0.1c-1.1,0.2-2.2,0.4-3.2,0.8l1.7,1.4L340.9,257.2z"/>
			<path class="st15" d="M340.9,257.2l-0.1-0.1c-1.1,0.2-2.2,0.4-3.2,0.8l1.7,1.4L340.9,257.2z"/>
			<path class="st12" d="M332.4,268.1l1.6-2.1l-2-1.6l-0.8,1c0.1,0.9,0.5,1.7,0.9,2.4L332.4,268.1z"/>
			<path class="st15" d="M332.4,268.1l1.6-2.1l-2-1.6l-0.8,1c0.1,0.9,0.5,1.7,0.9,2.4L332.4,268.1z"/>
			
				<rect x="341.1" y="269.3" transform="matrix(0.6147 -0.7888 0.7888 0.6147 -81.259 374.8681)" class="st15" width="3.9" height="2.6"/>
			<path class="st15" d="M352.5,260.6l0.4-0.4c-0.7-0.5-1.5-0.9-2.3-1.3l-0.1,0.2L352.5,260.6z"/>
			
				<rect x="348.1" y="260.4" transform="matrix(0.6147 -0.7888 0.7888 0.6147 -71.532 376.9903)" class="st15" width="4" height="2.6"/>
			
				<rect x="343.8" y="265.7" transform="matrix(0.6147 -0.7888 0.7888 0.6147 -77.3433 375.69)" class="st15" width="4.1" height="2.6"/>
			<path class="st15" d="M339.2,273.4l-0.4,0.5c0.7,0.5,1.4,1,2.1,1.5l0.4-0.5L339.2,273.4z"/>
			
				<rect x="351.1" y="258.7" transform="matrix(0.6147 -0.7888 0.7888 0.6147 -69.7043 377.3342)" class="st14" width="0.5" height="2.6"/>
			
				<rect x="351.1" y="258.7" transform="matrix(0.6147 -0.7888 0.7888 0.6147 -69.7043 377.3342)" class="st15" width="0.5" height="2.6"/>
			
				<rect x="344.7" y="267.6" transform="matrix(0.6146 -0.7889 0.7889 0.6146 -79.2016 375.734)" class="st14" width="0.5" height="2.6"/>
			
				<rect x="344.7" y="267.6" transform="matrix(0.6146 -0.7889 0.7889 0.6146 -79.2016 375.734)" class="st15" width="0.5" height="2.6"/>
			
				<rect x="347.1" y="263.1" transform="matrix(0.6147 -0.7888 0.7888 0.6147 -74.2843 376.661)" class="st12" width="2.6" height="2.6"/>
			
				<rect x="347.1" y="263.1" transform="matrix(0.6147 -0.7888 0.7888 0.6147 -74.2843 376.661)" class="st15" width="2.6" height="2.6"/>
			
				<rect x="339.7" y="271.9" transform="matrix(0.6147 -0.7888 0.7888 0.6147 -84.105 374.2495)" class="st12" width="2.6" height="2.6"/>
			
				<rect x="339.7" y="271.9" transform="matrix(0.6147 -0.7888 0.7888 0.6147 -84.105 374.2495)" class="st15" width="2.6" height="2.6"/>
			<path class="st15" d="M359.9,266.3l-0.5-0.5l-0.1,0.1L359.9,266.3z"/>
			
				<rect x="356.8" y="267.4" transform="matrix(0.6147 -0.7888 0.7888 0.6147 -73.6983 386.5626)" class="st15" width="4" height="2.6"/>
			
				<rect x="349.9" y="276.2" transform="matrix(0.6147 -0.7888 0.7888 0.6147 -83.3182 384.4665)" class="st15" width="3.9" height="2.6"/>
			
				<rect x="352.6" y="272.6" transform="matrix(0.6147 -0.7888 0.7888 0.6147 -79.3975 385.2856)" class="st15" width="4.1" height="2.6"/>
			<path class="st14" d="M359,266.3l2.1,1.6l0.1-0.1c-0.4-0.5-0.8-1-1.3-1.5l-0.5-0.4L359,266.3z"/>
			<path class="st15" d="M359,266.3l2.1,1.6l0.1-0.1c-0.4-0.5-0.8-1-1.3-1.5l-0.5-0.4L359,266.3z"/>
			
				<rect x="353" y="274.4" transform="matrix(0.6147 -0.7888 0.7888 0.6147 -81.3496 384.8782)" class="st14" width="0.5" height="2.6"/>
			
				<rect x="353" y="274.4" transform="matrix(0.6147 -0.7888 0.7888 0.6147 -81.3496 384.8782)" class="st15" width="0.5" height="2.6"/>
			
				<rect x="355.5" y="269.9" transform="matrix(0.6147 -0.7888 0.7888 0.6147 -76.4288 385.9462)" class="st12" width="2.6" height="2.6"/>
			
				<rect x="355.5" y="269.9" transform="matrix(0.6147 -0.7888 0.7888 0.6147 -76.4288 385.9462)" class="st15" width="2.6" height="2.6"/>
			<path class="st12" d="M349.7,278.2l-1.5,2l2.2,1.4l1.3-1.7L349.7,278.2z"/>
			<path class="st15" d="M349.7,278.2l-1.5,2l2.2,1.4l1.3-1.7L349.7,278.2z"/>
			<path class="st16" d="M335.5,270.5L335,271l0.4,0.3l0.4-0.5L335.5,270.5z"/>
			
				<rect x="339.2" y="263.2" transform="matrix(0.6147 -0.7888 0.7888 0.6147 -76.3172 370.6946)" class="st16" width="4.1" height="0.5"/>
			
				<rect x="336.5" y="266.8" transform="matrix(0.6147 -0.7888 0.7888 0.6147 -80.2354 369.874)" class="st16" width="3.9" height="0.5"/>
			<path class="st16" d="M344.4,259.9l2.1-2.7c-0.2,0-0.4-0.1-0.6-0.1l-1.9,2.4L344.4,259.9z"/>
			
				<rect x="339.6" y="265" transform="matrix(0.6147 -0.7888 0.7888 0.6147 -78.2674 370.2832)" class="st14" width="0.5" height="0.5"/>
			
				<rect x="339.6" y="265" transform="matrix(0.6147 -0.7888 0.7888 0.6147 -78.2674 370.2832)" class="st16" width="0.5" height="0.5"/>
			
				<rect x="342" y="260.5" transform="matrix(0.6147 -0.7888 0.7888 0.6147 -73.3935 371.2631)" class="st12" width="2.6" height="0.5"/>
			
				<rect x="342" y="260.5" transform="matrix(0.6147 -0.7888 0.7888 0.6147 -73.3935 371.2631)" class="st16" width="2.6" height="0.5"/>
			
				<rect x="335.3" y="269.4" transform="matrix(0.6147 -0.7888 0.7888 0.6147 -83.011 369.4185)" class="st12" width="2.6" height="0.5"/>
			
				<rect x="335.3" y="269.4" transform="matrix(0.6147 -0.7888 0.7888 0.6147 -83.011 369.4185)" class="st16" width="2.6" height="0.5"/>
			
				<rect x="345.4" y="273.7" transform="matrix(0.6147 -0.7888 0.7888 0.6147 -82.2441 379.5504)" class="st16" width="3.9" height="0.5"/>
			<path class="st16" d="M356,263.3l0.4-0.5l-0.4-0.4l-0.4,0.5L356,263.3z"/>
			<path class="st16" d="M344.3,277.4l-0.2,0.2l0.4,0.3l0.2-0.2L344.3,277.4z"/>
			
				<rect x="352.4" y="264.8" transform="matrix(0.6147 -0.7888 0.7888 0.6147 -72.5155 381.6721)" class="st16" width="4" height="0.5"/>
			
				<rect x="348.1" y="270.1" transform="matrix(0.6147 -0.7888 0.7888 0.6147 -78.3258 380.3717)" class="st16" width="4.1" height="0.5"/>
			
				<rect x="355.4" y="263.1" transform="matrix(0.6147 -0.7888 0.7888 0.6147 -70.6898 382.0193)" class="st14" width="0.5" height="0.5"/>
			
				<rect x="355.4" y="263.1" transform="matrix(0.6147 -0.7888 0.7888 0.6147 -70.6898 382.0193)" class="st16" width="0.5" height="0.5"/>
			
				<rect x="348.5" y="272" transform="matrix(0.615 -0.7885 0.7885 0.615 -80.4085 379.7977)" class="st14" width="0.5" height="0.5"/>
			
				<rect x="348.5" y="272" transform="matrix(0.615 -0.7885 0.7885 0.615 -80.4085 379.7977)" class="st16" width="0.5" height="0.5"/>
			
				<rect x="350.9" y="267.4" transform="matrix(0.6147 -0.7888 0.7888 0.6147 -75.4042 380.9437)" class="st12" width="2.6" height="0.5"/>
			
				<rect x="350.9" y="267.4" transform="matrix(0.6147 -0.7888 0.7888 0.6147 -75.4042 380.9437)" class="st16" width="2.6" height="0.5"/>
			
				<rect x="344.2" y="276.3" transform="matrix(0.6148 -0.7887 0.7887 0.6148 -85.0307 379.0184)" class="st12" width="2.6" height="0.5"/>
			
				<rect x="344.2" y="276.3" transform="matrix(0.6148 -0.7887 0.7887 0.6148 -85.0307 379.0184)" class="st16" width="2.6" height="0.5"/>
			<path class="st16" d="M363.7,271.1l-0.1-0.2l-1.2,1.5L363.7,271.1z"/>
			<polygon class="st10" points="350.6,282.4 362.2,267.4 365,270.5 352.9,284.2 			"/>
			<polygon class="st15" points="365,270.5 360.6,275.4 353.2,283.8 352.9,284.2 350.6,282.4 350.7,282.2 351,281.9 358.2,272.6 
				361.5,268.2 362.2,267.4 			"/>
			<path class="st12" d="M360.6,275.4l-7.4,8.4c-0.9-0.4-1.7-0.9-2.5-1.6c-0.4-0.4-0.8-0.7-1.2-1.2c-2.5-2.9-3.7-7.4-1.2-13.6
				c3.6,1,7,2.8,9.8,5.2c0.8,0.7,1.4,1.4,2,2.3C360.4,275,360.5,275.2,360.6,275.4z"/>
			<path class="st5" d="M305.3,238.4c-0.1,0.6-0.5,1.1-0.9,1s-0.6-0.6-0.6-1.3s0.5-1.1,0.9-1S305.4,237.8,305.3,238.4z"/>
			<path class="st17" d="M305.7,239.1c-1.1,1.8-2.4,3.5-3.9,4.9c0.8,0.8,1.8,1.2,2.9,1.1L305.7,239.1z"/>
			<path class="st5" d="M305.1,234.7L305.1,234.7c-0.2,0-0.4,0.1-0.4,0.3l0,0c0,0.1,0,0.1,0.1,0.2c0,0.1,0.1,0.2,0.2,0.2
				c1,0.1,1.8,0.6,2.3,1.4c0.1,0.2,0.3,0.3,0.5,0.2l0,0c0.2-0.1,0.3-0.3,0.2-0.5l0,0C307.4,235.4,306.4,234.7,305.1,234.7z"/>
			<path class="st13" d="M304.3,247.9c0.1,0.4,0.1,0.8,0.2,1.2c0.5,2.2,1.7,4.2,3.4,5.7c0.4,0.4,0.9,0.7,1.4,1.1
				c3.7,2.6,8.7,2.3,12.2-0.6c4.5-3.6,4.9-8.3,6.2-16.1c1.1-5.9-2.8-11.6-8.7-12.7c-1.7-0.3-3.4-0.2-5,0.2
				C305.8,228.9,303.4,240.6,304.3,247.9z"/>
			<path class="st12" d="M307.9,254.8c0.4,0.4,0.9,0.7,1.4,1.1c2.5,1.7,5.7,2.2,8.6,1.4c-0.2-1-0.6-1.9-1.1-2.8
				C313.8,253.6,310.7,253.8,307.9,254.8z"/>
			<path class="st13" d="M328.4,260.5c-1.8,5.1-11,8.6-11,8.6s-6.2,1.4-6-0.8c2.9-2.2,3.6-4.5,3.2-6.8c-0.3-1.4-0.8-2.6-1.6-3.8
				c-0.4-0.6-2.3-2.5-2.8-3.1l7.8-12.4C319.4,248.1,322.9,258.6,328.4,260.5z"/>
			<path class="st5" d="M313.8,223.2c2.2-0.6,8-1,11.4,0.3c10.5,4.2,8.5,10.4,8.5,10.4c-0.5-1.3-1.3-2.5-2.5-3.4
				c7.2,15.2-8.4,24.3-8.4,24.3c-4.1-2.5-10.1-1.8-10.1-1.8s-0.4-7.3-2-9.8s-2.2-7.6-1.2-10.2s-1.9-1.7-1.9-1.7
				C306.1,229.1,310.7,224.1,313.8,223.2z"/>
			<path class="st13" d="M313.9,242.2c-0.5,1.5-1.6,2.6-3,3.2c-1.7,0.5-2.5-1.9-2-4.2c0.5-2.1,1.9-4.9,3.6-4.3
				S314.7,240.2,313.9,242.2z"/>
			<path d="M311.9,229.9c0,0-7,16.7-5.5,23.3c0,0-3.3-4.9,4-23L311.9,229.9z"/>
			<path class="st10" d="M317.8,229.8c0,0,3.9,8.6,8.2,11.6s7.1,0.9,7.1,0.9l1.4-5.3c0,0-1.4,4-3.5,3.6s-6.1-3-9.3-10.1L317.8,229.8
				z"/>
			<path class="st14" d="M317.8,229.8c0,0,3.9,8.6,8.2,11.6s7.1,0.9,7.1,0.9l1.4-5.3c0,0-1.4,4-3.5,3.6s-6.1-3-9.3-10.1L317.8,229.8
				z"/>
			<path class="st10" d="M305.2,230.7c0,0,2.3-7.7,6.6-10s13.4-0.9,18.3,2.5s5.1,11.6,4.8,13.1c-0.8,3.5-10.9-7.2-18.9-7.4
				S305.2,230.7,305.2,230.7z"/>
			<path class="st12" d="M305.2,230.7c0,0,2.3-7.7,6.6-10s13.4-0.9,18.3,2.5s5.1,11.6,4.8,13.1c-0.8,3.5-10.9-7.2-18.9-7.4
				S305.2,230.7,305.2,230.7z"/>
			<path class="st10" d="M313.1,220.1c0,0,1.9-3.5,3.4-4s11.7,2.1,14.1,4.5s4.8,9.3,3.2,15.8l-5-1.2c0,0,1.2-7.6-2.2-11.2
				C322.8,219.8,313.1,220.1,313.1,220.1z"/>
			<path class="st10" d="M301.4,233.6c0,0,3.5,2.4,8.3-1.1s11.6-1.2,16.3,2c3.4,2.3,7.1,4,11,5l-2.2-3.2c0,0-4.1-0.6-10-5.3
				s-16.3-3.6-19.7-0.3L301.4,233.6z"/>
			<path class="st10" d="M311.9,264.4c0,0,4.9-7.8,13.5-8.4s5.5,8.4,5.5,8.4H311.9z"/>
			<path class="st15" d="M311.9,264.4c0,0,4.9-7.8,13.5-8.4s5.5,8.4,5.5,8.4H311.9z"/>
			<path class="st10" d="M365.8,305.4c-12.6,4-35.6,11.4-41.7,13.4c-1.4-3.8-0.3-15.1-6.6-27.6c-1.9-3.8-4.4-7.3-7.2-10.4
				c-3-3.3-6.4-6.3-10.1-8.8c0,0,18.1-15.9,40.6-14.5C340.8,257.4,360,269.1,365.8,305.4z"/>
			
				<rect x="324.8" y="263" transform="matrix(0.9497 -0.3132 0.3132 0.9497 -66.0028 115.6297)" class="st14" width="4.2" height="0.5"/>
			
				<rect x="320.7" y="264.5" transform="matrix(0.9497 -0.3132 0.3132 0.9497 -66.689 114.3585)" class="st14" width="3.8" height="0.5"/>
			
				<rect x="314.1" y="266.6" transform="matrix(0.9498 -0.313 0.313 0.9498 -67.6342 112.394)" class="st14" width="4.3" height="0.5"/>
			<path class="st14" d="M302.9,270.9l-2.8,0.9l0,0l0.5,0.4l2.4-0.8L302.9,270.9z"/>
			
				<rect x="310.1" y="268" transform="matrix(0.9498 -0.313 0.313 0.9498 -68.286 111.1341)" class="st14" width="3.8" height="0.5"/>
			
				<rect x="335.5" y="259.5" transform="matrix(0.9498 -0.313 0.313 0.9498 -64.3392 118.7198)" class="st14" width="4.2" height="0.5"/>
			
				<rect x="331.3" y="261" transform="matrix(0.9498 -0.313 0.313 0.9498 -65.0273 117.4336)" class="st14" width="3.9" height="0.5"/>
			
				<rect x="303.4" y="270.1" transform="matrix(0.9497 -0.3132 0.3132 0.9497 -69.2982 109.3158)" class="st14" width="4.4" height="0.5"/>
			<path class="st14" d="M342.3,258.5l-0.2-0.2l0.1,0.2H342.3z"/>
			
				<rect x="324.2" y="275.1" transform="matrix(0.9497 -0.3132 0.3132 0.9497 -69.8328 115.988)" class="st14" width="3.8" height="0.5"/>
			
				<rect x="317.7" y="277.2" transform="matrix(0.9497 -0.3132 0.3132 0.9497 -70.805 114.1361)" class="st14" width="4.3" height="0.5"/>
			
				<rect x="328.3" y="273.7" transform="matrix(0.9498 -0.313 0.313 0.9498 -69.1456 117.1797)" class="st14" width="4.2" height="0.5"/>
			
				<rect x="334.9" y="271.7" transform="matrix(0.9498 -0.313 0.313 0.9498 -68.1955 119.098)" class="st14" width="3.9" height="0.5"/>
			<path class="st14" d="M349.9,267.9l1-0.3l-0.3-0.5l-0.8,0.3L349.9,267.9z"/>
			
				<rect x="339.1" y="270.2" transform="matrix(0.9497 -0.3132 0.3132 0.9497 -67.5384 120.4708)" class="st14" width="4.2" height="0.5"/>
			
				<rect x="345.5" y="268.1" transform="matrix(0.9498 -0.313 0.313 0.9498 -66.5361 122.235)" class="st14" width="3.9" height="0.5"/>
			
				<rect x="313.6" y="278.7" transform="matrix(0.9497 -0.3132 0.3132 0.9497 -71.4937 112.8492)" class="st14" width="3.8" height="0.5"/>
			<path class="st14" d="M311.1,280.1l-1.1,0.4c0.1,0.1,0.2,0.3,0.4,0.4l0.9-0.3L311.1,280.1z"/>
			
				<rect x="349" y="278.8" transform="matrix(0.9497 -0.3132 0.3132 0.9497 -69.7414 123.9571)" class="st14" width="3.9" height="0.5"/>
			
				<rect x="321.2" y="287.9" transform="matrix(0.9497 -0.3132 0.3132 0.9497 -73.9801 115.7707)" class="st14" width="4.3" height="0.5"/>
			
				<rect x="342.6" y="280.9" transform="matrix(0.9497 -0.3132 0.3132 0.9497 -70.7136 122.1053)" class="st14" width="4.2" height="0.5"/>
			
				<rect x="331.9" y="284.4" transform="matrix(0.9497 -0.3132 0.3132 0.9497 -72.3481 118.9302)" class="st14" width="4.2" height="0.5"/>
			
				<rect x="338.4" y="282.3" transform="matrix(0.9495 -0.3137 0.3137 0.9495 -71.4554 121.0306)" class="st14" width="3.9" height="0.5"/>
			
				<rect x="317.1" y="289.3" transform="matrix(0.9497 -0.3132 0.3132 0.9497 -74.6375 114.4787)" class="st14" width="3.8" height="0.5"/>
			<path class="st14" d="M353.5,278.6l3.6-1.2c-0.1-0.2-0.2-0.3-0.2-0.5l-3.5,1.1L353.5,278.6z"/>
			
				<rect x="327" y="287" transform="matrix(0.9507 -0.3102 0.3102 0.9507 -72.8812 116.194)" class="st14" width="3.8" height="0.5"/>
			
				<rect x="335.4" y="295.1" transform="matrix(0.9498 -0.313 0.313 0.9498 -75.487 120.4772)" class="st14" width="4.2" height="0.5"/>
			
				<rect x="341.9" y="293" transform="matrix(0.9497 -0.3132 0.3132 0.9497 -74.5461 122.4479)" class="st14" width="3.9" height="0.5"/>
			
				<rect x="356.8" y="288.1" transform="matrix(0.9497 -0.3132 0.3132 0.9497 -72.2567 126.8993)" class="st14" width="4.1" height="0.5"/>
			
				<rect x="352.6" y="289.5" transform="matrix(0.9497 -0.3132 0.3132 0.9497 -72.9115 125.623)" class="st14" width="3.9" height="0.5"/>
			<path class="st14" d="M324.2,299.5l-3.1,1c0,0.2,0.1,0.4,0.1,0.5l3.2-1L324.2,299.5z"/>
			
				<rect x="331.3" y="296.5" transform="matrix(0.9497 -0.3132 0.3132 0.9497 -76.1781 119.2884)" class="st14" width="3.8" height="0.5"/>
			
				<rect x="324.7" y="298.6" transform="matrix(0.9497 -0.3132 0.3132 0.9497 -77.1553 117.4052)" class="st14" width="4.3" height="0.5"/>
			
				<rect x="346.1" y="291.6" transform="matrix(0.9497 -0.3132 0.3132 0.9497 -73.8887 123.7399)" class="st14" width="4.2" height="0.5"/>
			
				<rect x="345.4" y="303.8" transform="matrix(0.9498 -0.313 0.313 0.9498 -77.7152 123.9974)" class="st14" width="3.9" height="0.5"/>
			
				<rect x="328.2" y="309.4" transform="matrix(0.9498 -0.313 0.313 0.9498 -80.3222 118.9578)" class="st14" width="4.3" height="0.5"/>
			
				<rect x="338.9" y="305.8" transform="matrix(0.9498 -0.313 0.313 0.9498 -78.6603 122.1103)" class="st14" width="4.2" height="0.5"/>
			
				<rect x="324.2" y="310.8" transform="matrix(0.9497 -0.3132 0.3132 0.9497 -81.0141 117.7841)" class="st14" width="3.8" height="0.5"/>
			
				<rect x="360.3" y="298.8" transform="matrix(0.9497 -0.3132 0.3132 0.9497 -75.4319 128.5339)" class="st14" width="4.1" height="0.5"/>
			
				<rect x="334.8" y="307.2" transform="matrix(0.9497 -0.3132 0.3132 0.9497 -79.3532 120.9229)" class="st14" width="3.8" height="0.5"/>
			
				<rect x="356.1" y="300.2" transform="matrix(0.9497 -0.3132 0.3132 0.9497 -76.0867 127.2575)" class="st14" width="3.9" height="0.5"/>
			
				<rect x="349.6" y="302.3" transform="matrix(0.9498 -0.313 0.313 0.9498 -77.0272 125.2836)" class="st14" width="4.2" height="0.5"/>
			<path class="st12" d="M323.1,260.1l-0.1-0.5c-1.2,0.4-2.5,0.8-3.6,1.2l0.1,0.4L323.1,260.1z"/>
			<path class="st12" d="M327.6,258.6v-0.2c-1.4,0.3-2.8,0.6-4.1,1l0.1,0.5L327.6,258.6z"/>
			<path class="st12" d="M316.9,261.8c-0.9,0.4-1.9,0.8-2.7,1.2l2.8-0.9L316.9,261.8z"/>
			
				<rect x="321.7" y="269.9" transform="matrix(0.9507 -0.3102 0.3102 0.9507 -68.1639 113.7583)" class="st12" width="3.8" height="2.6"/>
			
				<rect x="326.6" y="267.4" transform="matrix(0.9497 -0.3132 0.3132 0.9497 -67.6192 116.4677)" class="st12" width="4.2" height="2.6"/>
			<path class="st12" d="M309,273.8l-4.1,1.4l0.2,0.5c0.6,0.5,1.2,1,1.8,1.6l3-1L309,273.8z"/>
			<path class="st12" d="M344.3,264.9l3.6-1.2c-0.7-0.8-1.4-1.5-2-2.1l-2.4,0.8L344.3,264.9z"/>
			
				<rect x="337.3" y="263.8" transform="matrix(0.9497 -0.3132 0.3132 0.9497 -65.9534 119.6378)" class="st12" width="4.2" height="2.6"/>
			
				<rect x="333.1" y="265.3" transform="matrix(0.9497 -0.3132 0.3132 0.9497 -66.642 118.3509)" class="st12" width="3.9" height="2.6"/>
			
				<rect x="311.8" y="272.3" transform="matrix(0.9497 -0.3132 0.3132 0.9497 -69.9086 112.0162)" class="st12" width="3.8" height="2.6"/>
			
				<rect x="315.9" y="270.9" transform="matrix(0.9497 -0.3132 0.3132 0.9497 -69.2512 113.3082)" class="st12" width="4.3" height="2.6"/>
			
				<rect x="336.6" y="275.9" transform="matrix(0.9497 -0.3132 0.3132 0.9497 -69.7859 119.9804)" class="st12" width="3.9" height="2.6"/>
			
				<rect x="319.4" y="281.5" transform="matrix(0.9497 -0.3132 0.3132 0.9497 -72.3951 114.9377)" class="st12" width="4.3" height="2.6"/>
			
				<rect x="325.2" y="280.6" transform="matrix(0.9507 -0.3102 0.3102 0.9507 -71.3104 115.3718)" class="st12" width="3.8" height="2.6"/>
			<path class="st12" d="M352,274.2l2.7-0.9c-0.5-0.8-0.9-1.6-1.4-2.3l-2.1,0.7L352,274.2z"/>
			
				<rect x="330.1" y="278" transform="matrix(0.9497 -0.3132 0.3132 0.9497 -70.7631 118.0972)" class="st12" width="4.2" height="2.6"/>
			
				<rect x="340.8" y="274.5" transform="matrix(0.9497 -0.3132 0.3132 0.9497 -69.1285 121.2724)" class="st12" width="4.2" height="2.6"/>
			
				<rect x="315.3" y="283" transform="matrix(0.9497 -0.3132 0.3132 0.9497 -73.0837 113.6508)" class="st12" width="3.8" height="2.6"/>
			
				<rect x="347.3" y="272.4" transform="matrix(0.9497 -0.3132 0.3132 0.9497 -68.1513 123.1555)" class="st12" width="3.9" height="2.6"/>
			
				<rect x="333.6" y="288.6" transform="matrix(0.9497 -0.3132 0.3132 0.9497 -73.9069 119.7267)" class="st12" width="4.2" height="2.6"/>
			
				<rect x="328.7" y="291.2" transform="matrix(0.9507 -0.3102 0.3102 0.9507 -74.4259 116.9804)" class="st12" width="3.8" height="2.6"/>
			<path class="st12" d="M322.1,293.1l-3.2,1.1c0.3,0.8,0.7,1.6,1,2.4l3.1-1L322.1,293.1z"/>
			
				<rect x="350.8" y="283" transform="matrix(0.9497 -0.3132 0.3132 0.9497 -71.2951 124.7851)" class="st12" width="3.9" height="2.6"/>
			
				<rect x="322.9" y="292.2" transform="matrix(0.9497 -0.3132 0.3132 0.9497 -75.5702 116.5723)" class="st12" width="4.3" height="2.6"/>
			
				<rect x="340.2" y="286.6" transform="matrix(0.9497 -0.3132 0.3132 0.9497 -72.956 121.6462)" class="st12" width="3.9" height="2.6"/>
			
				<rect x="344.3" y="285.1" transform="matrix(0.9497 -0.3132 0.3132 0.9497 -72.2724 122.9019)" class="st12" width="4.2" height="2.6"/>
			
				<rect x="355" y="281.6" transform="matrix(0.9497 -0.3132 0.3132 0.9497 -70.6403 126.0614)" class="st12" width="4.1" height="2.6"/>
			
				<rect x="342.8" y="298.4" transform="matrix(0.9507 -0.3102 0.3102 0.9507 -75.9614 121.7248)" class="st12" width="3.9" height="2.6"/>
			
				<rect x="333" y="300.7" transform="matrix(0.9497 -0.3132 0.3132 0.9497 -77.7368 120.0849)" class="st12" width="3.8" height="2.6"/>
			
				<rect x="358.5" y="292.3" transform="matrix(0.9497 -0.3132 0.3132 0.9497 -73.8155 127.6959)" class="st12" width="4.1" height="2.6"/>
			
				<rect x="326.4" y="302.8" transform="matrix(0.9497 -0.3132 0.3132 0.9497 -78.7141 118.2018)" class="st12" width="4.3" height="2.6"/>
			<path class="st12" d="M326.4,306.2l-0.8-2.5l-3.5,1.2c0,0.1,0,0.1,0,0.2l0.7,2.3L326.4,306.2z"/>
			
				<rect x="354.3" y="293.7" transform="matrix(0.9497 -0.3132 0.3132 0.9497 -74.4703 126.4196)" class="st12" width="3.9" height="2.6"/>
			
				<rect x="347.8" y="295.8" transform="matrix(0.9497 -0.3132 0.3132 0.9497 -75.4475 124.5364)" class="st12" width="4.2" height="2.6"/>
			
				<rect x="336.3" y="300.4" transform="matrix(0.9507 -0.3102 0.3102 0.9507 -76.895 119.8537)" class="st12" width="4.2" height="2.6"/>
			
				<rect x="335.6" y="312.5" transform="matrix(0.9507 -0.3102 0.3102 0.9507 -80.6928 120.1714)" class="st12" width="3.8" height="2.6"/>
			
				<rect x="339.7" y="311.1" transform="matrix(0.9507 -0.3102 0.3102 0.9507 -80.0464 121.4362)" class="st12" width="4.2" height="2.6"/>
			<path class="st12" d="M362.5,306.1l3.2-1c-0.1-0.9-0.3-1.8-0.5-2.6l-3.5,1.2L362.5,306.1z"/>
			
				<rect x="357.8" y="304.3" transform="matrix(0.9497 -0.3132 0.3132 0.9497 -77.6141 128.0491)" class="st12" width="3.9" height="2.6"/>
			<path class="st12" d="M333.7,312.9l-4.1,1.3l0.8,2.5l2-0.6l2.1-0.7L333.7,312.9z"/>
			
				<rect x="347.2" y="307.9" transform="matrix(0.9498 -0.313 0.313 0.9498 -79.2367 124.8196)" class="st12" width="3.9" height="2.6"/>
			<path class="st12" d="M325.5,315.6l0.8,2.4l3.6-1.1l-0.8-2.5L325.5,315.6z"/>
			
				<rect x="350.5" y="307.6" transform="matrix(0.9507 -0.3102 0.3102 0.9507 -78.428 124.6137)" class="st12" width="4.2" height="2.6"/>
			<path class="st15" d="M324.3,311.9l-1.2,0.4c0.1,1.5,0.3,2.8,0.4,3.9l2-0.7L324.3,311.9z"/>
			<path class="st15" d="M322.9,307.4l-0.3,0.1c0.2,1.5,0.4,2.9,0.5,4.2l1.1-0.4L322.9,307.4z"/>
			<path class="st15" d="M317.1,290.5l0.5,0.9l-0.3-1L317.1,290.5z"/>
			
				<rect x="310.4" y="275.8" transform="matrix(0.9497 -0.3132 0.3132 0.9497 -71.3247 111.6012)" class="st15" width="2.6" height="4"/>
			
				<rect x="308.3" y="269.4" transform="matrix(0.9497 -0.3132 0.3132 0.9497 -69.4415 110.624)" class="st15" width="2.6" height="4.1"/>
			<path class="st15" d="M315.8,286.1l-1.1,0.4c0.8,1.2,1.5,2.4,2.2,3.6l0.2-0.1L315.8,286.1z"/>
			<path class="st15" d="M310.1,268.6l-1-2.9c-0.8,0.5-1.6,0.9-2.3,1.4l0.8,2.3L310.1,268.6z"/>
			<path class="st15" d="M313.8,279.8l-2.5,0.8l0.7,2.2c0.4,0.5,0.8,1,1.1,1.5l1.9-0.6L313.8,279.8z"/>
			
				<rect x="307.6" y="269" transform="matrix(0.9498 -0.313 0.313 0.9498 -68.7547 110.214)" class="st14" width="2.6" height="0.5"/>
			
				<rect x="307.6" y="269" transform="matrix(0.9498 -0.313 0.313 0.9498 -68.7547 110.214)" class="st15" width="2.6" height="0.5"/>
			
				<rect x="311.1" y="279.6" transform="matrix(0.9497 -0.3132 0.3132 0.9497 -71.9315 111.9235)" class="st14" width="2.6" height="0.5"/>
			
				<rect x="311.1" y="279.6" transform="matrix(0.9497 -0.3132 0.3132 0.9497 -71.9315 111.9235)" class="st15" width="2.6" height="0.5"/>
			<path class="st14" d="M317.1,290l-0.2,0.1l0.2,0.5h0.2L317.1,290z"/>
			<path class="st15" d="M317.1,290l-0.2,0.1l0.2,0.5h0.2L317.1,290z"/>
			<path class="st14" d="M324.2,311.4l-1.1,0.4c0,0.2,0,0.4,0,0.5l1.2-0.4L324.2,311.4z"/>
			<path class="st15" d="M324.2,311.4l-1.1,0.4c0,0.2,0,0.4,0,0.5l1.2-0.4L324.2,311.4z"/>
			
				<rect x="309.4" y="273.3" transform="matrix(0.9497 -0.3132 0.3132 0.9497 -70.3727 111.127)" class="st12" width="2.6" height="2.6"/>
			
				<rect x="309.4" y="273.3" transform="matrix(0.9497 -0.3132 0.3132 0.9497 -70.3727 111.127)" class="st15" width="2.6" height="2.6"/>
			<path class="st12" d="M315,283.6l-1.9,0.6c0.6,0.8,1.1,1.5,1.6,2.2l1.1-0.4L315,283.6z"/>
			<path class="st15" d="M315,283.6l-1.9,0.6c0.6,0.8,1.1,1.5,1.6,2.2l1.1-0.4L315,283.6z"/>
			<path class="st12" d="M322.1,305.1c0.1,0.8,0.3,1.6,0.4,2.4l0.3-0.1L322.1,305.1z"/>
			<path class="st15" d="M322.1,305.1c0.1,0.8,0.3,1.6,0.4,2.4l0.3-0.1L322.1,305.1z"/>
			<path class="st12" d="M323.5,316.2c0.1,0.8,0.3,1.7,0.5,2.5l2.3-0.7l-0.8-2.4L323.5,316.2z"/>
			<path class="st15" d="M323.5,316.2c0.1,0.8,0.3,1.7,0.5,2.5l2.3-0.7l-0.8-2.4L323.5,316.2z"/>
			
				<rect x="321.1" y="272.2" transform="matrix(0.9497 -0.3132 0.3132 0.9497 -69.6588 114.7713)" class="st15" width="2.6" height="4"/>
			
				<rect x="322.5" y="276.6" transform="matrix(0.9497 -0.3132 0.3132 0.9497 -70.9664 115.4311)" class="st15" width="2.6" height="4"/>
			
				<rect x="329.5" y="298" transform="matrix(0.9497 -0.3132 0.3132 0.9497 -77.3011 118.6977)" class="st15" width="2.6" height="3.9"/>
			
				<rect x="319" y="265.9" transform="matrix(0.9497 -0.3132 0.3132 0.9497 -67.8069 113.7991)" class="st15" width="2.6" height="4.1"/>
			
				<rect x="330.8" y="305.3" transform="matrix(0.9507 -0.3102 0.3102 0.9507 -78.9739 118.1806)" class="st15" width="2.6" height="4.2"/>
			
				<rect x="326" y="287.3" transform="matrix(0.9497 -0.3132 0.3132 0.9497 -74.1416 117.0657)" class="st15" width="2.6" height="4"/>
			
				<rect x="324.6" y="282.9" transform="matrix(0.9497 -0.3132 0.3132 0.9497 -72.8496 116.4083)" class="st15" width="2.6" height="4.1"/>
			
				<rect x="328.1" y="293.5" transform="matrix(0.9497 -0.3132 0.3132 0.9497 -75.9934 118.0378)" class="st15" width="2.6" height="4.1"/>
			<path class="st15" d="M334.5,315.4L334.5,315.4l2.5-0.8l0,0L334.5,315.4z"/>
			
				<rect x="317.5" y="261.6" transform="matrix(0.9497 -0.3132 0.3132 0.9497 -66.52 113.1105)" class="st15" width="2.6" height="4"/>
			
				<rect x="333.1" y="308.7" transform="matrix(0.9497 -0.3132 0.3132 0.9497 -80.4712 120.3636)" class="st15" width="2.6" height="3.9"/>
			
				<rect x="318.3" y="265.4" transform="matrix(0.9496 -0.3135 0.3135 0.9496 -67.1698 113.5863)" class="st14" width="2.6" height="0.5"/>
			
				<rect x="318.3" y="265.4" transform="matrix(0.9496 -0.3135 0.3135 0.9496 -67.1698 113.5863)" class="st15" width="2.6" height="0.5"/>
			
				<rect x="321.8" y="276.1" transform="matrix(0.9497 -0.3132 0.3132 0.9497 -70.297 115.0987)" class="st14" width="2.6" height="0.5"/>
			
				<rect x="321.8" y="276.1" transform="matrix(0.9497 -0.3132 0.3132 0.9497 -70.297 115.0987)" class="st15" width="2.6" height="0.5"/>
			
				<rect x="325.3" y="286.9" transform="matrix(0.9497 -0.3132 0.3132 0.9497 -73.5034 116.7383)" class="st14" width="2.6" height="0.5"/>
			
				<rect x="325.3" y="286.9" transform="matrix(0.9497 -0.3132 0.3132 0.9497 -73.5034 116.7383)" class="st15" width="2.6" height="0.5"/>
			
				<rect x="328.8" y="297.6" transform="matrix(0.9497 -0.3132 0.3132 0.9497 -76.6786 118.3728)" class="st14" width="2.6" height="0.5"/>
			
				<rect x="328.8" y="297.6" transform="matrix(0.9497 -0.3132 0.3132 0.9497 -76.6786 118.3728)" class="st15" width="2.6" height="0.5"/>
			
				<rect x="332.4" y="308.3" transform="matrix(0.9496 -0.3133 0.3133 0.9496 -79.8674 120.0833)" class="st14" width="2.6" height="0.5"/>
			
				<rect x="332.4" y="308.3" transform="matrix(0.9496 -0.3133 0.3133 0.9496 -79.8674 120.0833)" class="st15" width="2.6" height="0.5"/>
			<path class="st12" d="M319.5,261.3l-0.1-0.4c-0.8,0.3-1.6,0.6-2.4,1l0.1,0.3L319.5,261.3z"/>
			<path class="st15" d="M319.5,261.3l-0.1-0.4c-0.8,0.3-1.6,0.6-2.4,1l0.1,0.3L319.5,261.3z"/>
			
				<rect x="320" y="269.8" transform="matrix(0.9498 -0.313 0.313 0.9498 -68.7107 114.1882)" class="st12" width="2.6" height="2.6"/>
			
				<rect x="320" y="269.8" transform="matrix(0.9498 -0.313 0.313 0.9498 -68.7107 114.1882)" class="st15" width="2.6" height="2.6"/>
			
				<rect x="323.5" y="280.4" transform="matrix(0.9497 -0.3132 0.3132 0.9497 -71.887 115.9003)" class="st12" width="2.6" height="2.6"/>
			
				<rect x="323.5" y="280.4" transform="matrix(0.9497 -0.3132 0.3132 0.9497 -71.887 115.9003)" class="st15" width="2.6" height="2.6"/>
			
				<rect x="327" y="291.1" transform="matrix(0.9497 -0.3132 0.3132 0.9497 -75.0622 117.5348)" class="st12" width="2.6" height="2.6"/>
			
				<rect x="327" y="291.1" transform="matrix(0.9497 -0.3132 0.3132 0.9497 -75.0622 117.5348)" class="st15" width="2.6" height="2.6"/>
			
				<rect x="330.6" y="301.7" transform="matrix(0.9497 -0.3132 0.3132 0.9497 -78.201 119.1957)" class="st12" width="2.6" height="2.6"/>
			
				<rect x="330.6" y="301.7" transform="matrix(0.9497 -0.3132 0.3132 0.9497 -78.201 119.1957)" class="st15" width="2.6" height="2.6"/>
			
				<rect x="334" y="312.4" transform="matrix(0.9498 -0.313 0.313 0.9498 -81.3411 120.7106)" class="st12" width="2.6" height="2.6"/>
			
				<rect x="334" y="312.4" transform="matrix(0.9498 -0.313 0.313 0.9498 -81.3411 120.7106)" class="st15" width="2.6" height="2.6"/>
			
				<rect x="336.7" y="283.8" transform="matrix(0.9497 -0.3132 0.3132 0.9497 -72.507 120.2408)" class="st15" width="2.6" height="4"/>
			
				<rect x="343.7" y="305.2" transform="matrix(0.9497 -0.3132 0.3132 0.9497 -78.8417 123.5074)" class="st15" width="2.6" height="3.9"/>
			<path class="st15" d="M328.9,262.4l2.5-0.8l-1.2-3.6l-1.2,0.2l-1.4,0.5L328.9,262.4z"/>
			
				<rect x="341.4" y="301.8" transform="matrix(0.9507 -0.3102 0.3102 0.9507 -77.3653 121.2961)" class="st15" width="2.6" height="4.2"/>
			
				<rect x="335.2" y="279.4" transform="matrix(0.9497 -0.3132 0.3132 0.9497 -71.2201 119.5522)" class="st15" width="2.6" height="4.1"/>
			
				<rect x="331" y="269.9" transform="matrix(0.9507 -0.3102 0.3102 0.9507 -67.9519 116.4916)" class="st15" width="2.6" height="4"/>
			<path class="st15" d="M345.2,311.8v0.1l2.5-0.8V311L345.2,311.8z"/>
			
				<rect x="329.6" y="262.4" transform="matrix(0.9497 -0.3132 0.3132 0.9497 -66.1774 116.9429)" class="st15" width="2.6" height="4.1"/>
			
				<rect x="340.2" y="294.5" transform="matrix(0.9497 -0.3132 0.3132 0.9497 -75.6665 121.8729)" class="st15" width="2.6" height="3.9"/>
			
				<rect x="333.1" y="273.1" transform="matrix(0.9497 -0.3132 0.3132 0.9497 -69.3369 118.575)" class="st15" width="2.6" height="4"/>
			
				<rect x="338.8" y="290" transform="matrix(0.9497 -0.3132 0.3132 0.9497 -74.3589 121.213)" class="st15" width="2.6" height="4.1"/>
			
				<rect x="328.9" y="262" transform="matrix(0.9498 -0.313 0.313 0.9498 -65.4935 116.5292)" class="st14" width="2.6" height="0.5"/>
			
				<rect x="328.9" y="262" transform="matrix(0.9498 -0.313 0.313 0.9498 -65.4935 116.5292)" class="st15" width="2.6" height="0.5"/>
			
				<rect x="332.4" y="272.6" transform="matrix(0.9497 -0.3132 0.3132 0.9497 -68.6674 118.2425)" class="st14" width="2.6" height="0.5"/>
			
				<rect x="332.4" y="272.6" transform="matrix(0.9497 -0.3132 0.3132 0.9497 -68.6674 118.2425)" class="st15" width="2.6" height="0.5"/>
			
				<rect x="336" y="283.3" transform="matrix(0.9497 -0.3132 0.3132 0.9497 -71.8376 119.9084)" class="st14" width="2.6" height="0.5"/>
			
				<rect x="336" y="283.3" transform="matrix(0.9497 -0.3132 0.3132 0.9497 -71.8376 119.9084)" class="st15" width="2.6" height="0.5"/>
			
				<rect x="339.5" y="294.1" transform="matrix(0.9498 -0.313 0.313 0.9498 -75.0082 121.4599)" class="st14" width="2.6" height="0.5"/>
			
				<rect x="339.5" y="294.1" transform="matrix(0.9498 -0.313 0.313 0.9498 -75.0082 121.4599)" class="st15" width="2.6" height="0.5"/>
			
				<rect x="343" y="304.8" transform="matrix(0.9496 -0.3133 0.3133 0.9496 -78.2372 123.228)" class="st14" width="2.6" height="0.5"/>
			
				<rect x="343" y="304.8" transform="matrix(0.9496 -0.3133 0.3133 0.9496 -78.2372 123.228)" class="st15" width="2.6" height="0.5"/>
			<path class="st12" d="M327.6,258.6l1.4-0.5l-1.4,0.3V258.6z"/>
			<path class="st15" d="M327.6,258.6l1.4-0.5l-1.4,0.3V258.6z"/>
			
				<rect x="330.7" y="266.3" transform="matrix(0.9498 -0.313 0.313 0.9498 -67.0776 117.3614)" class="st12" width="2.6" height="2.6"/>
			
				<rect x="330.7" y="266.3" transform="matrix(0.9498 -0.313 0.313 0.9498 -67.0776 117.3614)" class="st15" width="2.6" height="2.6"/>
			
				<rect x="334.2" y="276.9" transform="matrix(0.9497 -0.3132 0.3132 0.9497 -70.2525 119.0754)" class="st12" width="2.6" height="2.6"/>
			
				<rect x="334.2" y="276.9" transform="matrix(0.9497 -0.3132 0.3132 0.9497 -70.2525 119.0754)" class="st15" width="2.6" height="2.6"/>
			
				<rect x="337.7" y="287.6" transform="matrix(0.9497 -0.3132 0.3132 0.9497 -73.4277 120.71)" class="st12" width="2.6" height="2.6"/>
			
				<rect x="337.7" y="287.6" transform="matrix(0.9497 -0.3132 0.3132 0.9497 -73.4277 120.71)" class="st15" width="2.6" height="2.6"/>
			
				<rect x="341.2" y="298.3" transform="matrix(0.9498 -0.313 0.313 0.9498 -76.5661 122.2558)" class="st12" width="2.6" height="2.6"/>
			
				<rect x="341.2" y="298.3" transform="matrix(0.9498 -0.313 0.313 0.9498 -76.5661 122.2558)" class="st15" width="2.6" height="2.6"/>
			
				<rect x="344.7" y="308.9" transform="matrix(0.9497 -0.3132 0.3132 0.9497 -79.7466 123.974)" class="st12" width="2.6" height="2.6"/>
			
				<rect x="344.7" y="308.9" transform="matrix(0.9497 -0.3132 0.3132 0.9497 -79.7466 123.974)" class="st15" width="2.6" height="2.6"/>
			
				<rect x="350.8" y="291" transform="matrix(0.9497 -0.3132 0.3132 0.9497 -74.037 125.0167)" class="st15" width="2.6" height="3.9"/>
			
				<rect x="342.4" y="265.2" transform="matrix(0.9497 -0.3132 0.3132 0.9497 -66.3947 121.0903)" class="st15" width="2.6" height="4"/>
			
				<rect x="340.3" y="258.9" transform="matrix(0.9498 -0.313 0.313 0.9498 -64.5138 120.0321)" class="st15" width="2.6" height="4.1"/>
			
				<rect x="352.9" y="297.2" transform="matrix(0.9497 -0.3132 0.3132 0.9497 -75.9202 125.9939)" class="st15" width="2.6" height="4.2"/>
			
				<rect x="347.3" y="280.3" transform="matrix(0.9497 -0.3132 0.3132 0.9497 -70.8775 123.3847)" class="st15" width="2.6" height="4"/>
			
				<rect x="349.4" y="286.5" transform="matrix(0.9497 -0.3132 0.3132 0.9497 -72.7294 124.3568)" class="st15" width="2.6" height="4.1"/>
			<path class="st15" d="M355.8,308.3l0.1,0.2l2.5-0.8l-0.1-0.2L355.8,308.3z"/>
			<path class="st15" d="M341.8,258.1c-0.7-0.5-1-0.7-1-0.7c-0.6,0-1.2,0-1.8-0.1l0.5,1.6L341.8,258.1z"/>
			
				<rect x="343.8" y="269.5" transform="matrix(0.9497 -0.3132 0.3132 0.9497 -67.6711 121.7451)" class="st15" width="2.6" height="4"/>
			
				<rect x="354.3" y="301.7" transform="matrix(0.9497 -0.3132 0.3132 0.9497 -77.2122 126.6512)" class="st15" width="2.6" height="3.9"/>
			
				<rect x="345.9" y="275.9" transform="matrix(0.9497 -0.3132 0.3132 0.9497 -69.5855 122.7273)" class="st15" width="2.6" height="4.1"/>
			<path class="st14" d="M339.7,259.4l2.5-0.8l-0.1-0.2l-0.3-0.2l-2.3,0.8L339.7,259.4z"/>
			<path class="st15" d="M339.7,259.4l2.5-0.8l-0.1-0.2l-0.3-0.2l-2.3,0.8L339.7,259.4z"/>
			
				<rect x="343.1" y="269.1" transform="matrix(0.9497 -0.3132 0.3132 0.9497 -67.0329 121.4177)" class="st14" width="2.6" height="0.5"/>
			
				<rect x="343.1" y="269.1" transform="matrix(0.9497 -0.3132 0.3132 0.9497 -67.0329 121.4177)" class="st15" width="2.6" height="0.5"/>
			
				<rect x="346.6" y="279.8" transform="matrix(0.9497 -0.3132 0.3132 0.9497 -70.2081 123.0522)" class="st14" width="2.6" height="0.5"/>
			
				<rect x="346.6" y="279.8" transform="matrix(0.9497 -0.3132 0.3132 0.9497 -70.2081 123.0522)" class="st15" width="2.6" height="0.5"/>
			
				<rect x="350.1" y="290.5" transform="matrix(0.9497 -0.3132 0.3132 0.9497 -73.3832 124.6867)" class="st14" width="2.6" height="0.5"/>
			
				<rect x="350.1" y="290.5" transform="matrix(0.9497 -0.3132 0.3132 0.9497 -73.3832 124.6867)" class="st15" width="2.6" height="0.5"/>
			
				<rect x="353.7" y="301.2" transform="matrix(0.9497 -0.3132 0.3132 0.9497 -76.5533 126.3526)" class="st14" width="2.6" height="0.5"/>
			
				<rect x="353.7" y="301.2" transform="matrix(0.9497 -0.3132 0.3132 0.9497 -76.5533 126.3526)" class="st15" width="2.6" height="0.5"/>
			
				<rect x="341.3" y="262.8" transform="matrix(0.9497 -0.3132 0.3132 0.9497 -65.4792 120.5898)" class="st12" width="2.6" height="2.6"/>
			
				<rect x="341.3" y="262.8" transform="matrix(0.9497 -0.3132 0.3132 0.9497 -65.4792 120.5898)" class="st15" width="2.6" height="2.6"/>
			
				<rect x="344.8" y="273.4" transform="matrix(0.9497 -0.3132 0.3132 0.9497 -68.623 122.2193)" class="st12" width="2.6" height="2.6"/>
			
				<rect x="344.8" y="273.4" transform="matrix(0.9497 -0.3132 0.3132 0.9497 -68.623 122.2193)" class="st15" width="2.6" height="2.6"/>
			
				<rect x="348.3" y="284.1" transform="matrix(0.9497 -0.3132 0.3132 0.9497 -71.7981 123.8538)" class="st12" width="2.6" height="2.6"/>
			
				<rect x="348.3" y="284.1" transform="matrix(0.9497 -0.3132 0.3132 0.9497 -71.7981 123.8538)" class="st15" width="2.6" height="2.6"/>
			
				<rect x="351.8" y="294.7" transform="matrix(0.9497 -0.3132 0.3132 0.9497 -74.942 125.4833)" class="st12" width="2.6" height="2.6"/>
			
				<rect x="351.8" y="294.7" transform="matrix(0.9497 -0.3132 0.3132 0.9497 -74.942 125.4833)" class="st15" width="2.6" height="2.6"/>
			
				<rect x="355.3" y="305.4" transform="matrix(0.9498 -0.313 0.313 0.9498 -78.0799 127.0258)" class="st12" width="2.6" height="2.6"/>
			
				<rect x="355.3" y="305.4" transform="matrix(0.9498 -0.313 0.313 0.9498 -78.0799 127.0258)" class="st15" width="2.6" height="2.6"/>
			<path class="st15" d="M358.7,281l-0.5-1l0.3,1H358.7z"/>
			<path class="st15" d="M364.3,298.2L364.3,298.2c-0.2-1.4-0.6-2.8-0.9-4.1l-0.4,0.1L364.3,298.2z"/>
			<path class="st15" d="M360.8,287.5l0.5-0.2c-0.5-1.3-1-2.6-1.5-3.9l-0.3,0.1L360.8,287.5z"/>
			<path class="st15" d="M362.1,291.7l0.5-0.2c-0.4-1.3-0.8-2.5-1.2-3.7l-0.5,0.2L362.1,291.7z"/>
			<path class="st15" d="M364.6,299.1c0-0.2-0.1-0.3-0.1-0.5l0,0L364.6,299.1z"/>
			<path class="st14" d="M360.9,288l0.5-0.2c-0.1-0.2-0.1-0.3-0.2-0.5l-0.5,0.2L360.9,288z"/>
			<path class="st15" d="M360.9,288l0.5-0.2c-0.1-0.2-0.1-0.3-0.2-0.5l-0.5,0.2L360.9,288z"/>
			<path class="st14" d="M364.4,298.7L364.4,298.7l-0.1-0.5h-0.1L364.4,298.7z"/>
			<path class="st15" d="M364.4,298.7L364.4,298.7l-0.1-0.5h-0.1L364.4,298.7z"/>
			<path class="st12" d="M359.5,283.5l0.3-0.1c-0.3-0.8-0.7-1.6-1-2.4h-0.1L359.5,283.5z"/>
			<path class="st15" d="M359.5,283.5l0.3-0.1c-0.3-0.8-0.7-1.6-1-2.4h-0.1L359.5,283.5z"/>
			<path class="st12" d="M363,294.2l0.4-0.1c-0.2-0.9-0.5-1.7-0.7-2.5l-0.5,0.2L363,294.2z"/>
			<path class="st15" d="M363,294.2l0.4-0.1c-0.2-0.9-0.5-1.7-0.7-2.5l-0.5,0.2L363,294.2z"/>
			<path class="st16" d="M303.6,271.3l-0.5,0.2l1.2,3.6l0.3,0.2l0.3-0.1L303.6,271.3z"/>
			<path class="st16" d="M303.5,270.8l-0.4-1.2l-0.5,0.3l0.3,1L303.5,270.8z"/>
			
				<rect x="303" y="270.9" transform="matrix(0.9498 -0.313 0.313 0.9498 -69.6333 108.541)" class="st14" width="0.5" height="0.5"/>
			
				<rect x="303" y="270.9" transform="matrix(0.9498 -0.313 0.313 0.9498 -69.6333 108.541)" class="st16" width="0.5" height="0.5"/>
			<path class="st12" d="M304.6,275.3l0.5,0.4l-0.2-0.5L304.6,275.3z"/>
			<path class="st16" d="M304.6,275.3l0.5,0.4l-0.2-0.5L304.6,275.3z"/>
			<path class="st16" d="M314.1,267.2l-1.2-3.6l-0.5,0.2l1.2,3.5L314.1,267.2z"/>
			
				<rect x="327.1" y="306" transform="matrix(0.9497 -0.3132 0.3132 0.9497 -80.0272 118.0272)" class="st16" width="0.5" height="4.2"/>
			
				<rect x="328.5" y="310.5" transform="matrix(0.9497 -0.3132 0.3132 0.9497 -81.3192 118.6845)" class="st16" width="0.5" height="3.9"/>
			
				<rect x="325" y="299.8" transform="matrix(0.9498 -0.313 0.313 0.9498 -78.1057 116.9645)" class="st16" width="0.5" height="3.9"/>
			
				<rect x="323.6" y="295.4" transform="matrix(0.9496 -0.3133 0.3133 0.9496 -76.8857 116.4384)" class="st16" width="0.5" height="4.1"/>
			
				<rect x="321.5" y="289.1" transform="matrix(0.9497 -0.3132 0.3132 0.9497 -74.9846 115.418)" class="st16" width="0.5" height="4"/>
			
				<rect x="318" y="278.4" transform="matrix(0.9497 -0.3132 0.3132 0.9497 -71.8094 113.7834)" class="st16" width="0.5" height="4"/>
			
				<rect x="320" y="284.7" transform="matrix(0.9497 -0.3132 0.3132 0.9497 -73.6976 114.7293)" class="st16" width="0.5" height="4.1"/>
			
				<rect x="314.4" y="267.7" transform="matrix(0.9497 -0.3132 0.3132 0.9497 -68.655 112.1201)" class="st16" width="0.5" height="4.1"/>
			
				<rect x="316.5" y="274.1" transform="matrix(0.9496 -0.3133 0.3133 0.9496 -70.5542 113.139)" class="st16" width="0.5" height="4"/>
			
				<rect x="313.7" y="267.3" transform="matrix(0.9495 -0.3137 0.3137 0.9495 -68.0826 111.9918)" class="st14" width="0.5" height="0.5"/>
			
				<rect x="313.7" y="267.3" transform="matrix(0.9495 -0.3137 0.3137 0.9495 -68.0826 111.9918)" class="st16" width="0.5" height="0.5"/>
			
				<rect x="317.2" y="278" transform="matrix(0.9497 -0.3132 0.3132 0.9497 -71.1763 113.4247)" class="st14" width="0.5" height="0.5"/>
			
				<rect x="317.2" y="278" transform="matrix(0.9497 -0.3132 0.3132 0.9497 -71.1763 113.4247)" class="st16" width="0.5" height="0.5"/>
			
				<rect x="320.8" y="288.7" transform="matrix(0.9498 -0.313 0.313 0.9498 -74.3104 115.0068)" class="st14" width="0.5" height="0.5"/>
			
				<rect x="320.8" y="288.7" transform="matrix(0.9498 -0.313 0.313 0.9498 -74.3104 115.0068)" class="st16" width="0.5" height="0.5"/>
			
				<rect x="324.3" y="299.4" transform="matrix(0.9497 -0.3132 0.3132 0.9497 -77.5216 116.7251)" class="st14" width="0.5" height="0.5"/>
			
				<rect x="324.3" y="299.4" transform="matrix(0.9497 -0.3132 0.3132 0.9497 -77.5216 116.7251)" class="st16" width="0.5" height="0.5"/>
			
				<rect x="327.8" y="310.1" transform="matrix(0.9498 -0.313 0.313 0.9498 -80.6568 118.273)" class="st14" width="0.5" height="0.5"/>
			
				<rect x="327.8" y="310.1" transform="matrix(0.9498 -0.313 0.313 0.9498 -80.6568 118.273)" class="st16" width="0.5" height="0.5"/>
			
				<rect x="315.5" y="271.6" transform="matrix(0.9497 -0.3132 0.3132 0.9497 -69.5862 112.6231)" class="st12" width="0.5" height="2.6"/>
			
				<rect x="315.5" y="271.6" transform="matrix(0.9497 -0.3132 0.3132 0.9497 -69.5862 112.6231)" class="st16" width="0.5" height="2.6"/>
			
				<rect x="319" y="282.3" transform="matrix(0.9498 -0.313 0.313 0.9498 -72.7262 114.1746)" class="st12" width="0.5" height="2.6"/>
			
				<rect x="319" y="282.3" transform="matrix(0.9498 -0.313 0.313 0.9498 -72.7262 114.1746)" class="st16" width="0.5" height="2.6"/>
			
				<rect x="322.5" y="292.9" transform="matrix(0.9496 -0.3133 0.3133 0.9496 -75.9229 115.9301)" class="st12" width="0.5" height="2.6"/>
			
				<rect x="322.5" y="292.9" transform="matrix(0.9496 -0.3133 0.3133 0.9496 -75.9229 115.9301)" class="st16" width="0.5" height="2.6"/>
			
				<rect x="326" y="303.6" transform="matrix(0.9496 -0.3133 0.3133 0.9496 -79.099 117.5654)" class="st12" width="0.5" height="2.6"/>
			
				<rect x="326" y="303.6" transform="matrix(0.9496 -0.3133 0.3133 0.9496 -79.099 117.5654)" class="st16" width="0.5" height="2.6"/>
			<path class="st12" d="M329.1,314.4l0.8,2.5l0.5-0.2l-0.8-2.5L329.1,314.4z"/>
			<path class="st16" d="M329.1,314.4l0.8,2.5l0.5-0.2l-0.8-2.5L329.1,314.4z"/>
			
				<rect x="323.7" y="259.9" transform="matrix(0.9497 -0.3132 0.3132 0.9497 -65.7284 114.6379)" class="st16" width="0.5" height="4"/>
			
				<rect x="339.2" y="307" transform="matrix(0.9497 -0.3132 0.3132 0.9497 -79.6847 121.8597)" class="st16" width="0.5" height="3.9"/>
			
				<rect x="335.7" y="296.3" transform="matrix(0.9497 -0.3132 0.3132 0.9497 -76.5095 120.2252)" class="st16" width="0.5" height="3.9"/>
			
				<rect x="334.3" y="291.8" transform="matrix(0.9496 -0.3133 0.3133 0.9496 -75.2191 119.6094)" class="st16" width="0.5" height="4.1"/>
			
				<rect x="327.2" y="270.5" transform="matrix(0.9497 -0.3132 0.3132 0.9497 -68.8723 116.2674)" class="st16" width="0.5" height="4"/>
			
				<rect x="328.7" y="274.9" transform="matrix(0.9496 -0.3133 0.3133 0.9496 -70.1906 117.0016)" class="st16" width="0.5" height="4"/>
			
				<rect x="332.2" y="285.6" transform="matrix(0.9497 -0.3132 0.3132 0.9497 -73.35 118.5931)" class="st16" width="0.5" height="4"/>
			<path class="st16" d="M340.6,313.3L340.6,313.3l0.5-0.1v-0.1L340.6,313.3z"/>
			
				<rect x="324.4" y="265.3" transform="matrix(0.9507 -0.3102 0.3102 0.9507 -66.9179 113.8941)" class="st16" width="0.5" height="4.1"/>
			
				<rect x="330.7" y="281.2" transform="matrix(0.9497 -0.3132 0.3132 0.9497 -72.0631 117.9045)" class="st16" width="0.5" height="4.1"/>
			
				<rect x="337.8" y="302.5" transform="matrix(0.9497 -0.3132 0.3132 0.9497 -78.3927 121.2023)" class="st16" width="0.5" height="4.2"/>
			
				<rect x="324.4" y="263.8" transform="matrix(0.9498 -0.313 0.313 0.9498 -66.3358 114.8825)" class="st14" width="0.5" height="0.5"/>
			
				<rect x="324.4" y="263.8" transform="matrix(0.9498 -0.313 0.313 0.9498 -66.3358 114.8825)" class="st16" width="0.5" height="0.5"/>
			
				<rect x="327.9" y="274.5" transform="matrix(0.9497 -0.3132 0.3132 0.9497 -69.5418 116.5999)" class="st14" width="0.5" height="0.5"/>
			
				<rect x="327.9" y="274.5" transform="matrix(0.9497 -0.3132 0.3132 0.9497 -69.5418 116.5999)" class="st16" width="0.5" height="0.5"/>
			
				<rect x="331.5" y="285.2" transform="matrix(0.9497 -0.3132 0.3132 0.9497 -72.7119 118.2657)" class="st14" width="0.5" height="0.5"/>
			
				<rect x="331.5" y="285.2" transform="matrix(0.9497 -0.3132 0.3132 0.9497 -72.7119 118.2657)" class="st16" width="0.5" height="0.5"/>
			
				<rect x="335" y="295.9" transform="matrix(0.9498 -0.313 0.313 0.9498 -75.8505 119.8132)" class="st14" width="0.5" height="0.5"/>
			
				<rect x="335" y="295.9" transform="matrix(0.9498 -0.313 0.313 0.9498 -75.8505 119.8132)" class="st16" width="0.5" height="0.5"/>
			
				<rect x="337.7" y="307.7" transform="matrix(0.9507 -0.3102 0.3102 0.9507 -78.8559 120.0224)" class="st14" width="0.5" height="0.5"/>
			
				<rect x="337.7" y="307.7" transform="matrix(0.9507 -0.3102 0.3102 0.9507 -78.8559 120.0224)" class="st16" width="0.5" height="0.5"/>
			<path class="st12" d="M323.6,259.9l-0.1-0.5l-0.5,0.1l0.1,0.5L323.6,259.9z"/>
			<path class="st16" d="M323.6,259.9l-0.1-0.5l-0.5,0.1l0.1,0.5L323.6,259.9z"/>
			
				<rect x="326.2" y="268.1" transform="matrix(0.9497 -0.3132 0.3132 0.9497 -67.9517 115.7982)" class="st12" width="0.5" height="2.6"/>
			
				<rect x="326.2" y="268.1" transform="matrix(0.9497 -0.3132 0.3132 0.9497 -67.9517 115.7982)" class="st16" width="0.5" height="2.6"/>
			
				<rect x="329.7" y="278.8" transform="matrix(0.9497 -0.3132 0.3132 0.9497 -71.1268 117.4328)" class="st12" width="0.5" height="2.6"/>
			
				<rect x="329.7" y="278.8" transform="matrix(0.9497 -0.3132 0.3132 0.9497 -71.1268 117.4328)" class="st16" width="0.5" height="2.6"/>
			
				<rect x="333.2" y="289.4" transform="matrix(0.9498 -0.313 0.313 0.9498 -74.2351 118.9759)" class="st12" width="0.5" height="2.6"/>
			
				<rect x="333.2" y="289.4" transform="matrix(0.9498 -0.313 0.313 0.9498 -74.2351 118.9759)" class="st16" width="0.5" height="2.6"/>
			
				<rect x="336.7" y="300.1" transform="matrix(0.9497 -0.3132 0.3132 0.9497 -77.4458 120.6968)" class="st12" width="0.5" height="2.6"/>
			
				<rect x="336.7" y="300.1" transform="matrix(0.9497 -0.3132 0.3132 0.9497 -77.4458 120.6968)" class="st16" width="0.5" height="2.6"/>
			
				<rect x="340.2" y="310.7" transform="matrix(0.9497 -0.3132 0.3132 0.9497 -80.5896 122.3263)" class="st12" width="0.5" height="2.6"/>
			
				<rect x="340.2" y="310.7" transform="matrix(0.9497 -0.3132 0.3132 0.9497 -80.5896 122.3263)" class="st16" width="0.5" height="2.6"/>
			
				<rect x="347.6" y="300.2" transform="matrix(0.9507 -0.3102 0.3102 0.9507 -76.615 122.8147)" class="st16" width="0.5" height="4.2"/>
			
				<rect x="345" y="288.3" transform="matrix(0.9496 -0.3133 0.3133 0.9496 -73.5838 122.7855)" class="st16" width="0.5" height="4.1"/>
			
				<rect x="349.9" y="303.5" transform="matrix(0.9497 -0.3132 0.3132 0.9497 -78.0501 125.0348)" class="st16" width="0.5" height="3.9"/>
			
				<rect x="342.9" y="282" transform="matrix(0.9496 -0.3133 0.3133 0.9496 -71.7001 121.8079)" class="st16" width="0.5" height="4"/>
			
				<rect x="335.8" y="260.7" transform="matrix(0.9498 -0.313 0.313 0.9498 -65.3561 118.3854)" class="st16" width="0.5" height="4.1"/>
			<path class="st16" d="M351.3,309.8v0.2l0.5-0.2v-0.2L351.3,309.8z"/>
			<path class="st16" d="M335.5,260.2l-0.9-2.8h-0.5l1,2.9L335.5,260.2z"/>
			
				<rect x="346.4" y="292.8" transform="matrix(0.9498 -0.313 0.313 0.9498 -74.8395 123.311)" class="st16" width="0.5" height="3.9"/>
			
				<rect x="337.9" y="267" transform="matrix(0.9497 -0.3132 0.3132 0.9497 -67.2377 119.4425)" class="st16" width="0.5" height="4"/>
			
				<rect x="341.5" y="277.7" transform="matrix(0.9497 -0.3132 0.3132 0.9497 -70.4235 121.1109)" class="st16" width="0.5" height="4.1"/>
			
				<rect x="339.4" y="271.4" transform="matrix(0.9497 -0.3132 0.3132 0.9497 -68.5403 120.1337)" class="st16" width="0.5" height="4"/>
			
				<rect x="335.1" y="260.3" transform="matrix(0.9496 -0.3133 0.3133 0.9496 -64.7459 118.1835)" class="st14" width="0.5" height="0.5"/>
			
				<rect x="335.1" y="260.3" transform="matrix(0.9496 -0.3133 0.3133 0.9496 -64.7459 118.1835)" class="st16" width="0.5" height="0.5"/>
			
				<rect x="338.6" y="270.9" transform="matrix(0.9497 -0.3132 0.3132 0.9497 -67.8759 119.77)" class="st14" width="0.5" height="0.5"/>
			
				<rect x="338.6" y="270.9" transform="matrix(0.9497 -0.3132 0.3132 0.9497 -67.8759 119.77)" class="st16" width="0.5" height="0.5"/>
			
				<rect x="342.2" y="281.7" transform="matrix(0.9498 -0.313 0.313 0.9498 -71.0441 121.3533)" class="st14" width="0.5" height="0.5"/>
			
				<rect x="342.2" y="281.7" transform="matrix(0.9498 -0.313 0.313 0.9498 -71.0441 121.3533)" class="st16" width="0.5" height="0.5"/>
			
				<rect x="345.7" y="292.3" transform="matrix(0.9496 -0.3133 0.3133 0.9496 -74.2378 123.1156)" class="st14" width="0.5" height="0.5"/>
			
				<rect x="345.7" y="292.3" transform="matrix(0.9496 -0.3133 0.3133 0.9496 -74.2378 123.1156)" class="st16" width="0.5" height="0.5"/>
			
				<rect x="349.2" y="303.1" transform="matrix(0.9498 -0.313 0.313 0.9498 -77.3906 124.6195)" class="st14" width="0.5" height="0.5"/>
			
				<rect x="349.2" y="303.1" transform="matrix(0.9498 -0.313 0.313 0.9498 -77.3906 124.6195)" class="st16" width="0.5" height="0.5"/>
			
				<rect x="336.9" y="264.6" transform="matrix(0.9497 -0.3132 0.3132 0.9497 -66.3171 118.9734)" class="st12" width="0.5" height="2.6"/>
			
				<rect x="336.9" y="264.6" transform="matrix(0.9497 -0.3132 0.3132 0.9497 -66.3171 118.9734)" class="st16" width="0.5" height="2.6"/>
			
				<rect x="340.4" y="275.2" transform="matrix(0.9498 -0.313 0.313 0.9498 -69.4287 120.5161)" class="st12" width="0.5" height="2.6"/>
			
				<rect x="340.4" y="275.2" transform="matrix(0.9498 -0.313 0.313 0.9498 -69.4287 120.5161)" class="st16" width="0.5" height="2.6"/>
			
				<rect x="343.9" y="285.9" transform="matrix(0.9497 -0.3132 0.3132 0.9497 -72.6361 122.2374)" class="st12" width="0.5" height="2.6"/>
			
				<rect x="343.9" y="285.9" transform="matrix(0.9497 -0.3132 0.3132 0.9497 -72.6361 122.2374)" class="st16" width="0.5" height="2.6"/>
			
				<rect x="346.5" y="297.8" transform="matrix(0.9507 -0.3102 0.3102 0.9507 -75.6766 122.3156)" class="st12" width="0.5" height="2.6"/>
			
				<rect x="346.5" y="297.8" transform="matrix(0.9507 -0.3102 0.3102 0.9507 -75.6766 122.3156)" class="st16" width="0.5" height="2.6"/>
			
				<rect x="350.9" y="307.2" transform="matrix(0.9498 -0.313 0.313 0.9498 -78.9172 125.4104)" class="st12" width="0.5" height="2.6"/>
			
				<rect x="350.9" y="307.2" transform="matrix(0.9498 -0.313 0.313 0.9498 -78.9172 125.4104)" class="st16" width="0.5" height="2.6"/>
			
				<rect x="357.1" y="289.2" transform="matrix(0.9498 -0.313 0.313 0.9498 -73.1751 126.4792)" class="st16" width="0.5" height="3.9"/>
			<path class="st16" d="M362,306.3l0.1,0.2l0.5-0.2l-0.1-0.2L362,306.3z"/>
			<path class="st16" d="M349.8,267.4l-0.7-2.2l-0.9-1.1l1.1,3.5L349.8,267.4z"/>
			
				<rect x="359.2" y="295.4" transform="matrix(0.9497 -0.3132 0.3132 0.9497 -75.0923 127.5476)" class="st16" width="0.5" height="4.2"/>
			
				<rect x="352.1" y="274.1" transform="matrix(0.9497 -0.3132 0.3132 0.9497 -68.7627 124.2497)" class="st16" width="0.5" height="4.1"/>
			
				<rect x="355.7" y="284.8" transform="matrix(0.9497 -0.3132 0.3132 0.9497 -71.9328 125.9156)" class="st16" width="0.5" height="4.1"/>
			
				<rect x="353.6" y="278.5" transform="matrix(0.9496 -0.3133 0.3133 0.9496 -70.0648 124.984)" class="st16" width="0.5" height="4"/>
			
				<rect x="360.6" y="299.9" transform="matrix(0.9496 -0.3133 0.3133 0.9496 -76.4013 128.252)" class="st16" width="0.5" height="3.9"/>
			
				<rect x="350.1" y="267.8" transform="matrix(0.9498 -0.313 0.313 0.9498 -66.8442 123.2155)" class="st16" width="0.5" height="4"/>
			
				<rect x="349.3" y="267.4" transform="matrix(0.9497 -0.3132 0.3132 0.9497 -66.2414 122.9451)" class="st14" width="0.5" height="0.5"/>
			
				<rect x="349.3" y="267.4" transform="matrix(0.9497 -0.3132 0.3132 0.9497 -66.2414 122.9451)" class="st16" width="0.5" height="0.5"/>
			
				<rect x="352.9" y="278.1" transform="matrix(0.9497 -0.3132 0.3132 0.9497 -69.4115 124.611)" class="st14" width="0.5" height="0.5"/>
			
				<rect x="352.9" y="278.1" transform="matrix(0.9497 -0.3132 0.3132 0.9497 -69.4115 124.611)" class="st16" width="0.5" height="0.5"/>
			
				<rect x="356.4" y="288.8" transform="matrix(0.9497 -0.3132 0.3132 0.9497 -72.5866 126.2455)" class="st14" width="0.5" height="0.5"/>
			
				<rect x="356.4" y="288.8" transform="matrix(0.9497 -0.3132 0.3132 0.9497 -72.5866 126.2455)" class="st16" width="0.5" height="0.5"/>
			
				<rect x="359.9" y="299.5" transform="matrix(0.9498 -0.313 0.313 0.9498 -75.7262 127.7877)" class="st14" width="0.5" height="0.5"/>
			
				<rect x="359.9" y="299.5" transform="matrix(0.9498 -0.313 0.313 0.9498 -75.7262 127.7877)" class="st16" width="0.5" height="0.5"/>
			
				<rect x="351.1" y="271.7" transform="matrix(0.9498 -0.313 0.313 0.9498 -67.7956 123.6893)" class="st12" width="0.5" height="2.6"/>
			
				<rect x="351.1" y="271.7" transform="matrix(0.9498 -0.313 0.313 0.9498 -67.7956 123.6893)" class="st16" width="0.5" height="2.6"/>
			
				<rect x="354.6" y="282.3" transform="matrix(0.9498 -0.313 0.313 0.9498 -70.9375 125.3174)" class="st12" width="0.5" height="2.6"/>
			
				<rect x="354.6" y="282.3" transform="matrix(0.9498 -0.313 0.313 0.9498 -70.9375 125.3174)" class="st16" width="0.5" height="2.6"/>
			
				<rect x="358.1" y="293" transform="matrix(0.9496 -0.3133 0.3133 0.9496 -74.1618 127.0886)" class="st12" width="0.5" height="2.6"/>
			
				<rect x="358.1" y="293" transform="matrix(0.9496 -0.3133 0.3133 0.9496 -74.1618 127.0886)" class="st16" width="0.5" height="2.6"/>
			
				<rect x="361.6" y="303.6" transform="matrix(0.9497 -0.3132 0.3132 0.9497 -77.2892 128.6716)" class="st12" width="0.5" height="2.6"/>
			
				<rect x="361.6" y="303.6" transform="matrix(0.9497 -0.3132 0.3132 0.9497 -77.2892 128.6716)" class="st16" width="0.5" height="2.6"/>
			<path class="st12" d="M317.5,291.1c-1.9-3.8-4.4-7.3-7.2-10.4c1.7-1.6,4.2-2.5,7.6-2.2C319,282.6,318.8,287,317.5,291.1z"/>
			<polygon class="st10" points="314.5,292.6 295.8,289.5 295.9,293.7 314,295.5 			"/>
			<polygon class="st15" points="314.5,292.6 295.8,289.5 295.9,293.7 314,295.5 			"/>
			<path class="st10" d="M389.6,315.8l1.4,2.3c0.4,0.6,0.2,1.5-0.4,1.9l-119.1,76.9l-2.8-4.7l119-76.9
				C388.3,314.9,389.2,315.1,389.6,315.8L389.6,315.8z"/>
			<path class="st12" d="M389.6,315.8l1.4,2.3c0.4,0.6,0.2,1.5-0.4,1.9l-119.1,76.9l-2.8-4.7l119-76.9
				C388.3,314.9,389.2,315.1,389.6,315.8L389.6,315.8z"/>
			<path class="st5" d="M265.7,394.8c0,0-9.5-13.8-6.5-28.4c2.7,8.9,6.9,17.4,12.5,24.9L265.7,394.8z"/>
			<path class="st18" d="M265.7,394.8c0,0-9.5-13.8-6.5-28.4c2.7,8.9,6.9,17.4,12.5,24.9L265.7,394.8z"/>
			<path class="st5" d="M267.7,398.1c0,0,7.5,15,21.7,19.4c-6.5-6.7-11.9-14.5-15.8-22.9L267.7,398.1z"/>
			<path class="st18" d="M267.7,398.1c0,0,7.5,15,21.7,19.4c-6.5-6.7-11.9-14.5-15.8-22.9L267.7,398.1z"/>
			
				<rect x="265.1" y="391.1" transform="matrix(0.8609 -0.5087 0.5087 0.8609 -163.096 192.253)" class="st5" width="10" height="6.7"/>
			
				<rect x="265.1" y="391.1" transform="matrix(0.8609 -0.5087 0.5087 0.8609 -163.096 192.253)" class="st19" width="10" height="6.7"/>
			<path class="st13" d="M376.6,315.1l-0.1,10.2l8.9-1.4c0,0,1.1-7.1-4.1-10.1L376.6,315.1z"/>
			<polygon class="st13" points="378.8,328.9 386.3,329.2 385.4,324 376.6,325.4 			"/>
			<polygon class="st13" points="404.2,396.8 404.7,404.1 387.8,405.9 387.3,398.5 			"/>
			<path class="st10" d="M405,404.4c0-0.1-0.1-0.1-0.2-0.1s-0.1,0.1-0.1,0.1c0,0.1-0.2,3.1,0.6,4c0.2,0.2,0.4,0.3,0.6,0.3
				c0.3,0.1,0.6-0.1,0.7-0.3c0.2-0.5,0-1.3-0.4-2.2C405.8,405.6,405.4,405,405,404.4z M405,405c0.8,1.1,1.6,2.8,1.3,3.3
				c0,0.1-0.1,0.2-0.4,0.1c-0.1,0-0.3-0.1-0.4-0.2s-0.1-0.2-0.2-0.3C405.1,407,404.9,406,405,405L405,405z"/>
			<path class="st10" d="M404.9,404.3c-0.1,0-0.1,0-0.2,0s-1.8,1.1-2,2.2c-0.1,0.3,0,0.7,0.1,1c0.3,0.4,0.5,0.4,0.7,0.4
				c0.8-0.2,1.5-2.5,1.5-3.5C405,404.5,405,404.4,404.9,404.3C405,404.4,405,404.4,404.9,404.3z M403,406.7c0.3-0.8,0.9-1.4,1.6-1.9
				c-0.1,1-0.7,2.7-1.2,2.8c0,0-0.2,0-0.3-0.2v-0.1C403,407.1,403,406.9,403,406.7z"/>
			<path class="st5" d="M403.8,404.2l-3.5-7.2c-0.1-0.3-0.1-0.6,0.2-0.8l5.2-4.1c0.5-0.4,1.1-0.3,1.5,0.2c0,0.1,0.1,0.1,0.1,0.2
				c1.2,2.6,2.9,6.5,4.5,9.7c1.8,3.8,3.6,7,5.8,11.5c1.3,2.7-1.1,4.8-1.9,3.8c-3.6-4.6-5.8-8.8-10.7-11.9
				C404.5,405.2,404,404.7,403.8,404.2z"/>
			<path class="st5" d="M397.6,410c0,0-54.1,9.6-71.1,4.9c-10.6-3-11-31.5-9-57.4c0.6-7.7,1.4-15.1,2.2-21.6
				c1.5-12.6,3.1-21.5,3.1-21.5l43.1-9.5c0,0,3.8,16.6-1.8,29.3c-2.5,6.2-7.7,10.9-14.1,12.9c0,0-3.8,12.1-6.8,24.5
				c-2.8,11.3-4.9,22.8-2.9,25.4c3,3.9,56.7,0,56.7,0L397.6,410z"/>
			<path class="st20" d="M397.6,410c0,0-54.1,9.6-71.1,4.9c-10.6-3-11-31.5-9-57.4c0.6-7.7,1.4-15.1,2.2-21.6
				c1.5-12.6,3.1-21.5,3.1-21.5l43.1-9.5c0,0,3.8,16.6-1.8,29.3c-2.5,6.2-7.7,10.9-14.1,12.9c0,0-3.8,12.1-6.8,24.5
				c-2.8,11.3-4.9,22.8-2.9,25.4c3,3.9,56.7,0,56.7,0L397.6,410z"/>
			<path class="st12" d="M318.5,347.6c-0.3,3.2-0.6,6.5-0.9,9.9c6.1,4.1,16.6,10.4,25.6,13.9c2.6-10.7,5.8-21.3,6.6-23.9
				L318.5,347.6z"/>
			<path class="st10" d="M307.7,410.2c0.1,0,0.1-0.1,0.1-0.1c0-0.1,0-0.1-0.1-0.2s-2.7-1.5-3.9-1.2c-0.2,0-0.4,0.2-0.5,0.4
				c-0.2,0.2-0.2,0.5,0,0.8c0.3,0.4,1.2,0.5,2.1,0.5C306.2,410.4,307,410.3,307.7,410.2z M307.2,410c-1.4,0.2-3.2,0.2-3.6-0.3
				c0-0.1-0.1-0.2,0-0.4c0.1-0.1,0.2-0.3,0.4-0.3c0.1,0,0.2,0,0.3,0C305.3,409.1,306.3,409.5,307.2,410L307.2,410z"/>
			<path class="st10" d="M307.8,410.2c0.1,0,0.1-0.1,0.1-0.2s-0.2-2.1-1.1-2.8c-0.3-0.2-0.6-0.4-1-0.3c-0.5,0-0.6,0.3-0.6,0.5
				c-0.1,0.8,1.6,2.4,2.5,2.8H307.8C307.7,410.2,307.8,410.2,307.8,410.2z M306.5,407.5c0.6,0.6,0.9,1.4,1,2.3
				c-0.9-0.5-2.1-1.8-2-2.3c0,0,0-0.2,0.3-0.2h0.1C306.2,407.3,306.4,407.3,306.5,407.5L306.5,407.5z"/>
			<polygon class="st13" points="316.6,409.7 309.8,412.4 302.8,396.9 309.6,394.2 			"/>
			<path class="st5" d="M308.5,409.2h8c0.3,0,0.6,0.2,0.6,0.5l1.5,6.5c0.1,0.6-0.2,1.1-0.8,1.3c-0.1,0-0.2,0-0.3,0
				c-2.9,0-7.1-0.2-10.7-0.2c-4.2,0-7.9,0.2-12.9,0.2c-3,0-3.8-3-2.6-3.3c5.7-1.3,10.4-1.4,15.4-4.5
				C307.2,409.4,307.8,409.2,308.5,409.2z"/>
			<path class="st5" d="M365.8,305.4l-3.4,32.8c-1.7,3.9-10.8,11.1-15.1,11.6c-3.5,0.4-7,0.6-10.5,0.7c-6.1,0.1-12.6-0.1-18.5-0.4
				c-3.8-0.2-7.3-0.4-10.3-0.6c-5.5-0.3-9.4-0.5-9.9-0.2c-2,1.2,16.4,51.9,16.4,51.9l-11.3,0.2c0,0-25.2-43.2-27.6-57.6
				c-0.9-5.3-1.6-11.9,8.5-17c6.1-3.1,23.2-4.4,33-5c4.4-0.2,7.3-0.3,7.3-0.3l-0.3-1.4l-1.4-6.1L365.8,305.4z"/>
			<path class="st20" d="M365.8,305.4l-3.4,32.8c-1.7,3.9-10.8,11.1-15.1,11.6c-3.5,0.4-7,0.6-10.5,0.7c-6.1,0.1-12.6-0.1-18.5-0.4
				c-3.8-0.2-7.3-0.4-10.3-0.6c-5.5-0.3-9.4-0.5-9.9-0.2c-2,1.2,16.4,51.9,16.4,51.9l-11.3,0.2c0,0-25.2-43.2-27.6-57.6
				c-0.9-5.3-1.6-11.9,8.5-17c6.1-3.1,23.2-4.4,33-5c4.4-0.2,7.3-0.3,7.3-0.3l-0.3-1.4l-1.4-6.1L365.8,305.4z"/>
			<path class="st12" d="M348.2,324.9l8.4-1.6c0.2,3.6,0.2,7.2,0,10.8l-4.1,2.9l-3.4-1.5C348.9,331.9,348.6,328.4,348.2,324.9z"/>
			<polygon points="325.5,314.6 326.2,318.1 322.1,318.9 322.4,315.3 			"/>
			<polygon points="339.8,311.6 340.6,315.2 327.7,317.8 327,314.3 			"/>
			<polygon points="355.8,308.3 356.5,312 342.2,314.9 341.4,311.3 			"/>
			<polygon points="367,309.9 358.2,311.7 358.2,311.7 357.4,307.9 366.2,306.1 			"/>
			<path class="st13" d="M275.1,306l-4.4-2.7c-1.1-0.7-2.4-0.8-3.6-0.3l-2.9,1.2c-2,0.8-2.9,3.1-2.2,5.1l0.8,2.2
				c0.5,1.3,1.6,2.2,3,2.5l4.9,0.9c0,0,4.6-0.3,6.8-3.6L275.1,306z"/>
			<path class="st13" d="M315.1,275.3c-1,7.7-2.4,15.3-4.3,22.8c-0.7,3.1-1.6,6.1-2.8,9c-4.8,10.1-25.5,7-34.4,5.4l0.4-6.5
				c4.9-0.5,9.9-1,14.6-1.8c3.1-0.6,6.4-1.1,8.8-2.5c0.2-0.1,0.3-0.3,0.1-0.2c-0.1,0.1-0.3,0.2-0.4,0.4c-0.1,0.1-0.2,0.3-0.2,0.2
				s0,0,0-0.1c2-9.2,3.1-19.5,4.9-28.8L315.1,275.3L315.1,275.3z"/>
			<path class="st10" d="M298,276.7l-0.8,16.6l16.1,1c2.2-5.8,3.7-11.9,4.5-18.1C318.9,265.7,300.4,266.1,298,276.7z"/>
			
				<rect x="300.2" y="276.4" transform="matrix(0.1155 -0.9933 0.9933 0.1155 -7.4457 544.9619)" class="st14" width="4.2" height="0.5"/>
			
				<rect x="299.8" y="280.9" transform="matrix(0.1155 -0.9933 0.9933 0.1155 -12.3888 548.4712)" class="st14" width="3.9" height="0.5"/>
			<path class="st14" d="M303.2,272l0.2-2l-0.6,0.3l-0.2,1.6L303.2,272z"/>
			
				<rect x="299" y="287.6" transform="matrix(0.1155 -0.9933 0.9933 0.1155 -19.655 553.6494)" class="st14" width="4.2" height="0.5"/>
			<polygon class="st14" points="300.5,290.4 300.1,293.5 300.7,293.5 301,290.5 			"/>
			
				<rect x="310.9" y="282.3" transform="matrix(0.1153 -0.9933 0.9933 0.1153 -3.894 560.7933)" class="st14" width="3.9" height="0.5"/>
			
				<rect x="311.3" y="277.7" transform="matrix(0.1155 -0.9933 0.9933 0.1155 1.1843 557.1684)" class="st14" width="4.2" height="0.5"/>
			
				<rect x="309.9" y="289" transform="matrix(0.1153 -0.9933 0.9933 0.1153 -11.2814 565.7662)" class="st14" width="4.2" height="0.5"/>
			<path class="st14" d="M314.4,273.3l0.4-3.4c-0.2-0.1-0.3-0.2-0.5-0.3l-0.4,3.7L314.4,273.3z"/>
			<polygon class="st14" points="311.7,291.7 311.4,294.2 311.9,294.2 312.2,291.8 			"/>
			
				<rect x="304.5" y="287.3" transform="matrix(0.1155 -0.9933 0.9933 0.1155 -15.5432 559.8384)" class="st12" width="4.2" height="2.6"/>
			
				<rect x="305.9" y="276" transform="matrix(0.1155 -0.9933 0.9933 0.1155 -3.0915 551.2179)" class="st12" width="4.2" height="2.6"/>
			<path class="st12" d="M309.8,272.8l0.5-3.9l-2.2-0.3h-0.4l-0.4,3.8L309.8,272.8z"/>
			<polygon class="st12" points="305,291 304.7,293.8 307.3,293.9 307.6,291.2 			"/>
			
				<rect x="305.4" y="280.7" transform="matrix(0.1155 -0.9933 0.9933 0.1155 -8.2213 554.6923)" class="st12" width="3.9" height="2.6"/>
			
				<rect x="309.2" y="283.3" transform="matrix(0.1155 -0.9933 0.9933 0.1155 -8.8507 560.8209)" class="st15" width="2.6" height="4.1"/>
			
				<rect x="302.4" y="282.5" transform="matrix(0.1155 -0.9933 0.9933 0.1155 -13.9887 553.3622)" class="st15" width="2.6" height="4"/>
			<polygon class="st15" points="301.3,283.1 297.8,282.7 297.6,285.3 301,285.7 			"/>
			<path class="st15" d="M312.8,287l2.8,0.3c0.2-0.8,0.5-1.7,0.7-2.5l-3.2-0.4L312.8,287z"/>
			
				<rect x="300.3" y="284.1" transform="matrix(0.1156 -0.9933 0.9933 0.1156 -15.7327 551.0302)" class="st14" width="2.6" height="0.5"/>
			
				<rect x="300.3" y="284.1" transform="matrix(0.1156 -0.9933 0.9933 0.1156 -15.7327 551.0302)" class="st15" width="2.6" height="0.5"/>
			
				<rect x="311.4" y="285.6" transform="matrix(0.1155 -0.9933 0.9933 0.1155 -7.2997 563.4118)" class="st14" width="2.6" height="0.5"/>
			
				<rect x="311.4" y="285.6" transform="matrix(0.1155 -0.9933 0.9933 0.1155 -7.2997 563.4118)" class="st15" width="2.6" height="0.5"/>
			
				<rect x="305.9" y="283.8" transform="matrix(0.1155 -0.9933 0.9933 0.1155 -11.5274 557.3008)" class="st12" width="2.6" height="2.6"/>
			
				<rect x="305.9" y="283.8" transform="matrix(0.1155 -0.9933 0.9933 0.1155 -11.5274 557.3008)" class="st15" width="2.6" height="2.6"/>
			<path class="st15" d="M302.3,274.5l0.3-2.6l-1.7-0.2c-0.8,0.7-1.4,1.5-1.9,2.4L302.3,274.5z"/>
			<path class="st15" d="M314,275.9l3.7,0.4l0,0c0.1-0.9,0-1.7-0.2-2.6l-3.3-0.4L314,275.9z"/>
			
				<rect x="310.2" y="272.3" transform="matrix(0.1153 -0.9933 0.9933 0.1153 3.0574 552.1964)" class="st15" width="2.6" height="4.1"/>
			
				<rect x="303.6" y="271.4" transform="matrix(0.1155 -0.9933 0.9933 0.1155 -1.8824 544.7596)" class="st15" width="2.6" height="4"/>
			
				<rect x="301.4" y="273.1" transform="matrix(0.1153 -0.9933 0.9933 0.1153 -3.8085 542.5117)" class="st14" width="2.6" height="0.5"/>
			
				<rect x="301.4" y="273.1" transform="matrix(0.1153 -0.9933 0.9933 0.1153 -3.8085 542.5117)" class="st15" width="2.6" height="0.5"/>
			
				<rect x="312.4" y="274.5" transform="matrix(0.1155 -0.9933 0.9933 0.1155 4.5232 554.6632)" class="st14" width="2.6" height="0.5"/>
			
				<rect x="312.4" y="274.5" transform="matrix(0.1155 -0.9933 0.9933 0.1155 4.5232 554.6632)" class="st15" width="2.6" height="0.5"/>
			
				<rect x="306.8" y="272.6" transform="matrix(0.1155 -0.9933 0.9933 0.1155 0.462 548.3666)" class="st12" width="2.6" height="2.6"/>
			
				<rect x="306.8" y="272.6" transform="matrix(0.1155 -0.9933 0.9933 0.1155 0.462 548.3666)" class="st15" width="2.6" height="2.6"/>
			<path class="st16" d="M312.2,291.8l2,0.2c0.1-0.2,0.1-0.3,0.2-0.5l-2-0.2L312.2,291.8z"/>
			<polygon class="st16" points="300.5,289.9 297.4,289.5 297.4,290.1 300.5,290.4 			"/>
			
				<rect x="309.3" y="289.2" transform="matrix(0.1156 -0.9933 0.9933 0.1156 -15.5178 565.1099)" class="st16" width="0.5" height="4.1"/>
			
				<rect x="302.8" y="288.4" transform="matrix(0.1155 -0.9933 0.9933 0.1155 -20.3973 557.888)" class="st16" width="0.5" height="4"/>
			
				<rect x="300.6" y="290" transform="matrix(0.1158 -0.9933 0.9933 0.1158 -22.2886 555.4349)" class="st14" width="0.5" height="0.5"/>
			
				<rect x="300.6" y="290" transform="matrix(0.1158 -0.9933 0.9933 0.1158 -22.2886 555.4349)" class="st16" width="0.5" height="0.5"/>
			
				<rect x="311.5" y="291.3" transform="matrix(0.1155 -0.9933 0.9933 0.1155 -13.8065 567.519)" class="st14" width="0.5" height="0.5"/>
			
				<rect x="311.5" y="291.3" transform="matrix(0.1155 -0.9933 0.9933 0.1155 -13.8065 567.519)" class="st16" width="0.5" height="0.5"/>
			
				<rect x="306.1" y="289.6" transform="matrix(0.1155 -0.9933 0.9933 0.1155 -18.0142 561.5552)" class="st12" width="0.5" height="2.6"/>
			
				<rect x="306.1" y="289.6" transform="matrix(0.1155 -0.9933 0.9933 0.1155 -18.0142 561.5552)" class="st16" width="0.5" height="2.6"/>
			<polygon class="st16" points="301.9,278.7 298,278.2 297.9,278.8 301.8,279.2 			"/>
			
				<rect x="310.9" y="278" transform="matrix(0.1155 -0.9933 0.9933 0.1155 -2.9562 556.7258)" class="st16" width="0.5" height="4.1"/>
			<path class="st16" d="M313.5,280.6l3.6,0.4c0-0.2,0.1-0.4,0.1-0.5l-3.6-0.4L313.5,280.6z"/>
			
				<rect x="304" y="277.3" transform="matrix(0.1155 -0.9933 0.9933 0.1155 -8.3099 549.265)" class="st16" width="0.5" height="4"/>
			
				<rect x="302.1" y="278.6" transform="matrix(0.1151 -0.9934 0.9934 0.1151 -9.4555 547.0764)" class="st14" width="0.5" height="0.5"/>
			
				<rect x="302.1" y="278.6" transform="matrix(0.1151 -0.9934 0.9934 0.1151 -9.4555 547.0764)" class="st16" width="0.5" height="0.5"/>
			
				<rect x="313" y="280.3" transform="matrix(0.1155 -0.9933 0.9933 0.1155 -1.5612 559.2753)" class="st14" width="0.5" height="0.5"/>
			
				<rect x="313" y="280.3" transform="matrix(0.1155 -0.9933 0.9933 0.1155 -1.5612 559.2753)" class="st16" width="0.5" height="0.5"/>
			
				<rect x="307.4" y="278.5" transform="matrix(0.1155 -0.9933 0.9933 0.1155 -5.7471 553.0511)" class="st12" width="0.5" height="2.6"/>
			
				<rect x="307.4" y="278.5" transform="matrix(0.1155 -0.9933 0.9933 0.1155 -5.7471 553.0511)" class="st16" width="0.5" height="2.6"/>
			<path class="st16" d="M313.5,269.2c-1.1-0.4-2.2-0.6-3.3-0.7v0.3L313.5,269.2z"/>
			<path class="st12" d="M310.3,268.5c-0.8,0-1.5,0-2.3,0.1l2.2,0.3L310.3,268.5z"/>
			<path class="st16" d="M310.3,268.5c-0.8,0-1.5,0-2.3,0.1l2.2,0.3L310.3,268.5z"/>
			<path class="st11" d="M258.9,282.4l4.7-11.3c0,0-6.9,2.3-7-5.9c0,0-3.8,11.5-13.1,4.3c0,0-0.7,8.1-3,10.8s-7.2,2.8-7.2,2.8
				s3.5,3.7,3.6,5.8s-3.7,4.5-3.7,4.5l9.7,2.8c0,0-3.8-0.8-3.6-5.6s5.1-12.4,12.8-15.2C259.8,272.6,261.8,274.9,258.9,282.4z"/>
		</g>
	</g>
</g>
<g id="Layer_3_00000170964933800988044480000010142176572110772645_">
	<g id="Layer_3">
		<g id="freepik--Number--inject-48">
			<path class="st10" d="M152.4,215.4l-9.6-0.9l-1.2,12.4l-7-0.7l1.2-12.4l-27.9-2.6l0.5-5l28.8-30.5l7.8,0.7l-27.6,29.4l19.3,1.8
				l1-10.9l6.8,0.6l-1,10.9l9.6,0.9L152.4,215.4z"/>
			<path class="st10" d="M157.9,203c1.6-16.4,11.2-24.9,23-23.8s19.6,11.3,18.1,27.6s-11.2,24.9-22.9,23.8S156.4,219.4,157.9,203z
				 M191.8,206.2c1.2-12.9-3.6-19.8-11.5-20.6s-14,5.2-15.2,18.1s3.6,19.8,11.5,20.6S190.6,219,191.8,206.2z"/>
			<path class="st10" d="M248.4,224.4l-9.6-0.9l-1.2,12.4l-7-0.7l1.2-12.4l-27.9-2.6l0.5-5l28.8-30.5l7.8,0.7l-27.6,29.4l19.3,1.8
				l1-10.9l6.8,0.6l-1,10.9l9.6,0.9L248.4,224.4z"/>
		</g>
	</g>
</g>
<g id="Layer_2">
	<g id="Layer_2_00000082367801457127976070000002203662939212938680_">
		<g id="Layer_2_00000011745231575231878240000010220002595265034420_">
			<g id="Layer_1_00000107576707231906691900000002837765210919302289_">
				<g id="Layer_2_00000109024508472564697900000007998273143446819233_" class="st21">
					<polygon class="st10" points="257.4,297 189.7,298.2 276.4,230.3 					"/>
					<circle class="st10" cx="181.4" cy="198.2" r="100.4"/>
				</g>
			</g>
		</g>
	</g>
</g>
</svg>
