<svg id="Layer_1" data-name="Layer 1" xmlns="http://www.w3.org/2000/svg" viewBox="0 0 520 520"><defs><style>.cls-1,.cls-2,.cls-5{fill:#fb923c;}.cls-1,.cls-2{isolation:isolate;}.cls-1{opacity:0.2;}.cls-2{opacity:0.15;}.cls-3{fill:#ffb07b;}.cls-4{fill:#f97316;}.cls-6{fill:#fff;}</style></defs><g id="Layer_1-2" data-name="Layer 1"><path class="cls-1" d="M520,260c0,143.58-116.42,260-260,260S0,403.57,0,260,116.4,0,260,0,520,116.4,520,260Z"/><path class="cls-2" d="M508.23,337.54l-95.4-95.07-64.07-17.78L258.3,204l-77.74-5.24-64.51,24.6L94.17,248l27.5,26.87-9.9,53.71-7.39,4.24L289,518.34C392.7,506.81,478,434.35,508.23,337.54Z"/><path class="cls-3" d="M379.81,247.72l-1.09-.4c-.65-.24-1.6-.45-2.51-.72l-3.65-1,5-20.89s9.16,2.49,9.15,2.7Z"/><path class="cls-4" d="M386.61,250.45,383.3,249l-3.49-1.25,6.94-20.33L391.3,229l4.5,2Z"/><path class="cls-3" d="M392.73,253.86l-.87-.61-2.1-1.17c-.77-.42-1.5-.89-2.12-1.17l-1-.46L395.8,231c0-.2,8.88,4.67,8.8,4.92Z"/><path class="cls-4" d="M397.91,257.92l-.19-.18-.57-.48-1.69-1.45a22.77,22.77,0,0,0-1.87-1.35l-.86-.6L404.6,236s.53.38,1.33.92a29.76,29.76,0,0,1,2.89,2.11l2.77,2.38.91.79a2.5,2.5,0,0,1,.33.32Z"/><path class="cls-3" d="M401.81,262.59a1,1,0,0,0-.15-.2c-.09-.13-.24-.32-.41-.54-.33-.45-.78-1.05-1.2-1.66-1.1-1.11-2.14-2.27-2.14-2.27l14.92-15.45s1.89,2,3.71,4l2.3,3.07.73,1c.18.25.27.4.27.4Z"/><path class="cls-4" d="M404.22,267.71a27.31,27.31,0,0,0-1-2.6l-1.39-2.52,18-11.67.9,1.54c.51.93,1.25,2.14,1.86,3.42s1.12,2.65,1.52,3.66a12.88,12.88,0,0,1,.45,1.23c.08.3.13.47.13.47Z"/><path class="cls-3" d="M405.09,273.14v-.87c0-.52-.17-1.19-.25-1.88a9,9,0,0,0-.41-1.85c-.13-.5-.21-.83-.21-.83l20.48-6.47.48,1.75a27.15,27.15,0,0,1,.86,3.88c.19,1.44.42,2.88.49,3.95a12.55,12.55,0,0,1,0,1.81Z"/><path class="cls-4" d="M404.46,278.79l.2-.9c.06-.26.16-.58.21-.91s.06-.68.09-1a8.93,8.93,0,0,0,.15-1.93v-.87l21.47-.51v1.8a30.27,30.27,0,0,1-.28,3.92c-.08.71-.16,1.42-.24,2.08s-.25,1.25-.36,1.77l-.4,1.72Z"/><path class="cls-3" d="M402.34,284.42l.4-.88a13.62,13.62,0,0,0,.84-1.92c.23-.71.49-1.42.69-1.95a2.55,2.55,0,0,0,.19-.88l20.85,5.13-.4,1.71c-.34,1-.79,2.3-1.25,3.61a31.24,31.24,0,0,1-1.49,3.47l-.73,1.54Z"/><path class="cls-4" d="M398.86,289.76s.23-.33.59-.82.88-1.11,1.31-1.79c.79-1.37,1.64-2.71,1.58-2.73l19.1,9.83a11.84,11.84,0,0,1-.8,1.49l-1.91,3.17c-.7,1.17-1.55,2.17-2.13,3l-1,1.34Z"/><path class="cls-3" d="M394.23,294.55l.76-.73c.46-.44,1.11-1,1.68-1.58l1.51-1.7c.21-.22.39-.42.51-.56a2.08,2.08,0,0,0,.17-.22l16.75,13.46-.29.35c-.19.23-.46.53-.78.9-.66.74-1.54,1.7-2.41,2.68s-1.88,1.8-2.58,2.47l-1.19,1.11Z"/><path class="cls-4" d="M388.7,298.62l.91-.59a18.78,18.78,0,0,0,1.95-1.35l1.85-1.45a5.92,5.92,0,0,0,.82-.68l14.13,16.18a14.39,14.39,0,0,1-1.22,1l-2.78,2.18c-1,.82-2.1,1.44-2.88,2l-1.34.87Z"/><path class="cls-3" d="M382.49,301.91l1-.45a17.47,17.47,0,0,0,2.16-1.09c.77-.42,1.55-.83,2.12-1.15l.91-.6,11.44,18.18-1.32.86-3.05,1.66a28.68,28.68,0,0,1-3.08,1.56l-1.43.64Z"/><path class="cls-4" d="M375.8,304.41l.3-.07a7.83,7.83,0,0,0,.78-.25l2.32-.83,1.24-.43c.39-.16.74-.33,1-.46l1-.46,8.77,19.61-1.43.64-1.46.64-1.72.61-3.22,1.14c-.44.15-.81.27-1.07.33L382,325Z"/><path class="cls-3" d="M368.72,306.05l1.12-.21c.67-.14,1.58-.27,2.46-.49l3.5-.94L382,325l-4.76,1.28c-1.2.29-2.41.48-3.31.66l-1.5.28Z"/><path class="cls-4" d="M361.4,306.91s.47,0,1.16-.06l2.52-.28c.92-.13,1.84-.19,2.51-.3l1.13-.22,3.66,21.16-1.5.28c-.91.15-2.12.26-3.33.41l-3.32.37c-.91.07-1.51.08-1.51.08Z"/><path class="cls-3" d="M353.94,307l1.17.05c.7,0,1.65.09,2.58.05l3.71-.14,1.32,21.44-4.83.18a31.28,31.28,0,0,1-3.3-.06h-1.5Z"/><path class="cls-4" d="M346.42,306.33l3.77.4a24.48,24.48,0,0,0,2.57.19h1.18l-.85,21.48s-.6,0-1.5,0-2.09-.11-3.28-.25l-4.74-.5Z"/><path class="cls-3" d="M339.41,304.89l1.09.29,1.12.31,1.29.23,2.38.44a8.56,8.56,0,0,0,1.13.17l-2.85,21.3s-.58-.05-1.52-.23l-3.38-.62c-.62-.12-1.25-.22-1.81-.34l-1.53-.41-1.5-.39Z"/><path class="cls-4" d="M332.43,302.59l.3.13a5.82,5.82,0,0,0,.79.3l2.4.82a22.29,22.29,0,0,0,2.4.76l1.09.29-5.58,20.75-1.49-.4c-.91-.21-2.06-.62-3.2-1l-3.14-1.1c-.44-.15-.78-.3-1-.39l-.37-.16Z"/><path class="cls-3" d="M325.47,299.48l3.47,1.67,3.49,1.44-7.84,20-4.42-1.84-4.24-2Z"/><path class="cls-4" d="M318.54,295.74s1.73,1.05,3.46,1.93l2.38,1.28,1.09.53-9.54,19.25-1.32-.65-2.81-1.49c-2.06-1.07-4-2.23-4-2.23Z"/><path class="cls-3" d="M311.61,291.55l3.47,2.15c.86.55,1.73,1,2.38,1.42l1.08.62-10.73,18.62s-.49-.3-1.24-.73-1.73-1-2.66-1.58l-3.82-2.37Z"/><path class="cls-4" d="M304.65,287l3.5,2.31,3.46,2.24-11.52,18.13-3.7-2.39-3.65-2.42Z"/><polygon class="cls-3" points="297.59 282.25 304.65 287 292.74 304.88 285.61 300.08 297.59 282.25"/><path class="cls-4" d="M290.29,277.42l3.69,2.42,3.61,2.41-12,17.83-3.51-2.33-3.47-2.27Z"/><path class="cls-3" d="M282.61,272.69l1.24.72c.75.43,1.72,1,2.66,1.62l2.62,1.65,1.16.74-11.66,18.06s-1.72-1.1-3.44-2.18c-.86-.56-1.72-1.08-2.35-1.45l-1.08-.63Z"/><path class="cls-4" d="M274.36,268.24s.55.25,1.36.65l2.86,1.52c1,.56,2.07,1.11,2.79,1.55s1.24.73,1.24.73l-10.85,18.53s-1.71-1.05-3.41-1.92c-.85-.46-1.7-.9-2.33-1.25l-1.06-.49Z"/><path class="cls-3" d="M265.27,264.43l.42.13a10.55,10.55,0,0,1,1.07.39l3.18,1.27c1.17.45,2.23,1,3.06,1.37l1.36.65L265,287.56l-1-.5a18.63,18.63,0,0,0-2.3-1l-2.29-.92c-.24-.1-.49-.19-.74-.27l-.28-.08Z"/><path class="cls-4" d="M255.09,261.88a11.74,11.74,0,0,1,1.66.28l3.58.79c1.3.27,2.47.72,3.4,1l1.54.49-7,20.32-1-.32a21.84,21.84,0,0,0-2.23-.65c-1.58-.34-3.16-.72-3.14-.65Z"/><path class="cls-3" d="M244,261.53l.49-.06a10.81,10.81,0,0,1,1.27-.07h3.85a36.61,36.61,0,0,1,3.77.31l1.69.19-3.18,21.25-1-.1a18,18,0,0,0-2.08-.18,22.8,22.8,0,0,0-2.94.07Z"/><path class="cls-4" d="M233.05,263.93a11.92,11.92,0,0,1,1.66-.54l3.73-1a13.62,13.62,0,0,1,2-.4l1.79-.24,1.75-.22,1.91,21.39-.9.13-.92.12a4.23,4.23,0,0,0-1.06.2c-1.39.42-2.83.7-2.82.8Z"/><path class="cls-3" d="M223.3,268.68l4.66-2.63c2.52-1.11,5.09-2.12,5.09-2.12l7.18,20.24s-1.38.6-2.81,1.17c-1.37.82-2.78,1.58-2.78,1.58Z"/><path class="cls-4" d="M215.11,274.84l1.17-1a12.37,12.37,0,0,1,1.22-1c.49-.32,1-.73,1.54-1.12l2.88-2.07a8.23,8.23,0,0,1,1-.66l.4-.23L234.66,287a49.47,49.47,0,0,0-5.43,4.13Z"/><path class="cls-3" d="M208.12,281.71l3.33-3.51a32.22,32.22,0,0,1,2.49-2.33l1.17-1,14.1,16.21s-.33.28-.84.74a20.46,20.46,0,0,0-1.81,1.67L224,296.15Z"/><path class="cls-4" d="M111.77,200.75s25.69-52.44,269.53,24.3l-6.58,20.81s-162.08-53.49-195.48-27.7S111.77,200.75,111.77,200.75Z"/><path class="cls-4" d="M148.31,185.92c-27.22,0-49.78,19.17-54.14,44.33H202.44C198.09,205.09,175.52,185.92,148.31,185.92Z"/><path class="cls-3" d="M203.22,239.11a50.58,50.58,0,0,0-.78-8.86H94.17a51.2,51.2,0,0,0,0,17.72H202.44A50.58,50.58,0,0,0,203.22,239.11Z"/><polygon class="cls-4" points="375.95 247.97 367.11 245.24 374.2 222.3 383.05 225.03 375.95 247.97"/><path class="cls-5" d="M130.81,310.87a19.41,19.41,0,0,1-38.82,0c0-10.72,19.41-43.43,19.41-43.43S130.81,300.15,130.81,310.87Z"/><path class="cls-6" d="M104.56,291.89v.41a7,7,0,0,1-.24,1.15c-.22,1-.6,2.34-1,4-.19.81-.39,1.69-.55,2.62s-.35,1.89-.45,2.9a27.4,27.4,0,0,0,0,6.14,14.74,14.74,0,0,0,.67,2.94c.34.91.68,1.79,1,2.63s.62,1.68.91,2.47.61,1.56.93,2.27a7.84,7.84,0,0,0,.45,1l.42,1c.3.59.52,1.17.73,1.63s.45,1,.64,1.53h0a.31.31,0,0,1-.18.38.49.49,0,0,1-.17,0,12.85,12.85,0,0,1-1.61-.58,15.75,15.75,0,0,1-1.72-.92,15.27,15.27,0,0,1-2-1.58,13.7,13.7,0,0,1-2-2.3,12.62,12.62,0,0,1-1.58-3.05,14.19,14.19,0,0,1-.71-3.6,33,33,0,0,1,0-3.72,26.28,26.28,0,0,1,1.24-6.93,38.09,38.09,0,0,1,2.24-5.51c.77-1.53,1.44-2.77,1.9-3.64.23-.43.39-.76.5-1l.16-.38a.27.27,0,0,1,.36-.12.26.26,0,0,1,.15.26Z"/><path class="cls-5" d="M171.16,279.79a11.2,11.2,0,1,1-22.4,0v0c0-6.19,11.2-25.06,11.2-25.06S171.16,273.6,171.16,279.79Z"/><path class="cls-6" d="M156,268.84v.23a4.23,4.23,0,0,1-.13.67c-.13.56-.35,1.35-.57,2.29-.11.46-.23,1-.32,1.5s-.2,1.1-.26,1.68a15.06,15.06,0,0,0,0,3.55,8.28,8.28,0,0,0,.39,1.69c.19.53.39,1,.58,1.52s.36,1,.53,1.42.35.9.54,1.32c.08.2.16.4.26.6s.16.38.24.55c.17.35.3.68.42.94s.26.59.37.89h0a.17.17,0,0,1-.1.21h-.1a7.32,7.32,0,0,1-.93-.33,8.72,8.72,0,0,1-1-.54,7.19,7.19,0,0,1-1.15-.91,7.62,7.62,0,0,1-1.15-1.32,6.93,6.93,0,0,1-.92-1.77,8.16,8.16,0,0,1-.41-2.08,19.1,19.1,0,0,1,0-2.14,15.16,15.16,0,0,1,.72-4,23,23,0,0,1,1.29-3.18c.44-.89.83-1.6,1.1-2.1.13-.25.23-.44.29-.58l.09-.21a.15.15,0,0,1,.18-.09h0A.14.14,0,0,1,156,268.84Z"/></g></svg>