<svg id="Layer_1" data-name="Layer 1" xmlns="http://www.w3.org/2000/svg" viewBox="0 0 520 520"><defs><style>.cls-1,.cls-2,.cls-4{fill:#fb923c;}.cls-1,.cls-2{isolation:isolate;}.cls-1{opacity:0.2;}.cls-2{opacity:0.15;}.cls-3{fill:#f7822b;}.cls-5{fill:#ffb07b;}.cls-6{fill:#f97316;}.cls-7{fill:#c6581a;}.cls-8{fill:#ed792b;}.cls-9{fill:#97d1cd;}</style></defs><g id="Layer_1-2" data-name="Layer 1"><path class="cls-1" d="M520,260c0,143.59-116.4,260-260,260S0,403.58,0,260,116.4,0,260,0,520,116.4,520,260Z"/><path class="cls-2" d="M217,127,149,379,350,503c85-28,161-123,169-220L406,187c-17,15-2,32-2,32"/><path class="cls-3" d="M79.14,239c4.52-26.31,32.21-40.95,52.66-27.34,16,10.57,11.53,31.1,16.2,26.65,3.83-2.7,6.05-14.19,10.31-15.48C141,184.08,77.29,201.68,79.14,239Z"/><path class="cls-4" d="M79.13,239.34c-.42,14.21-.4,19.19,56,101.34,14.65,20.12,13.54,14.77,12.78,9.89.06-27.22,10.62-9.3-25.33-63.09C103,257.11,90.71,250.82,94.11,233.25c5.35-22,23.42-27.4,18.81-26.6-.31,0-5.11,0-5.49.28C107.26,207.05,82.36,213,79.13,239.34Z"/><path class="cls-5" d="M145.19,213.87s-.53,157.19-.54,157.47c.07,13.75,40,20,54,20.75,11.7,3,80.61-1.92,88.89-7.77,15.14-6.35,14.4-9.95,14.11-19.59,0-.18-6.9-149.94-6.9-150.28C290.78,214.3,149.22,214,145.19,213.87Z"/><path class="cls-6" d="M287.29,251.21c3.34-1.09,5.55-2.29,6.66-3.67a3.12,3.12,0,0,0,.73-1.67v-3.1c0-1,0-1.75.07-2.59s0-1.84,0-2.76c0,7.09-33.51,12.7-74.86,12.5s-74.78-6-74.69-13c0,.94,0,1.76-.06,2.71s.05,1.69.06,2.61,0,2,0,3a2.61,2.61,0,0,0,.69,1.72c1,1.36,3.31,2.63,6.65,3.75,12,4.26,37.7,7.39,67.39,7.47S275.23,255.45,287.29,251.21Z"/><path class="cls-6" d="M287.24,264.1c3.33-1.2,5.62-2.47,6.66-3.78a2.53,2.53,0,0,0,.71-1.78c0-1,.05-1.89,0-2.91s0-1.87,0-2.75.09-1.69.08-2.61c-.08,7-33.57,12.62-74.86,12.51s-74.78-6-74.79-13c0,.93.06,1.82,0,2.65s0,1.84,0,2.68v3a2.69,2.69,0,0,0,.64,1.74c1.07,1.33,3.31,2.64,6.67,3.86,11.93,4.18,37.69,7.39,67.33,7.4C249.49,271.2,275.17,268.22,287.24,264.1Z"/><path class="cls-4" d="M392.57,217.24c-6.4,5.56-90.19,59.16-100.89,68.47-6.34,13.19-4.73,50.54-.27,56.14,8.06-8,112.06-112.36,112.17-112.48C403.08,228.93,392.76,217.5,392.57,217.24Z"/><path class="cls-7" d="M221,199.66c-39.84-.1-72.22,4.85-72.22,11.09-.05,6.07,32.26,11.24,72.15,11.42s72.19-4.83,72.23-11S260.84,199.86,221,199.66Z"/><path class="cls-7" d="M395.23,227.05a6.46,6.46,0,0,1,.78.95c.27.39.57.64.84,1a5.26,5.26,0,0,0,.87.89,4.31,4.31,0,0,0,.86.9,48.47,48.47,0,0,0,5.7,5.11,54.47,54.47,0,0,0,6.08,4,32.35,32.35,0,0,0,6.54,2.68,27.75,27.75,0,0,0,6.51,1.18,15.93,15.93,0,0,1,1.7,0,12.2,12.2,0,0,0,1.71,0,12,12,0,0,0,1.67-.26,4,4,0,0,0,1.56-.4,70.9,70.9,0,0,1-12.81-9.94,115.32,115.32,0,0,1-9.16-9.85c-1.21-1.22-2.46-2.66-3.65-4h0c-1.12-1.41-2.28-2.9-3.42-4.18a127.6,127.6,0,0,1-8.11-10.82c-3.39-5.13-6.34-10.11-7.71-14.35-.22.5-.37,1-.56,1.33a8.52,8.52,0,0,0-.37,1.3,8.19,8.19,0,0,0-.35,1.29,7.66,7.66,0,0,0-.28,1.24,24.42,24.42,0,0,0-.12,8.18,33.16,33.16,0,0,0,2.17,8.31,40.28,40.28,0,0,0,4.1,8.1c.68,1.14,1.43,2.35,2.25,3.51C393,224.44,394.09,225.77,395.23,227.05Z"/><path class="cls-8" d="M386.43,181.18a3.85,3.85,0,0,1,2.34-.61c13.6-1.58,47.47,36.22,51.16,53.84a6.2,6.2,0,0,0,.81-.62c.14,2.68.12,2.51-.09,3.6a13.37,13.37,0,0,1,.25,3.34c-.77,4.48-2.17,4.08-3.43,5-.62-.09-4.32,1.75-14.74-5.45C404,228.09,375.37,189,386.43,181.18Z"/><path class="cls-8" d="M259.75,201.68c-2-.21-4.1-.47-6.23-.7s-4.3-.43-6.5-.62c-1.25,0-2.52-.19-3.81-.3l-4-.34c0-5.23-.09-10.94-.38-16.76s-.8-11.7-1.63-17.48a91.91,91.91,0,0,0-5.42-21.41c-2.62-6.24-6-11.17-10.61-14a18,18,0,0,1,5.14-2.24,19,19,0,0,1,5.56-.8h0A18.19,18.19,0,0,1,241,129.4a23.21,23.21,0,0,1,7,6.42,51.85,51.85,0,0,1,7,16,131.3,131.3,0,0,1,3.55,20.08c.52,5.17.8,10.31,1,15.37S259.79,197.24,259.75,201.68Z"/><path class="cls-9" d="M278.44,204.08l-1.05-.29Z"/><path class="cls-8" d="M152.14,206.75c1.39-.4,3-.92,4.68-1.34,1.88-.43,3.74-.91,5.6-1.42-.94.27-1.81.55-2.62.82-16.45,5.72-2.57,12.58,31,15.58s74.26.55,90.76-5.09c.88-.4,1.66-.59,2.29-.93a12.47,12.47,0,0,0,2.58-1.36,6.12,6.12,0,0,0,1.79-1.72,3.12,3.12,0,0,0,.29-1c0-2.16-3.51-4.29-10.1-6.17,2.09.58,4.14,1.12,6.14,1.7,6.89,1.8,11.09,3.84,12.23,6h.11a2.55,2.55,0,0,1-.15,2.41,5.62,5.62,0,0,1-1.85,1.78l-.27.18a13.8,13.8,0,0,1-2.75,1.49,20,20,0,0,1-2.67,1c-18.56,6.41-64.32,9-102.16,5.75S133.56,213.29,152.14,206.75Z"/><path class="cls-9" d="M162.42,204c.53-.15,1.07-.3,1.64-.44Z"/><path class="cls-4" d="M201.78,241.7c-4.5-.39-9-.72-13.46-1.12l-11-.88c-.06-.08-.1,0-.06-.08-1.48-1.84-.86-32.84-.68-35.29.27-4.13.74-8.52,1.35-13.23,2.43-17.7,7.66-38.4,16.9-51.29,4.29-6.05,9.52-10.45,15.75-12a20.55,20.55,0,0,1,5.18-.54,11,11,0,0,1,1.15,0c6.23-.11,12.46-.23,18.78-.3q0,.3,0,.6a19.52,19.52,0,0,0-9.67,3c-.08.06-.18,0-.26.06s0,0-.09,0c-11.42,7-18.35,25.47-21.87,45.8A205.88,205.88,0,0,0,201,204.35c-.1,3.55.3,35.33.52,36.8A2.11,2.11,0,0,0,201.78,241.7Z"/><path class="cls-5" d="M440.74,233.79c-3,2.67-7.59,1.89-12.82-1.25-5-3-10.63-8-15.85-13.92a110,110,0,0,1-7.72-10,95,95,0,0,1-5.28-8.29,69.16,69.16,0,0,1-3.7-7.69,30.74,30.74,0,0,1-1.84-7,10.55,10.55,0,0,1,.07-4c3.29.57,7.73,2.42,12.48,5.54a87.54,87.54,0,0,1,15.67,13c1,1,1.92,2.22,2.84,3.2a10.34,10.34,0,0,1,1.2,1.36A101.77,101.77,0,0,1,432,213a77.41,77.41,0,0,1,4.37,7.33,58.68,58.68,0,0,1,2.8,6.59A31.12,31.12,0,0,1,440.74,233.79Z"/></g></svg>