<?xml version="1.0" encoding="utf-8"?>
<!-- Generator: Adobe Illustrator 26.3.1, SVG Export Plug-In . SVG Version: 6.00 Build 0)  -->
<svg version="1.1" id="Layer_1" xmlns="http://www.w3.org/2000/svg" xmlns:xlink="http://www.w3.org/1999/xlink" x="0px" y="0px"
	 viewBox="0 0 520 520" style="enable-background:new 0 0 520 520;" xml:space="preserve">
<style type="text/css">
	.st0{opacity:0.2;fill:#FB923C;enable-background:new    ;}
	.st1{opacity:0.15;fill:#FB923C;enable-background:new    ;}
	.st2{fill:#FB923C;}
	.st3{fill:#DB6F26;}
	.st4{fill:#D67330;}
	.st5{fill:#BA5A1A;}
	.st6{fill:#FCA56B;}
	.st7{opacity:0.5;fill:#F69465;enable-background:new    ;}
	.st8{fill:#FFB07B;}
	.st9{opacity:0.5;fill:#C04F2E;enable-background:new    ;}
	.st10{opacity:0.3;fill:#C04F2E;enable-background:new    ;}
	.st11{opacity:0.4;}
	.st12{fill:#C04F2E;}
</style>
<g>
	<g id="Layer_1_00000152257974950213157650000013573666547892032896_">
		<path class="st0" d="M520,260c0,143.6-116.4,260-260,260S0,403.6,0,260S116.4,0,260,0S520,116.4,520,260z"/>
		<path class="st1" d="M222,277L81,339l269,164c108-49,159-104,170-250l-81-72c-56.8,2.3-117,38-117,38"/>
		<rect x="80.6" y="225.1" class="st2" width="316" height="113.9"/>
		<polygon class="st3" points="439.4,294.9 396.6,339 396.6,225.1 439.4,181 		"/>
		<polygon class="st2" points="396.6,225.1 80.6,225.1 123.3,181 439.4,181 		"/>
		<polygon class="st4" points="388.3,218.9 101.7,218.9 133.7,185.9 419,185.9 		"/>
		<polygon class="st5" points="388.3,218.9 133.7,218.9 133.7,185.9 419,185.9 		"/>
		<polygon class="st2" points="257.8,182.6 226.1,222.2 249.2,222.2 280.9,182.6 		"/>
		<polygon class="st4" points="275.7,218.9 251.9,218.9 278.6,185.9 		"/>
		<path class="st6" d="M80.7,241.7c0.1-8.5,7.1-15.4,15.6-15.4H381c8.5,0,15.5,6.8,15.6,15.4V323c-0.1,8.5-7.1,15.4-15.6,15.4H96.3
			c-8.5,0-15.5-6.8-15.6-15.4L80.7,241.7z"/>
		<path class="st7" d="M277.8,336.2c-23.4-0.5-46.9-4.4-70.4-3.8c-32.4,0.8-79.7,14.3-109.8-2.4c-7.7-4.3-8.2-15.4-9.2-22.8
			c-1.2-9.5-4.4-18.1-7.8-26.6v42.4c0.1,8.5,7.1,15.4,15.6,15.4H319C305.2,337.3,291.4,336.5,277.8,336.2z"/>
		<path class="st7" d="M125.5,235.6c51.8,2.4,104.5,1.6,156.3,1.8c28.2,0.1,56.7,0.1,84.7-4.3c7.7-1.2,18.6-2.3,24.9,3.8
			c2.7,2.7,4.5,6.2,5.2,10v-5.3c-0.1-8.5-7.1-15.4-15.6-15.4H96.3c-4,0-7.9,1.6-10.8,4.3C98.2,229.8,115.6,235.1,125.5,235.6z"/>
		<path class="st7" d="M396.6,312.4v-51.3C394.1,279.3,385.2,300.6,396.6,312.4z"/>
		<path class="st3" d="M392.6,302.8c-1.9,12.3-5.8,26.9-20.1,30c-26.6,5.7-54.3,0.8-81.3,5.6H381c8.5,0,15.5-6.8,15.6-15.4v-43.8
			C395.4,287.3,393.8,295.2,392.6,302.8z"/>
		<path class="st8" d="M154,333.7c-9.6-3.5-23.8,0.1-33.8,0.7c-11.1,0.6-21.2-2.5-31.6-2.8c-8.8-15.8-3.4-44.3-3.6-62.8
			c2.8,9.5,1.2,22,2.1,31.7c0.7,8,0.8,21.2,7.4,26.6c6.5,5.3,20.7,4.6,29.1,4.6c6.8,0,27.9-3.3,31.7,1.4"/>
		<path class="st9" d="M126.2,296.4c0.2,2.9-0.7,4.6,2.6,5.6c-0.4,2,0.7,4.9,0.3,6.9c2.2,1,4.6,1.6,7.1,1.8c2.1-9.3-4.7-9.4-9-15.2"
			/>
		<path class="st9" d="M129.3,302.1c0.8,1.4,3.4,1.9,4.2,3.3c2.5-1.5,4.8-3.3,6.9-5.3L129.3,302.1z"/>
		<path class="st9" d="M185,310.8c13.3,6.6,34,0.1,44.9,10.7c-5.7-0.1-10.1,2.9-15.5,2.9c-4.8,0-9.5-3.2-14.7-3.6
			c-3.6-0.3-14.6,2-17.3-0.2c-3.9-3.2-1.8-10.8,0.7-12.5"/>
		<path class="st9" d="M123.5,301.8c-10.9-4.4-11.3-10-12.7-20.7c2.3-0.8,4.6-1.4,7-1.9c1.9,11-5.2,13.6,2.9,21.6"/>
		<path class="st9" d="M122.9,293.2c3.7-3.6-3.8-21.9-7.4-21.7c-6,0.2-5.5,6.7-4.8,10.5c1.5,8.4,7.9,4.4,10.3,11.2"/>
		<path class="st9" d="M115.5,304.1c1.3,2.9,0.6,6.7,0.6,10.1c-2-2.1-4.9-5.4-8.9-6.5c-0.2-1.4-0.2-2.9,0-4.4
			c2.9-0.2,5.7,1.2,7.4,3.6"/>
		<path class="st10" d="M104.2,256.6c6.8-1.1,11.8-6.6,17.5-10.2c6.9-4.3,13.3-4.9,20.1-8.1c-7.3-5-24.6,1.2-33,2.9
			c-12.1,2.4-18.6,12.2-13.8,25.3c4-2.9,6.1-8.8,12-9"/>
		<g class="st11">
			<path class="st12" d="M254.9,295.6c-0.8-0.1-1.4,0.4-1.5,1.2c-0.1,0.8,0.4,1.4,1.2,1.5c0.1,0,0.2,0,0.3,0
				c0.8,0.1,1.4-0.4,1.5-1.2s-0.4-1.4-1.2-1.5C255.1,295.6,255,295.6,254.9,295.6z"/>
			<path class="st12" d="M241.4,287.1c-0.6-0.1-1.2,0.3-1.3,0.9c-0.1,0.6,0.3,1.2,0.9,1.3c0.1,0,0.2,0,0.4,0
				c0.6,0.1,1.2-0.3,1.3-0.9c0.1-0.6-0.3-1.2-0.9-1.3C241.6,287.1,241.5,287.1,241.4,287.1z"/>
			<path class="st12" d="M232.4,303.8c-0.4-0.1-0.8,0.2-0.9,0.6c-0.1,0.4,0.2,0.8,0.6,0.9c0.1,0,0.2,0,0.2,0
				c0.4,0.1,0.8-0.2,0.9-0.6c0.1-0.4-0.2-0.8-0.6-0.9C232.6,303.7,232.5,303.7,232.4,303.8z"/>
			<path class="st12" d="M223.5,292.6c-0.3,0-0.6,0.2-0.7,0.5c0,0.3,0.2,0.6,0.5,0.7c0.1,0,0.1,0,0.2,0c0.3,0,0.6-0.2,0.7-0.5
				c0-0.3-0.2-0.6-0.5-0.7C223.6,292.6,223.5,292.6,223.5,292.6z"/>
			<path class="st12" d="M207,309.3c-0.8-0.1-1.5,0.5-1.6,1.3c-0.1,0.8,0.5,1.5,1.3,1.6c0.1,0,0.2,0,0.3,0c0.8,0.1,1.5-0.5,1.6-1.3
				c0.1-0.8-0.5-1.5-1.3-1.6C207.2,309.3,207.1,309.3,207,309.3z"/>
			<path class="st12" d="M205.4,285c-0.6-0.4-1.2-0.6-1.9-0.8c-1.6-0.4-3.2,1-2.7,2.3c0.2,0.6,0.6,1.1,1,1.5c1,1.2,2.8,1.4,4.1,0.4
				C207.2,287.4,206.7,285.8,205.4,285L205.4,285z"/>
			<path class="st12" d="M207,253c-0.7-0.1-1.4,0.4-1.5,1.2s0.4,1.4,1.2,1.5c0.1,0,0.2,0,0.3,0c0.7,0.1,1.4-0.4,1.5-1.2
				s-0.4-1.4-1.2-1.5C207.2,253,207.1,253,207,253z"/>
			<path class="st12" d="M186.1,269.4c-0.7-0.1-1.3,0.4-1.3,1c-0.1,0.7,0.4,1.3,1,1.3c0.1,0,0.2,0,0.3,0c0.7,0.1,1.3-0.4,1.3-1
				c0.1-0.7-0.4-1.3-1-1.3C186.3,269.4,186.2,269.4,186.1,269.4z"/>
			<path class="st12" d="M166.6,297.2c-0.6-0.1-1.1,0.3-1.2,0.9s0.3,1.1,0.9,1.2c0.1,0,0.2,0,0.3,0c0.6,0.1,1.1-0.3,1.2-0.9
				s-0.3-1.1-0.9-1.2C166.8,297.2,166.7,297.2,166.6,297.2z"/>
			<path class="st12" d="M189.1,298.4c-0.6-0.1-1.1,0.3-1.2,0.9c-0.1,0.6,0.3,1.1,0.9,1.2c0.1,0,0.2,0,0.4,0
				c0.6,0.1,1.1-0.3,1.2-0.9c0.1-0.6-0.3-1.1-0.9-1.2C189.3,298.4,189.2,298.4,189.1,298.4z"/>
			<path class="st12" d="M174.1,320.2c-0.4-0.1-0.7,0.2-0.8,0.5c-0.1,0.4,0.2,0.7,0.5,0.8c0.1,0,0.2,0,0.2,0
				c0.4,0.1,0.7-0.2,0.8-0.5c0.1-0.4-0.2-0.7-0.5-0.8C174.3,320.1,174.2,320.1,174.1,320.2z"/>
			<path class="st12" d="M272.8,310.9c-0.6-0.1-1.2,0.4-1.3,1c-0.1,0.6,0.4,1.2,1,1.3c0.1,0,0.2,0,0.3,0c0.6,0.1,1.2-0.4,1.3-1
				c0.1-0.6-0.4-1.2-1-1.3C273,310.9,272.9,310.9,272.8,310.9z"/>
			<path class="st12" d="M298.2,270.7c-0.7-0.1-1.3,0.3-1.4,1c-0.1,0.7,0.3,1.3,1,1.4c0.1,0,0.3,0,0.4,0c0.7,0.1,1.3-0.3,1.4-1
				c0.1-0.7-0.3-1.3-1-1.4C298.5,270.7,298.3,270.7,298.2,270.7z"/>
			<path class="st12" d="M263.8,257c-0.6-0.1-1.1,0.3-1.2,0.9c-0.1,0.6,0.3,1.1,0.9,1.2c0.1,0,0.2,0,0.4,0c0.6,0.1,1.1-0.3,1.2-0.9
				c0.1-0.6-0.3-1.1-0.9-1.2C264.1,257,263.9,257,263.8,257z"/>
			<path class="st12" d="M257.9,273.6c-0.4,0-0.8,0.3-0.9,0.7c0,0.4,0.3,0.8,0.7,0.9c0.1,0,0.1,0,0.2,0c0.4,0,0.8-0.3,0.9-0.7
				c0-0.4-0.3-0.8-0.7-0.9C258,273.6,257.9,273.6,257.9,273.6z"/>
			<path class="st12" d="M284.8,286c-5.4,0-5.4,7,0,7S290.1,286,284.8,286z"/>
			<path class="st12" d="M248.9,311.2c-0.5-0.1-0.9,0.3-0.9,0.7c-0.1,0.5,0.3,0.9,0.7,0.9c0.1,0,0.1,0,0.2,0
				c0.5,0.1,0.9-0.3,0.9-0.7c0.1-0.5-0.3-0.9-0.7-0.9C249,311.2,248.9,311.2,248.9,311.2z"/>
			<path class="st12" d="M229.4,262.3c-3.2,0-3.2,4.1,0,4.1S232.6,262.3,229.4,262.3z"/>
			<path class="st12" d="M168.1,279.5c-0.7-0.1-1.3,0.3-1.4,1c-0.1,0.7,0.3,1.3,1,1.4c0.1,0,0.3,0,0.4,0c0.7,0.1,1.3-0.3,1.4-1
				c0.1-0.7-0.3-1.3-1-1.4C168.4,279.5,168.3,279.5,168.1,279.5z"/>
			<path class="st12" d="M147.2,312c-0.7-0.1-1.3,0.4-1.4,1c-0.1,0.7,0.4,1.3,1,1.4c0.1,0,0.3,0,0.4,0c0.7,0.1,1.3-0.4,1.4-1
				c0.1-0.7-0.4-1.3-1-1.4C147.5,312,147.3,312,147.2,312z"/>
			<path class="st12" d="M210,321.8c-1.5,0.3-2.5,1.7-2.3,3.2c0.3,1.5,1.7,2.5,3.2,2.3c1.3-0.2,2.3-1.4,2.3-2.7
				C213.1,322.9,211.6,321.7,210,321.8z"/>
			<path class="st12" d="M236.9,312.1c-0.7-0.1-1.3,0.3-1.4,1c-0.1,0.7,0.3,1.3,1,1.4c0.1,0,0.3,0,0.4,0c0.7,0.1,1.3-0.3,1.4-1
				c0.1-0.7-0.3-1.3-1-1.4C237.2,312.1,237,312.1,236.9,312.1z"/>
			<path class="st12" d="M151.7,272.6c-2.8,0-2.8,3.6,0,3.6c1,0.1,1.9-0.6,2-1.6c0.1-1-0.6-1.9-1.6-2
				C152,272.6,151.9,272.6,151.7,272.6z"/>
			<path class="st12" d="M138.2,289.8c-0.5-0.1-1,0.2-1.1,0.8s0.2,1,0.8,1.1c0.1,0,0.2,0,0.3,0c0.5,0.1,1-0.2,1.1-0.8
				s-0.2-1-0.8-1.1C138.5,289.8,138.4,289.8,138.2,289.8z"/>
			<path class="st12" d="M311.7,302.8c-0.6,0-1.2,0-1.8,0.2c-0.8,0.1-1.4,0.8-1.3,1.7c0.1,0.7,0.6,1.2,1.3,1.3
				c0.6,0.2,1.2,0.2,1.8,0.2C314.2,306,314.2,303,311.7,302.8L311.7,302.8z"/>
			<path class="st12" d="M280.5,303c0.1,0.1,0.2,0.2,0.3,0.4c1.4,1.1,3.4,1.1,4.8,0l0.4-0.4c0.9-0.8,1.3-2,1-3.1
				c-0.6-1.5-2.1-2.4-3.7-2.4c-1.3,0-2.5,0.6-3.3,1.6C279,300.5,279.5,301.8,280.5,303L280.5,303z"/>
			<path class="st12" d="M240,323.6l0.5,1.1c0.3,0.5,0.9,0.6,1.4,0.3c0.1-0.1,0.3-0.2,0.3-0.3l0.5-1.1
				C243.6,321.7,239.1,321.7,240,323.6L240,323.6z"/>
			<path class="st12" d="M204,268.6c-5,0-5,6.5,0,6.5S209,268.6,204,268.6z"/>
			<path class="st12" d="M156.2,324.8c-0.6,0-1,0.4-1,1s0.4,1,1,1s1-0.4,1-1S156.7,324.8,156.2,324.8z"/>
			<path class="st12" d="M289.5,254.9c-0.8-0.1-1.4,0.4-1.5,1.2c-0.1,0.8,0.4,1.4,1.2,1.5c0.1,0,0.2,0,0.3,0
				c0.8,0.1,1.4-0.4,1.5-1.2c0.1-0.8-0.4-1.4-1.2-1.5C289.7,254.9,289.6,254.9,289.5,254.9L289.5,254.9z"/>
			<path class="st12" d="M276,246.4c-0.6-0.1-1.2,0.3-1.3,0.9c-0.1,0.6,0.3,1.2,0.9,1.3c0.1,0,0.2,0,0.4,0c0.6,0.1,1.2-0.3,1.3-0.9
				c0.1-0.6-0.3-1.2-0.9-1.3C276.2,246.3,276.1,246.3,276,246.4z"/>
			<path class="st12" d="M267.1,263c-0.4-0.1-0.8,0.2-0.9,0.6c-0.1,0.4,0.2,0.8,0.6,0.9c0.1,0,0.2,0,0.2,0c0.4,0.1,0.8-0.2,0.9-0.6
				c0.1-0.4-0.2-0.8-0.6-0.9C267.2,263,267.1,263,267.1,263z"/>
			<path class="st12" d="M258.1,251.9c-0.3,0-0.6,0.2-0.7,0.5c0,0.3,0.2,0.6,0.5,0.7c0.1,0,0.1,0,0.2,0c0.3,0,0.6-0.2,0.7-0.5
				c0-0.3-0.2-0.6-0.5-0.7C258.2,251.9,258.1,251.9,258.1,251.9z"/>
			<path class="st12" d="M241.6,268.6c-0.8-0.1-1.5,0.5-1.6,1.3c-0.1,0.8,0.5,1.5,1.3,1.6c0.1,0,0.2,0,0.3,0
				c0.8,0.1,1.5-0.5,1.6-1.3c0.1-0.8-0.5-1.5-1.3-1.6C241.9,268.6,241.8,268.6,241.6,268.6z"/>
			<path class="st12" d="M240,244.3c-0.6-0.4-1.2-0.6-1.9-0.8c-1.6-0.4-3.2,1-2.7,2.3c0.2,0.6,0.6,1.1,1,1.6c1,1.2,2.9,1.4,4.1,0.4
				C241.8,246.7,241.4,245.1,240,244.3L240,244.3z"/>
			<path class="st12" d="M220.7,228.7c-0.7-0.1-1.3,0.4-1.3,1c-0.1,0.7,0.4,1.3,1,1.3c0.1,0,0.2,0,0.3,0c0.7,0.1,1.3-0.4,1.3-1
				c0.1-0.7-0.4-1.3-1-1.3C220.9,228.7,220.8,228.7,220.7,228.7z"/>
			<path class="st12" d="M201.3,256.4c-0.6-0.1-1.1,0.3-1.2,0.9s0.3,1.1,0.9,1.2c0.1,0,0.2,0,0.3,0c0.6,0.1,1.1-0.3,1.2-0.9
				s-0.3-1.1-0.9-1.2C201.5,256.4,201.4,256.4,201.3,256.4z"/>
			<path class="st12" d="M223.7,257.7c-0.6-0.1-1.1,0.3-1.2,0.9c-0.1,0.6,0.3,1.1,0.9,1.2c0.1,0,0.2,0,0.4,0
				c0.6,0.1,1.1-0.3,1.2-0.9c0.1-0.6-0.3-1.1-0.9-1.2C223.9,257.7,223.8,257.7,223.7,257.7z"/>
			<path class="st12" d="M208.8,279.4c-0.4,0-0.7,0.2-0.7,0.6c0,0.4,0.2,0.7,0.6,0.7c0.1,0,0.1,0,0.2,0c0.4,0,0.7-0.2,0.7-0.6
				c0-0.4-0.2-0.7-0.6-0.7C208.9,279.4,208.8,279.4,208.8,279.4z"/>
			<path class="st12" d="M307.4,270.1c-0.6-0.1-1.2,0.4-1.3,1c-0.1,0.6,0.4,1.2,1,1.3c0.1,0,0.2,0,0.3,0c0.6,0.1,1.2-0.4,1.3-1
				c0.1-0.6-0.4-1.2-1-1.3C307.6,270.1,307.5,270.1,307.4,270.1z"/>
			<path class="st12" d="M332.8,230c-0.7-0.1-1.3,0.4-1.3,1c-0.1,0.7,0.4,1.3,1,1.3c0.1,0,0.2,0,0.3,0c0.7,0.1,1.3-0.4,1.3-1
				c0.1-0.7-0.4-1.3-1-1.3C333,230,332.9,230,332.8,230z"/>
			<path class="st12" d="M319.4,245.2c-5.4,0-5.4,7,0,7S324.7,245.2,319.4,245.2z"/>
			<path class="st12" d="M283.5,270.5c-0.5-0.1-0.9,0.2-1,0.7c-0.1,0.5,0.2,0.9,0.7,1c0.1,0,0.2,0,0.3,0c0.5,0.1,0.9-0.2,1-0.7
				c0.1-0.5-0.2-0.9-0.7-1C283.7,270.4,283.6,270.4,283.5,270.5z"/>
			<path class="st12" d="M202.8,238.7c-0.7-0.1-1.3,0.4-1.3,1c-0.1,0.7,0.4,1.3,1,1.3c0.1,0,0.2,0,0.3,0c0.7,0.1,1.3-0.4,1.3-1
				c0.1-0.7-0.4-1.3-1-1.3C203,238.7,202.9,238.7,202.8,238.7z"/>
			<path class="st12" d="M181.8,271.3c-0.7-0.1-1.3,0.4-1.4,1c-0.1,0.7,0.4,1.3,1,1.4c0.1,0,0.3,0,0.4,0c0.7,0.1,1.3-0.4,1.4-1
				c0.1-0.7-0.4-1.3-1-1.4C182.1,271.3,182,271.3,181.8,271.3z"/>
			<path class="st12" d="M244.6,281.1c-1.5,0.3-2.5,1.7-2.2,3.2c0.3,1.5,1.7,2.5,3.2,2.2c1.3-0.2,2.3-1.4,2.3-2.7
				C247.7,282.2,246.3,281,244.6,281.1z"/>
			<path class="st12" d="M271.5,271.4c-0.7-0.1-1.3,0.4-1.3,1c-0.1,0.7,0.4,1.3,1,1.3c0.1,0,0.2,0,0.3,0c0.7,0.1,1.3-0.4,1.3-1
				c0.1-0.7-0.4-1.3-1-1.3C271.7,271.3,271.6,271.3,271.5,271.4z"/>
			<path class="st12" d="M207.3,290.7c-0.4,0-0.7,0.2-0.8,0.6c0,0.4,0.2,0.7,0.6,0.8c0.1,0,0.1,0,0.2,0c0.4,0,0.7-0.2,0.8-0.6
				c0-0.4-0.2-0.7-0.6-0.8C207.4,290.7,207.3,290.7,207.3,290.7z"/>
			<path class="st12" d="M186.3,231.8c-1-0.1-1.9,0.5-2.1,1.5c-0.1,1,0.5,1.9,1.5,2.1c0.2,0,0.4,0,0.5,0c1,0.1,1.9-0.5,2.1-1.5
				c0.1-1-0.5-1.9-1.5-2.1C186.7,231.8,186.5,231.8,186.3,231.8z"/>
			<path class="st12" d="M172.9,249c-0.5-0.1-1,0.2-1.1,0.8s0.2,1,0.8,1.1c0.1,0,0.2,0,0.3,0c0.5,0.1,1-0.2,1.1-0.8s-0.2-1-0.8-1.1
				C173.1,249,173,249,172.9,249z"/>
			<path class="st12" d="M346.3,262.1c-0.6,0-1.2,0-1.8,0.2c-0.8,0.1-1.4,0.8-1.3,1.7c0.1,0.7,0.6,1.2,1.3,1.3
				c0.6,0.2,1.2,0.2,1.8,0.2C348.9,265.3,348.9,262.3,346.3,262.1L346.3,262.1z"/>
			<path class="st12" d="M315.2,262.3l0.3,0.4c1.4,1.1,3.4,1.1,4.8,0l0.3-0.4c0.9-0.8,1.3-2,1-3.1c-0.6-1.5-2.1-2.4-3.7-2.4
				c-1.3,0-2.5,0.6-3.3,1.6C313.6,259.7,314.1,261.1,315.2,262.3L315.2,262.3z"/>
			<path class="st12" d="M274.7,282.9l0.5,1.1c0.3,0.5,0.9,0.6,1.4,0.3c0.1-0.1,0.3-0.2,0.3-0.3c0.2-0.4,0.3-0.8,0.5-1.1
				C278.2,281,273.8,281,274.7,282.9z"/>
			<path class="st12" d="M238.6,227.9c-5,0-5,6.5,0,6.5S243.6,227.9,238.6,227.9z"/>
			<path class="st12" d="M190.8,284.1c-0.6,0-1,0.4-1,1s0.4,1,1,1s1-0.4,1-1S191.4,284.1,190.8,284.1z"/>
			<path class="st12" d="M259.1,316.8c-3,0-3,3.9,0,3.9S262.1,316.8,259.1,316.8z"/>
			<path class="st12" d="M239.8,304.6c-0.9-0.1-1.7,0.5-1.8,1.4c-0.1,0.9,0.5,1.7,1.4,1.8c0.1,0,0.3,0,0.4,0
				c0.9,0.1,1.7-0.5,1.8-1.4c0.1-0.9-0.5-1.7-1.4-1.8C240.1,304.6,239.9,304.6,239.8,304.6z"/>
			<path class="st12" d="M226.9,328.5c-0.6-0.1-1.2,0.3-1.3,0.9c-0.1,0.6,0.3,1.2,0.9,1.3c0.1,0,0.2,0,0.4,0
				c0.6,0.1,1.2-0.3,1.3-0.9c0.1-0.6-0.3-1.2-0.9-1.3C227.1,328.5,227,328.5,226.9,328.5z"/>
			<path class="st12" d="M214,312.5c-0.5-0.1-0.9,0.3-0.9,0.7c-0.1,0.5,0.3,0.9,0.7,0.9c0.1,0,0.1,0,0.2,0c0.5,0.1,0.9-0.3,0.9-0.7
				c0.1-0.5-0.3-0.9-0.7-0.9C214.1,312.5,214.1,312.5,214,312.5z"/>
			<path class="st12" d="M188,301.6c-0.8-0.5-1.7-0.9-2.7-1.2c-2.2-0.6-4.6,1.4-3.9,3.3c0.3,0.8,0.8,1.6,1.4,2.2
				c1.5,1.8,4.1,2.1,5.9,0.6C190.6,305.1,189.9,302.8,188,301.6L188,301.6z"/>
			<path class="st12" d="M190.4,255.6c-2.9,0-2.9,3.8,0,3.8S193.3,255.6,190.4,255.6L190.4,255.6z"/>
			<path class="st12" d="M160.4,279.2c-0.9-0.1-1.8,0.5-1.9,1.5c-0.1,0.9,0.5,1.8,1.5,1.9c0.2,0,0.3,0,0.5,0
				c0.9,0.1,1.8-0.5,1.9-1.5c0.1-0.9-0.5-1.8-1.5-1.9C160.7,279.2,160.5,279.2,160.4,279.2z"/>
			<path class="st12" d="M132.4,319.1c-0.8-0.2-1.6,0.4-1.8,1.2c-0.2,0.8,0.4,1.6,1.2,1.8c0.2,0,0.4,0,0.6,0
				c0.8,0.2,1.6-0.4,1.8-1.2c0.2-0.8-0.4-1.6-1.2-1.8C132.8,319,132.6,319,132.4,319.1z"/>
			<path class="st12" d="M164.6,320.9c-0.8-0.2-1.6,0.4-1.8,1.2c-0.2,0.8,0.4,1.6,1.2,1.8c0.2,0,0.4,0,0.6,0
				c0.8,0.2,1.6-0.4,1.8-1.2c0.2-0.8-0.4-1.6-1.2-1.8C165,320.8,164.8,320.8,164.6,320.9z"/>
			<path class="st12" d="M321.4,281c-0.9-0.1-1.8,0.5-1.9,1.5c-0.1,0.9,0.5,1.8,1.5,1.9c0.2,0,0.3,0,0.5,0c0.9,0.1,1.8-0.5,1.9-1.5
				c0.1-0.9-0.5-1.8-1.5-1.9C321.7,281,321.5,281,321.4,281z"/>
			<path class="st12" d="M272,261.4c-0.8-0.2-1.7,0.3-1.8,1.2c-0.2,0.8,0.3,1.7,1.2,1.8c0.2,0.1,0.5,0.1,0.7,0
				c0.8,0.2,1.7-0.3,1.8-1.2c0.2-0.8-0.3-1.7-1.2-1.8C272.5,261.4,272.2,261.4,272,261.4z"/>
			<path class="st12" d="M263.4,285.2c-0.6-0.1-1.2,0.4-1.3,1c-0.1,0.6,0.4,1.2,1,1.3c0.1,0,0.2,0,0.3,0c0.6,0.1,1.2-0.4,1.3-1
				c0.1-0.6-0.4-1.2-1-1.3C263.6,285.2,263.5,285.2,263.4,285.2z"/>
			<path class="st12" d="M302,303c-7.7,0-7.7,10,0,10S309.7,303,302,303z"/>
			<path class="st12" d="M222.6,269c-4.6,0-4.6,6,0,6S227.2,269,222.6,269z"/>
			<path class="st12" d="M134.6,293.6c-0.9-0.1-1.8,0.5-1.9,1.5c-0.1,0.9,0.5,1.8,1.5,1.9c0.2,0,0.3,0,0.5,0
				c0.9,0.1,1.8-0.5,1.9-1.5c0.1-0.9-0.5-1.8-1.5-1.9C134.9,293.6,134.7,293.6,134.6,293.6z"/>
			<path class="st12" d="M111,283.8c-4,0-4,5.2,0,5.2S115,283.8,111,283.8z"/>
			<path class="st12" d="M91.7,308.5c-0.7-0.1-1.4,0.4-1.5,1.2c-0.1,0.7,0.4,1.4,1.2,1.5c0.1,0,0.2,0,0.3,0c0.7,0.1,1.4-0.4,1.5-1.2
				c0.1-0.7-0.4-1.4-1.2-1.5C91.9,308.4,91.8,308.4,91.7,308.5z"/>
			<path class="st12" d="M296,327.5c0.1,0.2,0.3,0.3,0.5,0.5c1.5,1.6,5.4,1.6,6.9,0c0.2-0.2,0.3-0.3,0.5-0.5c1.2-1.4,2-2.8,1.4-4.5
				c-0.9-2.1-3-3.5-5.3-3.4c-1.9,0-3.6,0.8-4.8,2.3C293.8,323.8,294.5,325.8,296,327.5L296,327.5z"/>
			<path class="st12" d="M186.1,278.1c-7.2,0-7.2,9.4,0,9.4S193.3,278.1,186.1,278.1z"/>
			<path class="st12" d="M308.8,258.3c-3,0-3,3.9,0,3.9S311.8,258.3,308.8,258.3z"/>
			<path class="st12" d="M289.5,246.1c-0.9-0.1-1.7,0.5-1.8,1.4c-0.1,0.9,0.5,1.7,1.4,1.8c0.1,0,0.3,0,0.4,0
				c0.9,0.1,1.7-0.5,1.8-1.4c0.1-0.9-0.5-1.7-1.4-1.8C289.8,246.1,289.6,246.1,289.5,246.1z"/>
			<path class="st12" d="M276.6,270c-0.6-0.1-1.1,0.3-1.2,0.9s0.3,1.1,0.9,1.2c0.1,0,0.2,0,0.3,0c0.6,0.1,1.1-0.3,1.2-0.9
				s-0.3-1.1-0.9-1.2C276.8,270,276.7,270,276.6,270z"/>
			<path class="st12" d="M263.7,254.1c-0.5-0.1-0.9,0.3-0.9,0.7c-0.1,0.5,0.3,0.9,0.7,0.9c0.1,0,0.1,0,0.2,0
				c0.5,0.1,0.9-0.3,0.9-0.7c0.1-0.5-0.3-0.9-0.7-0.9C263.9,254.1,263.8,254.1,263.7,254.1z"/>
			<path class="st12" d="M240.1,278c-3.2,0-3.2,4.2,0,4.2S243.3,278,240.1,278z"/>
			<path class="st12" d="M237.7,243.1c-0.8-0.5-1.7-0.9-2.6-1.2c-2.2-0.6-4.6,1.4-3.9,3.3c0.3,0.8,0.8,1.6,1.4,2.2
				c1.5,1.8,4.1,2.1,5.9,0.6C240.3,246.6,239.7,244.3,237.7,243.1L237.7,243.1z"/>
			<path class="st12" d="M182.2,260.6c-0.8-0.2-1.6,0.4-1.8,1.2c-0.2,0.8,0.4,1.6,1.2,1.8c0.2,0,0.4,0,0.6,0
				c0.8,0.2,1.6-0.4,1.8-1.2c0.2-0.8-0.4-1.6-1.2-1.8C182.6,260.5,182.4,260.5,182.2,260.6z"/>
			<path class="st12" d="M214.4,262.4c-0.8-0.2-1.7,0.3-1.8,1.2c-0.2,0.8,0.3,1.7,1.2,1.8c0.2,0.1,0.5,0.1,0.7,0
				c0.8,0.2,1.7-0.3,1.8-1.2c0.2-0.8-0.3-1.7-1.2-1.8C214.8,262.3,214.6,262.3,214.4,262.4z"/>
			<path class="st12" d="M192.9,293.6c-0.5-0.2-1.1,0.1-1.3,0.6c-0.2,0.5,0.1,1.1,0.6,1.3c0.2,0.1,0.4,0.1,0.7,0
				c0.5,0.2,1.1-0.1,1.3-0.6c0.2-0.5-0.1-1.1-0.6-1.3C193.3,293.5,193.1,293.5,192.9,293.6z"/>
			<path class="st12" d="M334.6,280.3c-0.9-0.1-1.7,0.5-1.9,1.4c-0.1,0.9,0.5,1.7,1.4,1.9c0.1,0,0.3,0,0.4,0
				c0.9,0.1,1.7-0.5,1.9-1.4c0.1-0.9-0.5-1.7-1.4-1.9C334.9,280.2,334.7,280.2,334.6,280.3z"/>
			<path class="st12" d="M351.8,244.5c-7.7,0-7.7,10,0,10S359.4,244.5,351.8,244.5z"/>
			<path class="st12" d="M300.2,280.7c-0.7-0.1-1.3,0.3-1.4,1c-0.1,0.7,0.3,1.3,1,1.4c0.1,0,0.3,0,0.4,0c0.7,0.1,1.3-0.3,1.4-1
				c0.1-0.7-0.3-1.3-1-1.4C300.5,280.7,300.4,280.7,300.2,280.7z"/>
			<path class="st12" d="M184.3,235.1c-0.9-0.1-1.8,0.5-1.9,1.5c-0.1,0.9,0.5,1.8,1.5,1.9c0.2,0,0.3,0,0.5,0
				c0.9,0.1,1.8-0.5,1.9-1.5c0.1-0.9-0.5-1.8-1.5-1.9C184.6,235.1,184.5,235.1,184.3,235.1z"/>
			<path class="st12" d="M154.2,281.9c-1-0.1-1.9,0.5-2,1.5s0.5,1.9,1.5,2c0.2,0,0.4,0,0.5,0C157,285.5,157,281.9,154.2,281.9z"/>
			<path class="st12" d="M244.4,296c-2.6,0-4.7,1.8-4.7,3.9s2.1,3.9,4.7,3.9s4.7-1.8,4.7-3.9S247,296,244.4,296z"/>
			<path class="st12" d="M283.1,282c-0.9-0.1-1.8,0.5-2,1.4s0.5,1.8,1.4,2c0.2,0,0.4,0,0.5,0c0.9,0.1,1.8-0.5,2-1.4s-0.5-1.8-1.4-2
				C283.4,282,283.2,282,283.1,282z"/>
			<path class="st12" d="M190.8,309.7c-0.6,0-1,0.4-1,1s0.4,1,1,1s1-0.4,1-1S191.3,309.7,190.8,309.7z"/>
			<path class="st12" d="M141.4,250c-0.7-0.1-1.4,0.4-1.5,1.1c-0.1,0.7,0.4,1.4,1.1,1.5c0.1,0,0.3,0,0.4,0c0.7,0.1,1.4-0.4,1.5-1.1
				c0.1-0.7-0.4-1.4-1.1-1.5C141.6,250,141.5,250,141.4,250z"/>
			<path class="st12" d="M390.4,268.7c-0.9-0.1-1.8,0-2.6,0.3c-2.5,0.6-2.5,3.6,0,4.3c0.9,0.2,1.7,0.3,2.6,0.3
				C394.1,273.2,394.1,269,390.4,268.7L390.4,268.7z"/>
			<path class="st12" d="M345.7,269c0.2,0.2,0.3,0.3,0.5,0.5c1.5,1.6,5.4,1.6,6.9,0c0.2-0.2,0.3-0.3,0.5-0.5c1.2-1.3,2-2.8,1.4-4.5
				c-0.9-2.1-3-3.5-5.3-3.4c-1.9,0-3.6,0.8-4.8,2.3C343.5,265.4,344.2,267.3,345.7,269z"/>
			<path class="st12" d="M287.5,298.6c0.2,0.5,0.5,1.1,0.7,1.6c0.3,0.7,1.2,1,1.9,0.6c0.3-0.1,0.5-0.3,0.6-0.6
				c0.2-0.5,0.5-1.1,0.7-1.6C292.7,295.8,286.3,295.8,287.5,298.6L287.5,298.6z"/>
			<path class="st12" d="M167.1,300.3c-0.8-0.1-1.5,0.5-1.6,1.3c-0.1,0.8,0.5,1.5,1.3,1.6c0.1,0,0.2,0,0.3,0
				c0.8,0.1,1.5-0.5,1.6-1.3c0.1-0.8-0.5-1.5-1.3-1.6C167.4,300.2,167.3,300.2,167.1,300.3z"/>
		</g>
	</g>
</g>
</svg>
