<svg id="Layer_1" data-name="Layer 1" xmlns="http://www.w3.org/2000/svg" viewBox="0 0 520 520"><defs><style>.cls-1,.cls-2,.cls-3{fill:#fb923c;}.cls-1,.cls-10,.cls-11,.cls-2,.cls-8{isolation:isolate;}.cls-1{opacity:0.2;}.cls-2{opacity:0.15;}.cls-4{fill:#db6f26;}.cls-5{fill:#d67330;}.cls-6{fill:#ba5a1a;}.cls-7{fill:#fca56b;}.cls-8{fill:#f69465;}.cls-10,.cls-8{opacity:0.5;}.cls-9{fill:#ffb07b;}.cls-10,.cls-11,.cls-13{fill:#c04f2e;}.cls-11{opacity:0.3;}.cls-12{opacity:0.4;}</style></defs><g id="Layer_1-2" data-name="Layer 1"><path class="cls-1" d="M520,260c0,143.59-116.4,260-260,260S0,403.58,0,260,116.4,0,260,0,520,116.4,520,260Z"/><path class="cls-2" d="M222,277,81,339,350,503c108-49,159-104,170-250l-81-72c-56.79,2.27-117,38-117,38"/><rect class="cls-3" x="80.63" y="225.09" width="316.02" height="113.91"/><polygon class="cls-4" points="439.37 294.9 396.65 339 396.65 225.09 439.37 181 439.37 294.9"/><polygon class="cls-3" points="396.65 225.09 80.63 225.09 123.35 181 439.37 181 396.65 225.09"/><polygon class="cls-5" points="388.3 218.89 101.72 218.89 133.69 185.91 419.02 185.91 388.3 218.89"/><polygon class="cls-6" points="388.3 218.89 133.69 218.89 133.69 185.91 419.02 185.91 388.3 218.89"/><polygon class="cls-3" points="257.8 182.59 226.15 222.21 249.23 222.21 280.88 182.59 257.8 182.59"/><polygon class="cls-5" points="275.71 218.89 251.88 218.89 278.61 185.91 275.71 218.89"/><path class="cls-7" d="M80.69,241.66a15.55,15.55,0,0,1,15.62-15.38H381a15.55,15.55,0,0,1,15.62,15.38v81.39A15.54,15.54,0,0,1,381,338.42H96.31a15.54,15.54,0,0,1-15.62-15.37Z"/><path class="cls-8" d="M277.8,336.25c-23.43-.49-46.93-4.41-70.35-3.83-32.37.81-79.69,14.3-109.75-2.37-7.7-4.27-8.23-15.39-9.2-22.83-1.24-9.54-4.41-18.15-7.81-26.6v42.43a15.54,15.54,0,0,0,15.62,15.37H319.05C305.25,337.27,291.43,336.54,277.8,336.25Z"/><path class="cls-8" d="M125.54,235.55C177.33,238,230,237.16,281.88,237.4c28.23.13,56.72.11,84.66-4.31,7.7-1.22,18.65-2.32,24.9,3.83a19,19,0,0,1,5.21,10v-5.29A15.55,15.55,0,0,0,381,226.28H96.31a15.65,15.65,0,0,0-10.81,4.34C98.18,229.79,115.58,235.08,125.54,235.55Z"/><path class="cls-8" d="M396.65,312.37V261.1C394.14,279.32,385.2,300.64,396.65,312.37Z"/><path class="cls-4" d="M392.59,302.82c-1.9,12.27-5.8,26.89-20.15,29.95-26.63,5.7-54.32.82-81.27,5.65H381a15.54,15.54,0,0,0,15.62-15.37V279.24C395.4,287.27,393.77,295.23,392.59,302.82Z"/><path class="cls-9" d="M154,333.67c-9.64-3.49-23.79.15-33.75.69-11.13.59-21.24-2.5-31.57-2.83-8.76-15.79-3.44-44.33-3.58-62.77,2.84,9.5,1.21,21.95,2.08,31.68.72,8,.76,21.2,7.41,26.62,6.5,5.29,20.69,4.58,29.1,4.58,6.79,0,27.87-3.34,31.69,1.36"/><path class="cls-10" d="M126.25,296.37c.24,2.92-.7,4.61,2.59,5.58-.44,2,.72,4.89.3,6.94a22.33,22.33,0,0,0,7.08,1.81c2.08-9.32-4.66-9.36-9-15.24"/><path class="cls-10" d="M129.28,302.07c.79,1.43,3.39,1.88,4.21,3.3a40.74,40.74,0,0,0,6.86-5.34Z"/><path class="cls-10" d="M185,310.84c13.33,6.61,34,.11,44.91,10.67-5.67-.11-10.13,2.86-15.51,2.92-4.82.05-9.54-3.17-14.7-3.64-3.6-.33-14.59,2-17.27-.18-3.85-3.2-1.77-10.81.73-12.48"/><path class="cls-10" d="M123.49,301.8c-10.86-4.35-11.3-10-12.71-20.67a60.11,60.11,0,0,1,7-1.86c1.91,11-5.25,13.61,3,21.62"/><path class="cls-10" d="M122.94,293.21c3.74-3.59-3.84-21.86-7.38-21.72-6,.23-5.53,6.68-4.85,10.47,1.51,8.44,7.94,4.35,10.34,11.25"/><path class="cls-10" d="M115.54,304.13c1.27,2.85.55,6.71.57,10.11-2-2.12-4.94-5.41-8.92-6.55a13.8,13.8,0,0,1,0-4.35,8.41,8.41,0,0,1,7.42,3.58"/><path class="cls-11" d="M104.21,256.57c6.81-1.11,11.79-6.64,17.45-10.17,6.9-4.32,13.28-4.85,20.11-8.14-7.31-5-24.61,1.24-33,2.9-12.1,2.37-18.56,12.2-13.78,25.3,4-2.92,6.14-8.78,12-9"/><g class="cls-12"><path class="cls-13" d="M254.86,295.61a1.38,1.38,0,1,0-.33,2.74h.33a1.38,1.38,0,1,0,.33-2.74Z"/><path class="cls-13" d="M241.4,287.09a1.12,1.12,0,0,0-.37,2.21,1.15,1.15,0,0,0,.37,0,1.12,1.12,0,1,0,.37-2.21A1.15,1.15,0,0,0,241.4,287.09Z"/><path class="cls-13" d="M232.43,303.75a.76.76,0,0,0-.25,1.5h.25a.76.76,0,0,0,.25-1.5Z"/><path class="cls-13" d="M223.46,292.64a.58.58,0,0,0-.15,1.15h.15a.58.58,0,1,0,.15-1.15Z"/><path class="cls-13" d="M207,309.33a1.46,1.46,0,1,0-.34,2.9H207a1.46,1.46,0,0,0,.34-2.9Z"/><path class="cls-13" d="M205.35,285a6.94,6.94,0,0,0-1.85-.81c-1.56-.43-3.23,1-2.71,2.28a5.42,5.42,0,0,0,1,1.55,3,3,0,0,0,4.12.44c1.28-1.07.82-2.65-.53-3.46Z"/><path class="cls-13" d="M207,253a1.33,1.33,0,0,0-.33,2.64,1.82,1.82,0,0,0,.33,0,1.33,1.33,0,0,0,.33-2.64Z"/><path class="cls-13" d="M186.08,269.44a1.2,1.2,0,0,0-.31,2.38h.31a1.2,1.2,0,0,0,.31-2.38Z"/><path class="cls-13" d="M166.64,297.17a1.07,1.07,0,1,0-.29,2.12h.29a1.07,1.07,0,1,0,.29-2.12Z"/><path class="cls-13" d="M189.07,298.43a1.07,1.07,0,0,0-.36,2.11,1.09,1.09,0,0,0,.36,0,1.07,1.07,0,0,0,.36-2.11A1.09,1.09,0,0,0,189.07,298.43Z"/><path class="cls-13" d="M174.12,320.16a.68.68,0,0,0-.78.54.67.67,0,0,0,.55.78h.23a.68.68,0,0,0,.78-.54.67.67,0,0,0-.55-.78A.89.89,0,0,0,174.12,320.16Z"/><path class="cls-13" d="M272.8,310.89a1.16,1.16,0,0,0-.3,2.3h.3a1.16,1.16,0,1,0,.3-2.3Z"/><path class="cls-13" d="M298.22,270.69a1.21,1.21,0,0,0-1.38,1,1.2,1.2,0,0,0,1,1.38,1.72,1.72,0,0,0,1.76-1,1.2,1.2,0,0,0-1-1.38A1.21,1.21,0,0,0,298.22,270.69Z"/><path class="cls-13" d="M263.83,257a1.08,1.08,0,0,0-.36,2.13,1.09,1.09,0,0,0,.36,0,1.08,1.08,0,0,0,.36-2.13A1.09,1.09,0,0,0,263.83,257Z"/><path class="cls-13" d="M257.85,273.6a.8.8,0,0,0-.18,1.59h.18a.8.8,0,0,0,.18-1.59A.54.54,0,0,0,257.85,273.6Z"/><path class="cls-13" d="M284.76,286c-5.36,0-5.36,7,0,7S290.11,286,284.76,286Z"/><path class="cls-13" d="M248.88,311.2a.84.84,0,1,0-.18,1.67h.18a.84.84,0,1,0,.18-1.67Z"/><path class="cls-13" d="M229.44,262.28c-3.19,0-3.19,4.15,0,4.15S232.62,262.28,229.44,262.28Z"/><path class="cls-13" d="M168.14,279.47a1.21,1.21,0,0,0-1.38,1,1.2,1.2,0,0,0,1,1.38,1.72,1.72,0,0,0,1.76-1,1.2,1.2,0,0,0-1-1.38A1.21,1.21,0,0,0,168.14,279.47Z"/><path class="cls-13" d="M147.21,312.05a1.25,1.25,0,0,0-.39,2.47,1.28,1.28,0,0,0,.39,0,1.25,1.25,0,1,0,.39-2.47A1.27,1.27,0,0,0,147.21,312.05Z"/><path class="cls-13" d="M210,321.84a2.78,2.78,0,1,0,3.26,2.74A3.06,3.06,0,0,0,210,321.84Z"/><path class="cls-13" d="M236.92,312.11a1.2,1.2,0,0,0-.38,2.37,1.21,1.21,0,0,0,.38,0,1.2,1.2,0,0,0,.38-2.37A1.21,1.21,0,0,0,236.92,312.11Z"/><path class="cls-13" d="M151.7,272.59c-2.79,0-2.79,3.61,0,3.61a1.82,1.82,0,1,0,.47-3.61A1.85,1.85,0,0,0,151.7,272.59Z"/><path class="cls-13" d="M138.24,289.78a.94.94,0,1,0-.33,1.85.92.92,0,0,0,.33,0,.94.94,0,1,0,.33-1.85A.92.92,0,0,0,138.24,289.78Z"/><path class="cls-13" d="M311.67,302.83a5.94,5.94,0,0,0-1.83.18,1.51,1.51,0,0,0,0,3,5.38,5.38,0,0,0,1.83.18c2.57-.17,2.57-3.17,0-3.35Z"/><path class="cls-13" d="M280.55,303c.11.11.22.23.32.35a3.82,3.82,0,0,0,4.78,0L286,303a3,3,0,0,0,1-3.13,3.81,3.81,0,0,0-3.69-2.37,4,4,0,0,0-3.32,1.6c-.95,1.36-.48,2.74.6,3.9Z"/><path class="cls-13" d="M240,323.65l.51,1.13a1,1,0,0,0,1.37.35,1.17,1.17,0,0,0,.35-.35l.51-1.13c.85-1.91-3.59-1.91-2.74,0Z"/><path class="cls-13" d="M204,268.62c-5,0-5,6.53,0,6.53S209,268.62,204,268.62Z"/><path class="cls-13" d="M156.18,324.82a1,1,0,1,0,1,1A1,1,0,0,0,156.18,324.82Z"/><path class="cls-13" d="M289.48,254.87a1.38,1.38,0,1,0-.33,2.74h.33a1.38,1.38,0,1,0,.33-2.74Z"/><path class="cls-13" d="M276,246.35a1.12,1.12,0,0,0-.37,2.21,1.15,1.15,0,0,0,.37,0,1.12,1.12,0,1,0,.37-2.21A1.15,1.15,0,0,0,276,246.35Z"/><path class="cls-13" d="M267.06,263a.76.76,0,0,0-.25,1.5h.25a.76.76,0,0,0,.25-1.5Z"/><path class="cls-13" d="M258.09,251.9a.58.58,0,1,0-.15,1.15h.15a.58.58,0,0,0,.15-1.15A.38.38,0,0,0,258.09,251.9Z"/><path class="cls-13" d="M241.64,268.58a1.47,1.47,0,0,0-.34,2.92h.34a1.47,1.47,0,1,0,.34-2.92Z"/><path class="cls-13" d="M240,244.3a7,7,0,0,0-1.85-.82c-1.56-.43-3.23,1-2.71,2.28a5.28,5.28,0,0,0,1,1.55,3,3,0,0,0,4.13.45c1.28-1.08.82-2.65-.53-3.46Z"/><path class="cls-13" d="M220.71,228.7a1.2,1.2,0,0,0-.31,2.38h.31a1.2,1.2,0,0,0,.31-2.38Z"/><path class="cls-13" d="M201.27,256.43a1.07,1.07,0,1,0-.29,2.12h.29a1.07,1.07,0,1,0,.29-2.12Z"/><path class="cls-13" d="M223.71,257.69a1.07,1.07,0,0,0-.36,2.11,1.09,1.09,0,0,0,.36,0,1.07,1.07,0,0,0,.36-2.11A1.09,1.09,0,0,0,223.71,257.69Z"/><path class="cls-13" d="M208.75,279.41a.67.67,0,0,0-.75.58.68.68,0,0,0,.59.75h.16a.67.67,0,0,0,.75-.58.68.68,0,0,0-.59-.75A.43.43,0,0,0,208.75,279.41Z"/><path class="cls-13" d="M307.43,270.14a1.16,1.16,0,1,0-.3,2.3h.3a1.16,1.16,0,0,0,.3-2.3Z"/><path class="cls-13" d="M332.84,230a1.2,1.2,0,0,0-.31,2.38h.31a1.2,1.2,0,0,0,.31-2.38Z"/><path class="cls-13" d="M319.38,245.22c-5.35,0-5.35,7,0,7S324.74,245.22,319.38,245.22Z"/><path class="cls-13" d="M283.5,270.45a.85.85,0,1,0-.26,1.68h.26a.85.85,0,0,0,.26-1.68Z"/><path class="cls-13" d="M202.77,238.74a1.2,1.2,0,0,0-.31,2.38h.31a1.2,1.2,0,0,0,.31-2.38A1.61,1.61,0,0,0,202.77,238.74Z"/><path class="cls-13" d="M181.84,271.31a1.25,1.25,0,0,0-.39,2.47,1.27,1.27,0,0,0,.39,0,1.25,1.25,0,0,0,.39-2.47A1.28,1.28,0,0,0,181.84,271.31Z"/><path class="cls-13" d="M244.63,281.11a2.77,2.77,0,1,0,3.26,2.73A3.06,3.06,0,0,0,244.63,281.11Z"/><path class="cls-13" d="M271.54,271.36a1.2,1.2,0,0,0-.31,2.38h.31a1.2,1.2,0,0,0,.31-2.38Z"/><path class="cls-13" d="M207.26,290.66a.71.71,0,1,0-.17,1.41h.17a.71.71,0,0,0,.17-1.41A.49.49,0,0,0,207.26,290.66Z"/><path class="cls-13" d="M186.32,231.84a1.83,1.83,0,0,0-.54,3.62,1.63,1.63,0,0,0,.54,0,1.83,1.83,0,0,0,.54-3.62A1.63,1.63,0,0,0,186.32,231.84Z"/><path class="cls-13" d="M172.87,249a.94.94,0,0,0-.33,1.85.92.92,0,0,0,.33,0,.94.94,0,0,0,.33-1.85A.92.92,0,0,0,172.87,249Z"/><path class="cls-13" d="M346.3,262.08a5.65,5.65,0,0,0-1.83.19,1.51,1.51,0,0,0,0,3,5.65,5.65,0,0,0,1.83.18c2.57-.18,2.57-3.17,0-3.36Z"/><path class="cls-13" d="M315.18,262.27l.33.36a3.81,3.81,0,0,0,4.77,0l.32-.36a3,3,0,0,0,1-3.12,3.82,3.82,0,0,0-3.7-2.37,4,4,0,0,0-3.31,1.6c-1,1.36-.48,2.74.6,3.89Z"/><path class="cls-13" d="M274.66,282.9l.51,1.14a1,1,0,0,0,1.37.35,1.17,1.17,0,0,0,.35-.35c.17-.38.34-.76.5-1.14C278.24,281,273.81,281,274.66,282.9Z"/><path class="cls-13" d="M238.65,227.88c-5,0-5,6.52,0,6.52S243.65,227.88,238.65,227.88Z"/><path class="cls-13" d="M190.8,284.08a1,1,0,1,0,1,1A1,1,0,0,0,190.8,284.08Z"/><path class="cls-13" d="M259.1,316.82c-3,0-3,3.93,0,3.93S262.1,316.82,259.1,316.82Z"/><path class="cls-13" d="M239.78,304.59a1.6,1.6,0,0,0-.44,3.17,1.62,1.62,0,0,0,.44,0,1.6,1.6,0,0,0,.44-3.17A1.62,1.62,0,0,0,239.78,304.59Z"/><path class="cls-13" d="M226.9,328.52a1.09,1.09,0,1,0,.36,0A1.1,1.1,0,0,0,226.9,328.52Z"/><path class="cls-13" d="M214,312.55a.83.83,0,1,0-.18,1.65H214a.83.83,0,1,0,.18-1.65Z"/><path class="cls-13" d="M188,301.64a10.36,10.36,0,0,0-2.66-1.17c-2.24-.61-4.63,1.39-3.89,3.27a7.57,7.57,0,0,0,1.38,2.23,4.3,4.3,0,0,0,5.93.65c1.84-1.56,1.18-3.8-.76-5Z"/><path class="cls-13" d="M190.4,255.63c-2.92,0-2.92,3.8,0,3.8s2.92-3.8,0-3.8Z"/><path class="cls-13" d="M160.36,279.24a1.73,1.73,0,0,0-.45,3.43,1.7,1.7,0,0,0,.45,0,1.73,1.73,0,1,0,.45-3.43A1.7,1.7,0,0,0,160.36,279.24Z"/><path class="cls-13" d="M132.44,319.07a1.53,1.53,0,1,0,.6,0A1.53,1.53,0,0,0,132.44,319.07Z"/><path class="cls-13" d="M164.64,320.87a1.53,1.53,0,1,0,.6,0A1.53,1.53,0,0,0,164.64,320.87Z"/><path class="cls-13" d="M321.35,281.05a1.72,1.72,0,0,0-.45,3.41,1.69,1.69,0,0,0,.45,0,1.72,1.72,0,1,0,.45-3.41A1.7,1.7,0,0,0,321.35,281.05Z"/><path class="cls-13" d="M272,261.41a1.54,1.54,0,0,0-.7,3,1.65,1.65,0,0,0,.7,0,1.54,1.54,0,0,0,.7-3A1.65,1.65,0,0,0,272,261.41Z"/><path class="cls-13" d="M263.39,285.22a1.15,1.15,0,0,0-.3,2.28h.3a1.15,1.15,0,0,0,.3-2.28A1.5,1.5,0,0,0,263.39,285.22Z"/><path class="cls-13" d="M302,303c-7.69,0-7.69,10,0,10S309.69,303,302,303Z"/><path class="cls-13" d="M222.6,269c-4.57,0-4.57,6,0,6S227.18,269,222.6,269Z"/><path class="cls-13" d="M134.59,293.65a1.73,1.73,0,0,0-.45,3.43,1.69,1.69,0,0,0,.45,0,1.73,1.73,0,1,0,.45-3.43A1.7,1.7,0,0,0,134.59,293.65Z"/><path class="cls-13" d="M111,283.76c-4,0-4,5.2,0,5.2S115,283.76,111,283.76Z"/><path class="cls-13" d="M91.66,308.45a1.34,1.34,0,0,0-.33,2.66h.33a1.34,1.34,0,0,0,.33-2.66Z"/><path class="cls-13" d="M296,327.46c.15.17.31.34.47.5,1.49,1.61,5.36,1.61,6.85,0,.16-.16.31-.33.47-.5,1.25-1.35,2-2.75,1.42-4.49a5.5,5.5,0,0,0-5.31-3.4,5.83,5.83,0,0,0-4.76,2.29c-1.38,1.95-.69,3.93.86,5.6Z"/><path class="cls-13" d="M186.11,278.07c-7.2,0-7.2,9.37,0,9.37S193.31,278.07,186.11,278.07Z"/><path class="cls-13" d="M308.82,258.32c-3,0-3,3.93,0,3.93S311.82,258.32,308.82,258.32Z"/><path class="cls-13" d="M289.5,246.09a1.6,1.6,0,0,0-.44,3.17,1.62,1.62,0,0,0,.44,0,1.6,1.6,0,0,0,.44-3.17A1.62,1.62,0,0,0,289.5,246.09Z"/><path class="cls-13" d="M276.62,270a1.09,1.09,0,1,0-.29,2.16h.29a1.09,1.09,0,1,0,.29-2.16Z"/><path class="cls-13" d="M263.74,254.06a.83.83,0,1,0-.18,1.65h.18a.83.83,0,1,0,.18-1.65Z"/><path class="cls-13" d="M240.12,278c-3.21,0-3.21,4.17,0,4.17S243.34,278,240.12,278Z"/><path class="cls-13" d="M237.73,243.14a9.8,9.8,0,0,0-2.65-1.16c-2.24-.62-4.63,1.38-3.9,3.27a8.13,8.13,0,0,0,1.39,2.22,4.3,4.3,0,0,0,5.93.64c1.84-1.55,1.18-3.8-.77-5Z"/><path class="cls-13" d="M182.16,260.56a1.53,1.53,0,1,0,.6,0A1.53,1.53,0,0,0,182.16,260.56Z"/><path class="cls-13" d="M214.36,262.37a1.54,1.54,0,0,0-.7,3,1.65,1.65,0,0,0,.7,0,1.54,1.54,0,1,0,.7-3A1.65,1.65,0,0,0,214.36,262.37Z"/><path class="cls-13" d="M192.9,293.57a1,1,0,0,0-.65,1.89,1,1,0,0,0,.65,0,1,1,0,0,0,.65-1.89A1,1,0,0,0,192.9,293.57Z"/><path class="cls-13" d="M334.58,280.26a1.66,1.66,0,0,0-.45,3.29,1.7,1.7,0,0,0,.45,0,1.66,1.66,0,1,0,.45-3.29A1.69,1.69,0,0,0,334.58,280.26Z"/><path class="cls-13" d="M351.75,244.48c-7.69,0-7.69,10,0,10S359.44,244.48,351.75,244.48Z"/><path class="cls-13" d="M300.23,280.7a1.22,1.22,0,1,0,.38,0A1.22,1.22,0,0,0,300.23,280.7Z"/><path class="cls-13" d="M184.31,235.15a1.73,1.73,0,0,0-.45,3.43,1.69,1.69,0,0,0,.45,0,1.73,1.73,0,1,0,.45-3.43A1.69,1.69,0,0,0,184.31,235.15Z"/><path class="cls-13" d="M154.25,281.93a1.79,1.79,0,1,0-.53,3.54,1.57,1.57,0,0,0,.53,0C157,285.47,157,281.93,154.25,281.93Z"/><path class="cls-13" d="M244.42,296c-2.55,0-4.69,1.79-4.69,3.93s2.14,3.92,4.69,3.92,4.67-1.78,4.67-3.92S247,296,244.42,296Z"/><path class="cls-13" d="M283.06,282a1.73,1.73,0,1,0-.52,3.42,1.51,1.51,0,0,0,.52,0,1.73,1.73,0,1,0,.52-3.42A1.51,1.51,0,0,0,283.06,282Z"/><path class="cls-13" d="M190.75,309.71a1,1,0,1,0,1,1A1,1,0,0,0,190.75,309.71Z"/><path class="cls-13" d="M141.37,250a1.34,1.34,0,1,0,.4,0A1.33,1.33,0,0,0,141.37,250Z"/><path class="cls-13" d="M390.39,268.69a8.07,8.07,0,0,0-2.63.26c-2.53.64-2.53,3.65,0,4.29a8.35,8.35,0,0,0,2.63.26c3.69-.26,3.69-4.55,0-4.81Z"/><path class="cls-13" d="M345.71,269c.16.17.31.34.47.5,1.49,1.61,5.35,1.61,6.85,0,.16-.16.31-.33.47-.5,1.25-1.34,2-2.75,1.42-4.5a5.51,5.51,0,0,0-5.32-3.39,5.8,5.8,0,0,0-4.75,2.29C343.48,265.35,344.16,267.33,345.71,269Z"/><path class="cls-13" d="M287.53,298.57c.24.55.49,1.09.73,1.63a1.39,1.39,0,0,0,2.48,0c.23-.54.48-1.08.72-1.63,1.22-2.74-5.15-2.74-3.93,0Z"/><path class="cls-13" d="M167.14,300.26a1.47,1.47,0,0,0-.34,2.92h.34a1.47,1.47,0,1,0,.34-2.92Z"/></g></g></svg>