<?xml version="1.0" encoding="utf-8"?>
<!-- Generator: Adobe Illustrator 26.3.1, SVG Export Plug-In . SVG Version: 6.00 Build 0)  -->
<svg version="1.1" id="Layer_1" xmlns="http://www.w3.org/2000/svg" xmlns:xlink="http://www.w3.org/1999/xlink" x="0px" y="0px"
	 viewBox="0 0 520 520" style="enable-background:new 0 0 520 520;" xml:space="preserve">
<style type="text/css">
	.st0{opacity:0.2;fill:#FB923C;enable-background:new    ;}
	.st1{opacity:0.15;fill:#FB923C;enable-background:new    ;}
	.st2{fill:#FFAD76;}
	.st3{fill:#F97316;}
	.st4{fill:#DD5F0A;}
	.st5{fill:#CE3B30;}
	.st6{fill:#FFB07B;}
	.st7{fill:#FB923C;}
	.st8{opacity:0.12;}
	.st9{fill:#FFFFFF;}
	.st10{opacity:0.29;fill:#FFFFFF;enable-background:new    ;}
</style>
<g>
	<g id="Layer_1_00000003090510693803213700000011434179727178638743_">
		<path class="st0" d="M520,260c0,143.6-116.4,260-260,260S0,403.6,0,260S116.4,0,260,0S520,116.4,520,260z"/>
		<path class="st1" d="M490,138l-87-48L112,327l47,82l-7,20l146,88C424,500,583,347,490,138z"/>
		<path class="st2" d="M172.7,281.9L402.9,90l21,27.9l-9,1.7l-0.7,9.3l0,0l-11.2,2.6l-0.1,10l0,0l-11.1,3.5l0.6,8.3l-9.7,1.7
			l-0.2,9.5l-11.7,2.2l-0.7,11.7l0,0l-10.6,2.8l-0.5,9.6l-11.1,3.5l-0.1,9.1l-10.2,3l0.1,8.3l0,0l-11,3.4l0.1,8.8l-9.7,2.2l0.4,8.3
			l-1.3,1.4l-11.5,1.6l1.7,9.4l0,0l-11.9,3.3l0.3,9.7l-0.4,0.4l-11.3,2.8l0.5,9.3l-0.6,0.7l-10.8,1.9l1,9l-11.6,2.3l0.8,9.8
			l-11.5,1.4l1.3,10.1c0,0-12.2,1.1-11.5,2s7.1,21.3,1.3,25.6l-21.3,16L172.7,281.9z"/>
		<path class="st3" d="M149.2,423.3c0.4-2.4,1.6-4.7,3.4-6.3c0.8-0.6,1.4-1.4,1.7-2.4c0-0.9-0.3-1.8-0.9-2.5l-41.7-62.7
			c-1.5-2.3-3.1-4.1-5.8-3.9c-2.9,0.2-5.9,4-8.5,0.9s-0.3-4.8,1.5-6.6c4.3-4.3,9-8.2,13.6-12.1l17.7-14.9l32.4-27.2l16.2-13.6
			c3.4-2.8,7.7-8.6,12.7-6.6c2.5,1,4.3,3.1,5.9,5.3c5,6.9,8.9,14.5,12.9,22.1c6.5,12.6,13.1,25.1,19.6,37.7c0.8,1.2,1.2,2.5,1.2,4
			c-0.3,3.7-5.5,4.7-7.8,7.7c-2.4,3.2-1.1,7.7,0.5,11.4s3.2,8,1.2,11.4c-0.6,0.9-1.3,1.8-2.2,2.5l-59.9,57.9
			c-2.9,2.8-7,5.9-10.7,4.1C150.1,428.2,148.8,425.8,149.2,423.3z M167.8,392.6c1.3,1.1,2.9,2.1,4.7,1.8c1.3-0.3,2.4-1,3.4-1.9
			l9.3-7.9c4.1-3.5,8.6-7.6,8.9-12.7c0.2-3.1-1.2-6-2.6-8.6c-6.1-11.7-12.4-23.2-19-34.5c-2.8-5.2-6.1-10.1-9.9-14.6
			c-2-2.2-4.6-4.5-7.7-3.8c-6.6,1.4-23.9,15.8-25,22.4c-0.7,3.9,1.4,7.5,3.4,10.8c8.1,12.9,16.4,25.5,25.1,38
			C161.1,385.4,164,389.4,167.8,392.6z"/>
		<path class="st4" d="M195.7,357.5c1.4,2.7,2.8,5.5,2.6,8.6c-0.2,3.8-2.7,7-5.6,9.9c0.7-1.3,1.1-2.7,1.2-4.2c0.2-3.1-1.2-6-2.6-8.6
			c-6.1-11.7-12.4-23.2-19-34.5c-2.8-5.2-6.1-10.1-9.9-14.6c-2-2.2-4.6-4.5-7.7-3.8c-4.4,0.9-13.4,7.6-19.4,13.9
			c4.2-7.2,18.1-18.3,23.8-19.5c3.1-0.7,5.8,1.6,7.7,3.8c3.7,4.6,7,9.5,9.9,14.6C183.3,334.3,189.6,345.8,195.7,357.5z"/>
		<path class="st5" d="M227.7,336.4c0.9-1.1,2.1-2,3.3-2.7c0,0.2,0,0.5,0,0.7c-0.2,2.4-2.4,3.6-4.6,5
			C226.6,338.3,227.1,337.2,227.7,336.4z"/>
		<path class="st4" d="M149.1,423.2c0.4-2.4,1.6-4.7,3.4-6.3c0.8-0.6,1.4-1.4,1.7-2.4c0-0.9-0.3-1.8-0.9-2.5l-41.7-62.8
			c-1.5-2.3-3.1-4.1-5.8-3.9c-2.9,0.2-5.9,4-8.5,0.9s-0.3-4.8,1.5-6.6l1.8-1.7c0,1,0.4,2,1.2,2.7c2.7,3.1,5.6-0.7,8.5-0.9
			c2.7-0.2,4.3,1.6,5.8,3.9l41.7,62.7c0.6,0.7,0.9,1.6,0.9,2.5c-0.3,1-0.9,1.8-1.7,2.4c-1.9,1.6-3.1,3.8-3.4,6.3
			c-0.3,2.5,0.9,4.9,3.1,6.1c3.7,1.8,7.8-1.2,10.7-4.1l58.3-56.4c-0.2,0.6-0.4,1.1-0.7,1.6c-0.6,0.9-1.3,1.8-2.2,2.5l-59.9,57.9
			c-2.9,2.8-7,5.9-10.7,4.1C150,428.1,148.8,425.7,149.1,423.2z"/>
		<path class="st4" d="M152.3,400.1c0.4,0.6,0.7,1.2,0.8,1.9c-0.1,0.8-0.4,1.5-0.9,2c-0.7,0.9-1.6,1.8-2.4,2.7l-37.6-56.6
			c1.3-1.4,3.2-2,5.1-1.8c2.2,0.4,3.7,2.5,4.9,4.4C132.2,368.6,142.2,384.4,152.3,400.1z"/>
		<path class="st6" d="M191.8,280.8c7.2,13.6,15,26.8,23.4,39.6c2,3.1,4.1,6.3,4.7,10.1c0.1,0.5,0.1,1-0.1,1.5
			c-0.2,0.5-0.5,0.9-0.9,1.2c-1.5,1.4-3.2,2.6-5.1,3.6c-0.4,0.2-0.8,0.4-1.2,0.4c-0.4-0.1-0.8-0.3-1.1-0.6c-1.6-1.7-3-3.6-4.1-5.6
			c-9.3-14.9-18.6-29.8-27.3-45c-1.9-3.3-1-6.1,2.9-8.2C187.4,275.5,190,277.3,191.8,280.8z"/>
		<path class="st7" d="M183.5,285.9c1.2,1.6,3.4,1.9,4.9,0.7s1.9-3.4,0.7-4.9s-3.4-1.9-4.9-0.7c0,0,0,0,0,0
			C182.7,282.1,182.4,284.3,183.5,285.9z"/>
		<path class="st7" d="M196.1,308.4c1.2,1.6,3.4,1.9,4.9,0.7s1.9-3.4,0.7-4.9c-1.2-1.6-3.4-1.9-4.9-0.7c0,0,0,0,0,0
			C195.2,304.7,194.9,306.9,196.1,308.4z"/>
		<path class="st7" d="M210,331.4c1.2,1.6,3.4,1.9,4.9,0.7s1.9-3.4,0.7-4.9c-1.2-1.6-3.4-1.9-4.9-0.7c0,0,0,0,0,0
			C209.1,327.7,208.8,329.9,210,331.4z"/>
		<g class="st8">
			<path class="st9" d="M316,162.4l66.5-5.4l-0.1,7.4l-11.7,2.2l-0.7,11.7l0,0l-10.5,2.8l-0.4,8c-23.3-2.3-46.7-3.6-70.2-4.2
				L316,162.4z"/>
			<path class="st9" d="M256.9,211.7c25.3,0.7,50.6,2.2,75.9,4.6l-6.1,1.9l0.1,8.8l-9.7,2.2l0.4,8.3l-1.3,1.4l-11.5,1.6l1.7,9.4
				l-11.9,3.3l0.3,9.7l-0.4,0.4l-11.3,2.8l0.3,5.1l-72.6-21.1L256.9,211.7z"/>
		</g>
		<path class="st10" d="M174.7,282.4c0.1,1.2-0.4,2.4-1.3,3.1c-0.9,0.9-2,1.6-3.1,2.2c-10.2,6.1-18.8,14.7-28.8,21
			c-0.6,0.4-1.5,0.7-1.8,0.3s0.3-1.3,0.9-1.8l26.5-23.3C168.6,282.5,173.8,279.2,174.7,282.4z"/>
		<path class="st10" d="M190.1,271.5c-0.5,1-1.8,1.2-2.9,1.5c-2.8,0.8-5,2.8-7.2,4.7c-0.1,0.2-0.3,0.2-0.5,0.2
			c-0.2-0.1-0.3-0.2-0.4-0.3c-0.3-0.3-0.5-0.7-0.6-1.1c-0.2-1,0.7-1.9,1.5-2.6c1.9-1.5,4.6-4.9,7-5.6
			C188.4,267.9,191.1,269.5,190.1,271.5z"/>
	</g>
</g>
</svg>
