<svg id="Layer_1" data-name="Layer 1" xmlns="http://www.w3.org/2000/svg" viewBox="0 0 520 520"><defs><style>.cls-1,.cls-2,.cls-8{fill:#fb923c;}.cls-1,.cls-11,.cls-2{isolation:isolate;}.cls-1{opacity:0.2;}.cls-2{opacity:0.15;}.cls-3{fill:#ffad76;}.cls-4{fill:#f97316;}.cls-5{fill:#dd5f0a;}.cls-6{fill:#ce3b30;}.cls-7{fill:#ffb07b;}.cls-9{opacity:0.12;}.cls-10,.cls-11{fill:#fff;}.cls-11{opacity:0.29;}</style></defs><g id="Layer_1-2" data-name="Layer 1"><path class="cls-1" d="M520,260c0,143.59-116.4,260-260,260S0,403.58,0,260,116.4,0,260,0,520,116.4,520,260Z"/><path class="cls-2" d="M490,138,403,90,112,327l47,82-7,20,146,88C424,500,583,347,490,138Z"/><path class="cls-3" d="M172.7,281.92,402.88,90l21,27.93-9,1.66-.72,9.28h0L403,131.5l-.11,10h0L391.76,145l.6,8.33L382.64,155l-.2,9.5-11.74,2.24-.7,11.74h0l-10.56,2.75-.45,9.61-11.14,3.52-.08,9.08-10.18,3,.09,8.3h0l-11,3.4.12,8.84-9.72,2.18.4,8.29-1.26,1.42-11.48,1.65,1.68,9.36h0l-11.89,3.3.29,9.73-.39.43-11.27,2.8.49,9.32-.62.69-10.78,1.93,1,9-11.58,2.32.76,9.83-11.53,1.39,1.3,10.07s-12.25,1.08-11.53,2S247.8,334,242,338.31l-21.28,16Z"/><path class="cls-4" d="M149.17,423.31a10.29,10.29,0,0,1,3.44-6.27,4.36,4.36,0,0,0,1.7-2.36,3.9,3.9,0,0,0-.92-2.55l-41.7-62.74c-1.5-2.27-3.13-4.07-5.84-3.89-2.89.19-5.87,4-8.51.91s-.29-4.8,1.54-6.62c4.3-4.27,9-8.17,13.6-12.07l17.74-14.89,32.43-27.23L178.86,272c3.37-2.83,7.67-8.6,12.74-6.65,2.5,1,4.29,3.15,5.86,5.32,5,6.91,8.95,14.52,12.88,22.1l19.58,37.71a7.48,7.48,0,0,1,1.18,3.95c-.34,3.74-5.47,4.7-7.75,7.68-2.43,3.16-1.07,7.7.49,11.37s3.21,8,1.19,11.43a12.84,12.84,0,0,1-2.18,2.53l-59.92,57.94c-2.94,2.84-7,5.89-10.7,4.08A6.18,6.18,0,0,1,149.17,423.31Zm18.58-30.74c1.3,1.07,2.91,2.08,4.66,1.77a7.46,7.46,0,0,0,3.35-1.94l9.34-7.86c4.12-3.46,8.58-7.58,8.87-12.73.17-3.11-1.25-6-2.65-8.64q-9.1-17.49-19-34.53A94,94,0,0,0,162.43,314c-2-2.25-4.65-4.49-7.72-3.83-6.59,1.42-23.85,15.83-25,22.43-.67,3.9,1.42,7.51,3.45,10.75q12.12,19.29,25.11,38C161.08,385.38,164,389.43,167.75,392.57Z"/><path class="cls-5" d="M195.71,357.45c1.4,2.68,2.82,5.53,2.64,8.63-.21,3.8-2.68,7-5.62,9.86a10.49,10.49,0,0,0,1.18-4.21c.17-3.1-1.24-6-2.64-8.64q-9.12-17.49-19-34.52a94.2,94.2,0,0,0-9.86-14.63c-2-2.25-4.65-4.49-7.72-3.82-4.37.94-13.41,7.58-19.35,13.87,4.23-7.2,18-18.28,23.79-19.52,3.07-.66,5.77,1.58,7.72,3.82a94.2,94.2,0,0,1,9.86,14.63Q186.6,339.94,195.71,357.45Z"/><path class="cls-6" d="M227.73,336.38a13.14,13.14,0,0,1,3.31-2.72,4,4,0,0,1,0,.69c-.22,2.39-2.41,3.65-4.55,5A6.36,6.36,0,0,1,227.73,336.38Z"/><path class="cls-5" d="M149.12,423.24a10.32,10.32,0,0,1,3.44-6.28,4.45,4.45,0,0,0,1.7-2.36,3.93,3.93,0,0,0-.92-2.54l-41.7-62.75c-1.5-2.26-3.13-4.07-5.85-3.89-2.89.2-5.86,4-8.51.92s-.28-4.81,1.54-6.62l1.75-1.69a3.93,3.93,0,0,0,1.15,2.66c2.65,3.1,5.63-.72,8.52-.91,2.71-.18,4.34,1.62,5.84,3.89l41.7,62.74a3.93,3.93,0,0,1,.92,2.54,4.38,4.38,0,0,1-1.7,2.37,10.29,10.29,0,0,0-3.44,6.27,6.18,6.18,0,0,0,3.06,6.14c3.66,1.81,7.76-1.24,10.7-4.08l58.32-56.4a6.64,6.64,0,0,1-.67,1.58,12.25,12.25,0,0,1-2.18,2.53L162.87,425.3c-2.93,2.83-7,5.89-10.69,4.08A6.18,6.18,0,0,1,149.12,423.24Z"/><path class="cls-5" d="M152.33,400.14a3.63,3.63,0,0,1,.77,1.94,3.44,3.44,0,0,1-.95,2,26.72,26.72,0,0,1-2.43,2.67l-37.58-56.56a5.71,5.71,0,0,1,5.06-1.75c2.21.4,3.67,2.46,4.88,4.35Q137.2,376.49,152.33,400.14Z"/><path class="cls-7" d="M191.84,280.8q10.85,20.34,23.37,39.65c2,3.13,4.14,6.34,4.73,10.13a2.69,2.69,0,0,1-.07,1.46,3.49,3.49,0,0,1-.93,1.19,23.83,23.83,0,0,1-5.05,3.58,2.25,2.25,0,0,1-1.18.37,1.73,1.73,0,0,1-1.06-.62,31.09,31.09,0,0,1-4.13-5.61c-9.31-14.88-18.61-29.76-27.32-45-1.87-3.29-1-6.12,2.89-8.18C187.43,275.47,190,277.32,191.84,280.8Z"/><path class="cls-8" d="M183.53,285.87a3.53,3.53,0,1,0,.71-4.94h0A3.55,3.55,0,0,0,183.53,285.87Z"/><path class="cls-8" d="M196.07,308.42a3.53,3.53,0,1,0,.7-4.94h0A3.53,3.53,0,0,0,196.07,308.42Z"/><path class="cls-8" d="M210,331.42a3.53,3.53,0,1,0,.7-4.94h0A3.53,3.53,0,0,0,210,331.42Z"/><g class="cls-9"><path class="cls-10" d="M316,162.37,382.54,157l-.15,7.43-11.74,2.24-.71,11.74h0l-10.55,2.75-.37,8q-35-3.39-70.24-4.16Z"/><path class="cls-10" d="M256.85,211.7q38,1,75.9,4.56l-6.14,1.89.12,8.84L317,229.17l.4,8.29-1.26,1.42-11.48,1.65,1.68,9.36-11.89,3.3.29,9.73-.39.43-11.27,2.8.27,5.09L210.7,250.17Z"/></g><path class="cls-11" d="M174.67,282.44a3.6,3.6,0,0,1-1.27,3.13,15.42,15.42,0,0,1-3.12,2.2c-10.17,6.11-18.76,14.71-28.84,21-.61.38-1.46.74-1.82.31s.26-1.27.85-1.79L166.93,284C168.64,282.46,173.84,279.2,174.67,282.44Z"/><path class="cls-11" d="M190.1,271.45c-.52,1-1.84,1.24-2.95,1.55-2.78.78-5,2.8-7.19,4.68a.74.74,0,0,1-.52.25.77.77,0,0,1-.45-.34,2.91,2.91,0,0,1-.63-1.09c-.23-1,.67-1.92,1.48-2.59,1.86-1.54,4.62-4.93,7-5.59C188.43,267.85,191.07,269.55,190.1,271.45Z"/></g></svg>