<svg width="91" height="90" viewBox="0 0 91 90" fill="none" xmlns="http://www.w3.org/2000/svg">
<rect opacity="0.1" x="0.898438" width="90" height="90" rx="8" fill="#EF790C"/>
<path d="M18 46.2717V47.6061V71.1822H31.4378V67.8619L31.4847 67.8776C34.9904 69.0435 39.99 70.0677 44.9434 71.8391L45.3135 71.9694L45.694 71.8808C47.2519 71.5186 51.43 70.2194 56.4317 68.6126C61.4334 67.0058 67.1491 65.1148 71.3916 63.6503C73.4256 62.9468 74.5107 60.6714 73.7632 58.6515V58.6462V58.6408C72.9779 56.5745 70.7098 55.6633 68.7697 56.2587L55.6863 60.2567C55.6746 58.895 54.9936 57.5533 53.888 56.6861L53.8202 56.634L53.7473 56.5923C48.1593 53.2633 47.6758 52.8502 39.8195 48.6745L39.4598 48.4817L39.0533 48.5234C36.3592 48.8117 31.7978 49.5636 31.4378 49.6232V46.2716L18 46.2717ZM38.9282 51.234C46.1136 55.0608 46.9322 55.6397 52.2461 58.8078C53.0845 59.4775 53.3056 60.2967 52.7934 61.0335C52.5156 61.4336 52.2426 61.591 51.8395 61.659C51.4404 61.7263 50.8802 61.6553 50.2497 61.3775C47.846 60.2672 46.5435 59.5527 43.8957 58.0676L42.7333 57.416L41.4302 59.7408L42.5925 60.3976C45.2491 61.8876 46.6628 62.6599 49.1342 63.8013L49.1396 63.8067H49.15C50.1604 64.2573 51.2334 64.4633 52.2827 64.2862C52.87 64.1871 53.4317 63.9406 53.935 63.5877L69.5517 58.8079C70.1721 58.6175 70.9996 58.9275 71.2561 59.5793C71.4985 60.2461 71.2027 60.8917 70.5212 61.1274C66.3075 62.582 60.6033 64.4728 55.6187 66.0741C50.7751 67.6301 46.6948 68.8696 45.3865 69.1912C40.3876 67.452 35.4318 66.3779 32.324 65.3443L31.4379 65.0472V52.334L31.6568 52.2975C31.6568 52.2975 36.2298 51.5507 38.9282 51.234Z" fill="#EF790C"/>
<path d="M56.9946 19C57.524 19 58.0827 19.2348 58.7304 19.8705C59.3781 20.5062 60.0503 21.5294 60.6225 22.8572C61.2483 24.3092 61.7428 26.1329 62.0768 28.1636H51.9125C52.2464 26.1329 52.741 24.3092 53.3667 22.8572C53.939 21.5294 54.6111 20.5062 55.2589 19.8705C55.9066 19.2348 56.4653 19 56.9946 19ZM51.8916 19.9278C51.5419 20.5061 51.21 21.1189 50.9169 21.7991C50.1382 23.606 49.5753 25.7844 49.2176 28.1636H43.4526C44.9741 24.3594 48.0423 21.3606 51.8916 19.9278ZM62.0977 19.9278C65.9461 21.3607 69.0162 24.3593 70.5367 28.1636H64.7717C64.4139 25.7844 63.8511 23.606 63.0724 21.7991C62.7793 21.1189 62.4474 20.5061 62.0977 19.9278ZM42.6655 30.8324H42.8427H48.9101C48.8449 31.7344 48.7954 32.6459 48.7954 33.5898C48.7954 34.5336 48.8449 35.4451 48.9101 36.3472H42.8427H42.6655C42.4953 35.4537 42.3997 34.5337 42.3997 33.5898C42.3997 32.6459 42.4953 31.7257 42.6655 30.8324ZM51.5841 30.8324H62.4052C62.4765 31.7294 62.5251 32.6436 62.5251 33.5898C62.5251 34.5359 62.4765 35.4502 62.4052 36.3472H51.5841C51.5128 35.4502 51.4642 34.5359 51.4642 33.5898C51.4642 32.6436 51.5128 31.7294 51.5841 30.8324ZM65.0792 30.8324H71.1465H71.3186C71.4887 31.7257 71.5844 32.6459 71.5844 33.5898C71.5844 34.5337 71.4887 35.4537 71.3186 36.3472H71.1465H65.0792C65.1444 35.4451 65.1939 34.5336 65.1939 33.5898C65.1939 32.6459 65.1444 31.7344 65.0792 30.8324ZM43.4526 39.016H49.2176C49.5753 41.3951 50.1382 43.5735 50.9169 45.3804C51.21 46.0606 51.5419 46.6735 51.8916 47.2517C48.0427 45.8178 44.974 42.8209 43.4526 39.016ZM51.9125 39.016H62.0768C61.7428 41.0467 61.2483 42.8703 60.6225 44.3223C60.0503 45.6501 59.3781 46.6785 58.7304 47.3143C58.0827 47.95 57.524 48.1847 56.9946 48.1847C56.4653 48.1847 55.9066 47.95 55.2589 47.3143C54.6111 46.6785 53.939 45.6501 53.3667 44.3223C52.741 42.8703 52.2464 41.0467 51.9125 39.016ZM64.7717 39.016H70.5367C69.0163 42.8211 65.9457 45.8178 62.0977 47.2517C62.4474 46.6735 62.7793 46.0606 63.0724 45.3804C63.8511 43.5735 64.4139 41.3951 64.7717 39.016Z" fill="#EF790C"/>
</svg>
