<svg id="Layer_1" data-name="Layer 1" xmlns="http://www.w3.org/2000/svg" viewBox="0 0 90 90"><defs><style>.cls-1,.cls-2{fill:#ef790c;}.cls-1{isolation:isolate;opacity:0.1;}</style></defs><rect class="cls-1" width="90" height="90" rx="8"/><path class="cls-2" d="M14.89,47.76V72.67H28.32V69.35l.05,0c3.51,1.16,8.51,2.19,13.46,4l.37.13.38-.09c1.56-.36,5.74-1.66,10.74-3.27s10.72-3.49,15-5a3.89,3.89,0,0,0,2.37-5h0a4.06,4.06,0,0,0-5-2.38l-13.09,4a4.64,4.64,0,0,0-1.8-3.57l-.06,0-.08-.05c-5.58-3.33-6.07-3.74-13.92-7.91l-.36-.2-.41,0c-2.69.29-7.26,1-7.62,1.1V47.76Zm20.92,5c7.19,3.82,8,4.4,13.32,7.57.84.67,1.06,1.49.55,2.22a1.33,1.33,0,0,1-1,.63,2.86,2.86,0,0,1-1.59-.28c-2.41-1.11-3.71-1.83-6.36-3.31l-1.16-.65-1.3,2.32,1.16.66c2.66,1.49,4.07,2.26,6.54,3.4h0a5.52,5.52,0,0,0,3.13.48,4.09,4.09,0,0,0,1.65-.7L66.44,60.3a1.44,1.44,0,0,1,1.7.77,1.15,1.15,0,0,1-.73,1.55c-4.22,1.45-9.92,3.34-14.9,4.95s-8.93,2.79-10.24,3.11c-5-1.74-10-2.81-13.06-3.84l-.89-.3V53.83l.22,0S33.12,53,35.81,52.73Z"/><path class="cls-2" d="M56.68,16.54A17.64,17.64,0,1,0,74.32,34.18,17.66,17.66,0,0,0,56.68,16.54Zm-2,15.81,4.47.75a4.06,4.06,0,0,1,3.4,4,4.41,4.41,0,0,1-4.41,4.4v2.94H55.21V41.52a4.41,4.41,0,0,1-4.41-4.4h2.94a1.47,1.47,0,0,0,1.47,1.47h2.94a1.47,1.47,0,0,0,1.47-1.47A1.13,1.13,0,0,0,58.67,36l-4.47-.75a4,4,0,0,1-3.4-4,4.42,4.42,0,0,1,4.41-4.41V23.89h2.94v2.94a4.42,4.42,0,0,1,4.41,4.41H59.62a1.47,1.47,0,0,0-1.47-1.47H55.21a1.47,1.47,0,0,0-1.47,1.47A1.13,1.13,0,0,0,54.69,32.35Z"/></svg>