<svg id="Layer_1" data-name="Layer 1" xmlns="http://www.w3.org/2000/svg" viewBox="0 0 520 520"><defs><style>.cls-1,.cls-2,.cls-5{fill:#fb923c;isolation:isolate;}.cls-1{opacity:0.2;}.cls-2,.cls-6{opacity:0.15;}.cls-3{fill:#ffb07b;}.cls-4{fill:#f97316;}.cls-5{opacity:0.5;}.cls-7{fill:#fff;}</style></defs><g id="Layer_1-2" data-name="Layer 1"><path class="cls-1" d="M520,260c0,143.59-116.4,260-260,260S0,403.58,0,260,116.4,0,260,0,520,116.4,520,260Z"/><path class="cls-2" d="M520,253,415,192c-56.79,2.27-157.21,1.73-214,4-18.21.73,8.21-4.73-10-4,39,4.66-8,80.33,31,85L122,389,329,510C435,476,511,408,520,253Z"/><path class="cls-3" d="M421.05,219.32c-.73,7.34-1.82,14.64-3.06,21.91-2.5,14.58-5.35,29-7.61,43.66-4.68,30.2-5.87,73.35-3,103.78-94.32,1.78-191.16-.38-285.45-3.58-1.13-22.41,2.35-57.11,4.21-79.47,2.66-32,2-64.12,1.36-96.2-.22-10.52-.43-21-1.57-31.5a179.11,179.11,0,0,0-13.23-50.7c-2.5-5.87-5.51-11.85-10.66-15.61,65.55,20,301.87,79.71,312.48,80.77,3.49.36,6.17,3.53,7.08,6.93C423.22,205.26,421.65,213.25,421.05,219.32Z"/><path class="cls-4" d="M383,245.57,102,111l313,81s-18.9-7-33,16C368.3,230.35,383,245.57,383,245.57Z"/><path class="cls-5" d="M383,245.57,416,252s1-5,4-26c4-28.16,2-30,2-30s-16-15-36,7C365.54,225.5,383,245.57,383,245.57Z"/><g class="cls-6"><path class="cls-7" d="M291,232.57a19.85,19.85,0,0,0-1.31-5.52c-4.4-10.85-21.88-24.21-25.54-24.21S243,216.2,238.64,227.05a19.85,19.85,0,0,0-1.31,5.52,24.82,24.82,0,0,0-5.9-1.73c-12.52-2-34,5.15-35.8,8s2.14,23.35,10.25,32.25a22.87,22.87,0,0,0,4.59,3.79,22.87,22.87,0,0,0-4.59,3.79c-8.11,8.9-12.08,29.36-10.25,32.25s23.28,10,35.8,8a24.82,24.82,0,0,0,5.9-1.73,19.85,19.85,0,0,0,1.31,5.52C243,333.64,260.52,347,264.19,347s21.14-13.36,25.54-24.21a19.85,19.85,0,0,0,1.31-5.52,24.82,24.82,0,0,0,5.9,1.73c12.52,1.95,34-5.15,35.8-8s-2.14-23.35-10.25-32.25A22.87,22.87,0,0,0,317.9,275a22.87,22.87,0,0,0,4.59-3.79c8.11-8.9,12.08-29.36,10.25-32.25s-23.28-10-35.8-8A24.5,24.5,0,0,0,291,232.57Zm-37.31,25.86c-8.54-17.88,1.79-26.9,10.46-31.93,8.66,5,19,14.05,10.45,31.93,12.74-15.67,26.48-12,35.6-7.72-.46,9.35-3.87,22-25.14,24.21,21.27,2.21,24.68,14.86,25.14,24.21-9.12,4.32-22.86,7.95-35.6-7.72,8.54,17.88-1.79,26.9-10.45,31.93-8.67-5-19-14-10.46-31.93-12.74,15.67-26.48,12-35.6,7.72.46-9.35,3.87-22,25.14-24.21-21.27-2.21-24.68-14.86-25.14-24.21,9.16-4.32,22.91-8,35.64,7.72Z"/><path class="cls-7" d="M274.49,258.67c-3.39-5.76-9.58-11.23-10.3-12.65-.73,1.42-6.92,6.89-10.31,12.65-7.17-.2-15.47,1.94-17.18,1.8,1,1.28,3.1,8.89,6.88,14.45-3.78,5.56-5.9,13.17-6.88,14.45,1.71-.14,10,2,17.18,1.8,3.39,5.76,9.58,11.23,10.31,12.65.72-1.42,6.91-6.89,10.3-12.65,7.17.2,15.47-1.94,17.19-1.8-1-1.28-3.11-8.89-6.89-14.45,3.78-5.56,5.9-13.17,6.89-14.45C290,260.61,281.66,258.47,274.49,258.67Z"/><path class="cls-7" d="M227.28,216.72h0c8.32-3.35,9.25,9.3,8.15,12.86C231.5,228.66,219.93,221.58,227.28,216.72Z"/><path class="cls-7" d="M338,274.92h0c-1,8.23-13.47,2.64-16.31,0C324.53,272.28,337,266.69,338,274.92Z"/><path class="cls-7" d="M227.28,333.12h0c-7.35-4.88,4.22-11.94,8.15-12.86C236.53,323.82,235.6,336.47,227.28,333.12Z"/><path class="cls-7" d="M293,229.49c-1.05-3.66-.07-16,8.12-12.8C308.28,221.53,297,228.49,293,229.49Z"/><path class="cls-7" d="M293,320.35c4,1,15.29,8,8.12,12.8C292.92,336.38,291.94,324,293,320.35Z"/><path class="cls-7" d="M206.57,274.92c-3,2.66-15.21,8.08-16.23,0C191.36,266.84,203.61,272.26,206.57,274.92Z"/></g></g></svg>