<?xml version="1.0" encoding="utf-8"?>
<!-- Generator: Adobe Illustrator 26.3.1, SVG Export Plug-In . SVG Version: 6.00 Build 0)  -->
<svg version="1.1" id="Layer_1" xmlns="http://www.w3.org/2000/svg" xmlns:xlink="http://www.w3.org/1999/xlink" x="0px" y="0px"
	 viewBox="0 0 520 520" style="enable-background:new 0 0 520 520;" xml:space="preserve">
<style type="text/css">
	.st0{opacity:0.2;fill:#FB923C;enable-background:new    ;}
	.st1{opacity:0.15;fill:#FB923C;enable-background:new    ;}
	.st2{fill:#FFB07B;}
	.st3{fill:#F97316;}
	.st4{opacity:0.5;fill:#FB923C;enable-background:new    ;}
	.st5{opacity:0.15;}
	.st6{fill:#FFFFFF;}
</style>
<g>
	<g id="Layer_1_00000155133204921701341660000009464495449308221326_">
		<path class="st0" d="M520,260c0,143.6-116.4,260-260,260S0,403.6,0,260S116.4,0,260,0S520,116.4,520,260z"/>
		<path class="st1" d="M520,253l-105-61c-56.8,2.3-157.2,1.7-214,4c-18.2,0.7,8.2-4.7-10-4c39,4.7-8,80.3,31,85L122,389l207,121
			C435,476,511,408,520,253z"/>
		<path class="st2" d="M421,219.3c-0.7,7.3-1.8,14.6-3.1,21.9c-2.5,14.6-5.4,29-7.6,43.7c-4.7,30.2-5.9,73.4-3,103.8
			c-94.3,1.8-191.2-0.4-285.5-3.6c-1.1-22.4,2.3-57.1,4.2-79.5c2.7-32,2-64.1,1.4-96.2c-0.2-10.5-0.4-21-1.6-31.5
			c-1.9-17.5-6.4-34.5-13.2-50.7c-2.5-5.9-5.5-11.8-10.7-15.6c65.6,20,301.9,79.7,312.5,80.8c3.5,0.4,6.2,3.5,7.1,6.9
			C423.2,205.3,421.6,213.2,421,219.3z"/>
		<path class="st3" d="M383,245.6L102,111l313,81c0,0-18.9-7-33,16C368.3,230.4,383,245.6,383,245.6z"/>
		<path class="st4" d="M383,245.6l33,6.4c0,0,1-5,4-26c4-28.2,2-30,2-30s-16-15-36,7C365.5,225.5,383,245.6,383,245.6z"/>
		<g class="st5">
			<path class="st6" d="M291,232.6c-0.2-1.9-0.6-3.8-1.3-5.5c-4.4-10.9-21.9-24.2-25.5-24.2s-21.1,13.4-25.5,24.2
				c-0.7,1.8-1.1,3.6-1.3,5.5c-1.9-0.8-3.9-1.4-5.9-1.7c-12.5-2-34,5.1-35.8,8s2.1,23.3,10.2,32.3c1.4,1.5,2.9,2.7,4.6,3.8
				c-1.7,1.1-3.2,2.3-4.6,3.8c-8.1,8.9-12.1,29.4-10.2,32.2s23.3,10,35.8,8c2-0.3,4-0.9,5.9-1.7c0.2,1.9,0.6,3.8,1.3,5.5
				c4.4,10.9,21.9,24.3,25.6,24.3s21.1-13.4,25.5-24.2c0.7-1.8,1.1-3.6,1.3-5.5c1.9,0.8,3.9,1.4,5.9,1.7c12.5,2,34-5.1,35.8-8
				s-2.1-23.4-10.2-32.2c-1.4-1.5-2.9-2.7-4.6-3.8c1.7-1.1,3.2-2.3,4.6-3.8c8.1-8.9,12.1-29.4,10.2-32.2s-23.3-10-35.8-8
				C294.9,231.2,292.9,231.8,291,232.6z M253.7,258.4c-8.5-17.9,1.8-26.9,10.5-31.9c8.7,5,19,14.1,10.5,31.9
				c12.7-15.7,26.5-12,35.6-7.7c-0.5,9.4-3.9,22-25.1,24.2c21.3,2.2,24.7,14.9,25.1,24.2c-9.1,4.3-22.9,8-35.6-7.7
				c8.5,17.9-1.8,26.9-10.5,31.9c-8.7-5-19-14-10.5-31.9c-12.7,15.7-26.5,12-35.6,7.7c0.5-9.4,3.9-22,25.1-24.2
				c-21.3-2.2-24.7-14.9-25.1-24.2C227.2,246.4,241,242.8,253.7,258.4L253.7,258.4z"/>
			<path class="st6" d="M274.5,258.7c-3.4-5.8-9.6-11.2-10.3-12.6c-0.7,1.4-6.9,6.9-10.3,12.6c-7.2-0.2-15.5,1.9-17.2,1.8
				c1,1.3,3.1,8.9,6.9,14.5c-3.8,5.6-5.9,13.2-6.9,14.5c1.7-0.1,10,2,17.2,1.8c3.4,5.8,9.6,11.2,10.3,12.6
				c0.7-1.4,6.9-6.9,10.3-12.6c7.2,0.2,15.5-1.9,17.2-1.8c-1-1.3-3.1-8.9-6.9-14.5c3.8-5.6,5.9-13.2,6.9-14.5
				C290,260.6,281.7,258.5,274.5,258.7z"/>
			<path class="st6" d="M227.3,216.7L227.3,216.7c8.3-3.4,9.2,9.3,8.1,12.9C231.5,228.7,219.9,221.6,227.3,216.7z"/>
			<path class="st6" d="M338,274.9L338,274.9c-1,8.2-13.5,2.6-16.3,0C324.5,272.3,337,266.7,338,274.9z"/>
			<path class="st6" d="M227.3,333.1L227.3,333.1c-7.4-4.9,4.2-11.9,8.1-12.9C236.5,323.8,235.6,336.5,227.3,333.1z"/>
			<path class="st6" d="M293,229.5c-1-3.7-0.1-16,8.1-12.8C308.3,221.5,297,228.5,293,229.5z"/>
			<path class="st6" d="M293,320.4c4,1,15.3,8,8.1,12.8C292.9,336.4,291.9,324,293,320.4z"/>
			<path class="st6" d="M206.6,274.9c-3,2.7-15.2,8.1-16.2,0C191.4,266.8,203.6,272.3,206.6,274.9z"/>
		</g>
	</g>
</g>
</svg>
