<?xml version="1.0" encoding="utf-8"?>
<!-- Generator: Adobe Illustrator 26.3.1, SVG Export Plug-In . SVG Version: 6.00 Build 0)  -->
<svg version="1.1" id="Layer_1" xmlns="http://www.w3.org/2000/svg" xmlns:xlink="http://www.w3.org/1999/xlink" x="0px" y="0px"
	 viewBox="0 0 520 520" style="enable-background:new 0 0 520 520;" xml:space="preserve">
<style type="text/css">
	.st0{opacity:0.2;fill:#FB923C;enable-background:new    ;}
	.st1{opacity:0.15;fill:#FB923C;enable-background:new    ;}
	.st2{fill:#F97316;}
	.st3{fill:#FFB07B;}
	.st4{fill:#FB923C;}
	.st5{fill:#D8BA93;}
	.st6{opacity:0.2;fill:#FFFFFF;enable-background:new    ;}
	.st7{opacity:0.33;fill:#FFFFFF;enable-background:new    ;}
</style>
<g>
	<g id="Layer_1_00000078734569792524214130000007993046914018946178_">
		<path class="st0" d="M520,260c0,143.6-116.4,260-260,260S0,403.6,0,260S116.4,0,260,0S520,116.4,520,260z"/>
		<path class="st1" d="M222,277l-91,139l198,94c106-34,182-102,191-257l-109-77c-56.8,2.3-209-95-209-95"/>
		<path class="st2" d="M220.8,277c4.9-10.2,11.4-19.6,19.2-27.7c2.7-2.8,5.7-5.6,9.6-7c4.6-1.6,9.5-0.9,13.5-0.3l95.2,14.1
			c4.7,0.7,9.2,1.2,12.4-0.9c2.1-1.3,3.5-3.8,5-6.1l24-39.2c0.2-0.3,0.4-0.7,0.5-1c-0.4-0.3-0.8-0.5-1.2-0.6
			c-19.5-9.2-60.9-31.7-110.9-60c-46.1-26.2-68.7-39.5-81.4-48.1l3.4-5c24.9,16.9,147.3,86.8,191.4,107.7c1.3,0.6,3.9,1.8,4.6,4.7
			c0.6,2.5-0.7,4.5-1.4,5.6l-24,39.2c-1.6,2.6-3.6,5.9-6.9,8c-5.4,3.4-12.1,2.4-16.6,1.8L262.2,248c-3.5-0.5-7.4-1.1-10.6,0
			c-2.6,0.9-4.7,2.8-7.2,5.4c-7.4,7.7-13.5,16.5-18.1,26.2L220.8,277z"/>
		<path class="st2" d="M223.7,315.5c5.2-1.9,10.9-1,16.3-0.2c3.2-4.8,8.1-9.6,7.8-15.5c-0.2-2-0.9-4-1.9-5.7
			c-3-5.5-15.4-15.6-19.6-18.7v-0.1l-0.6-0.3l-0.6-0.4v0.1c-4.8-2.3-19.6-8.3-25.8-8.3c-2.1-0.1-4.1,0.2-6,1
			c-5.2,2.6-7.1,9.2-9.8,14.3c3.3,4.4,6.8,9,7.6,14.4c0.8,5-0.8,10-2.5,14.8c-7.2,19.5-18.4,37.2-32.9,52.1
			c-8.8,9-18.8,16.9-27.1,26.4c-2.6,3-5.2,6.3-5.7,10.2c-0.3,2.9,0.2,5.9,1.5,8.6c2.6,6.2,6.9,11.4,12.5,15.1v0l0.6,0.3l0.6,0.4v0
			c5.9,3.1,12.6,4.4,19.2,3.7c2.9-0.2,5.8-1.2,8.2-2.8c3.2-2.4,4.9-6.2,6.2-9.9c4.3-11.9,6.4-24.4,10.1-36.4
			c6.1-19.8,16.3-38.2,30-53.8C215.3,320.9,219,317.2,223.7,315.5z M141.6,417.7c-4.4-2.6-5.6-8.9-2.6-14s9.1-7,13.5-4.4
			s5.6,8.9,2.6,14S146.1,420.4,141.6,417.7z"/>
		<path class="st2" d="M154.1,414.9c-3.2,3.9-8.4,5.2-12.4,2.8s-5.3-7.4-3.6-12c-4.8-1.5-9.8-1.8-14.7-0.9c0.3,1.2,0.7,2.3,1.1,3.4
			c2.6,6.2,6.9,11.4,12.5,15.1l0,0l0.6,0.3l0.6,0.4v0c5.9,3.1,12.6,4.4,19.2,3.7c1.6-0.2,3.2-0.5,4.8-1
			C160.4,422.2,157.6,418.2,154.1,414.9z"/>
		<path class="st3" d="M143,398.1c1.3-0.7,2.7-1.1,4.1-1.1c3.2-0.2,6.3,1,8.4,3.3c2,2.4,2.8,6.2,1.1,8.9c0.1-1.7-0.4-3.4-1.4-4.7
			c-0.9-1.3-2.1-2.4-3.4-3.3c-1-0.7-2.1-1.2-3.2-1.5c-2.2-0.4-4.4,0-6.3,1.3c-1.8,1.2-3.3,2.8-4.4,4.7c0-1.2,1.1-3,1.7-4
			C140.4,400.2,141.6,399,143,398.1z"/>
		<path class="st4" d="M220.7,258.5l22.7,13.5c4.1,2.4,5.4,7.7,3,11.8l-3.6,6.1l0,0l-37.5-22.2l0,0l3.6-6.1
			C211.3,257.4,216.6,256.1,220.7,258.5z"/>
		<path class="st4" d="M190.8,94.8l13.1-22c2-3.3,6.3-4.4,9.6-2.4l3.8,2.2l0,0l-20.2,34l0,0l-3.8-2.3
			C190,102.4,188.9,98.1,190.8,94.8z"/>
		
			<rect x="270.7" y="36.5" transform="matrix(0.5105 -0.8599 0.8599 0.5105 21.6674 330.5741)" class="st3" width="61" height="219.6"/>
		<path class="st5" d="M359.6,195c-0.8,1.1-1.4,2.4-1.8,3.7C358.8,197.7,359.4,196.4,359.6,195z"/>
		<path class="st5" d="M280.8,155.3c0.1-0.2,0.3-0.4,0.4-0.5L280.8,155.3z"/>
		<path class="st5" d="M279.4,155.6l-0.7,0.8C279.1,156.3,279.5,156,279.4,155.6z"/>
		<path class="st4" d="M398.9,196.8c-2.2,2.1-4.5,4.1-6.8,6.1c0.6-1.3,1.2-2.6,1.8-3.9c-2.3,1.5-4.3,3.5-5.9,5.8
			c0.9-2,1.5-4,1.7-6.2l-5.8,9.5c0.3-2.7,0.6-5.4,0.9-8.1c-2.7,4.6-5.3,9.2-7.9,13.8c0.2-0.8,0.4-1.6,0.6-2.4
			c-0.9,1.4-2,2.7-3.1,3.9c-0.8-2.4-1.1-5-0.8-7.6c-0.9,2.5-5.1,2.1-6.4-0.3s-0.1-5.4,1.6-7.4c-1.8,2-4.1,3.5-6.6,4.5
			c0.1-2.4,0.8-4.8,2.1-6.9c-2.1,2.3-4.6,4.2-7.4,5.7c0-1.5,0.2-3.1,0.7-4.5c-0.9,1-2.2,1.6-3.6,1.6c-2.7-0.1-4.6-4.1-2.5-5.8
			l-5.2,0.2c-0.2-1.8-0.1-3.7,0.4-5.5c-1.5,0.6-3.1,0.9-4.8,0.9l-0.2-3.2l-4.8,2l3.2-4.7c-1.6,1.9-3.8,3.2-6.2,3.9
			c1.7-2.2,3.4-4.4,5.1-6.6c-1.1,1-2.5,1.7-4,2l4.6-6.3c-2.1,1.6-4.6,2.4-7.2,2.5c-0.3-2.7,0.1-5.3,1.1-7.8l-10.1,4.4
			c0.4-1.1,0.7-2.2,1.1-3.4c-1.5,2-3.5,3.6-5.9,4.6c-0.6-1.4-0.7-3-0.1-4.4c-1.7,1.1-3.5,2.2-5.2,3.3c-1-2.1-0.9-4.5,0.3-6.5
			c-1.9,2.2-4.6,3.6-7.6,4c0-2.4,0-4.8,0-7.2c-1.4,2.1-3.1,4.3-5.5,4.6s-5-2.8-3.4-4.6c-1.4,1.6-3.8,1.7-5.4,0.3
			c-1.4-1.2-1.7-3.3-0.7-4.9c-0.9,1.4-2.7,1.9-4.1,1c-1.4-0.9-1.9-2.7-1-4.1c0.2-0.3,0.5-0.6,0.8-0.8l-4.7,3.9
			c-0.2-1.7,0.3-3.4,1.5-4.7c-1.2,1-2.7,1.5-4.2,1.5c0.2-1.3,0.6-2.6,1.4-3.7c-0.9,1.3-2.2,2.2-3.7,2.7l1.6-1.7
			c-0.6,0.1-1.2-0.2-1.4-0.7c-0.3-1,0.4-2,1.1-2.8c-5.5,2.6-12-3.3-17.7-1.1c0.4-2.4,0.8-4.8,1.2-7.1c-0.3,1.9-3.5,0.4-3.8-1.5
			s0-4.5-1.8-5.2c-0.9-0.2-1.9-0.2-2.9-0.1c-2.5-0.2-4.3-2.4-4-4.9c0-0.5,0.2-1,0.4-1.5c-2.9,1.7-6.7,0.6-8.3-2.3
			c-0.9-1.6-1.1-3.6-0.3-5.4c-1.4,1.3-3.2,2.1-5.1,2.6l-1.4-2.8c0.2,2.3-3,3.8-5,2.7s-2.6-3.9-2.1-6.1l-4.3,3.4
			c-3.4-2.1-7.2-5.1-6.6-9l-3.5,1.2c0.1-1,0.2-2.1,0.3-3.1c-1.3,0.5-2.6,0.7-4,0.5c0.2-1.2,0.1-2.4-0.4-3.5l-3.6,0.5l-1-3l-4.4,1
			c1.1-1,1.8-2.4,1.9-3.8c-1.3,0.2-2.6,0.4-3.9,0.8l-6.9,11.5L380,228.5L398.9,196.8z"/>
		<path class="st5" d="M380.5,206.5c-1.2,1.4-2.2,3.1-2.8,4.9C378.8,209.8,379.7,208.2,380.5,206.5z"/>
		<path class="st6" d="M209.8,95.6c2.3-3.8,5-7.3,8-10.5c-1,3.3-2,6.6-3,9.9l6.6-6.7l-2.3,8.6l7-7l-3.2,8.6l7.1-6
			c-0.7,3-1.4,5.9-2.1,8.9l6.2-6c-0.3,1.7-0.5,3.3-0.8,5l6.3-3.7l0.5,6.5l7.4-3.5c0,1.7-0.1,3.3-0.1,5c2.3-1.1,4.8-2,7.3-2.5
			c-0.2,1.8-0.1,3.7,0.2,5.4c2.2-0.3,4.3-0.9,6.3-1.8l0.3,4l4.9-0.9c-0.3,2-0.2,4.1,0.2,6.1l5.6-1.8c-0.7,2.4-0.9,4.9-0.7,7.3
			l5.1-2.8l-5.2,10l5.2-4.7c-4.6,2.6-8.8,6-12.2,10.1l9.2-4.6l-4.4,4.7c3.9-1.8,7.9-3.4,12-4.8c0.3,1.3,0.2,2.7-0.5,3.9l7.1-4.1
			c-0.5,1.8-0.7,3.6-0.7,5.4l6.6-5.3c0.1,2.3,0.6,4.6,1.5,6.7l4.5-1.9c-0.5,2-0.5,4.1-0.1,6.1c1.6-1.8,3.5-3.4,5.6-4.7
			c1.3,2.3,1.6,5.1,0.8,7.6l4.5-3.8l1.4,10.5l7-7.7c-0.6,2.6-1.2,5.3-1.9,7.9c3.1-1.9,6.6-2.9,10.1-2.9c-0.7,3-1.8,5.9-3.3,8.6
			c3.8-2.4,8.2-3.6,12.7-3.6c-1.7,2.9-3.8,5.5-6.4,7.6c3.4-1.6,7.2-2.3,10.9-2.1l-4.8,4.6c4.6-0.9,9.4-1.5,14.1-1.6
			c-2.2,1.5-4.6,2.6-7.2,3.4c4.5-0.7,9-0.9,13.6-0.6c-1.7,2-3.8,3.8-6.1,5.1c5.2-0.7,10.5-0.4,15.5,1c-2.2,1.6-1.4,5.8,1.3,6.5
			s5.4-2.5,4.3-5c-2.7,2.6-1.3,7.7,2,9.5s7.6,0.8,10.6-1.4c-0.3,1.5-0.5,3-0.8,4.4c1.1-1,2.3-1.7,3.7-2c1.4-0.2,3.1,0.5,3.4,1.9
			c0.1,0.6,0,1.1,0.1,1.7c0.6,2.4,4.2,1.4,6.2,0c-0.7,1.4-1.8,2.5-3.2,3.3c1.8-0.8,3.7-1.3,5.7-1.4c0,1.4-0.6,2.8-1.7,3.7l5.8-5.2
			c-0.7,0.6-1.7-0.6-1.6-1.5s0.6-1.8,0.4-2.7c-0.4-1.7-2.7-1.8-4.4-1.4l2.7-2.1c-3.4-1.5-7.1-2.2-10.8-2.2c2.2-0.9,4.5-1.5,6.9-1.8
			l-10.6,0.7l5.4-1.6c-3.6,0.1-7.1-0.2-10.6-0.7l3.9-1.5l-8.2-0.5l1.9-3.1c-2.1-1.5-5-0.9-7.6-1.5s-4.7-4.3-2.4-5.6l-5.3,2
			c-0.4-1.4-0.6-2.9-0.4-4.3l-4.8,4.4c-0.8-2.2-1.1-4.5-1-6.8l-3,2.5c-0.5-2.1-1-4.5-2.8-5.8s-5-0.7-5.2,1.5c-0.1-3-1.1-6-2.9-8.4
			l-2.9,5.8c-0.4-3.1-1.4-6.2-2.8-9c-1.6,1.3-3.1,2.8-4.4,4.4c1.2-3.8-0.9-7.7-4.7-8.9c-2.6-0.8-5.4-0.1-7.2,1.9
			c-0.3-1.5-0.6-2.9-0.9-4.4c-1.4,1.6-2.6,3.3-3.5,5.2c1.2-2.2,0.4-5.1-1.8-6.3c-0.4-0.2-0.7-0.3-1.1-0.4c-2.1-0.4-5.1,0.4-5.8-1.6
			c-0.3-1,0.2-2-0.1-3c-0.5-1.6-2.8-1.7-4.4-1.2s-3.6,1-4.8-0.1l3.1-3.4l-5.9,1l3-4.5l-11.5,2.1l2-2.6l-3.9-0.2l1.9-4.2l-5.9-0.5
			c0.3-1.5,0.5-3,0.8-4.5c-2.4,0.3-4.8,0.3-7.1-0.2c0.8-1.2,1.5-2.4,2.3-3.7l-6,0.1l2.4-3.5l-8.9,1.5l1.3-3.2l-7.5,2.4l0.1-5.9
			c-2.4,0.9-5.1-0.1-6.3-2.4l-3,1.9c0.2-1.3,0.5-2.7,0.7-4l-1.6,2c-0.4-1.4-0.4-2.9,0.1-4.3c-0.4,2.3-0.9,4.7-1.3,7
			c-1.2-3.1-1.5-6.5-0.8-9.8c-0.8,2.5-2.3,4.6-4.4,6.1c-0.3-2.6-0.6-5.2-1-7.9c-0.3,2.5-1.1,5-2.3,7.3c-0.2-2.8,0-5.7,0.5-8.5
			c-0.5,2.5-1.4,4.9-2.6,7.1c0.2-2.1,0.4-4.2,0.6-6.3c-2.4,1.9-5,3.5-7.8,4.8c-1.5-2.4-1.7-5.4-0.5-8l-7.3,5.8
			c0.6-2.2,1.6-4.4,3-6.2l-6.3,4c1-2.7,2.4-5.2,4.2-7.4l-2.6,2.4c1.6-2,2.7-4.2,3.2-6.7L221,76l1.8-4.7l-2.9,3.8
			c0.7-1.8,1.4-3.6,2.1-5.4l-3.2,4.4l2.6-4.6C216.7,78,212.3,86.2,209.8,95.6z"/>
		<path class="st7" d="M219.8,262.8c-1.1-0.7-2.3-1-3.6-1c-0.9,0.2-1.8,0.6-2.4,1.2c-1.1,0.9-1.8,2.2-1.9,3.6c0,1.4,1.4,2.8,2.7,2.5
			c0.8-0.3,1.5-0.8,2.1-1.3c2.2-1.4,5.2-0.4,7.4,1s4.4,3.2,7.1,3.3c0.6,0.1,1.2-0.1,1.7-0.5c0.7-0.8,0.2-2.1-0.5-2.9
			c-1.7-2.2-3.2-2-5.6-2.8C224.3,264.9,222,263.9,219.8,262.8z"/>
	</g>
</g>
</svg>
