<svg id="Layer_1" data-name="Layer 1" xmlns="http://www.w3.org/2000/svg" viewBox="0 0 520 520"><defs><style>.cls-1,.cls-2,.cls-5{fill:#fb923c;}.cls-1,.cls-2,.cls-7,.cls-8{isolation:isolate;}.cls-1,.cls-7{opacity:0.2;}.cls-2{opacity:0.15;}.cls-3{fill:#f97316;}.cls-4{fill:#ffb07b;}.cls-6{fill:#d8ba93;}.cls-7,.cls-8{fill:#fff;}.cls-8{opacity:0.33;}</style></defs><g id="Layer_1-2" data-name="Layer 1"><path class="cls-1" d="M520,260c0,143.59-116.4,260-260,260S0,403.58,0,260,116.4,0,260,0,520,116.4,520,260Z"/><path class="cls-2" d="M222,277,131,416l198,94c106-34,182-102,191-257L411,176c-56.79,2.27-209-95-209-95"/><path class="cls-3" d="M220.81,277A106.53,106.53,0,0,1,240,249.27c2.69-2.8,5.71-5.59,9.62-7,4.63-1.62,9.55-.89,13.5-.3l95.2,14.11c4.73.71,9.23,1.17,12.4-.87,2.07-1.34,3.55-3.75,5-6.09l24-39.16a8.72,8.72,0,0,0,.54-1,6.65,6.65,0,0,0-1.17-.64c-19.48-9.23-60.94-31.66-110.9-60C242,122.13,219.53,108.85,206.8,100.2l3.42-5c24.85,16.93,147.28,86.8,191.4,107.67,1.26.6,3.88,1.84,4.56,4.66.6,2.46-.67,4.54-1.35,5.65l-24,39.16c-1.62,2.64-3.63,5.93-6.87,8-5.35,3.44-12.11,2.44-16.58,1.78L262.2,248c-3.46-.51-7.39-1.09-10.6,0-2.55.89-4.74,2.82-7.24,5.43a100.78,100.78,0,0,0-18.07,26.16Z"/><path class="cls-3" d="M223.72,315.47c5.18-1.87,10.89-1.05,16.34-.21,3.19-4.84,8.05-9.6,7.84-15.47a13.07,13.07,0,0,0-1.93-5.71c-3-5.48-15.35-15.63-19.65-18.7v-.07l-.58-.31-.55-.36v.06c-4.75-2.31-19.57-8.27-25.82-8.3a13.14,13.14,0,0,0-6,1c-5.25,2.63-7.1,9.17-9.82,14.29,3.34,4.38,6.79,9,7.64,14.44.77,5-.75,10-2.5,14.77A148.49,148.49,0,0,1,155.8,363c-8.81,9-18.76,16.92-27.14,26.35-2.63,3-5.2,6.29-5.74,10.22a16.82,16.82,0,0,0,1.46,8.59,33.86,33.86,0,0,0,12.5,15.12v.05l.58.31.55.36v0a33.84,33.84,0,0,0,19.25,3.74,16.94,16.94,0,0,0,8.25-2.82c3.19-2.36,4.88-6.2,6.22-9.94,4.27-11.87,6.44-24.39,10.15-36.44a148.54,148.54,0,0,1,30-53.82C215.27,320.92,219,317.17,223.72,315.47ZM141.65,417.72c-4.45-2.64-5.62-8.9-2.6-14s9.06-7.05,13.51-4.41,5.62,8.9,2.61,14S146.1,420.37,141.65,417.72Z"/><path class="cls-3" d="M154.05,414.9c-3.23,3.87-8.45,5.17-12.4,2.82s-5.27-7.36-3.55-12a30.72,30.72,0,0,0-14.72-.86,23.73,23.73,0,0,0,1.12,3.4A34,34,0,0,0,137,423.39h0l.58.32.55.36V424a33.84,33.84,0,0,0,19.25,3.74,21.63,21.63,0,0,0,4.78-1A31.89,31.89,0,0,0,154.05,414.9Z"/><path class="cls-4" d="M143,398.1a9.43,9.43,0,0,1,4.15-1.12,10.47,10.47,0,0,1,8.42,3.3c2,2.37,2.82,6.25,1.12,8.87a7.49,7.49,0,0,0-1.37-4.74,11.45,11.45,0,0,0-3.43-3.29,9.91,9.91,0,0,0-3.19-1.45,8.43,8.43,0,0,0-6.29,1.27,15,15,0,0,0-4.45,4.73c0-1.18,1.12-3,1.71-4A9.52,9.52,0,0,1,143,398.1Z"/><path class="cls-5" d="M220.66,258.5,243.36,272a8.59,8.59,0,0,1,3,11.76l-3.62,6.09h0l-37.46-22.24h0l3.62-6.09A8.58,8.58,0,0,1,220.66,258.5Z"/><path class="cls-5" d="M190.84,94.85l13.07-22a7,7,0,0,1,9.59-2.45l3.79,2.25h0l-20.2,34h0l-3.84-2.28A7,7,0,0,1,190.84,94.85Z"/><rect class="cls-4" x="270.71" y="36.48" width="60.98" height="219.55" transform="translate(21.67 330.57) rotate(-59.3)"/><path class="cls-6" d="M359.62,195a14.42,14.42,0,0,0-1.79,3.68A6.94,6.94,0,0,0,359.62,195Z"/><path class="cls-6" d="M280.82,155.34a5.14,5.14,0,0,0,.37-.54Z"/><path class="cls-6" d="M279.4,155.57l-.71.78C279.12,156.29,279.46,156,279.4,155.57Z"/><path class="cls-5" d="M398.87,196.78q-3.33,3.09-6.76,6.07c.61-1.31,1.23-2.63,1.84-3.95a22.41,22.41,0,0,0-5.87,5.78,19.3,19.3,0,0,0,1.73-6.19L384.06,208c.31-2.69.63-5.38.94-8.07q-4,6.93-7.93,13.84a16,16,0,0,1,.65-2.35,33.8,33.8,0,0,1-3.1,3.86,18,18,0,0,1-.84-7.57c-.94,2.51-5.13,2.09-6.35-.29S367.28,202,369,200a16.94,16.94,0,0,1-6.59,4.48,14.83,14.83,0,0,1,2.06-6.89,25.79,25.79,0,0,1-7.36,5.68,14,14,0,0,1,.7-4.54,4.72,4.72,0,0,1-3.57,1.59c-2.74-.11-4.63-4.15-2.46-5.82l-5.21.23a14.75,14.75,0,0,1,.44-5.49,12.27,12.27,0,0,1-4.76.85l-.21-3.2-4.81,2,3.21-4.72a13,13,0,0,1-6.19,3.93c1.7-2.22,3.4-4.43,5.09-6.65a8.52,8.52,0,0,1-4,2l4.6-6.27a12.71,12.71,0,0,1-7.19,2.53,16.57,16.57,0,0,1,1.07-7.82l-10.15,4.45c.36-1.12.72-2.25,1.07-3.38a14.23,14.23,0,0,1-5.87,4.63,6.05,6.05,0,0,1-.14-4.41l-5.21,3.34a6.68,6.68,0,0,1,.28-6.47,12,12,0,0,1-7.56,4v-7.23c-1.39,2.05-3.07,4.28-5.53,4.64s-5-2.78-3.35-4.58a3.84,3.84,0,0,1-6.15-4.55,3,3,0,1,1-5.13-3.1,2.81,2.81,0,0,1,.76-.85l-4.72,3.9a6.19,6.19,0,0,1,1.46-4.72,6.2,6.2,0,0,1-4.21,1.46,9.1,9.1,0,0,1,1.35-3.67,8,8,0,0,1-3.71,2.74l1.58-1.73a1.28,1.28,0,0,1-1.39-.74c-.3-1,.42-2,1.1-2.8-5.46,2.59-12-3.28-17.68-1.1.42-2.38.83-4.77,1.25-7.15-.3,1.92-3.48.44-3.78-1.49s0-4.49-1.83-5.25a7.25,7.25,0,0,0-2.86-.09,4.49,4.49,0,0,1-4-4.9,4.59,4.59,0,0,1,.4-1.46,6.1,6.1,0,0,1-8.64-7.67,11.79,11.79,0,0,1-5.05,2.57l-1.39-2.75c.19,2.31-3,3.8-5,2.65s-2.65-3.88-2.1-6.14l-4.28,3.36c-3.36-2.1-7.17-5.1-6.64-9l-3.51,1.18c.09-1,.17-2.07.26-3.11a7.5,7.5,0,0,1-4,.53,6,6,0,0,0-.4-3.51l-3.61.47-1-3L200,108a6.22,6.22,0,0,0,1.94-3.85,25.71,25.71,0,0,0-3.88.81l-6.85,11.53L380,228.52Z"/><path class="cls-6" d="M380.51,206.53a15.5,15.5,0,0,0-2.79,4.86A34,34,0,0,0,380.51,206.53Z"/><path class="cls-7" d="M209.84,95.63a62.46,62.46,0,0,1,8-10.46q-1.5,5-3,9.89l6.63-6.67L219.18,97l7-7L223,98.56l7.12-6q-1,4.44-2.13,8.93l6.23-6c-.27,1.67-.54,3.33-.82,5l6.26-3.73.51,6.47,7.41-3.52c0,1.66-.05,3.31-.07,5a29.89,29.89,0,0,1,7.3-2.51,16.9,16.9,0,0,0,.23,5.45,23,23,0,0,0,6.29-1.81l.3,4,4.92-.87a16.74,16.74,0,0,0,.22,6.07l5.61-1.78a20.84,20.84,0,0,0-.69,7.33l5.14-2.83-5.25,10,5.19-4.65a45.62,45.62,0,0,0-12.24,10.1l9.21-4.62-4.42,4.73a102.18,102.18,0,0,1,12.05-4.75,5.37,5.37,0,0,1-.47,3.87l7.06-4.12a19.52,19.52,0,0,0-.66,5.43l6.56-5.33a20.45,20.45,0,0,0,1.51,6.72l4.48-1.88a13.86,13.86,0,0,0-.12,6.08,25,25,0,0,1,5.61-4.7,9.87,9.87,0,0,1,.8,7.6l4.51-3.84,1.44,10.54,7-7.74c-.62,2.65-1.23,5.3-1.85,8a20.18,20.18,0,0,1,10.14-2.94,31,31,0,0,1-3.26,8.58,23.66,23.66,0,0,1,12.68-3.57,28.4,28.4,0,0,1-6.42,7.64,22.07,22.07,0,0,1,10.94-2.06l-4.83,4.57a78,78,0,0,1,14.12-1.56,24.93,24.93,0,0,1-7.16,3.35,69.22,69.22,0,0,1,13.57-.64,24.92,24.92,0,0,1-6.06,5.15,39.91,39.91,0,0,1,15.54,1c-2.18,1.65-1.37,5.76,1.26,6.47s5.39-2.46,4.33-5c-2.71,2.62-1.33,7.72,2,9.49s7.57.79,10.64-1.39c-.28,1.48-.55,3-.83,4.45a8.56,8.56,0,0,1,3.74-2c1.41-.21,3.07.53,3.36,1.93.12.55,0,1.14.15,1.69.62,2.36,4.2,1.44,6.2,0a7.68,7.68,0,0,1-3.17,3.29,17,17,0,0,1,5.7-1.39,4.71,4.71,0,0,1-1.74,3.69l5.82-5.22c-.73.56-1.68-.56-1.58-1.47s.63-1.8.43-2.69c-.37-1.68-2.73-1.75-4.42-1.41l2.72-2.13a27.06,27.06,0,0,0-10.8-2.16,23.68,23.68,0,0,1,6.92-1.78l-10.59.72,5.36-1.58a64.33,64.33,0,0,1-10.65-.71l3.93-1.47-8.23-.46,1.87-3.09c-2.11-1.54-5.05-.93-7.6-1.52s-4.67-4.28-2.41-5.6l-5.29,2a10.8,10.8,0,0,1-.39-4.34l-4.78,4.35a17.67,17.67,0,0,1-1-6.76l-3,2.5c-.45-2.14-1-4.46-2.75-5.79s-5-.68-5.17,1.5a14.51,14.51,0,0,0-2.87-8.39l-2.88,5.75a27.66,27.66,0,0,0-2.8-9,32,32,0,0,0-4.42,4.45,7.11,7.11,0,0,0-11.94-7c-.31-1.46-.62-2.93-.94-4.39a21.27,21.27,0,0,0-3.51,5.24,4.64,4.64,0,0,0-1.82-6.31,4.82,4.82,0,0,0-1.13-.44c-2.09-.36-5.06.37-5.75-1.65-.32-1,.2-2-.12-3-.52-1.6-2.77-1.68-4.4-1.22s-3.57,1-4.82-.08l3.07-3.4-5.89,1,3-4.5L287.87,122l2.05-2.64-3.94-.17,1.86-4.25-5.9-.49c.26-1.5.52-3,.79-4.5a20.47,20.47,0,0,1-7.11-.2c.76-1.22,1.51-2.44,2.26-3.67l-6,.11,2.44-3.47-8.92,1.48,1.26-3.2-7.5,2.44.12-5.91A5.07,5.07,0,0,1,253,95.15L250,97c.24-1.34.47-2.69.7-4l-1.62,2a7.63,7.63,0,0,1,.09-4.34c-.45,2.34-.89,4.68-1.34,7a17.85,17.85,0,0,1-.84-9.76,11.74,11.74,0,0,1-4.4,6.09c-.32-2.63-.64-5.25-1-7.88a21.6,21.6,0,0,1-2.26,7.27,33.67,33.67,0,0,1,.54-8.5,25,25,0,0,1-2.57,7.1c.2-2.1.39-4.2.59-6.3a36.12,36.12,0,0,1-7.78,4.77,8.37,8.37,0,0,1-.54-8l-7.31,5.76a19,19,0,0,1,3-6.23L219,86a27.69,27.69,0,0,1,4.23-7.39l-2.64,2.44a16.56,16.56,0,0,0,3.23-6.68L221,76l1.83-4.66L220,75.14c.67-1.8,1.35-3.6,2.06-5.4l-3.19,4.4,2.62-4.55C216.69,78,212.3,86.23,209.84,95.63Z"/><path class="cls-8" d="M219.77,262.78a6.59,6.59,0,0,0-3.56-1,4.73,4.73,0,0,0-2.44,1.2,4.85,4.85,0,0,0-1.93,3.6,2.47,2.47,0,0,0,2.74,2.47,7.09,7.09,0,0,0,2.07-1.3c2.21-1.41,5.16-.39,7.39,1s4.43,3.18,7.05,3.27a2.16,2.16,0,0,0,1.7-.55c.72-.8.2-2.08-.48-2.93-1.72-2.16-3.2-2-5.59-2.81A59.86,59.86,0,0,1,219.77,262.78Z"/></g></svg>