<?xml version="1.0" encoding="utf-8"?>
<!-- Generator: Adobe Illustrator 26.3.1, SVG Export Plug-In . SVG Version: 6.00 Build 0)  -->
<svg version="1.1" id="Layer_1" xmlns="http://www.w3.org/2000/svg" xmlns:xlink="http://www.w3.org/1999/xlink" x="0px" y="0px"
	 viewBox="0 0 520 520" style="enable-background:new 0 0 520 520;" xml:space="preserve">
<style type="text/css">
	.st0{opacity:0.2;fill:#FB923C;enable-background:new    ;}
	.st1{opacity:0.15;fill:#FB923C;enable-background:new    ;}
	.st2{fill:#F97316;}
	.st3{fill:#CE5F13;}
	.st4{fill:#FFB07B;}
	.st5{fill:#FB923C;}
</style>
<g>
	<g id="Layer_1_00000106843689436567004140000011884280649887312267_">
		<path class="st0" d="M520,260c0,143.6-116.4,260-260,260S0,403.6,0,260S116.4,0,260,0S520,116.4,520,260z"/>
		<path class="st1" d="M498,159l-75-47c-56.8,2.3-144.2-14.3-201-12c-18.2,0.7-5.8,20.3-24,21l117,14L168,431l161,79
			C457,459,564,363,498,159z"/>
		<path class="st2" d="M235.9,411.3c-5.1,12-10.6,28.8-19.9,34.2c-8.2,4.8-47.2-12.3-47.7-14.1s0.4-4.5,1.3-6.6
			c4.6-11,10.4-21.3,15.9-31.7c44-83.2,72.5-175.5,106.7-264.4c1.3-3.3,2.7-6.8,5.1-8.8c3-2.5,6.4-1.6,9.3-0.6
			c8.8,3.3,17.3,7.6,25.2,12.7c0.9,0.5,1.6,1.2,2,2.1c1,2.6-3.8,17.8-5,21.8c-3.3,11.6-9.5,23.7-13.7,35.1
			c-9.1,24.4-17.6,49-25.9,73.6C272.5,313.9,256.2,363.4,235.9,411.3z"/>
		<path class="st3" d="M235.8,411.2c-2.6,6-5.2,13.3-8.4,19.6l-52.2-18.5c3.3-6.5,6.8-13,10.2-19.4c14.4-27.2,27.1-55.4,38.9-84.1
			l44.4,15.7C258.5,353.8,247.9,382.8,235.8,411.2z"/>
		<path class="st4" d="M220.4,88.2c9.3-9.5,21.3-16.7,34.4-18.4c6.1-0.6,12.2-0.5,18.3,0.2c10.2,1,16,2.2,23.5,5.2l92.1,32.6
			c0,0-5.7,16,3.5,19.3c11.5,4.1,19.7-19.4,19.7-19.4l11.5,4l-12,33.9l-0.4,1l-12,33.9l-11.5-4.1c0,0,8.3-23.4-3.2-27.5
			c-9.2-3.2-14.8,12.8-14.8,12.8l-92.1-32.6c0,0-2.7-1.4-3.7-2l-12.5-6.8c-6.6-3.6-13.3-7.3-20.5-9.5s-15.1-3-22.3-0.8
			c-6.9,2.1-12.8,6.8-16.4,13c-1.4-0.4-2.7-1.1-3.8-2C204.2,109.3,211.1,97.7,220.4,88.2z"/>
		<path class="st5" d="M202,123.1c-1.4-0.4-2.7-1.1-3.8-2c6-11.8,12.8-23.4,22.1-32.9s21.3-16.7,34.4-18.4c1.7-0.2,3.5-0.3,5.2-0.4
			c7.9,21.1,21.8,39.8,39.2,54.3c20.1,16.7,44.5,27.9,69.8,34.1c2.4-6.9,6.3-15,13.6-15.7c4.5-0.4,9.1,2.2,13.3,0.8
			c6.5-2.2,7.3-12.1,13.5-15c-2,7.1-4.1,14.1-6.4,21.1c-3,9.4-5.5,20.2-9.7,29.5l-5.8-2.1c0,0,8.3-23.4-3.2-27.5
			c-9.2-3.2-14.8,12.8-14.8,12.8l-92.1-32.6c0,0-2.7-1.4-3.7-2l-12.5-6.8c-6.6-3.6-13.3-7.3-20.5-9.5s-15.1-3-22.3-0.8
			C211.5,112.2,205.6,116.8,202,123.1z"/>
	</g>
</g>
</svg>
