<svg id="Layer_1" data-name="Layer 1" xmlns="http://www.w3.org/2000/svg" viewBox="0 0 520 520"><defs><style>.cls-1,.cls-2,.cls-6{fill:#fb923c;}.cls-1,.cls-2{isolation:isolate;}.cls-1{opacity:0.2;}.cls-2{opacity:0.15;}.cls-3{fill:#f97316;}.cls-4{fill:#ce5f13;}.cls-5{fill:#ffb07b;}</style></defs><g id="Layer_1-2" data-name="Layer 1"><path class="cls-1" d="M520,260c0,143.59-116.4,260-260,260S0,403.58,0,260,116.4,0,260,0,520,116.4,520,260Z"/><path class="cls-2" d="M498,159l-75-47c-56.79,2.27-144.21-14.27-201-12-18.21.73-5.79,20.27-24,21l117,14L168,431l161,79C457,459,564,363,498,159Z"/><path class="cls-3" d="M235.86,411.27c-5.11,12-10.57,28.77-19.91,34.19-8.24,4.78-47.23-12.26-47.71-14.11s.39-4.47,1.31-6.63c4.65-11,10.41-21.26,15.92-31.68,44-83.25,72.53-175.47,106.73-264.36,1.27-3.3,2.72-6.85,5.1-8.84,3-2.51,6.39-1.64,9.26-.57A129.51,129.51,0,0,1,331.79,132a4.61,4.61,0,0,1,2,2.12c1,2.58-3.79,17.76-5,21.82-3.3,11.57-9.47,23.7-13.72,35.06-9.12,24.37-17.57,49-25.92,73.63C272.52,313.9,256.21,363.44,235.86,411.27Z"/><path class="cls-4" d="M235.8,411.25c-2.57,6-5.22,13.26-8.41,19.64L175.2,412.43c3.28-6.55,6.79-13,10.21-19.41,14.38-27.21,27.11-55.37,38.92-84.06l44.37,15.69C258.54,353.84,247.88,382.84,235.8,411.25Z"/><path class="cls-5" d="M220.36,88.23c9.29-9.46,21.29-16.71,34.44-18.38a81.57,81.57,0,0,1,18.28.24c10.21,1,16,2.15,23.46,5.19l92.1,32.58s-5.67,16,3.49,19.27c11.45,4.05,19.73-19.36,19.73-19.36l11.45,4-12,33.87-.35,1-12,33.87-11.45-4s8.28-23.41-3.17-27.46c-9.16-3.24-14.83,12.79-14.83,12.79l-92.1-32.58s-2.68-1.42-3.67-2l-12.49-6.82c-6.63-3.63-13.32-7.27-20.53-9.52s-15.09-3-22.32-.83A28.91,28.91,0,0,0,202,123a10.18,10.18,0,0,1-3.79-2C204.21,109.26,211.06,97.68,220.36,88.23Z"/><path class="cls-6" d="M202,123.09a10.18,10.18,0,0,1-3.79-2c6-11.84,12.82-23.41,22.11-32.87s21.3-16.71,34.45-18.38c1.73-.22,3.47-.34,5.21-.39,7.85,21.1,21.84,39.85,39.17,54.3,20.07,16.74,44.45,27.89,69.83,34.09,2.43-6.93,6.27-15,13.58-15.73,4.46-.43,9.06,2.23,13.3.79,6.5-2.22,7.28-12.13,13.54-15q-3,10.59-6.36,21.09c-3,9.45-5.5,20.22-9.71,29.51l-5.82-2.06S395.79,153,384.34,149c-9.16-3.24-14.82,12.79-14.82,12.79l-92.11-32.58s-2.68-1.41-3.67-2l-12.49-6.82c-6.63-3.62-13.31-7.27-20.53-9.51s-15.08-3-22.31-.84A28.92,28.92,0,0,0,202,123.09Z"/></g></svg>