<svg id="Layer_1" data-name="Layer 1" xmlns="http://www.w3.org/2000/svg" viewBox="0 0 520.04 520"><defs><style>.cls-1,.cls-2{fill:#fb923c;isolation:isolate;}.cls-1{opacity:0.2;}.cls-2{opacity:0.15;}.cls-3{fill:#f97316;}.cls-4{fill:#ffb07b;}.cls-5{fill:none;}.cls-6{fill:#ffa739;}</style></defs><g id="Layer_1-2" data-name="Layer 1"><path class="cls-1" d="M520,260c0,143.59-116.4,260-260,260S0,403.58,0,260,116.4,0,260,0,520,116.4,520,260Z"/><path class="cls-2" d="M158,192,143,350,376,491c73-33,146-120,144-231L419,179c-25-6-53-9-53-9"/><path class="cls-3" d="M380.27,177.56a192.69,192.69,0,0,0-21-10.2c-8.45-3.38-9.74-3.78-22-7.58-8.07-2.26-8.9-2.42-22.79-5.23-7.89-1.4-8.18-1.43-23.33-3.05-7.84-.66-7.84-.66-23.59-.93-4.93.07-11.51.37-16.43.59.81-.07,1.79,2.8,2.76,7.83a273.61,273.61,0,0,1,3.42,27.67c1.91,23.28,2,45.4.14,49.45,28.69-1.91,58.46,3.44,80.45,16,.65.37,1.29.75,1.93,1.13-12.12-6.94-12.18-29.07-.14-49.44,6-10.19,13.92-18,21.84-22.43s15.84-5.42,21.9-2Z"/><path class="cls-3" d="M237,189.28c-2.77-11.56-5.83-20.1-9.62-26.87-2.87-5-5.72-7.61-8.11-7.14-7.47,1.45-7.47,1.45-21.52,5.25-9.07,2.76-10.3,3.24-22.06,7.88-6.72,2.88-7.13,3.1-17.61,8.59l-2.21,1.26c-14.51,8.8-18.42,12.14-28.6,21.37-3,3-6.74,7.25-9.51,10.46a23.83,23.83,0,0,1,6-5.37c7.56-4.78,17.49-5.52,27.44-2.85a56,56,0,0,1,27.49,17.61c12.83,14.95,14.88,33,6.12,44.09.68-.79,1.63-1.81,2.36-2.56,4.27-3.95,6.18-5.19,11.55-8.49l1.26-.71a126.09,126.09,0,0,1,37.14-13.08C242.42,234.23,242.36,212.11,237,189.28Z"/><path class="cls-3" d="M172,230.9a52.72,52.72,0,0,0-29.57-14.11c-4.91-.64-29.89-2.73-39.8,19.17-2.59,6.94-2.88,8.21-4.76,16.47-1.16,6.86-1.21,8.12-1.5,16.32.14,6.92.34,8.17,1.59,16.3,1.56,7.27,2,8.51,4.92,16.59,3.49,8.05,4.46,9.65,9.13,17.3a125.24,125.24,0,0,0,15.6,18.64L130,339.8c-10.65-9.81-9.55-29.69,3.35-46.85,7.07-9.41,16.35-16.22,25.64-19.62h0c10.16-3.53,18.32-3.26,25.69.84a71,71,0,0,0,7.73,6c-1.45-1.07-2.67-2.1-4.26-3.46l-.8-.75a30,30,0,0,1-3.77-4.42,13.06,13.06,0,0,1-1.15-2.11,7.24,7.24,0,0,1-.25-.79v-.36a5.53,5.53,0,0,1,.24-.79C186.87,256.08,183.4,241.94,172,230.9Zm20.37,49.31c1.24.92,2.65,1.88,4.65,3.1-1.69-1-3.17-2.05-4.68-3.1Z"/><path class="cls-3" d="M269.56,335.9c-.08-11.67-.18-21.44-.27-27.79-.06-5-.13-7.93-.17-7.93h-.29c-5.36,0-5.36,0-15.94-.63-5.41-.46-5.6-.49-15.47-2a146.32,146.32,0,0,1-14.5-3.32,124.6,124.6,0,0,1-13-4.47,97.63,97.63,0,0,1-11-5.31l-.71-.41c-6-3.4-13.75-2.32-21.53,2.18s-15.56,12.39-21.47,22.64c-11.86,20.52-11.8,42.64.14,49.45l1.16.66a190.88,190.88,0,0,0,21,10.2c8.45,3.38,9.74,3.78,22,7.58,8.07,2.26,8.9,2.43,22.8,5.23,7.87,1.4,8.16,1.43,23.32,3,7.84.66,7.84.66,23.59.93h.42c0-.2,0-.41,0-.61C269.79,381.38,269.73,359.26,269.56,335.9Z"/><path class="cls-3" d="M338,284l-1.08.61a93.1,93.1,0,0,1-9.26,4.51,121.65,121.65,0,0,1-13,4.62,143.68,143.68,0,0,1-14.47,3.48c-2.84.52-6.65,1.07-9.51,1.51,1.6-.22,3.51,2.56,5.42,7.57,2.37,6.2,4.74,15.81,6.57,27.37,3.66,23.12,3.72,45.25.14,49.44a1.8,1.8,0,0,1-1.09.67c4.34-.58,10.1-1.57,14.42-2.29,8.5-1.63,9-1.78,22.81-5.49,9.07-2.77,10.3-3.25,22.06-7.89,6.72-2.88,7.13-3.1,17.61-8.59l2.22-1.26c13.77-8.29,17.91-11.79,27.86-20.67,10.43-10,9.12-29.73-3.89-46.56a57.47,57.47,0,0,0-26-19.26c-9.39-3.27-18.78-3.13-25.92,1.2a21.72,21.72,0,0,0-3.74,2.87A59.45,59.45,0,0,1,338,284Z"/><path class="cls-3" d="M438.83,251.45c-1.56-7.29-2-8.53-4.92-16.61-3.5-8.06-4.47-9.66-9.15-17.31a126,126,0,0,0-15.66-18.68l-1.09-1a21.37,21.37,0,0,0-3.7-2.79c-7.16-4.28-16.52-4.35-25.88-1a57.68,57.68,0,0,0-25.82,19.45c-12.89,17-14.06,36.73-3.52,46.68l.44.42a30.13,30.13,0,0,1,3.74,4.39,12.69,12.69,0,0,1,1.13,2c.09.23.18.54.25.78v.36a5.7,5.7,0,0,1-.25.8,10.13,10.13,0,0,1-.79,1.58,26.2,26.2,0,0,1,8.21-8.61c7.9-5.26,18.27-6.63,28.65-4.59a54.6,54.6,0,0,1,28.7,15.88c12.34,13,15.15,29.26,8.38,40.81,2.6-4.42,2.67-4.59,6.55-13.35,2.65-7.08,2.94-8.35,4.82-16.64,1.16-6.86,1.21-8.12,1.5-16.31C440.28,260.83,440.09,259.58,438.83,251.45Z"/><path class="cls-4" d="M257.26,186.66A273.77,273.77,0,0,0,253.84,159c-1-5-2-7.9-2.76-7.83l-7.16.57c-8.13.78-8.42.82-23.34,3.29l-1.29.24c2.39-.46,5.24,2.18,8.11,7.15h0c3.79,6.77,6.85,15.31,9.62,26.87,5.34,22.83,5.4,45,.14,49.44a160,160,0,0,1,20.24-2.61C259.23,232.06,259.17,209.94,257.26,186.66Z"/><path class="cls-4" d="M302.71,333.68c-1.83-11.56-4.2-21.17-6.57-27.37-1.91-5-3.82-7.79-5.42-7.57l-5.94.66c-4.69.34-11,.65-15.66.78,0,0,.11,2.89.17,7.93.09,6.35.19,16.12.27,27.79.17,23.36.23,45.48.14,49.44,0,.2,0,.41,0,.61,7-.2,16.23-.66,23.18-1.16l8.91-1a1.8,1.8,0,0,0,1.09-.67C306.43,378.93,306.37,356.8,302.71,333.68Z"/><path class="cls-4" d="M178.73,219.47a56,56,0,0,0-27.49-17.61c-10-2.67-19.88-1.93-27.44,2.85a23.83,23.83,0,0,0-6,5.37c-1.91,2.43-4.26,5.8-6,8.31a105.23,105.23,0,0,0-9.07,17.39l-.07.18c4.15-10.48,17.06-21.79,39.8-19.17h0A52.73,52.73,0,0,1,172,230.9c11.43,11,14.9,25.18,10.38,36.63h0a13,13,0,0,1,1.13-2.11c.38-.58.94-1.3,1.36-1.86C193.61,252.51,191.56,234.42,178.73,219.47Z"/><path class="cls-4" d="M197,283.31a76.83,76.83,0,0,1-12.38-9.14c-7.37-4.1-15.53-4.37-25.69-.84-9.29,3.4-18.57,10.21-25.64,19.62-12.9,17.16-14,37-3.35,46.85,8.5,7.76,16.45,12.85,23.46,17.34.64.39,1.29.78,2,1.16-11.94-6.81-12-28.93-.14-49.45,5.91-10.25,13.69-18.15,21.47-22.64s15.57-5.58,21.53-2.18Z"/><path class="cls-4" d="M419.17,273.24a54.6,54.6,0,0,0-28.7-15.88c-10.38-2-20.75-.67-28.65,4.59a26.2,26.2,0,0,0-8.21,8.61l-.35.55a30.06,30.06,0,0,1-3.75,4.45l-.3.29A21.48,21.48,0,0,1,353,273c7.14-4.33,16.53-4.47,25.92-1.2a57.47,57.47,0,0,1,26,19.26c13,16.83,14.32,36.52,3.89,46.56l.81-.79a125.38,125.38,0,0,0,15.5-18.74l2.5-4C434.32,302.5,431.51,286.26,419.17,273.24Z"/><path class="cls-4" d="M383.38,179.38c-6.06-3.46-14-2.45-21.9,2s-15.82,12.24-21.84,22.43c-12,20.37-12,42.5.14,49.44a59.38,59.38,0,0,1,9.31,6.93c-10.54-10-9.37-29.7,3.52-46.68A57.66,57.66,0,0,1,378.43,194c9.36-3.34,18.72-3.27,25.88,1a21.37,21.37,0,0,1,3.7,2.79C398.65,189.16,393.54,185.89,383.38,179.38Z"/><path class="cls-5" d="M380.36,343.33c3.42,2,6.21.42,6.22-3.51a8.69,8.69,0,0,0-.07-.88c-2.57,1.05-5.22,2.06-7.93,3A10.4,10.4,0,0,0,380.36,343.33Z"/><path class="cls-5" d="M374.21,332.68a10.38,10.38,0,0,0,.09,1.11c2.81-1,5.55-2,8.18-3a10.66,10.66,0,0,0-2.08-1.64C377,327.2,374.22,328.76,374.21,332.68Z"/><path class="cls-6" d="M447.36,211c-14.92-31.81-47.79-47.92-88.68-43.88l.56.22c8.16,3.57,11.06,4.84,16.82,7.92,29.27,1.52,52.25,15.44,63.49,39.4,14.7,31.33,5.13,71.1-23.29,96.7-6.36,5.73-16.35,11.93-28.82,17.35a29.13,29.13,0,0,1,4.1,8c12.66-5.7,23.14-12.35,30.5-19C453.25,289.67,463.66,245.76,447.36,211Z"/><path class="cls-5" d="M100.59,278.9a43.41,43.41,0,0,1-5.17,1.93c1,1.32,2.72,1.58,4.74.41a11,11,0,0,0,3.67-3.81,23.75,23.75,0,0,0-2.82,1.26Z"/><path class="cls-5" d="M100.13,268.68a9.35,9.35,0,0,0-2.28,1.92,44.31,44.31,0,0,1,6-2.38A3.93,3.93,0,0,0,100.13,268.68Z"/><path class="cls-6" d="M382.48,330.79c-2.63,1-5.37,2-8.18,3q-2.54.85-5.16,1.66c-43,13.17-103.75,14.43-154.52-29-49-41.91-85.14-43.52-103.8-40a62.31,62.31,0,0,0-7,1.76,44.31,44.31,0,0,0-6,2.38,12.08,12.08,0,0,0-3.2,7.53,4.62,4.62,0,0,0,.77,2.7,43.41,43.41,0,0,0,5.17-1.93l.42-.21a23.75,23.75,0,0,1,2.82-1.26,46.35,46.35,0,0,1,5.75-1.73C124.87,272.08,159.93,271,209,313c34.1,29.18,72.49,39.68,107.77,39.68a185.91,185.91,0,0,0,56.55-8.93c1.78-.57,3.53-1.15,5.26-1.76,2.71-1,5.36-2,7.93-3A14.09,14.09,0,0,0,382.48,330.79Z"/><path class="cls-6" d="M131.33,196c3.35-3,6.15-5.35,9.33-7.72-35.09-5.39-54.58,14.62-62,24.76-14.75,20.13-18.09,48.41-7.3,61.75,2.84,3.51,8.48,8.17,18,7.3,0-.28-.07-.52-.08-.81a20.65,20.65,0,0,1,1.92-8.21c-5.67,1.28-10.06.05-13.1-3.7-7.44-9.2-6.17-32.5,7.55-51.22C92.74,208.39,107,195.07,131.33,196Z"/><path class="cls-6" d="M175.71,168.4c8.92-3.52,11.79-4.65,16.61-6.19a72.67,72.67,0,0,1,31-17.24c17-4.41,35.65-2.44,55.66,5.82,5.13.13,6.91.28,12.09.71s8.41.9,11,1.2c-29.21-17-56.43-22.43-80.91-16.08C195.09,143.4,180.1,161.5,175,168.69Z"/></g></svg>