<?xml version="1.0" encoding="utf-8"?>
<!-- Generator: Adobe Illustrator 26.3.1, SVG Export Plug-In . SVG Version: 6.00 Build 0)  -->
<svg version="1.1" id="Layer_1" xmlns="http://www.w3.org/2000/svg" xmlns:xlink="http://www.w3.org/1999/xlink" x="0px" y="0px"
	 viewBox="0 0 520 520" style="enable-background:new 0 0 520 520;" xml:space="preserve">
<style type="text/css">
	.st0{opacity:0.2;fill:#FB923C;enable-background:new    ;}
	.st1{opacity:0.15;fill:#FB923C;enable-background:new    ;}
	.st2{fill:#F97316;}
	.st3{fill:#FFB07B;}
	.st4{fill:none;}
	.st5{fill:#FFA739;}
</style>
<g>
	<g id="Layer_1_00000047749107465439645830000018374228672247462533_">
		<path class="st0" d="M520,260c0,143.6-116.4,260-260,260S0,403.6,0,260S116.4,0,260,0S520,116.4,520,260z"/>
		<path class="st1" d="M158,192l-15,158l233,141c73-33,146-120,144-231l-101-81c-25-6-53-9-53-9"/>
		<path class="st2" d="M380.3,177.6c-6.8-3.8-13.8-7.2-21-10.2c-8.5-3.4-9.7-3.8-22-7.6c-8.1-2.3-8.9-2.4-22.8-5.2
			c-7.9-1.4-8.2-1.4-23.3-3.1c-7.8-0.7-7.8-0.7-23.6-0.9c-4.9,0.1-11.5,0.4-16.4,0.6c0.8-0.1,1.8,2.8,2.8,7.8
			c1.6,9.2,2.8,18.4,3.4,27.7c1.9,23.3,2,45.4,0.1,49.4c28.7-1.9,58.5,3.4,80.5,16c0.6,0.4,1.3,0.8,1.9,1.1
			c-12.1-6.9-12.2-29.1-0.1-49.4c6-10.2,13.9-18,21.8-22.4s15.8-5.4,21.9-2C382.4,178.8,381.3,178.1,380.3,177.6z"/>
		<path class="st2" d="M237,189.3c-2.8-11.6-5.8-20.1-9.6-26.9c-2.9-5-5.7-7.6-8.1-7.1c-7.5,1.4-7.5,1.4-21.5,5.2
			c-9.1,2.8-10.3,3.2-22.1,7.9c-6.7,2.9-7.1,3.1-17.6,8.6l-2.2,1.3c-14.5,8.8-18.4,12.1-28.6,21.4c-3,3-6.7,7.2-9.5,10.5
			c1.7-2.1,3.7-3.9,6-5.4c7.6-4.8,17.5-5.5,27.4-2.9c10.7,3,20.3,9.1,27.5,17.6c12.8,14.9,14.9,33,6.1,44.1c0.7-0.8,1.6-1.8,2.4-2.6
			c4.3-4,6.2-5.2,11.6-8.5l1.3-0.7c11.6-6.3,24.2-10.7,37.1-13.1C242.4,234.2,242.4,212.1,237,189.3z"/>
		<path class="st2" d="M172,230.9c-8.1-7.7-18.5-12.7-29.6-14.1c-4.9-0.6-29.9-2.7-39.8,19.2c-2.6,6.9-2.9,8.2-4.8,16.5
			c-1.2,6.9-1.2,8.1-1.5,16.3c0.1,6.9,0.3,8.2,1.6,16.3c1.6,7.3,2,8.5,4.9,16.6c3.5,8,4.5,9.6,9.1,17.3c4.6,6.7,9.8,12.9,15.6,18.6
			l2.3,2.2c-10.7-9.8-9.6-29.7,3.4-46.9c7.1-9.4,16.4-16.2,25.6-19.6l0,0c10.2-3.5,18.3-3.3,25.7,0.8c2.4,2.2,5,4.2,7.7,6
			c-1.4-1.1-2.7-2.1-4.3-3.5l-0.8-0.8c-1.4-1.3-2.7-2.8-3.8-4.4c-0.4-0.7-0.8-1.4-1.1-2.1c-0.1-0.3-0.2-0.5-0.2-0.8v-0.2v-0.2
			c0.1-0.3,0.1-0.5,0.2-0.8C186.9,256.1,183.4,241.9,172,230.9z M192.4,280.2c1.2,0.9,2.6,1.9,4.6,3.1
			C195.3,282.3,193.9,281.3,192.4,280.2L192.4,280.2z"/>
		<path class="st2" d="M269.6,335.9c-0.1-11.7-0.2-21.4-0.3-27.8c-0.1-5-0.1-7.9-0.2-7.9h-0.3c-5.4,0-5.4,0-15.9-0.6
			c-5.4-0.5-5.6-0.5-15.5-2c-4.9-0.9-9.7-2-14.5-3.3c-4.4-1.2-8.8-2.7-13-4.5c-3.8-1.5-7.4-3.3-11-5.3l-0.7-0.4
			c-6-3.4-13.8-2.3-21.5,2.2s-15.6,12.4-21.5,22.6c-11.9,20.5-11.8,42.6,0.1,49.5l1.2,0.7c6.8,3.8,13.8,7.2,21,10.2
			c8.4,3.4,9.7,3.8,22,7.6c8.1,2.3,8.9,2.4,22.8,5.2c7.9,1.4,8.2,1.4,23.3,3c7.8,0.7,7.8,0.7,23.6,0.9h0.4c0-0.2,0-0.4,0-0.6
			C269.8,381.4,269.7,359.3,269.6,335.9z"/>
		<path class="st2" d="M338,284l-1.1,0.6c-3,1.7-6.1,3.2-9.3,4.5c-4.2,1.8-8.6,3.3-13,4.6c-4.8,1.4-9.6,2.6-14.5,3.5
			c-2.8,0.5-6.6,1.1-9.5,1.5c1.6-0.2,3.5,2.6,5.4,7.6c2.4,6.2,4.7,15.8,6.6,27.4c3.7,23.1,3.7,45.2,0.1,49.4
			c-0.3,0.4-0.7,0.6-1.1,0.7c4.3-0.6,10.1-1.6,14.4-2.3c8.5-1.6,9-1.8,22.8-5.5c9.1-2.8,10.3-3.2,22.1-7.9c6.7-2.9,7.1-3.1,17.6-8.6
			l2.2-1.3c13.8-8.3,17.9-11.8,27.9-20.7c10.4-10,9.1-29.7-3.9-46.6c-6.6-8.8-15.7-15.5-26-19.3c-9.4-3.3-18.8-3.1-25.9,1.2
			c-1.3,0.8-2.6,1.8-3.7,2.9C345.8,279,342,281.7,338,284z"/>
		<path class="st2" d="M438.8,251.4c-1.6-7.3-2-8.5-4.9-16.6c-3.5-8.1-4.5-9.7-9.1-17.3c-4.6-6.7-9.8-13-15.7-18.7l-1.1-1
			c-1.1-1.1-2.4-2-3.7-2.8c-7.2-4.3-16.5-4.4-25.9-1c-10.3,3.9-19.2,10.6-25.8,19.4c-12.9,17-14.1,36.7-3.5,46.7l0.4,0.4
			c1.4,1.3,2.6,2.8,3.7,4.4c0.4,0.6,0.8,1.3,1.1,2c0.1,0.2,0.2,0.5,0.2,0.8v0.2v0.2c-0.1,0.3-0.1,0.5-0.2,0.8
			c-0.2,0.5-0.5,1.1-0.8,1.6c2-3.5,4.8-6.4,8.2-8.6c7.9-5.3,18.3-6.6,28.6-4.6c11,2.2,21,7.8,28.7,15.9c12.3,13,15.1,29.3,8.4,40.8
			c2.6-4.4,2.7-4.6,6.5-13.4c2.6-7.1,2.9-8.4,4.8-16.6c1.2-6.9,1.2-8.1,1.5-16.3C440.3,260.8,440.1,259.6,438.8,251.4z"/>
		<path class="st3" d="M257.3,186.7c-0.7-9.3-1.8-18.5-3.4-27.7c-1-5-2-7.9-2.8-7.8l-7.2,0.6c-8.1,0.8-8.4,0.8-23.3,3.3l-1.3,0.2
			c2.4-0.5,5.2,2.2,8.1,7.1l0,0c3.8,6.8,6.9,15.3,9.6,26.9c5.3,22.8,5.4,44.9,0.1,49.4c6.7-1.3,13.4-2.2,20.2-2.6
			C259.2,232.1,259.2,209.9,257.3,186.7z"/>
		<path class="st3" d="M302.7,333.7c-1.8-11.6-4.2-21.2-6.6-27.4c-1.9-5-3.8-7.8-5.4-7.6l-5.9,0.7c-4.7,0.3-11,0.6-15.7,0.8
			c0,0,0.1,2.9,0.2,7.9c0.1,6.4,0.2,16.1,0.3,27.8c0.2,23.4,0.2,45.5,0.1,49.4c0,0.2,0,0.4,0,0.6c7-0.2,16.2-0.7,23.2-1.2l8.9-1
			c0.4-0.1,0.8-0.3,1.1-0.7C306.4,378.9,306.4,356.8,302.7,333.7z"/>
		<path class="st3" d="M178.7,219.5c-7.2-8.5-16.8-14.6-27.5-17.6c-10-2.7-19.9-1.9-27.4,2.9c-2.3,1.4-4.3,3.3-6,5.4
			c-1.9,2.4-4.3,5.8-6,8.3c-3.6,5.5-6.6,11.3-9.1,17.4l-0.1,0.2c4.2-10.5,17.1-21.8,39.8-19.2l0,0c11.1,1.4,21.4,6.4,29.5,14.1
			c11.4,11,14.9,25.2,10.4,36.6l0,0c0.3-0.7,0.7-1.4,1.1-2.1c0.4-0.6,0.9-1.3,1.4-1.9C193.6,252.5,191.6,234.4,178.7,219.5z"/>
		<path class="st3" d="M197,283.3c-4.4-2.6-8.6-5.7-12.4-9.1c-7.4-4.1-15.5-4.4-25.7-0.8c-9.3,3.4-18.6,10.2-25.6,19.6
			c-12.9,17.2-14,37-3.4,46.9c8.5,7.8,16.4,12.9,23.5,17.3c0.6,0.4,1.3,0.8,2,1.2c-11.9-6.8-12-28.9-0.1-49.5
			c5.9-10.2,13.7-18.1,21.5-22.6s15.6-5.6,21.5-2.2L197,283.3z"/>
		<path class="st3" d="M419.2,273.2c-7.7-8.1-17.7-13.7-28.7-15.9c-10.4-2-20.8-0.7-28.6,4.6c-3.4,2.2-6.2,5.1-8.2,8.6l-0.4,0.5
			c-1.1,1.6-2.4,3.1-3.8,4.5l-0.3,0.3c1.2-1.1,2.4-2,3.8-2.8c7.1-4.3,16.5-4.5,25.9-1.2c10.3,3.8,19.4,10.5,26,19.3
			c13,16.8,14.3,36.5,3.9,46.6l0.8-0.8c5.8-5.7,11-12,15.5-18.7l2.5-4C434.3,302.5,431.5,286.3,419.2,273.2z"/>
		<path class="st3" d="M383.4,179.4c-6.1-3.5-14-2.4-21.9,2s-15.8,12.2-21.8,22.4c-12,20.4-12,42.5,0.1,49.4c3.3,2,6.4,4.3,9.3,6.9
			c-10.5-9.9-9.4-29.7,3.5-46.7c6.6-8.8,15.5-15.6,25.8-19.5c9.4-3.3,18.7-3.3,25.9,1c1.3,0.8,2.6,1.7,3.7,2.8
			C398.6,189.2,393.5,185.9,383.4,179.4z"/>
		<path class="st4" d="M380.4,343.3c3.4,2,6.2,0.4,6.2-3.5c0-0.3,0-0.6-0.1-0.9c-2.6,1-5.2,2.1-7.9,3
			C379.1,342.5,379.7,342.9,380.4,343.3z"/>
		<path class="st4" d="M374.2,332.7c0,0.4,0,0.7,0.1,1.1c2.8-1,5.5-2,8.2-3c-0.6-0.6-1.3-1.2-2.1-1.6
			C377,327.2,374.2,328.8,374.2,332.7z"/>
		<path class="st5" d="M447.4,211c-14.9-31.8-47.8-47.9-88.7-43.9l0.6,0.2c8.2,3.6,11.1,4.8,16.8,7.9c29.3,1.5,52.2,15.4,63.5,39.4
			c14.7,31.3,5.1,71.1-23.3,96.7c-6.4,5.7-16.4,11.9-28.8,17.4c1.8,2.4,3.2,5.1,4.1,8c12.7-5.7,23.1-12.4,30.5-19
			C453.2,289.7,463.7,245.8,447.4,211z"/>
		<path class="st4" d="M100.6,278.9c-1.7,0.8-3.4,1.4-5.2,1.9c1,1.3,2.7,1.6,4.7,0.4c1.5-1,2.8-2.3,3.7-3.8c-1,0.4-1.9,0.8-2.8,1.3
			L100.6,278.9z"/>
		<path class="st4" d="M100.1,268.7c-0.9,0.5-1.6,1.2-2.3,1.9c1.9-0.9,3.9-1.7,6-2.4C102.6,267.7,101.2,267.9,100.1,268.7z"/>
		<path class="st5" d="M382.5,330.8c-2.6,1-5.4,2-8.2,3c-1.7,0.6-3.4,1.1-5.2,1.7c-43,13.2-103.8,14.4-154.5-29
			c-49-41.9-85.1-43.5-103.8-40c-2.4,0.5-4.7,1-7,1.8c-2.1,0.6-4.1,1.4-6,2.4c-1.9,2.1-3,4.7-3.2,7.5c0,1,0.2,1.9,0.8,2.7
			c1.8-0.5,3.5-1.2,5.2-1.9l0.4-0.2c0.9-0.5,1.9-0.9,2.8-1.3c1.9-0.7,3.8-1.3,5.8-1.7c15.3-3.6,50.4-4.7,99.4,37.3
			c34.1,29.2,72.5,39.7,107.8,39.7c19.2,0,38.3-3.1,56.5-8.9c1.8-0.6,3.5-1.1,5.3-1.8c2.7-1,5.4-2,7.9-3
			C386.1,335.9,384.7,333,382.5,330.8z"/>
		<path class="st5" d="M131.3,196c3.4-3,6.1-5.4,9.3-7.7c-35.1-5.4-54.6,14.6-62,24.8c-14.8,20.1-18.1,48.4-7.3,61.7
			c2.8,3.5,8.5,8.2,18,7.3c0-0.3-0.1-0.5-0.1-0.8c0.1-2.8,0.7-5.6,1.9-8.2c-5.7,1.3-10.1,0-13.1-3.7c-7.4-9.2-6.2-32.5,7.6-51.2
			C92.7,208.4,107,195.1,131.3,196z"/>
		<path class="st5" d="M175.7,168.4c8.9-3.5,11.8-4.6,16.6-6.2c8.8-8.2,19.4-14.1,31-17.2c17-4.4,35.6-2.4,55.7,5.8
			c5.1,0.1,6.9,0.3,12.1,0.7s8.4,0.9,11,1.2c-29.2-17-56.4-22.4-80.9-16.1c-26.1,6.8-41.1,24.9-46.1,32.1L175.7,168.4z"/>
	</g>
</g>
</svg>
