<svg id="Layer_1" data-name="Layer 1" xmlns="http://www.w3.org/2000/svg" viewBox="0 0 520 520"><defs><style>.cls-1,.cls-2,.cls-3{fill:#fb923c;}.cls-1,.cls-2{isolation:isolate;}.cls-1{opacity:0.2;}.cls-2{opacity:0.15;}.cls-4{fill:#f97316;}.cls-5{fill:#ff513b;}.cls-6{fill:#ffb07b;}</style></defs><g id="Layer_1-2" data-name="Layer 1"><circle class="cls-1" cx="260" cy="260" r="260"/><path class="cls-2" d="M329.43,136.72l-29.25,72.35s-69.66,89.06-72,89.6-77.71,53.15-77.71,53.15L126,373v20.87L252.3,519.8c2.57.08,5.12.2,7.7.2,140.51,0,254.91-111.47,259.77-250.79L384.33,132.94Z"/><path class="cls-3" d="M322.37,213.29c-9.69-8.83-25.73-8.32-35.8,1.13L128.47,362.63c-10.09,9.46-10.4,24.29-.72,33.1s25.72,8.33,35.8-1.12l158.1-148.22C331.74,236.93,332.05,222.12,322.37,213.29Zm-165.85,173a14.08,14.08,0,0,1-18.8.09A11.64,11.64,0,0,1,136.61,370a10.43,10.43,0,0,1,.93-.95,14.06,14.06,0,0,1,18.8-.09,11.65,11.65,0,0,1,1.12,16.42,12.18,12.18,0,0,1-.94,1Z"/><path class="cls-4" d="M359.26,245l-62.62,24.24-34.45-31.43c5.7-4.84,12.62-44.87,12.62-44.87-2.94-35.52,21.33-59.12,26-63.31Z"/><path class="cls-3" d="M298.88,256.84a7.23,7.23,0,0,0,7.22,1.4l32.1-11.3h.47a8.86,8.86,0,0,0,7.31-3.37,8,8,0,0,0,.78-8,12.56,12.56,0,0,0-3.12-4.37,12.77,12.77,0,0,0-2.09-1.56,8.26,8.26,0,0,0,0-6.68,12.68,12.68,0,0,0-3.15-4.38,14.31,14.31,0,0,0-2.09-1.55,8.21,8.21,0,0,0,0-6.69,12.52,12.52,0,0,0-3.14-4.37,12,12,0,0,0-4.72-2.71L327,199.69a6.42,6.42,0,0,0-1.59-2.23,7.2,7.2,0,0,0-7.2-1.41L287.3,206.93h-1.07a8.79,8.79,0,0,0-7.18,3.42,8.07,8.07,0,0,0-.78,8.07,12.47,12.47,0,0,0,3.09,4.31h0a12.72,12.72,0,0,0,2.14,1.58,8.38,8.38,0,0,0,0,6.73,12.34,12.34,0,0,0,3.09,4.3,12.72,12.72,0,0,0,2.14,1.58,8.36,8.36,0,0,0,0,6.72,12.75,12.75,0,0,0,6.79,6.66l1.79,4.3A6.28,6.28,0,0,0,298.88,256.84Z"/><path class="cls-5" d="M286.24,213.21c.84,0,1.65-.06,2.47-.1l31.88-11.22,3,7.24c.67,0,1.32-.06,2,0,1.62,0,3.62,1.71,4.35,3.46s-.08,2.91-1.7,2.89h-2l2.61,6.27c.65,0,1.32-.07,2-.05,1.62,0,3.62,1.71,4.35,3.46s-.08,2.91-1.7,2.88c-.68,0-1.33.05-2,.06l2.6,6.26h2c1.62,0,3.61,1.71,4.35,3.46s-.08,2.91-1.7,2.89c-.68,0-1.34,0-2,.06h0l-33.09,11.64-3.17-7.62H299.4c-1.62,0-3.57-1.62-4.3-3.36s0-3,1.65-3h1.1l-2.61-6.26h-1.09c-1.62,0-3.58-1.61-4.3-3.36s0-3,1.65-3a8.17,8.17,0,0,0,1.11-.05L290,219.52h-1.09c-1.61,0-3.57-1.62-4.3-3.38S284.64,213.22,286.24,213.21Z"/><polygon class="cls-4" points="303.65 252.37 336.74 240.72 320.59 201.89 287.5 213.54 303.65 252.37"/><path class="cls-6" d="M284.59,216.19c.73,1.76,2.69,3.38,4.3,3.38,13.43,0,25.86-4.3,39.34-4.14,1.62,0,2.43-1.13,1.7-2.89h0c-.73-1.75-2.73-3.45-4.35-3.46-13.47-.16-25.91,4.09-39.34,4.13-1.6,0-2.38,1.23-1.65,3Z"/><path class="cls-6" d="M289.84,228.81c.72,1.75,2.68,3.37,4.3,3.36,13.42,0,25.86-4.28,39.34-4.14,1.62,0,2.42-1.12,1.7-2.88h0c-.73-1.75-2.73-3.44-4.35-3.46-13.47-.16-25.91,4.09-39.34,4.14-1.61,0-2.39,1.22-1.65,3Z"/><path class="cls-6" d="M295.09,241.42c.73,1.74,2.68,3.37,4.3,3.36,13.43,0,25.86-4.28,39.34-4.13,1.62,0,2.43-1.13,1.7-2.89h0c-.74-1.75-2.73-3.44-4.35-3.46-13.48-.15-25.91,4.09-39.34,4.13-1.61,0-2.39,1.24-1.65,3Z"/><path class="cls-3" d="M301.58,128.92c45.37-26.94,83.73,4.23,83.73,4.23l-46.48,20.67c-1.05,1.29-4.18,16.49-2.17,18.57a30.14,30.14,0,0,0,13.64,7.66l47.8-18.51C407.2,186.56,362,228,362,228l6.39,13.47L359.26,245,300.81,129.58C301.31,129.14,301.58,128.92,301.58,128.92Z"/><path class="cls-6" d="M368.35,241.42,362,228a199.92,199.92,0,0,0,17.69-19L350.8,179.91l-.46.18a30.14,30.14,0,0,1-13.64-7.66c-.81-.84-.78-3.8-.4-7.11l-35.45-35.7L359.26,245Z"/></g></svg>