<?xml version="1.0" encoding="utf-8"?>
<!-- Generator: Adobe Illustrator 26.3.1, SVG Export Plug-In . SVG Version: 6.00 Build 0)  -->
<svg version="1.1" id="Layer_1" xmlns="http://www.w3.org/2000/svg" xmlns:xlink="http://www.w3.org/1999/xlink" x="0px" y="0px"
	 viewBox="0 0 520 520" style="enable-background:new 0 0 520 520;" xml:space="preserve">
<style type="text/css">
	.st0{opacity:0.2;fill:#FB923C;enable-background:new    ;}
	.st1{opacity:0.15;fill:#FB923C;enable-background:new    ;}
	.st2{fill:#FB923C;}
	.st3{fill:#F97316;}
	.st4{fill:#FF513B;}
	.st5{fill:#FFB07B;}
</style>
<g>
	<g id="Layer_1_00000126298346659911894820000004525798805780931241_">
		<circle class="st0" cx="260" cy="260" r="260"/>
		<path class="st1" d="M329.4,136.7l-29.2,72.4c0,0-69.7,89.1-72,89.6s-77.7,53.1-77.7,53.1L126,373v20.9l126.3,125.9
			c2.6,0.1,5.1,0.2,7.7,0.2c140.5,0,254.9-111.5,259.8-250.8L384.3,132.9L329.4,136.7z"/>
		<path class="st2" d="M322.4,213.3c-9.7-8.8-25.7-8.3-35.8,1.1L128.5,362.6c-10.1,9.5-10.4,24.3-0.7,33.1s25.7,8.3,35.8-1.1
			l158.1-148.2C331.7,236.9,332,222.1,322.4,213.3z M156.5,386.3c-5.3,4.8-13.4,4.9-18.8,0.1c-4.8-4.2-5.3-11.6-1.1-16.4
			c0.3-0.3,0.6-0.6,0.9-0.9c5.3-4.8,13.4-4.9,18.8-0.1c4.8,4.2,5.3,11.6,1.1,16.4C157.2,385.7,156.9,386,156.5,386.3L156.5,386.3z"
			/>
		<path class="st3" d="M359.3,245l-62.6,24.2l-34.5-31.4c5.7-4.8,12.6-44.9,12.6-44.9c-2.9-35.5,21.3-59.1,26-63.3L359.3,245z"/>
		<path class="st2" d="M298.9,256.8c2,1.7,4.7,2.3,7.2,1.4l32.1-11.3h0.5c2.8,0.1,5.6-1.1,7.3-3.4c1.7-2.3,2-5.4,0.8-8
			c-0.7-1.7-1.8-3.2-3.1-4.4c-0.6-0.6-1.3-1.1-2.1-1.6c0.9-2.1,0.9-4.6,0-6.7c-0.7-1.7-1.8-3.2-3.1-4.4c-0.6-0.6-1.3-1.1-2.1-1.6
			c1-2.1,1-4.6,0-6.7c-0.7-1.7-1.8-3.2-3.1-4.4c-1.3-1.3-3-2.2-4.7-2.7l-1.5-3.6c-0.4-0.8-0.9-1.6-1.6-2.2c-2-1.7-4.7-2.3-7.2-1.4
			l-30.9,10.9c-0.4,0-0.7,0-1.1,0c-2.8-0.1-5.5,1.2-7.2,3.4c-1.7,2.4-2,5.4-0.8,8.1c0.7,1.6,1.8,3.1,3.1,4.3l0,0
			c0.7,0.6,1.4,1.1,2.1,1.6c-0.9,2.1-0.9,4.6,0,6.7c0.7,1.6,1.8,3.1,3.1,4.3c0.7,0.6,1.4,1.1,2.1,1.6c-0.9,2.1-0.9,4.6,0,6.7
			c1.3,3,3.8,5.4,6.8,6.7l1.8,4.3C297.7,255.5,298.2,256.2,298.9,256.8z"/>
		<path class="st4" d="M286.2,213.2c0.8,0,1.6-0.1,2.5-0.1l31.9-11.2l3,7.2c0.7,0,1.3-0.1,2,0c1.6,0,3.6,1.7,4.4,3.5
			s-0.1,2.9-1.7,2.9c-0.7,0-1.3,0-2,0l2.6,6.3c0.6,0,1.3-0.1,2-0.1c1.6,0,3.6,1.7,4.4,3.5s-0.1,2.9-1.7,2.9c-0.7,0-1.3,0.1-2,0.1
			l2.6,6.3c0.7,0,1.3,0,2,0c1.6,0,3.6,1.7,4.4,3.5s-0.1,2.9-1.7,2.9c-0.7,0-1.3,0-2,0.1l0,0l-33.1,11.6l-3.2-7.6c-0.4,0-0.7,0-1.1,0
			c-1.6,0-3.6-1.6-4.3-3.4s0-3,1.6-3c0.4,0,0.7,0,1.1,0l-2.6-6.3c-0.4,0-0.7,0-1.1,0c-1.6,0-3.6-1.6-4.3-3.4s0-3,1.6-3
			c0.4,0,0.7,0,1.1-0.1l-2.6-6.2h-1.1c-1.6,0-3.6-1.6-4.3-3.4S284.6,213.2,286.2,213.2z"/>
		<polygon class="st3" points="303.6,252.4 336.7,240.7 320.6,201.9 287.5,213.5 		"/>
		<path class="st5" d="M284.6,216.2c0.7,1.8,2.7,3.4,4.3,3.4c13.4,0,25.9-4.3,39.3-4.1c1.6,0,2.4-1.1,1.7-2.9l0,0
			c-0.7-1.8-2.7-3.4-4.4-3.5c-13.5-0.2-25.9,4.1-39.3,4.1C284.6,213.2,283.9,214.4,284.6,216.2L284.6,216.2z"/>
		<path class="st5" d="M289.8,228.8c0.7,1.8,2.7,3.4,4.3,3.4c13.4,0,25.9-4.3,39.3-4.1c1.6,0,2.4-1.1,1.7-2.9l0,0
			c-0.7-1.8-2.7-3.4-4.4-3.5c-13.5-0.2-25.9,4.1-39.3,4.1C289.9,225.8,289.1,227,289.8,228.8L289.8,228.8z"/>
		<path class="st5" d="M295.1,241.4c0.7,1.7,2.7,3.4,4.3,3.4c13.4,0,25.9-4.3,39.3-4.1c1.6,0,2.4-1.1,1.7-2.9l0,0
			c-0.7-1.8-2.7-3.4-4.4-3.5c-13.5-0.1-25.9,4.1-39.3,4.1C295.1,238.4,294.3,239.7,295.1,241.4L295.1,241.4z"/>
		<path class="st2" d="M301.6,128.9c45.4-26.9,83.7,4.2,83.7,4.2l-46.5,20.7c-1,1.3-4.2,16.5-2.2,18.6c3.8,3.7,8.5,6.4,13.6,7.7
			l47.8-18.5c9.1,25-36.1,66.5-36.1,66.5l6.4,13.5l-9.1,3.5l-58.5-115.4C301.3,129.1,301.6,128.9,301.6,128.9z"/>
		<path class="st5" d="M368.4,241.4L362,228c6.3-5.9,12.2-12.3,17.7-19l-28.9-29.1l-0.5,0.2c-5.1-1.3-9.8-3.9-13.6-7.7
			c-0.8-0.8-0.8-3.8-0.4-7.1l-35.5-35.7L359.3,245L368.4,241.4z"/>
	</g>
</g>
</svg>
