<svg width="138" height="40" viewBox="0 0 138 40" fill="none" xmlns="http://www.w3.org/2000/svg">
<path d="M72.0611 6.08984C75.6071 6.08984 78.1125 8.68984 78.1125 12.0098C78.1125 13.4098 77.6175 14.6698 76.8295 15.6798L77.6175 16.4098C77.9508 16.6898 77.9812 17.0298 77.6882 17.3698L77.3851 17.6998C77.0921 18.0098 76.7588 18.0398 76.4759 17.7698L75.6374 16.9398C74.6473 17.6698 73.4249 18.0798 72.0611 18.0798C68.5151 18.0798 66.0097 15.3998 66.0097 12.0198C66.0097 8.68984 68.5353 6.08984 72.0611 6.08984ZM72.0611 16.1398C72.7885 16.1398 73.5462 15.9298 74.1018 15.5198L73.2936 14.7498C72.9804 14.4698 72.9501 14.1298 73.2431 13.7998L73.5361 13.4898C73.829 13.1598 74.1624 13.1298 74.4453 13.4098L75.2737 14.2398C75.6879 13.5998 75.9202 12.8198 75.9202 11.9998C75.9202 9.70984 74.2533 7.99984 72.0611 7.99984C69.8486 7.99984 68.2019 9.70984 68.2019 11.9998C68.2019 14.3498 69.8486 16.1398 72.0611 16.1398Z" fill="#F27321"/>
<path d="M79.6885 10.2398C79.6885 9.7998 79.9309 9.5498 80.3856 9.5498H81.0927C81.5574 9.5498 81.7898 9.7898 81.7898 10.2398V14.4798C81.7898 15.4898 82.0525 16.1798 83.093 16.1798C84.6084 16.1798 85.4469 14.8598 85.4469 13.3698V10.2398C85.4469 9.7998 85.6793 9.5498 86.144 9.5498H86.8511C87.2957 9.5498 87.5482 9.7898 87.5482 10.2398V17.1898C87.5482 17.6498 87.3058 17.8798 86.8511 17.8798H86.2046C85.7601 17.8798 85.5277 17.6498 85.5277 17.1898V16.6998C85.5277 16.4998 85.558 16.3198 85.558 16.3198H85.5277C85.1337 17.1698 84.0427 18.0698 82.6081 18.0698C80.8099 18.0698 79.6885 17.1698 79.6885 14.8998V10.2398Z" fill="#F27321"/>
<path d="M89.599 7.45979V6.96978C89.599 6.52978 89.8314 6.27979 90.2759 6.27979H91.0032C91.4478 6.27979 91.7003 6.51978 91.7003 6.96978V7.45979C91.7003 7.89979 91.4579 8.12979 91.0032 8.12979H90.2759C89.8314 8.12979 89.599 7.89979 89.599 7.45979ZM89.599 10.2398C89.599 9.79979 89.8314 9.54979 90.2759 9.54979H91.0032C91.4478 9.54979 91.6801 9.78979 91.6801 10.2398V17.1898C91.6801 17.6498 91.4478 17.8798 91.0032 17.8798H90.2759C89.8314 17.8798 89.599 17.6498 89.599 17.1898V10.2398Z" fill="#F27321"/>
<path d="M97.8022 9.34985C99.156 9.34985 100.065 9.83985 100.56 10.1799C100.904 10.4099 100.924 10.7499 100.692 11.1099L100.479 11.4399C100.237 11.8199 99.9541 11.8199 99.5601 11.6199C99.2166 11.3899 98.6508 11.1099 97.9235 11.1099C96.3778 11.1099 95.3675 12.2699 95.3675 13.6899C95.3675 15.0899 96.3778 16.2999 97.9942 16.2999C98.8226 16.2999 99.4793 15.9399 99.8732 15.6599C100.287 15.4299 100.601 15.4799 100.813 15.8699L100.974 16.1799C101.176 16.5399 101.126 16.8699 100.793 17.0899C100.277 17.4699 99.257 18.0499 97.8123 18.0499C95.0241 18.0499 93.246 16.1099 93.246 13.6899C93.2258 11.3499 95.014 9.34985 97.8022 9.34985Z" fill="#F27321"/>
<path d="M102.5 6.96978C102.5 6.52978 102.742 6.27979 103.197 6.27979H103.904C104.369 6.27979 104.601 6.51978 104.601 6.96978V12.4898H105.642L107.389 10.0098C107.592 9.67979 107.834 9.54979 108.218 9.54979H109.006C109.572 9.54979 109.743 9.92978 109.43 10.3698L107.339 13.2798V13.3098L109.814 17.0598C110.097 17.5298 109.915 17.8798 109.349 17.8798H108.46C108.076 17.8798 107.834 17.7298 107.652 17.4098L105.692 14.2398H104.601V17.1898C104.601 17.6498 104.369 17.8798 103.904 17.8798H103.197C102.752 17.8798 102.5 17.6498 102.5 17.1898V6.96978Z" fill="#F27321"/>
<path d="M66.2421 23.98C66.2421 23.54 66.4744 23.29 66.9189 23.29H70.4144C72.5258 23.29 74.0412 24.37 74.0412 26.28C74.0412 27.36 73.5159 28.29 72.6268 28.76V28.79C73.8998 29.17 74.5059 30.34 74.5059 31.52C74.5059 33.84 72.647 34.88 70.4649 34.88H66.9189C66.4744 34.88 66.2421 34.65 66.2421 34.19V23.98ZM70.4245 28.03C71.3438 28.03 71.859 27.38 71.859 26.54C71.859 25.71 71.364 25.1 70.374 25.1H68.3434V28.02H70.4245V28.03ZM70.6265 33.07C71.7176 33.07 72.3238 32.37 72.3238 31.39C72.3238 30.43 71.6974 29.73 70.6265 29.73H68.3535V33.08H70.6265V33.07Z" fill="#F27321"/>
<path d="M76.1526 27.25C76.1526 26.81 76.3849 26.56 76.8295 26.56H77.476C77.9205 26.56 78.1731 26.8 78.1731 27.25V28.03C78.1731 28.34 78.1226 28.6 78.1226 28.6H78.1529C78.4863 27.6 79.4056 26.49 80.5977 26.49C81.0624 26.49 81.224 26.72 81.224 27.18V27.82C81.224 28.26 80.9614 28.51 80.5169 28.51C78.9813 28.51 78.2438 30.01 78.2438 31.53V34.2C78.2438 34.66 78.0114 34.89 77.5669 34.89H76.8396C76.395 34.89 76.1627 34.66 76.1627 34.2V27.25H76.1526Z" fill="#F27321"/>
<path d="M82.3353 24.47V23.98C82.3353 23.54 82.5677 23.29 83.0122 23.29H83.7396C84.1841 23.29 84.4366 23.53 84.4366 23.98V24.47C84.4366 24.91 84.1942 25.14 83.7396 25.14H83.0122C82.5677 25.14 82.3353 24.91 82.3353 24.47ZM82.3353 27.25C82.3353 26.81 82.5677 26.56 83.0122 26.56H83.7396C84.1841 26.56 84.4164 26.8 84.4164 27.25V34.2C84.4164 34.66 84.1841 34.89 83.7396 34.89H83.0122C82.5677 34.89 82.3353 34.66 82.3353 34.2V27.25Z" fill="#F27321"/>
<path d="M90.5284 26.3701C91.8822 26.3701 92.7914 26.8601 93.2864 27.2001C93.6299 27.4301 93.6501 27.7701 93.4177 28.1301L93.2056 28.4601C92.953 28.8401 92.6803 28.8401 92.2863 28.6401C91.9428 28.4101 91.377 28.1301 90.6497 28.1301C89.104 28.1301 88.0937 29.2901 88.0937 30.7101C88.0937 32.1101 89.104 33.3201 90.7204 33.3201C91.5488 33.3201 92.2054 32.9601 92.5994 32.6801C93.0136 32.4501 93.3268 32.5001 93.539 32.8901L93.7006 33.2001C93.9027 33.5601 93.8522 33.8901 93.5188 34.1101C93.0035 34.4901 91.9832 35.0701 90.5385 35.0701C87.7503 35.0701 85.9722 33.1301 85.9722 30.7101C85.9621 28.3601 87.7401 26.3701 90.5284 26.3701Z" fill="#F27321"/>
<path d="M99.2166 26.3701C101.772 26.3701 103.854 28.1801 103.854 30.7301C103.854 33.2901 101.772 35.0901 99.2166 35.0901C96.6606 35.0901 94.5997 33.2901 94.5997 30.7301C94.5997 28.1801 96.6606 26.3701 99.2166 26.3701ZM99.2166 33.3201C100.58 33.3201 101.722 32.2801 101.722 30.7201C101.722 29.1901 100.58 28.1201 99.2166 28.1201C97.8527 28.1201 96.7314 29.1801 96.7314 30.7201C96.7314 32.2701 97.8527 33.3201 99.2166 33.3201Z" fill="#F27321"/>
<path d="M105.369 23.98C105.369 23.54 105.601 23.29 106.046 23.29H106.773C107.218 23.29 107.45 23.53 107.45 23.98V32.12C107.45 32.94 107.794 33.08 108.107 33.12C108.4 33.15 108.622 33.33 108.622 33.71V34.27C108.622 34.69 108.42 34.97 107.925 34.97C106.804 34.97 105.369 34.68 105.369 32.29V23.98Z" fill="#F27321"/>
<path d="M114.259 29.7401H114.603V29.5401C114.603 28.4501 113.896 28.0701 113.037 28.0701C112.33 28.0701 111.683 28.3301 111.289 28.5401C110.875 28.7201 110.562 28.6501 110.37 28.2601L110.208 27.9501C110.006 27.5701 110.077 27.2501 110.471 27.0401C111.016 26.7601 111.976 26.3501 113.229 26.3501C115.401 26.3501 116.704 27.5601 116.704 29.6601V34.2001C116.704 34.6601 116.472 34.8901 116.007 34.8901H115.451C115.007 34.8901 114.774 34.6601 114.774 34.2001V33.8701C114.774 33.6401 114.805 33.5101 114.805 33.5101H114.774C114.774 33.5101 113.986 35.0801 112.138 35.0801C110.602 35.0801 109.349 34.1001 109.349 32.5801C109.339 30.1501 112.37 29.7401 114.259 29.7401ZM112.683 33.5001C113.855 33.5001 114.613 32.3201 114.613 31.3101V31.0001H114.269C113.219 31.0001 111.42 31.1601 111.42 32.4001C111.42 32.9601 111.845 33.5001 112.683 33.5001Z" fill="#F27321"/>
<path d="M120.21 36.2401C120.604 36.3901 121.129 36.5501 121.907 36.5501C123.19 36.5501 124.281 36.0101 124.281 34.5301V33.9101C124.281 33.7101 124.311 33.4901 124.311 33.4901H124.281C123.816 34.2701 123.089 34.7301 121.967 34.7301C119.512 34.7301 118.159 32.8001 118.159 30.5001C118.159 28.2301 119.442 26.3701 121.947 26.3701C123.907 26.3701 124.432 27.6401 124.432 27.6401H124.463C124.463 27.6401 124.443 27.5601 124.443 27.4301V27.1201C124.443 26.8101 124.675 26.5701 125.119 26.5701H125.675C126.12 26.5701 126.352 26.8101 126.352 27.2601V34.3901C126.352 37.2501 124.079 38.3201 121.998 38.3201C121.058 38.3201 120.119 38.1201 119.543 37.8801C119.118 37.7001 118.997 37.4201 119.179 37.0001L119.31 36.6201C119.512 36.2101 119.765 36.0901 120.21 36.2401ZM124.331 30.5401C124.331 28.6301 123.372 28.1201 122.291 28.1201C120.987 28.1201 120.28 29.0301 120.28 30.4101C120.28 31.9101 121.038 32.9701 122.392 32.9701C123.372 32.9801 124.331 32.4001 124.331 30.5401Z" fill="#F27321"/>
<path d="M132.211 26.3701C134.606 26.3701 135.939 28.0501 135.939 30.3401C135.939 30.7001 135.626 31.0401 135.212 31.0401H130.08C130.211 32.5401 131.332 33.3301 132.605 33.3301C133.383 33.3301 134.02 33.0401 134.424 32.7901C134.838 32.5901 135.131 32.6401 135.343 33.0201L135.545 33.3501C135.747 33.7301 135.676 34.0501 135.313 34.2601C134.767 34.6001 133.777 35.0901 132.464 35.0901C129.676 35.0901 127.948 33.1001 127.948 30.7301C127.938 28.1601 129.686 26.3701 132.211 26.3701ZM133.858 29.7801C133.828 28.6201 133.121 27.9401 132.161 27.9401C131.09 27.9401 130.332 28.6701 130.13 29.7801H133.858Z" fill="#F27321"/>
<path d="M27.9132 0.959961L1.9801 24.34H6.62725L27.9132 5.14996L49.1991 24.34H53.8463L27.9132 0.959961Z" fill="#F27321"/>
<path d="M27.6303 9.65991H24.8622V12.3999H27.6303V9.65991Z" fill="#F27321"/>
<path d="M30.9641 9.65991H28.196V12.3999H30.9641V9.65991Z" fill="#F27321"/>
<path d="M27.6303 13.03H24.8622V15.77H27.6303V13.03Z" fill="#F27321"/>
<path d="M30.9641 13.03H28.196V15.77H30.9641V13.03Z" fill="#F27321"/>
<path d="M40.3696 27.47V27.41C42.0264 26.56 43.0366 24.89 43.0366 22.8C43.0366 19.34 40.4302 17.34 36.7832 17.34H30.2267C29.5498 17.34 29.2164 17.67 29.2164 18.34V20.14V27.92C29.2164 29.42 28.8224 30.87 28.1658 32.07C28.0041 32.37 27.8223 32.66 27.6202 32.93L25.7816 31.08C25.3472 30.65 24.8622 30.71 24.4379 31.2L24.0439 31.59C23.6095 32.08 23.6095 32.56 24.1046 32.98L25.9129 34.77C24.6602 35.8 22.9125 36.35 21.195 36.35C16.659 36.35 13.2545 32.65 13.2545 27.92C13.2545 23.22 16.659 19.73 21.195 19.73C24.2561 19.73 26.8221 21.3 28.1759 23.75V19.23C26.3069 17.81 23.9126 16.97 21.195 16.97C14.8204 16.97 10.1328 21.73 10.1328 27.92C10.1328 34.17 14.7598 39.11 21.195 39.11C23.8318 39.11 26.1958 38.29 28.0647 36.8L29.2467 37.97L29.9034 38.62C29.9438 38.66 29.9842 38.7 30.0246 38.73C30.3681 39.01 30.7217 38.99 31.0652 38.74C31.1359 38.69 31.2066 38.63 31.2773 38.56L31.6713 38.14C32.0956 37.65 32.0653 37.17 31.5804 36.74L29.8024 34.99C31.045 33.5 31.9138 31.62 32.227 29.57C32.2674 29.33 32.2876 29.08 32.3179 28.84C32.3381 28.54 32.3583 28.24 32.3583 27.93C32.3583 27.39 32.328 26.87 32.2573 26.35C32.2472 26.3 32.2472 26.26 32.2371 26.21V19.95H36.7428C38.7936 19.95 39.9958 21.23 39.9958 23.11C39.9958 24.99 38.7633 26.36 36.8034 26.36H33.318C33.3786 26.87 33.4089 27.4 33.4089 27.94C33.4089 28.24 33.3988 28.55 33.3786 28.85H37.1166C39.3896 28.85 40.8545 30.34 40.8545 32.52C40.8545 34.7 39.4401 36.16 37.1166 36.16H32.4694C32.8937 36.6 33.0149 37.06 33.0352 37.38C33.0554 37.72 32.9846 38.23 32.5401 38.77H36.9549C40.7838 38.77 43.9458 36.71 43.9458 32.67C43.9256 30.26 42.6426 28.14 40.3696 27.47Z" fill="#F27321"/>
<path d="M59.9078 6.68994H59.4835V36.1299H59.9078V6.68994Z" fill="#F27321"/>
</svg>
