<?xml version="1.0" encoding="utf-8"?>
<!-- Generator: Adobe Illustrator 26.3.1, SVG Export Plug-In . SVG Version: 6.00 Build 0)  -->
<svg version="1.1" id="Layer_1" xmlns="http://www.w3.org/2000/svg" xmlns:xlink="http://www.w3.org/1999/xlink" x="0px" y="0px"
	 viewBox="0 0 1366 1366" style="enable-background:new 0 0 1366 1366;" xml:space="preserve">
<style type="text/css">
	.st0{fill:#FB923C;}
</style>
<g>
	<polygon class="st0" points="683,183 10.3,795.6 130.8,795.6 683,292.8 1235.2,795.6 1355.7,795.6 	"/>
	<rect x="603.8" y="411.1" class="st0" width="71.7" height="71.7"/>
	<rect x="690.5" y="411.1" class="st0" width="71.7" height="71.7"/>
	<rect x="603.8" y="499.3" class="st0" width="71.7" height="71.7"/>
	<rect x="690.5" y="499.3" class="st0" width="71.7" height="71.7"/>
	<path class="st0" d="M1006.2,877.7v-1.6c43-22.3,69.2-66,69.2-120.9c0-90.6-67.5-143.1-162.2-143.1H743.1
		c-17.5,0-26.3,8.7-26.3,26.2v47.3v204c0,39.4-10.2,77.3-27.2,108.7c-4.3,7.9-9,15.4-14,22.5l-47.8-48.3
		c-11.1-11.1-23.9-9.6-34.9,3.1l-10.3,10.3c-11.1,12.8-11.1,25.4,1.6,36.5l46.8,46.9c-32.5,27-77.8,41.3-122.4,41.3
		c-117.7,0-205.9-97-205.9-220.9c0-123.3,88.2-214.7,205.9-214.7c79.4,0,145.9,41.1,181,105.3V661.8
		c-48.4-37.3-110.6-59.1-181.1-59.1c-165.3,0-286.9,124.8-286.9,287c0,163.8,120,293.2,286.9,293.2c68.4,0,129.6-21.4,178-60.5
		l30.7,30.7l17,17c1.1,1.1,2.1,1.9,3.1,2.9c9,7.3,18,7,27.1,0.3c1.8-1.3,3.8-2.9,5.6-4.7l10.4-11c11-12.8,10.4-25.4-2.4-36.7
		L732,1075c32.2-39,54.9-88.2,62.8-142.1c1-6.4,1.7-12.8,2.3-19.3c0.6-7.8,1-15.8,1-23.8c0-14-0.9-27.9-2.7-41.4
		c-0.1-1.2-0.3-2.5-0.4-3.6V680.6h116.8c53.3,0,84.4,33.4,84.4,82.6c0,49.3-31.8,85.1-82.6,85.1H823c1.6,13.5,2.5,27.3,2.5,41.4
		c0,7.9-0.3,16-0.9,23.8h96.8c58.8,0,97,38.9,97,96.2c0,57.2-36.7,95.3-97,95.3H800.7c11,11.7,14.1,23.6,14.7,31.8
		c0.6,9-1.2,22.4-12.8,36.5h114.6c99.4,0,181.2-54,181.2-159.8C1098.4,950.8,1065.1,895.2,1006.2,877.7z"/>
</g>
</svg>
