<svg width="90" height="90" viewBox="0 0 90 90" fill="none" xmlns="http://www.w3.org/2000/svg">
<rect opacity="0.1" width="90" height="90" rx="8" fill="#EF790C"/>
<path d="M27.6651 50.6655L55.1406 50.6685C55.4007 51.0976 55.719 51.4959 56.0928 51.8507L57.8896 53.5563C57.6756 54.388 57.3268 55.2219 56.8379 56.063C56.3436 56.9129 55.7725 57.6558 55.1216 58.2972L53.1355 57.635C50.7993 56.8559 48.2626 57.7486 46.8659 59.8004L45.0618 62.4509C43.4898 64.7608 43.7696 67.9164 45.7362 69.8907L46.305 70.4608C44.951 70.6019 43.527 70.6719 42.0338 70.6719C34.8088 70.6719 29.2107 69.0301 25.3028 65.6705C23.2309 63.8892 22.0391 61.2927 22.0391 58.5602V56.2915C22.0391 53.1845 24.5579 50.6655 27.6651 50.6655ZM57.0627 46.2775L58.3212 43.3097C58.9115 41.918 60.3253 41.1608 61.7118 41.4496L62.0081 41.5276L63.5841 42.0312C65.1467 42.5306 66.3434 43.8693 66.7299 45.5501C67.6484 49.5451 66.5464 54.4087 63.4243 60.1412C60.3065 65.8655 56.8897 69.3074 53.173 70.4666C51.73 70.9167 50.18 70.5896 49.0138 69.6107L48.7057 69.3276L47.5087 68.1259C46.4716 67.0847 46.2578 65.4372 46.9534 64.1485L47.1299 63.8579L48.934 61.2074C49.6439 60.1645 50.8581 59.6712 52.028 59.9204L52.3456 60.007L55.676 61.1177C57.0052 60.1117 58.1131 58.8458 59.0006 57.3197C59.7609 56.0117 60.2585 54.686 60.4928 53.3425L60.5881 52.6691L57.8151 50.0372C56.9017 49.1703 56.5699 47.82 56.9432 46.6051L57.0627 46.2775ZM42.0338 20.6719C48.9385 20.6719 54.536 26.2693 54.536 33.1741C54.536 40.0789 48.9385 45.6764 42.0338 45.6764C35.129 45.6764 29.5316 40.0789 29.5316 33.1741C29.5316 26.2693 35.129 20.6719 42.0338 20.6719Z" fill="#EF790C"/>
</svg>
