<svg width="91" height="90" viewBox="0 0 91 90" fill="none" xmlns="http://www.w3.org/2000/svg">
<rect opacity="0.1" x="0.554688" width="90" height="90" rx="8" fill="#EF790C"/>
<path d="M61.3015 24.6738C61.6765 24.6738 62.0469 24.5285 62.3234 24.2332L63.7625 22.7097C64.2969 22.1472 64.2734 21.2566 63.7062 20.7222C63.1437 20.1879 62.2531 20.2113 61.7187 20.7785L60.2797 22.3019C59.7453 22.8644 59.7687 23.755 60.3359 24.2894C60.6078 24.5472 60.9547 24.6738 61.3015 24.6738Z" fill="#EF790C"/>
<path d="M60.4483 36.5519C61.2593 38.7738 61.8686 41.0144 62.2671 43.2128C62.389 43.8925 62.9796 44.3707 63.6499 44.3707C63.7343 44.3707 63.8186 44.3613 63.903 44.3472C64.6671 44.2113 65.1733 43.48 65.0374 42.716C64.6905 40.7988 64.189 38.8582 63.5515 36.9222L69.9218 34.6019C70.653 34.3347 71.028 33.5285 70.7608 32.7972C70.4936 32.066 69.6874 31.691 68.9561 31.9582C68.9561 31.9582 61.3202 34.7378 61.2921 34.7472C60.5608 35.0144 60.1858 35.8207 60.4483 36.5519Z" fill="#EF790C"/>
<path d="M54.3453 33.4816C52.6437 32.6894 50.7359 32.605 48.9687 33.2472C48.8937 33.2754 48.8234 33.3082 48.7531 33.3457C48.6781 33.3597 48.6031 33.3785 48.5281 33.4066C47.8249 33.6644 46.6109 34.4425 46.3812 36.791C46.2453 38.1691 46.4937 39.8144 47.0749 41.4175C48.2749 44.7082 50.389 46.7894 52.3812 46.7894C52.7046 46.7894 53.0281 46.7332 53.3374 46.6207L53.7781 46.4613C55.5453 45.8191 56.9515 44.53 57.7437 42.8238C58.5359 41.1175 58.6203 39.2144 57.9781 37.4472C57.3406 35.6847 56.0468 34.2738 54.3453 33.4816Z" fill="#EF790C"/>
<path d="M70.3812 49.7332L61.2499 46.5738C60.514 46.3207 59.7171 46.7097 59.4593 47.441C59.2062 48.1769 59.5953 48.9738 60.3265 49.2316L62.7499 50.0707C62.5109 54.3035 61.1328 57.2519 58.9859 58.0347C57.0078 58.7519 54.3218 57.6457 51.6078 54.9925C48.5937 52.0488 45.9124 47.6144 44.0562 42.5144C42.1999 37.4144 41.4031 32.2957 41.8203 28.105C42.1906 24.3316 43.5406 21.7535 45.514 21.0316C48.9828 19.7707 54.2796 24.0879 58.1093 31.2925C58.4749 31.9769 59.3281 32.2394 60.0124 31.8738C60.6968 31.5082 60.9593 30.6597 60.5937 29.9707C55.9531 21.2379 49.5078 16.5832 44.5531 18.3832C42.3406 19.1894 40.7046 21.1535 39.7765 24.0363L21.8281 43.9722C20.0468 45.9457 19.5312 48.6175 20.4406 51.1113C21.3499 53.6097 23.464 55.3207 26.0937 55.691L27.5609 55.8972V68.8113C27.5609 70.8785 29.2437 72.5613 31.3109 72.5613H40.6859C42.7531 72.5613 44.4359 70.8785 44.4359 68.8113V61.9629C44.4359 61.1847 43.8078 60.5566 43.0296 60.5566C42.2515 60.5566 41.6234 61.1847 41.6234 61.9629V68.8113C41.6234 69.3269 41.2015 69.7488 40.6859 69.7488H31.3109C30.7953 69.7488 30.3734 69.3269 30.3734 68.8113V56.291L52.6531 59.4129C54.3874 60.505 56.0984 61.0676 57.7062 61.0676C58.4796 61.0676 59.2296 60.9363 59.9515 60.6785C63.0734 59.5441 65.0468 56.0613 65.5015 51.0222L69.4624 52.3957C69.6171 52.4472 69.7718 52.4754 69.9218 52.4754C70.5031 52.4754 71.0515 52.1097 71.2484 51.5285C71.5062 50.7879 71.1171 49.9863 70.3812 49.7332ZM30.3734 53.4504L27.5609 53.0566V48.655C27.5609 47.8769 28.189 47.2488 28.9671 47.2488C29.7453 47.2488 30.3734 47.8769 30.3734 48.655V53.4504Z" fill="#EF790C"/>
</svg>
