<svg id="Layer_1" data-name="Layer 1" xmlns="http://www.w3.org/2000/svg" viewBox="0 0 90 90"><defs><style>.cls-1,.cls-2{fill:#ef790c;}.cls-1{isolation:isolate;opacity:0.1;}</style></defs><rect class="cls-1" width="90" height="90" rx="8"/><path class="cls-2" d="M45,17.72A27.4,27.4,0,0,0,17.58,45.09c1.36,36.26,53.37,36.25,54.73,0A27.39,27.39,0,0,0,45,17.72ZM45,67.9A22.83,22.83,0,0,1,22.14,45.09c1.14-30.22,44.47-30.21,45.61,0A22.83,22.83,0,0,1,45,67.9ZM33.54,39.39A3.42,3.42,0,1,1,37,42.81,3.42,3.42,0,0,1,33.54,39.39Zm16,0a3.42,3.42,0,1,1,3.42,3.42A3.42,3.42,0,0,1,49.51,39.39Zm8.76,13.78a15.21,15.21,0,0,1-26.66,0A2.29,2.29,0,0,1,34,49.7a34.74,34.74,0,0,0,11,2.23A35,35,0,0,0,55.87,49.7a2.29,2.29,0,0,1,2.4,3.47Z"/></svg>