<svg width="90" height="90" viewBox="0 0 90 90" fill="none" xmlns="http://www.w3.org/2000/svg">
<rect opacity="0.1" width="90" height="90" rx="8" fill="#EF790C"/>
<path d="M52.4022 42.1761C55.1649 42.1761 57.7616 43.2493 59.7128 45.2005L61.6259 47.1136C65.5331 45.3812 68.5838 41.9085 69.5965 37.6751C70.1556 35.3392 70.118 33.0775 69.6175 30.9955C69.3623 29.933 68.013 29.5785 67.2406 30.3506L60.5121 37.0791H53.1293V29.7836L59.8578 23.0551C60.6304 22.2824 60.2753 20.933 59.2129 20.6781C57.1308 20.1776 54.8691 20.14 52.5332 20.6991C47.1328 21.9911 42.9248 26.5799 42.0645 32.0663C41.9238 32.8793 41.8945 33.6703 41.9042 34.4515L49.9882 42.5433C50.7812 42.2738 51.5917 42.1761 52.4022 42.1761ZM57.4999 47.4984C55.2382 45.2366 51.8778 44.806 49.161 46.1409L38.6621 35.7211V29.6654L26.25 20.2914L20 26.4535L29.375 38.8656L35.4335 38.8663L45.8534 49.2765C44.5185 51.9932 44.95 55.3536 47.2118 57.6153L58.6376 69.0508C60.0653 70.4668 62.369 70.4668 63.785 69.0506L68.9364 63.8993C70.3524 62.4833 70.3524 60.1806 68.9362 58.7519L57.4999 47.4984ZM42.2558 50.2718L36.4746 44.5003L21.9336 59.0413C19.3584 61.6165 19.3584 65.7874 21.9336 68.3626C23.2187 69.6467 24.9033 70.2913 26.5918 70.2913C28.2802 70.2913 29.9648 69.6475 31.2519 68.3596L42.8827 56.7288C42.0214 54.6956 41.7382 52.4593 42.2558 50.2718ZM26.25 66.385C24.956 66.385 23.9062 65.3352 23.9062 64.0413C23.9062 62.7464 24.956 61.6975 26.25 61.6975C27.5439 61.6975 28.5937 62.7425 28.5937 64.0413C28.5937 65.3401 27.5439 66.385 26.25 66.385Z" fill="#EF790C"/>
</svg>
