<?xml version="1.0" encoding="utf-8"?>
<!-- Generator: Adobe Illustrator 26.3.1, SVG Export Plug-In . SVG Version: 6.00 Build 0)  -->
<svg version="1.1" id="Layer_1" xmlns="http://www.w3.org/2000/svg" xmlns:xlink="http://www.w3.org/1999/xlink" x="0px" y="0px"
	 viewBox="0 0 520 520" style="enable-background:new 0 0 520 520;" xml:space="preserve">
<style type="text/css">
	.st0{opacity:0.2;fill:#FB923C;enable-background:new    ;}
	.st1{opacity:0.15;fill:#FB923C;enable-background:new    ;}
	.st2{fill:#FCBA8D;}
	.st3{fill:#F97316;}
	.st4{fill:#FFB07B;}
	.st5{fill:#FB923C;}
</style>
<g>
	<g id="Layer_1_00000077282178856123892970000015640397054430371768_">
		<path class="st0" d="M520,260c0,143.6-116.4,260-260,260S0,403.6,0,260S116.4,0,260,0S520,116.4,520,260z"/>
		<path class="st1" d="M519.3,277.8L368.5,125.3l-154.8,52.6l-62.1,216.8l124.9,124.7C406.5,511.3,510.5,407.6,519.3,277.8z"/>
		<path class="st2" d="M260,182.7H151.5v172.9h216.9V182.7H260z M260,339.5c-36.5,0-66-29.5-66-66s29.5-66,66-66s66,29.5,66,66
			C326,310,296.5,339.5,260,339.5L260,339.5L260,339.5z"/>
		<path class="st2" d="M213.7,125.3h-62.1v52.6h62.1V125.3z M206.1,170.6h-47v-35h47V170.6z"/>
		<rect x="316.4" y="360.5" class="st3" width="52.1" height="34.2"/>
		<path class="st2" d="M260,125.3h-41.4v52.6h149.9v-52.6H260z M299.8,167.9h-67.7v-5h67.7V167.9z M299.8,154.9h-67.7v-5h67.7V154.9
			z M299.8,141.8h-67.7v-5h67.7V141.8z M331.6,171.4c-10.6,0-19.1-8.6-19.1-19.1c0-10.6,8.6-19.1,19.1-19.1
			c10.6,0,19.1,8.6,19.1,19.1C350.7,162.9,342.1,171.4,331.6,171.4L331.6,171.4z"/>
		<path class="st3" d="M331.5,138.1c-7.9,0-14.3,6.4-14.3,14.3c0,7.9,6.4,14.3,14.3,14.3c7.9,0,14.3-6.4,14.3-14.3c0,0,0,0,0,0
			C345.8,144.4,339.4,138.1,331.5,138.1z"/>
		<path class="st3" d="M260,207.6c-36.5,0-66,29.5-66,66s29.5,66,66,66s66-29.5,66-66S296.5,207.6,260,207.6z M260,327.5
			c-29.8,0-53.9-24.1-53.9-53.9c0-29.8,24.1-53.9,53.9-53.9s53.9,24.1,53.9,53.9c0,0,0,0,0,0C313.9,303.3,289.8,327.5,260,327.5
			C260,327.5,260,327.5,260,327.5z"/>
		<path class="st4" d="M208.1,273.6c0-28.7,23.2-51.9,51.9-51.9v-2c-29.8,0.4-53.6,24.9-53.2,54.6c0.4,29.2,24,52.8,53.2,53.2v-2
			C231.3,325.5,208.1,302.3,208.1,273.6C208.1,273.6,208.1,273.6,208.1,273.6z"/>
		<path class="st4" d="M313.9,273.6c0-29.8-24.1-53.9-53.9-53.9l0,0v2c28.7,0,51.9,23.2,51.9,51.9c0,28.7-23.2,51.9-51.9,51.9
			c0,0,0,0,0,0v2C289.7,327.4,313.9,303.3,313.9,273.6z"/>
		<path class="st4" d="M208.1,273.6c0,28.6,23.2,51.9,51.9,51.9V324c-27.9-0.4-50.2-23.3-49.8-51.2c0.4-27.3,22.4-49.4,49.8-49.8
			v-1.4C231.3,221.6,208.1,244.9,208.1,273.6C208.1,273.5,208.1,273.5,208.1,273.6z"/>
		<path class="st4" d="M296.1,238.3c0.5-0.2,0.9-0.1,1.4,0.4c18.6,20.1,18.4,51.2-0.5,71c-0.4,0.5-1.1,0.7-1.6,0.3
			c-0.1-0.1-0.2-0.2-0.3-0.3c-9.4,9.2-22,14.3-35.1,14.3v1.4c28.7,0,51.9-23.2,51.9-51.9s-23.2-51.9-51.9-51.9v1.4
			C273.6,223,286.6,228.6,296.1,238.3z"/>
		<path class="st5" d="M296.1,238.3c-19.4-20-51.4-20.4-71.4-1s-20.4,51.4-1,71.4c19.4,20,51.4,20.4,71.4,1
			C289.7,303.3,290.2,241,296.1,238.3z"/>
		<path class="st4" d="M295.1,309.8c20-19.3,20.5-51.2,1.2-71.2c-0.1-0.1-0.1-0.1-0.2-0.2C290.2,241,289.7,303.3,295.1,309.8z"/>
		<polygon class="st3" points="311.5,360.5 260,360.5 151.5,360.5 151.5,394.7 260,394.7 311.5,394.7 316.4,394.7 316.4,360.5 		"/>
		<polygon class="st3" points="260,177.9 218.6,177.9 218.6,125.3 213.7,125.3 213.7,177.9 151.5,177.9 151.5,182.7 260,182.7 
			368.5,182.7 368.5,177.9 		"/>
		<polygon class="st5" points="151.5,355.6 151.5,360.5 260,360.5 311.5,360.5 316.4,360.5 368.5,360.5 368.5,355.6 260,355.6 		"/>
		<path class="st4" d="M331.5,133.2c-10.6,0-19.1,8.6-19.1,19.1c0,10.6,8.6,19.1,19.1,19.1c10.6,0,19.1-8.6,19.1-19.1
			C350.7,141.8,342.1,133.2,331.5,133.2z M331.5,166.6c-7.9,0-14.3-6.4-14.3-14.3c0-7.9,6.4-14.3,14.3-14.3s14.3,6.4,14.3,14.3
			c0,0,0,0,0,0C345.8,160.2,339.4,166.6,331.5,166.6z"/>
		<polygon class="st3" points="260,136.8 232.1,136.8 232.1,141.8 260,141.8 299.8,141.8 299.8,136.8 		"/>
		<polygon class="st3" points="232.1,149.9 232.1,154.9 260,154.9 299.8,154.9 299.8,149.9 260,149.9 		"/>
		<polygon class="st3" points="232.1,162.9 232.1,167.9 260,167.9 299.8,167.9 299.8,162.9 260,162.9 		"/>
		<path class="st2" d="M159.1,170.6h47v-35h-47V170.6z M161.9,153.3h41.4V168h-41.4L161.9,153.3z"/>
		<rect x="161.9" y="153.3" class="st3" width="41.4" height="14.7"/>
	</g>
</g>
</svg>
