<?xml version="1.0" encoding="utf-8"?>
<!-- Generator: Adobe Illustrator 26.3.1, SVG Export Plug-In . SVG Version: 6.00 Build 0)  -->
<svg version="1.1" id="Layer_1" xmlns="http://www.w3.org/2000/svg" xmlns:xlink="http://www.w3.org/1999/xlink" x="0px" y="0px"
	 viewBox="0 0 520 520" style="enable-background:new 0 0 520 520;" xml:space="preserve">
<style type="text/css">
	.st0{opacity:0.2;fill:#FB923C;enable-background:new    ;}
	.st1{opacity:0.15;fill:#FB923C;enable-background:new    ;}
	.st2{fill:#FFB07B;}
	.st3{fill:#FB923C;}
	.st4{fill:#E26814;}
	.st5{fill:#F97316;}
	.st6{fill:#CE5F15;}
	.st7{fill:#E26B1B;}
</style>
<g>
	<g id="Layer_1_00000039130127281534442810000013972125501785297581_">
		<circle class="st0" cx="260" cy="260" r="260"/>
		<path class="st1" d="M273,98l27.2,111.1c0,0-116.8,44.4-119.2,44.9s-21,6-21,6l-24,20l0,0l232,216c2.6,0.1,0.8,1.3,3,0
			c71-40,132-90,148-218L301,103L273,98z"/>
		<path class="st2" d="M144.5,98H287c11.4,0,20.6,9.2,20.6,20.6v142.5c0,11.4-9.2,20.6-20.6,20.6H144.5c-11.4,0-20.6-9.2-20.6-20.6
			V118.6C123.9,107.2,133.2,98,144.5,98z"/>
		<path class="st2" d="M287,281.6c11.3,0,20.5-9.2,20.5-20.5V118.6c0-11.3-9.2-20.6-20.5-20.6c0,0,0,0,0,0h-71.3v183.6H287z"/>
		<path class="st3" d="M280.2,189.8c0,36.1-29.3,65.4-65.4,65.4s-65.4-29.3-65.4-65.4s29.3-65.4,65.4-65.4c0,0,0,0,0,0
			C250.9,124.4,280.2,153.7,280.2,189.8C280.2,189.8,280.2,189.8,280.2,189.8z"/>
		<path class="st4" d="M196.2,189.8c0,5.7-4.6,10.3-10.3,10.3s-10.3-4.6-10.3-10.3c0-5.7,4.6-10.3,10.3-10.3c0,0,0,0,0,0
			C191.7,179.6,196.3,184.2,196.2,189.8z"/>
		<path class="st4" d="M254.9,189.8c0,5.7-4.6,10.3-10.3,10.3s-10.3-4.6-10.3-10.3s4.6-10.3,10.3-10.3l0,0
			C250.3,179.5,254.9,184.1,254.9,189.8z"/>
		<path class="st5" d="M215.8,257.3c-37.3,0-67.5-30.2-67.5-67.5s30.2-67.5,67.5-67.5c37.3,0,67.5,30.2,67.5,67.5c0,0,0,0,0,0
			C283.2,227.1,253,257.3,215.8,257.3z M215.8,126.4c-35,0-63.4,28.4-63.4,63.4s28.4,63.4,63.4,63.4s63.4-28.4,63.4-63.4
			C279.1,154.8,250.8,126.5,215.8,126.4z"/>
		<path class="st5" d="M279.2,189.8c0,35-28.4,63.3-63.4,63.4v4.1c37.3,0,67.5-30.2,67.5-67.5s-30.2-67.5-67.5-67.5v4.1
			C250.8,126.5,279.1,154.8,279.2,189.8z"/>
		<path class="st5" d="M345,413.7c-17.5,0-28.6-13.3-28.7-13.5c-1.3-1.6-1-3.8,0.5-5.1c1.6-1.3,3.8-1,5.1,0.5
			c0.7,0.9,16.2,19.1,39.2,6.2c23.7-13.2,20.5-40,20.4-40.3c-0.3-2,1.1-3.8,3.1-4.1s3.8,1.1,4.1,3.1c0,0.3,3.9,32-24.1,47.6
			C358.7,411.7,351.9,413.6,345,413.7z"/>
		<polygon class="st5" points="322.5,389.8 319.7,384.9 325.2,381.8 322.6,377.2 317.2,380.3 314.4,375.4 319.9,372.3 297.2,331.8 
			271.4,346.2 294,386.8 299.4,383.7 302.2,388.6 296.7,391.7 299.3,396.3 304.7,393.2 307.5,398.2 302,401.2 304.7,406 
			330.6,391.5 327.9,386.8 		"/>
		<path class="st6" d="M304.7,246.4l-109.9,61.3l28.9,51.9c10.9-6.1,24.9-1.7,31.3,9.8l1.1,2c6.9,12.3,21.9,17,33.6,10.5l28.2-15.7
			c11.7-6.5,15.6-21.8,8.7-34.1l-1.2-2c-6.4-11.5-2.8-25.7,8.1-31.8L304.7,246.4z"/>
		
			<rect x="200.5" y="273.6" transform="matrix(0.8733 -0.4873 0.4873 0.8733 -113.6133 166.6055)" class="st5" width="125.9" height="56.3"/>
		<path class="st7" d="M234.4,288.4l-14,7.8l-25.1-44.9c-1.9-3.5-0.7-7.9,2.8-9.9l1.3-0.7c3.5-1.9,7.9-0.7,9.9,2.8L234.4,288.4z"/>
		
			<rect x="259.5" y="258.2" transform="matrix(0.8733 -0.4873 0.4873 0.8733 -102.6482 178.0504)" class="st3" width="62.9" height="56.3"/>
		<path class="st7" d="M281.5,262.2l-14,7.8l-25.1-44.9c-2-3.5-0.7-7.9,2.8-9.9c0,0,0,0,0,0l1.3-0.7c3.5-1.9,7.9-0.7,9.9,2.8
			L281.5,262.2z"/>
		
			<rect x="179.9" y="276.5" transform="matrix(0.8733 -0.4873 0.4873 0.8733 -105.2406 158.6016)" class="st6" width="144.6" height="10.3"/>
		<path class="st7" d="M199.5,240.7l-1.3,0.7c-3.5,2-4.8,6.4-2.8,9.9c0,0,0,0,0,0l10.8,19.3l14-7.8l-10.8-19.3
			C207.4,240,203,238.8,199.5,240.7z"/>
		<path class="st7" d="M246.5,214.5l-1.3,0.7c-3.5,2-4.7,6.4-2.8,9.9l10.8,19.3l14-7.8l-10.8-19.3
			C254.4,213.8,250,212.5,246.5,214.5z"/>
	</g>
</g>
</svg>
