<svg id="Layer_1" data-name="Layer 1" xmlns="http://www.w3.org/2000/svg" viewBox="0 0 520 520"><defs><style>.cls-1,.cls-2,.cls-6{fill:#fb923c;}.cls-1,.cls-2{isolation:isolate;}.cls-1{opacity:0.2;}.cls-2{opacity:0.15;}.cls-3{fill:#fcba8d;}.cls-4{fill:#f97316;}.cls-5{fill:#ffb07b;}</style></defs><g id="Layer_1-2" data-name="Layer 1"><path class="cls-1" d="M520,260c0,143.59-116.4,260-260,260S0,403.58,0,260,116.4,0,260,0,520,116.4,520,260Z"/><path class="cls-2" d="M519.33,277.8,368.46,125.3,213.68,177.86,151.54,394.7,276.47,519.42C406.48,511.29,510.53,407.63,519.33,277.8Z"/><path class="cls-3" d="M260,182.73H151.54V355.6H368.46V182.73Zm0,156.81a66,66,0,1,1,66-66,66,66,0,0,1-66,66Z"/><path class="cls-3" d="M213.68,125.3H151.54v52.56h62.14Zm-7.59,45.28h-47v-35h47Z"/><rect class="cls-4" x="316.35" y="360.46" width="52.11" height="34.23"/><path class="cls-3" d="M260,125.3H218.55v52.56H368.46V125.3Zm39.82,42.62H232.11v-5h67.71Zm0-13.06H232.11v-5h67.71Zm0-13.06H232.11v-5h67.71Zm31.73,29.64a19.12,19.12,0,1,1,19.13-19.12,19.12,19.12,0,0,1-19.13,19.12Z"/><path class="cls-4" d="M331.55,138.06a14.27,14.27,0,1,0,14.26,14.28v0A14.28,14.28,0,0,0,331.55,138.06Z"/><path class="cls-4" d="M260,207.57a66,66,0,1,0,66,66A66,66,0,0,0,260,207.57Zm0,119.9a53.92,53.92,0,1,1,53.92-53.92h0A53.91,53.91,0,0,1,260,327.47Z"/><path class="cls-5" d="M208.13,273.56A51.88,51.88,0,0,1,260,221.67v-2a53.92,53.92,0,0,0,0,107.83v-2a51.88,51.88,0,0,1-51.87-51.89Z"/><path class="cls-5" d="M313.92,273.56A53.92,53.92,0,0,0,260,219.64h0v2a51.88,51.88,0,0,1,0,103.76h0v2A53.91,53.91,0,0,0,313.92,273.56Z"/><path class="cls-5" d="M208.13,273.56A51.89,51.89,0,0,0,260,325.43V324a50.48,50.48,0,0,1,0-100.95v-1.41a51.88,51.88,0,0,0-51.87,51.89Z"/><path class="cls-5" d="M296.12,238.34c.45-.21.92-.08,1.44.45a51.76,51.76,0,0,1-.5,71,1.15,1.15,0,0,1-1.94-.06A50.26,50.26,0,0,1,260,324v1.4a51.88,51.88,0,0,0,0-103.76v1.41A50.32,50.32,0,0,1,296.12,238.34Z"/><path class="cls-6" d="M296.12,238.34a50.48,50.48,0,1,0-1,71.41C289.7,303.29,290.2,241,296.12,238.34Z"/><path class="cls-5" d="M295.12,309.75a50.37,50.37,0,0,0,1.18-71.22l-.18-.19C290.2,241,289.7,303.29,295.12,309.75Z"/><polygon class="cls-4" points="311.49 360.46 260 360.46 151.54 360.46 151.54 394.7 260 394.7 311.49 394.7 316.35 394.7 316.35 360.46 311.49 360.46"/><polygon class="cls-4" points="260 177.86 218.55 177.86 218.55 125.3 213.68 125.3 213.68 177.86 151.54 177.86 151.54 182.73 260 182.73 368.46 182.73 368.46 177.86 260 177.86"/><polygon class="cls-6" points="151.54 355.6 151.54 360.46 260 360.46 311.49 360.46 316.35 360.46 368.46 360.46 368.46 355.6 260 355.6 151.54 355.6"/><path class="cls-5" d="M331.55,133.2a19.12,19.12,0,1,0,19.13,19.12A19.12,19.12,0,0,0,331.55,133.2Zm0,33.39a14.27,14.27,0,1,1,14.26-14.28h0A14.29,14.29,0,0,1,331.55,166.59Z"/><polygon class="cls-4" points="260 136.79 232.11 136.79 232.11 141.79 260 141.79 299.81 141.79 299.81 136.79 260 136.79"/><polygon class="cls-4" points="232.11 149.85 232.11 154.86 260 154.86 299.81 154.86 299.81 149.85 260 149.85 232.11 149.85"/><polygon class="cls-4" points="232.11 162.91 232.11 167.92 260 167.92 299.81 167.92 299.81 162.91 260 162.91 232.11 162.91"/><path class="cls-3" d="M159.07,170.58h47v-35h-47Zm2.82-17.32h41.38V168H161.89Z"/><rect class="cls-4" x="161.89" y="153.26" width="41.38" height="14.68"/></g></svg>