<svg id="Layer_1" data-name="Layer 1" xmlns="http://www.w3.org/2000/svg" viewBox="0 0 520 520"><defs><style>.cls-1,.cls-2,.cls-4{fill:#fb923c;}.cls-1,.cls-2{isolation:isolate;}.cls-1{opacity:0.2;}.cls-2{opacity:0.15;}.cls-3{fill:#ffb07b;}.cls-5{fill:#e26814;}.cls-6{fill:#f97316;}.cls-7{fill:#ce5f15;}.cls-8{fill:#e26b1b;}</style></defs><g id="Layer_1-2" data-name="Layer 1"><circle class="cls-1" cx="260" cy="260" r="260"/><path class="cls-2" d="M273,98l27.18,111.07S183.36,253.45,181,254s-21,6-21,6l-24,20h0L368,496c2.57.07.75,1.27,3,0,71-40,132-90,148-218L301,103Z"/><rect class="cls-3" x="123.95" y="98" width="183.65" height="183.64" rx="20.56"/><path class="cls-3" d="M287.05,281.64a20.55,20.55,0,0,0,20.55-20.55V118.56A20.55,20.55,0,0,0,287.06,98H215.78V281.64Z"/><path class="cls-4" d="M280.21,189.82a65.44,65.44,0,1,1-65.44-65.44h0a65.42,65.42,0,0,1,65.43,65.43Z"/><path class="cls-5" d="M196.25,189.82A10.28,10.28,0,1,1,186,179.54h0A10.28,10.28,0,0,1,196.25,189.82Z"/><path class="cls-5" d="M254.87,189.82a10.28,10.28,0,1,1-10.28-10.28h0A10.28,10.28,0,0,1,254.87,189.82Z"/><path class="cls-6" d="M215.78,257.32a67.5,67.5,0,1,1,67.49-67.51h0A67.57,67.57,0,0,1,215.78,257.32Zm0-130.88a63.38,63.38,0,1,0,63.38,63.38A63.38,63.38,0,0,0,215.78,126.44Z"/><path class="cls-6" d="M279.16,189.82a63.46,63.46,0,0,1-63.38,63.39v4.11a67.5,67.5,0,0,0,0-135v4.11A63.45,63.45,0,0,1,279.16,189.82Z"/><path class="cls-6" d="M345,413.68c-17.51,0-28.59-13.28-28.73-13.46a3.63,3.63,0,1,1,5.63-4.59c.71.87,16.19,19.06,39.23,6.21,23.73-13.24,20.45-40,20.42-40.3a3.63,3.63,0,1,1,7.2-1c0,.32,3.91,32-24.08,47.6A40,40,0,0,1,345,413.68Z"/><polygon class="cls-6" points="322.46 389.81 319.71 384.88 325.17 381.83 322.62 377.25 317.16 380.3 314.4 375.36 319.86 372.32 297.25 331.8 271.36 346.25 293.97 386.77 299.43 383.72 302.18 388.65 296.72 391.7 299.28 396.28 304.74 393.24 307.49 398.17 302.03 401.21 304.68 405.97 330.57 391.52 327.93 386.76 322.46 389.81"/><path class="cls-7" d="M304.72,246.43,194.79,307.77l28.92,51.85c10.91-6.09,24.93-1.7,31.34,9.79l1.14,2c6.88,12.31,21.91,17,33.59,10.5L318,366.22c11.69-6.51,15.58-21.78,8.72-34.09l-1.16-2c-6.4-11.49-2.77-25.73,8.14-31.82Z"/><rect class="cls-6" x="200.52" y="273.55" width="125.88" height="56.29" transform="translate(-113.61 166.61) rotate(-29.16)"/><path class="cls-8" d="M234.42,288.44l-14,7.81-25.07-44.92a7.28,7.28,0,0,1,2.81-9.89l1.32-.74a7.27,7.27,0,0,1,9.88,2.81Z"/><rect class="cls-4" x="259.47" y="258.2" width="62.94" height="56.29" transform="translate(-102.65 178.05) rotate(-29.16)"/><path class="cls-8" d="M281.46,262.19l-14,7.81L242.4,225.08a7.26,7.26,0,0,1,2.8-9.88h0l1.32-.74a7.29,7.29,0,0,1,9.88,2.8Z"/><rect class="cls-7" x="179.94" y="276.46" width="144.64" height="10.29" transform="translate(-105.24 158.6) rotate(-29.16)"/><path class="cls-8" d="M199.47,240.71l-1.33.74a7.26,7.26,0,0,0-2.8,9.88h0l10.77,19.29,14-7.82-10.78-19.29A7.25,7.25,0,0,0,199.47,240.71Z"/><path class="cls-8" d="M246.5,214.46l-1.32.74a7.27,7.27,0,0,0-2.8,9.88l10.76,19.29,14-7.81-10.76-19.29A7.27,7.27,0,0,0,246.5,214.46Z"/></g></svg>