<svg width="1600" height="721" viewBox="0 0 1600 721" fill="none" xmlns="http://www.w3.org/2000/svg">
<path d="M1919.66 639.475C1919.66 639.475 1748.96 961 1400.29 961C1051.62 961 774.865 405.616 501.015 405.616C227.164 405.616 206.583 704.502 -414.968 704.502" stroke="#EF790C" stroke-width="0.25" stroke-miterlimit="10"/>
<path d="M1919.66 633.935C1919.66 633.935 1749.2 937.879 1401.74 937.879C1054.28 937.879 780.192 414.768 502.468 414.768C224.743 414.768 201.256 681.863 -414.968 681.863" stroke="#EF790C" stroke-width="0.3065" stroke-miterlimit="10"/>
<path d="M1919.66 628.396C1919.66 628.396 1749.69 914.758 1402.95 914.758C1056.22 914.758 785.519 423.921 503.678 423.921C221.838 423.921 195.687 659.224 -414.968 659.224" stroke="#EF790C" stroke-width="0.3629" stroke-miterlimit="10"/>
<path d="M1919.66 622.856C1919.66 622.856 1749.93 891.637 1404.16 891.637C1058.4 891.637 790.846 433.072 505.131 433.072C219.416 433.072 190.36 636.584 -414.968 636.584" stroke="#EF790C" stroke-width="0.4194" stroke-miterlimit="10"/>
<path d="M1919.66 617.317C1919.66 617.317 1750.41 868.275 1405.62 868.275C1060.82 868.275 796.173 442.224 506.584 442.224C216.995 442.224 184.791 613.704 -414.725 613.704" stroke="#EF790C" stroke-width="0.4758" stroke-miterlimit="10"/>
<path d="M1919.66 611.778C1919.66 611.778 1750.65 845.155 1406.83 845.155C1063 845.155 801.257 451.376 507.794 451.376C214.331 451.376 179.222 591.065 -414.968 591.065" stroke="#EF790C" stroke-width="0.5323" stroke-miterlimit="10"/>
<path d="M1919.66 606.238C1919.66 606.238 1751.14 822.034 1408.28 822.034C1065.42 822.034 806.826 460.528 509.247 460.528C211.668 460.528 173.895 568.426 -414.725 568.426" stroke="#EF790C" stroke-width="0.5887" stroke-miterlimit="10"/>
<path d="M1919.66 600.699C1919.66 600.699 1751.38 798.672 1409.49 798.672C1067.6 798.672 812.153 469.681 510.458 469.681C208.762 469.681 168.084 545.787 -414.968 545.787" stroke="#EF790C" stroke-width="0.6452" stroke-miterlimit="10"/>
<path d="M1919.66 595.159C1919.66 595.159 1751.86 775.551 1410.7 775.551C1069.54 775.551 817.238 478.832 511.669 478.832C206.099 478.832 162.515 522.906 -414.968 522.906" stroke="#EF790C" stroke-width="0.7016" stroke-miterlimit="10"/>
<path d="M1919.66 589.62C1919.66 589.62 1752.11 752.43 1412.15 752.43C1072.2 752.43 822.807 488.225 513.121 488.225C203.435 488.225 157.188 500.508 -414.968 500.508" stroke="#EF790C" stroke-width="0.7581" stroke-miterlimit="10"/>
<path d="M1919.66 584.081C1919.66 584.081 1752.35 729.068 1413.37 729.068C1074.38 729.068 827.892 497.136 514.332 497.136C200.772 497.136 151.619 477.628 -414.968 477.628" stroke="#EF790C" stroke-width="0.8145" stroke-miterlimit="10"/>
<path d="M1919.66 578.541C1919.66 578.541 1752.83 705.947 1414.82 705.947C1076.8 705.947 833.461 506.289 515.785 506.289C198.109 506.289 146.05 454.989 -414.968 454.989" stroke="#EF790C" stroke-width="0.871" stroke-miterlimit="10"/>
<path d="M1919.66 573.002C1919.66 573.002 1753.08 682.826 1416.03 682.826C1078.98 682.826 838.546 515.681 517.238 515.681C195.929 515.681 140.481 432.109 -414.968 432.109" stroke="#EF790C" stroke-width="0.9274" stroke-miterlimit="10"/>
<path d="M1919.66 567.463C1919.66 567.463 1753.56 659.705 1417.24 659.705C1080.92 659.705 843.872 524.833 518.448 524.833C193.024 524.833 135.155 409.71 -414.968 409.71" stroke="#EF790C" stroke-width="0.9839" stroke-miterlimit="10"/>
<path d="M1919.66 561.923C1919.66 561.923 1753.8 636.344 1418.69 636.344C1083.58 636.344 849.199 533.744 519.901 533.744C190.602 533.744 129.585 386.83 -414.968 386.83" stroke="#EF790C" stroke-width="1.0403" stroke-miterlimit="10"/>
<path d="M1919.66 556.143C1919.66 556.143 1754.29 612.982 1419.9 612.982C1085.52 612.982 854.526 542.897 521.112 542.897C187.697 542.897 124.016 364.191 -414.968 364.191" stroke="#EF790C" stroke-width="1.0968" stroke-miterlimit="10"/>
<path d="M1919.66 550.604C1919.66 550.604 1754.53 589.861 1421.36 589.861C1088.18 589.861 859.853 552.049 522.564 552.049C185.276 552.049 118.69 341.311 -414.968 341.311" stroke="#EF790C" stroke-width="1.1532" stroke-miterlimit="10"/>
<path d="M1919.66 545.064C1919.66 545.064 1754.77 566.499 1422.57 566.499C1090.36 566.499 865.18 560.96 523.775 560.96C182.37 560.96 113.121 318.672 -414.968 318.672" stroke="#EF790C" stroke-width="1.2097" stroke-miterlimit="10"/>
<path d="M1919.66 539.525C1919.66 539.525 1755.25 543.378 1424.02 543.378C1092.78 543.378 870.507 570.353 525.228 570.353C179.949 570.353 107.552 296.033 -414.968 296.033" stroke="#EF790C" stroke-width="1.2661" stroke-miterlimit="10"/>
<path d="M1919.66 533.986C1919.66 533.986 1755.5 520.258 1425.23 520.258C1094.96 520.258 875.834 579.505 526.438 579.505C177.043 579.505 101.983 273.394 -414.968 273.394" stroke="#EF790C" stroke-width="1.3226" stroke-miterlimit="10"/>
<path d="M1919.66 528.446C1919.66 528.446 1755.98 497.136 1426.44 497.136C1096.9 497.136 881.161 588.657 527.891 588.657C174.622 588.657 96.4135 250.754 -414.968 250.754" stroke="#EF790C" stroke-width="1.379" stroke-miterlimit="10"/>
<path d="M1919.66 522.907C1919.66 522.907 1756.22 473.775 1427.89 473.775C1099.56 473.775 886.488 597.809 529.344 597.809C172.201 597.809 91.0866 227.874 -414.725 227.874" stroke="#EF790C" stroke-width="1.4355" stroke-miterlimit="10"/>
<path d="M1919.66 517.367C1919.66 517.367 1756.71 450.654 1429.1 450.654C1101.5 450.654 891.814 606.961 530.555 606.961C169.295 606.961 85.5176 205.235 -414.968 205.235" stroke="#EF790C" stroke-width="1.4919" stroke-miterlimit="10"/>
<path d="M1919.66 511.828C1919.66 511.828 1756.95 427.533 1430.56 427.533C1104.16 427.533 897.141 616.113 532.007 616.113C166.874 616.113 80.1907 182.595 -414.725 182.595" stroke="#EF790C" stroke-width="1.5484" stroke-miterlimit="10"/>
<path d="M1919.66 506.289C1919.66 506.289 1757.19 404.171 1431.77 404.171C1106.34 404.171 902.468 625.265 533.218 625.265C163.968 625.265 74.3796 159.956 -414.968 159.956" stroke="#EF790C" stroke-width="1.6048" stroke-miterlimit="10"/>
<path d="M1919.66 500.749C1919.66 500.749 1757.68 381.05 1432.98 381.05C1108.28 381.05 907.795 634.417 534.429 634.417C161.062 634.417 68.8106 137.317 -414.968 137.317" stroke="#EF790C" stroke-width="1.6613" stroke-miterlimit="10"/>
<path d="M1919.66 495.21C1919.66 495.21 1757.92 357.93 1434.43 357.93C1110.94 357.93 913.122 643.81 535.882 643.81C158.641 643.81 63.4837 114.437 -414.968 114.437" stroke="#EF790C" stroke-width="1.7177" stroke-miterlimit="10"/>
<path d="M1919.66 489.67C1919.66 489.67 1758.4 334.808 1435.64 334.808C1112.88 334.808 918.207 652.962 537.092 652.962C155.978 652.962 57.9147 91.7977 -414.968 91.7977" stroke="#EF790C" stroke-width="1.7742" stroke-miterlimit="10"/>
<path d="M1919.66 484.131C1919.66 484.131 1758.64 311.447 1437.09 311.447C1115.54 311.447 923.776 661.873 538.787 661.873C153.799 661.873 52.3456 69.1586 -414.968 69.1586" stroke="#EF790C" stroke-width="1.8306" stroke-miterlimit="10"/>
<path d="M1919.66 478.591C1919.66 478.591 1759.13 288.325 1438.3 288.325C1117.48 288.325 928.861 671.266 539.998 671.266C151.135 671.266 46.7766 46.5191 -414.968 46.5191" stroke="#EF790C" stroke-width="1.8871" stroke-miterlimit="10"/>
<path d="M1919.66 473.052C1919.66 473.052 1759.37 265.204 1439.52 265.204C1119.66 265.204 934.187 680.177 541.209 680.177C148.23 680.177 41.4497 23.639 -414.968 23.639" stroke="#EF790C" stroke-width="1.9435" stroke-miterlimit="10"/>
<path d="M1919.66 467.513C1919.66 467.513 1759.85 241.843 1440.97 241.843C1122.08 241.843 939.756 689.329 542.661 689.329C145.566 689.329 35.8807 1 -414.968 1" stroke="#EF790C" stroke-width="2" stroke-miterlimit="10"/>
</svg>
