<svg id="Layer_1" data-name="Layer 1" xmlns="http://www.w3.org/2000/svg" viewBox="0 0 520 520"><defs><style>.cls-1{fill:#fb923c;}</style></defs><path class="cls-1" d="M244.71.09a0,0,0,0,0,0,0,0,0,0,0,0,0,0,0,0,0,0,0,0,0S244.68.09,244.71.09Z"/><path class="cls-1" d="M260,.09a0,0,0,0,0,0,0A0,0,0,1,0,260,0,0,0,0,0,0,260,.09Z"/><path class="cls-1" d="M275.29.09s0,0,0,0a0,0,0,0,0,0,0,0,0,0,0,0,0,0A0,0,0,0,0,275.29.09Z"/><circle class="cls-1" cx="183.54" cy="15.33" r="0.04"/><path class="cls-1" d="M198.83,15.46a.13.13,0,0,0,.13-.13.12.12,0,0,0-.13-.12.12.12,0,0,0-.12.12A.12.12,0,0,0,198.83,15.46Z"/><path class="cls-1" d="M214.13,15.55a.22.22,0,1,0-.22-.22A.22.22,0,0,0,214.13,15.55Z"/><path class="cls-1" d="M229.42,15.59a.26.26,0,0,0,.25-.26.25.25,0,0,0-.25-.25.26.26,0,0,0-.26.25A.26.26,0,0,0,229.42,15.59Z"/><path class="cls-1" d="M244.71,15.59a.26.26,0,0,0,.25-.26.25.25,0,0,0-.25-.25.26.26,0,0,0-.26.25A.26.26,0,0,0,244.71,15.59Z"/><path class="cls-1" d="M260,15.63a.3.3,0,1,0-.3-.3A.3.3,0,0,0,260,15.63Z"/><path class="cls-1" d="M275.29,15.59a.26.26,0,0,0,.26-.26.26.26,0,0,0-.26-.25.25.25,0,0,0-.25.25A.26.26,0,0,0,275.29,15.59Z"/><path class="cls-1" d="M290.58,15.59a.26.26,0,0,0,.26-.26.26.26,0,0,0-.26-.25.25.25,0,0,0-.25.25A.26.26,0,0,0,290.58,15.59Z"/><path class="cls-1" d="M305.87,15.55a.22.22,0,1,0,0-.43.22.22,0,0,0,0,.43Z"/><path class="cls-1" d="M321.17,15.46a.12.12,0,0,0,.12-.13.12.12,0,0,0-.12-.12.12.12,0,0,0-.13.12A.13.13,0,0,0,321.17,15.46Z"/><path class="cls-1" d="M336.46,15.42a.09.09,0,0,0,.08-.09.09.09,0,0,0-.08-.08.09.09,0,0,0-.09.08A.09.09,0,0,0,336.46,15.42Z"/><circle class="cls-1" cx="137.67" cy="30.63" r="0.04"/><path class="cls-1" d="M153,30.75a.12.12,0,0,0,.13-.12.13.13,0,1,0-.26,0A.12.12,0,0,0,153,30.75Z"/><path class="cls-1" d="M168.25,30.84a.21.21,0,0,0,.21-.21.21.21,0,1,0-.42,0A.21.21,0,0,0,168.25,30.84Z"/><path class="cls-1" d="M183.54,31a.34.34,0,0,0,.34-.34.34.34,0,1,0-.68,0A.34.34,0,0,0,183.54,31Z"/><path class="cls-1" d="M198.83,31.05a.43.43,0,1,0-.42-.42A.42.42,0,0,0,198.83,31.05Z"/><path class="cls-1" d="M214.13,31.13a.51.51,0,1,0-.51-.5A.5.5,0,0,0,214.13,31.13Z"/><circle class="cls-1" cx="229.42" cy="30.63" r="0.55"/><circle class="cls-1" cx="244.71" cy="30.63" r="0.59"/><circle class="cls-1" cx="260" cy="30.63" r="0.59"/><circle class="cls-1" cx="275.29" cy="30.63" r="0.59"/><circle class="cls-1" cx="290.58" cy="30.63" r="0.55"/><path class="cls-1" d="M305.87,31.13a.51.51,0,1,0-.5-.5A.5.5,0,0,0,305.87,31.13Z"/><path class="cls-1" d="M321.17,31.05a.43.43,0,0,0,0-.85.43.43,0,1,0,0,.85Z"/><path class="cls-1" d="M336.46,31a.34.34,0,0,0,.34-.34.34.34,0,1,0-.68,0A.34.34,0,0,0,336.46,31Z"/><path class="cls-1" d="M351.75,30.88a.25.25,0,0,0,.25-.25.25.25,0,1,0-.5,0A.25.25,0,0,0,351.75,30.88Z"/><path class="cls-1" d="M367,30.75a.12.12,0,0,0,.13-.12.13.13,0,1,0-.26,0A.12.12,0,0,0,367,30.75Z"/><circle class="cls-1" cx="382.33" cy="30.63" r="0.04"/><circle class="cls-1" cx="122.38" cy="45.92" r="0.08"/><path class="cls-1" d="M137.67,46.17a.25.25,0,0,0,.25-.25.26.26,0,0,0-.25-.26.26.26,0,0,0-.26.26A.26.26,0,0,0,137.67,46.17Z"/><path class="cls-1" d="M153,46.3a.38.38,0,1,0-.38-.38A.38.38,0,0,0,153,46.3Z"/><path class="cls-1" d="M168.25,46.43a.51.51,0,1,0-.51-.51A.51.51,0,0,0,168.25,46.43Z"/><circle class="cls-1" cx="183.54" cy="45.92" r="0.64"/><path class="cls-1" d="M198.83,46.64a.72.72,0,1,0-.72-.72A.72.72,0,0,0,198.83,46.64Z"/><path class="cls-1" d="M214.13,46.72a.81.81,0,1,0-.81-.8A.8.8,0,0,0,214.13,46.72Z"/><path class="cls-1" d="M229.42,46.81a.89.89,0,1,0-.89-.89A.89.89,0,0,0,229.42,46.81Z"/><path class="cls-1" d="M244.71,46.81a.89.89,0,1,0-.89-.89A.89.89,0,0,0,244.71,46.81Z"/><path class="cls-1" d="M260,46.85a.94.94,0,1,0-.93-.93A.93.93,0,0,0,260,46.85Z"/><path class="cls-1" d="M275.29,46.81a.89.89,0,1,0-.89-.89A.89.89,0,0,0,275.29,46.81Z"/><path class="cls-1" d="M290.58,46.81a.89.89,0,1,0-.89-.89A.89.89,0,0,0,290.58,46.81Z"/><path class="cls-1" d="M305.87,46.72a.81.81,0,1,0-.8-.8A.8.8,0,0,0,305.87,46.72Z"/><path class="cls-1" d="M321.17,46.68a.76.76,0,0,0,.76-.76.77.77,0,0,0-.76-.77.78.78,0,0,0-.77.77A.77.77,0,0,0,321.17,46.68Z"/><circle class="cls-1" cx="336.46" cy="45.92" r="0.64"/><circle class="cls-1" cx="351.75" cy="45.92" r="0.55"/><path class="cls-1" d="M367,46.34a.43.43,0,1,0-.42-.42A.42.42,0,0,0,367,46.34Z"/><path class="cls-1" d="M382.33,46.17a.26.26,0,0,0,.26-.25.26.26,0,0,0-.26-.26.26.26,0,0,0-.25.26A.25.25,0,0,0,382.33,46.17Z"/><path class="cls-1" d="M397.62,46a.09.09,0,0,0,.09-.08.09.09,0,0,0-.09-.09.09.09,0,0,0-.08.09A.09.09,0,0,0,397.62,46Z"/><path class="cls-1" d="M107.08,61.38a.17.17,0,0,0,0-.34.17.17,0,0,0,0,.34Z"/><path class="cls-1" d="M122.38,61.55a.34.34,0,1,0-.34-.34A.34.34,0,0,0,122.38,61.55Z"/><circle class="cls-1" cx="137.67" cy="61.21" r="0.51"/><circle class="cls-1" cx="152.96" cy="61.21" r="0.68"/><path class="cls-1" d="M168.25,62a.81.81,0,1,0,0-1.61.81.81,0,1,0,0,1.61Z"/><path class="cls-1" d="M183.54,62.14a.93.93,0,1,0-.93-.93A.93.93,0,0,0,183.54,62.14Z"/><path class="cls-1" d="M198.83,62.27a1.06,1.06,0,1,0-1.06-1.06A1.06,1.06,0,0,0,198.83,62.27Z"/><circle class="cls-1" cx="214.13" cy="61.21" r="1.14"/><circle class="cls-1" cx="229.42" cy="61.21" r="1.23"/><circle class="cls-1" cx="244.71" cy="61.21" r="1.23"/><circle class="cls-1" cx="260" cy="61.21" r="1.27"/><circle class="cls-1" cx="275.29" cy="61.21" r="1.23"/><circle class="cls-1" cx="290.58" cy="61.21" r="1.23"/><circle class="cls-1" cx="305.87" cy="61.21" r="1.14"/><path class="cls-1" d="M321.17,62.27a1.06,1.06,0,1,0,0-2.12,1.06,1.06,0,1,0,0,2.12Z"/><path class="cls-1" d="M336.46,62.14a.93.93,0,1,0,0-1.86.93.93,0,0,0,0,1.86Z"/><path class="cls-1" d="M351.75,62a.81.81,0,1,0-.81-.8A.81.81,0,0,0,351.75,62Z"/><circle class="cls-1" cx="367.04" cy="61.21" r="0.68"/><path class="cls-1" d="M382.33,61.72a.51.51,0,1,0-.51-.51A.51.51,0,0,0,382.33,61.72Z"/><path class="cls-1" d="M397.62,61.55a.34.34,0,1,0-.33-.34A.34.34,0,0,0,397.62,61.55Z"/><path class="cls-1" d="M412.92,61.38a.17.17,0,0,0,0-.34.17.17,0,0,0,0,.34Z"/><path class="cls-1" d="M428.21,61.25a0,0,0,1,0,0-.08,0,0,0,0,0,0,.08Z"/><circle class="cls-1" cx="76.5" cy="76.5" r="0.04"/><path class="cls-1" d="M91.79,76.71a.21.21,0,1,0-.21-.21A.21.21,0,0,0,91.79,76.71Z"/><path class="cls-1" d="M107.08,76.88a.38.38,0,1,0,0-.76.38.38,0,1,0,0,.76Z"/><circle class="cls-1" cx="122.38" cy="76.5" r="0.59"/><path class="cls-1" d="M137.67,77.31a.81.81,0,1,0-.81-.81A.8.8,0,0,0,137.67,77.31Z"/><path class="cls-1" d="M153,77.48a1,1,0,1,0-1-1A1,1,0,0,0,153,77.48Z"/><circle class="cls-1" cx="168.25" cy="76.5" r="1.1"/><circle class="cls-1" cx="183.54" cy="76.5" r="1.27"/><circle class="cls-1" cx="198.83" cy="76.5" r="1.36"/><path class="cls-1" d="M214.13,78a1.48,1.48,0,1,0-1.49-1.48A1.48,1.48,0,0,0,214.13,78Z"/><path class="cls-1" d="M229.42,78a1.53,1.53,0,1,0-1.53-1.53A1.53,1.53,0,0,0,229.42,78Z"/><path class="cls-1" d="M244.71,78.07a1.57,1.57,0,1,0-1.57-1.57A1.57,1.57,0,0,0,244.71,78.07Z"/><path class="cls-1" d="M260,78.07a1.57,1.57,0,1,0-1.57-1.57A1.57,1.57,0,0,0,260,78.07Z"/><path class="cls-1" d="M275.29,78.07a1.57,1.57,0,1,0-1.57-1.57A1.57,1.57,0,0,0,275.29,78.07Z"/><path class="cls-1" d="M290.58,78a1.53,1.53,0,1,0-1.52-1.53A1.53,1.53,0,0,0,290.58,78Z"/><path class="cls-1" d="M305.87,78a1.48,1.48,0,1,0-1.48-1.48A1.49,1.49,0,0,0,305.87,78Z"/><path class="cls-1" d="M321.17,77.9a1.4,1.4,0,1,0-1.4-1.4A1.4,1.4,0,0,0,321.17,77.9Z"/><circle class="cls-1" cx="336.46" cy="76.5" r="1.27"/><circle class="cls-1" cx="351.75" cy="76.5" r="1.14"/><path class="cls-1" d="M367,77.48a1,1,0,1,0,0-2,1,1,0,0,0,0,2Z"/><path class="cls-1" d="M382.33,77.31a.81.81,0,1,0-.8-.81A.81.81,0,0,0,382.33,77.31Z"/><circle class="cls-1" cx="397.62" cy="76.5" r="0.59"/><path class="cls-1" d="M412.92,76.92a.42.42,0,1,0-.43-.42A.42.42,0,0,0,412.92,76.92Z"/><path class="cls-1" d="M428.21,76.71a.21.21,0,1,0-.21-.21A.21.21,0,0,0,428.21,76.71Z"/><path class="cls-1" d="M443.5,76.54a0,0,0,1,0,0-.08,0,0,0,0,0,0,.08A0,0,0,0,0,443.5,76.54Z"/><path class="cls-1" d="M76.5,92a.21.21,0,0,0,.21-.21.21.21,0,1,0-.42,0A.21.21,0,0,0,76.5,92Z"/><path class="cls-1" d="M91.79,92.22a.43.43,0,1,0,0-.85.43.43,0,0,0,0,.85Z"/><circle class="cls-1" cx="107.08" cy="91.79" r="0.64"/><path class="cls-1" d="M122.38,92.64a.85.85,0,1,0-.85-.85A.85.85,0,0,0,122.38,92.64Z"/><path class="cls-1" d="M137.67,92.85a1.06,1.06,0,1,0-1.06-1.06A1.06,1.06,0,0,0,137.67,92.85Z"/><circle class="cls-1" cx="152.96" cy="91.79" r="1.23"/><path class="cls-1" d="M168.25,93.19a1.4,1.4,0,1,0-1.4-1.4A1.4,1.4,0,0,0,168.25,93.19Z"/><path class="cls-1" d="M183.54,93.36A1.57,1.57,0,1,0,182,91.79,1.57,1.57,0,0,0,183.54,93.36Z"/><circle class="cls-1" cx="198.83" cy="91.79" r="1.7"/><circle class="cls-1" cx="214.13" cy="91.79" r="1.78"/><circle class="cls-1" cx="229.42" cy="91.79" r="1.87"/><circle class="cls-1" cx="244.71" cy="91.79" r="1.91"/><circle class="cls-1" cx="260" cy="91.79" r="1.91"/><circle class="cls-1" cx="275.29" cy="91.79" r="1.91"/><circle class="cls-1" cx="290.58" cy="91.79" r="1.87"/><circle class="cls-1" cx="305.87" cy="91.79" r="1.78"/><circle class="cls-1" cx="321.17" cy="91.79" r="1.7"/><path class="cls-1" d="M336.46,93.36a1.57,1.57,0,1,0-1.57-1.57A1.57,1.57,0,0,0,336.46,93.36Z"/><path class="cls-1" d="M351.75,93.23a1.44,1.44,0,1,0-1.44-1.44A1.43,1.43,0,0,0,351.75,93.23Z"/><circle class="cls-1" cx="367.04" cy="91.79" r="1.27"/><path class="cls-1" d="M382.33,92.85a1.06,1.06,0,1,0,0-2.12,1.06,1.06,0,0,0,0,2.12Z"/><path class="cls-1" d="M397.62,92.64a.85.85,0,1,0-.84-.85A.85.85,0,0,0,397.62,92.64Z"/><circle class="cls-1" cx="412.92" cy="91.79" r="0.64"/><path class="cls-1" d="M428.21,92.22a.43.43,0,1,0-.43-.43A.42.42,0,0,0,428.21,92.22Z"/><path class="cls-1" d="M443.5,92a.21.21,0,0,0,.21-.21.21.21,0,1,0-.42,0A.21.21,0,0,0,443.5,92Z"/><path class="cls-1" d="M458.79,91.83a0,0,0,0,0,0,0,0,0,0,1,0-.08,0A0,0,0,0,0,458.79,91.83Z"/><path class="cls-1" d="M61.21,107.25a.17.17,0,0,0,.17-.17.17.17,0,0,0-.34,0A.17.17,0,0,0,61.21,107.25Z"/><path class="cls-1" d="M76.5,107.47a.39.39,0,0,0,.38-.39.38.38,0,1,0-.76,0A.39.39,0,0,0,76.5,107.47Z"/><circle class="cls-1" cx="91.79" cy="107.08" r="0.64"/><path class="cls-1" d="M107.08,108a.89.89,0,0,0,0-1.78.89.89,0,0,0,0,1.78Z"/><path class="cls-1" d="M122.38,108.19a1.11,1.11,0,1,0-1.11-1.11A1.11,1.11,0,0,0,122.38,108.19Z"/><circle class="cls-1" cx="137.67" cy="107.08" r="1.31"/><path class="cls-1" d="M153,108.61a1.53,1.53,0,1,0-1.53-1.53A1.53,1.53,0,0,0,153,108.61Z"/><circle class="cls-1" cx="168.25" cy="107.08" r="1.7"/><circle class="cls-1" cx="183.54" cy="107.08" r="1.87"/><circle class="cls-1" cx="198.83" cy="107.08" r="1.99"/><path class="cls-1" d="M214.13,109.16a2.08,2.08,0,1,0-2.08-2.08A2.08,2.08,0,0,0,214.13,109.16Z"/><path class="cls-1" d="M229.42,109.25a2.17,2.17,0,1,0-2.17-2.17A2.17,2.17,0,0,0,229.42,109.25Z"/><path class="cls-1" d="M244.71,109.29a2.21,2.21,0,1,0-2.21-2.21A2.2,2.2,0,0,0,244.71,109.29Z"/><path class="cls-1" d="M260,109.33a2.25,2.25,0,1,0-2.25-2.25A2.25,2.25,0,0,0,260,109.33Z"/><path class="cls-1" d="M275.29,109.29a2.21,2.21,0,1,0-2.2-2.21A2.21,2.21,0,0,0,275.29,109.29Z"/><path class="cls-1" d="M290.58,109.25a2.17,2.17,0,1,0-2.16-2.17A2.17,2.17,0,0,0,290.58,109.25Z"/><path class="cls-1" d="M305.87,109.16a2.08,2.08,0,1,0-2.07-2.08A2.08,2.08,0,0,0,305.87,109.16Z"/><circle class="cls-1" cx="321.17" cy="107.08" r="1.99"/><circle class="cls-1" cx="336.46" cy="107.08" r="1.87"/><path class="cls-1" d="M351.75,108.78a1.7,1.7,0,1,0-1.7-1.7A1.7,1.7,0,0,0,351.75,108.78Z"/><path class="cls-1" d="M367,108.61a1.53,1.53,0,1,0-1.53-1.53A1.53,1.53,0,0,0,367,108.61Z"/><path class="cls-1" d="M382.33,108.44a1.36,1.36,0,1,0,0-2.71,1.36,1.36,0,0,0,0,2.71Z"/><path class="cls-1" d="M397.62,108.19a1.11,1.11,0,1,0-1.1-1.11A1.11,1.11,0,0,0,397.62,108.19Z"/><path class="cls-1" d="M412.92,108a.89.89,0,1,0-.89-.89A.89.89,0,0,0,412.92,108Z"/><path class="cls-1" d="M428.21,107.76a.68.68,0,1,0,0-1.35.68.68,0,1,0,0,1.35Z"/><path class="cls-1" d="M443.5,107.51a.43.43,0,1,0-.42-.43A.42.42,0,0,0,443.5,107.51Z"/><path class="cls-1" d="M458.79,107.25a.17.17,0,0,0,.17-.17.17.17,0,1,0-.34,0A.17.17,0,0,0,458.79,107.25Z"/><path class="cls-1" d="M45.92,122.46a.09.09,0,0,0,.08-.08.09.09,0,0,0-.08-.09.09.09,0,0,0-.09.09A.09.09,0,0,0,45.92,122.46Z"/><path class="cls-1" d="M61.21,122.71a.34.34,0,1,0-.34-.33A.34.34,0,0,0,61.21,122.71Z"/><circle class="cls-1" cx="76.5" cy="122.38" r="0.59"/><path class="cls-1" d="M91.79,123.22a.85.85,0,1,0-.85-.84A.85.85,0,0,0,91.79,123.22Z"/><path class="cls-1" d="M107.08,123.48a1.11,1.11,0,1,0-1.1-1.1A1.11,1.11,0,0,0,107.08,123.48Z"/><circle class="cls-1" cx="122.38" cy="122.38" r="1.36"/><path class="cls-1" d="M137.67,123.94a1.57,1.57,0,1,0-1.57-1.56A1.57,1.57,0,0,0,137.67,123.94Z"/><circle class="cls-1" cx="152.96" cy="122.38" r="1.78"/><circle class="cls-1" cx="168.25" cy="122.38" r="1.95"/><path class="cls-1" d="M183.54,124.5a2.12,2.12,0,1,0-2.12-2.12A2.12,2.12,0,0,0,183.54,124.5Z"/><circle class="cls-1" cx="198.83" cy="122.38" r="2.29"/><circle class="cls-1" cx="214.13" cy="122.38" r="2.42"/><circle class="cls-1" cx="229.42" cy="122.38" r="2.5"/><circle class="cls-1" cx="244.71" cy="122.38" r="2.54"/><circle class="cls-1" cx="260" cy="122.38" r="2.54"/><circle class="cls-1" cx="275.29" cy="122.38" r="2.54"/><circle class="cls-1" cx="290.58" cy="122.38" r="2.5"/><circle class="cls-1" cx="305.87" cy="122.38" r="2.42"/><circle class="cls-1" cx="321.17" cy="122.38" r="2.29"/><path class="cls-1" d="M336.46,124.5a2.12,2.12,0,1,0-2.12-2.12A2.12,2.12,0,0,0,336.46,124.5Z"/><circle class="cls-1" cx="351.75" cy="122.38" r="1.95"/><circle class="cls-1" cx="367.04" cy="122.38" r="1.78"/><path class="cls-1" d="M382.33,123.94a1.57,1.57,0,1,0-1.57-1.56A1.56,1.56,0,0,0,382.33,123.94Z"/><path class="cls-1" d="M397.62,123.73a1.36,1.36,0,1,0-1.35-1.35A1.35,1.35,0,0,0,397.62,123.73Z"/><path class="cls-1" d="M412.92,123.48a1.11,1.11,0,1,0-1.11-1.1A1.1,1.1,0,0,0,412.92,123.48Z"/><path class="cls-1" d="M428.21,123.22a.85.85,0,1,0-.85-.84A.85.85,0,0,0,428.21,123.22Z"/><path class="cls-1" d="M443.5,123a.64.64,0,1,0-.64-.63A.64.64,0,0,0,443.5,123Z"/><path class="cls-1" d="M458.79,122.71a.34.34,0,1,0-.34-.33A.34.34,0,0,0,458.79,122.71Z"/><path class="cls-1" d="M474.08,122.46a.09.09,0,0,0,.09-.08.09.09,0,0,0-.09-.09.09.09,0,0,0-.08.09A.09.09,0,0,0,474.08,122.46Z"/><path class="cls-1" d="M30.63,137.71a0,0,0,0,0,0,0,0,0,0,0,0,0,0,0,0,0,0,0-.05,0A0,0,0,0,0,30.63,137.71Z"/><path class="cls-1" d="M45.92,137.92a.25.25,0,0,0,.25-.25.26.26,0,0,0-.25-.26.26.26,0,0,0-.26.26A.26.26,0,0,0,45.92,137.92Z"/><path class="cls-1" d="M61.21,138.18a.51.51,0,1,0-.51-.51A.51.51,0,0,0,61.21,138.18Z"/><path class="cls-1" d="M76.5,138.47a.81.81,0,1,0,0-1.61.81.81,0,1,0,0,1.61Z"/><path class="cls-1" d="M91.79,138.73a1.06,1.06,0,1,0-1.06-1.06A1.06,1.06,0,0,0,91.79,138.73Z"/><circle class="cls-1" cx="107.08" cy="137.67" r="1.31"/><path class="cls-1" d="M122.38,139.24a1.57,1.57,0,1,0-1.57-1.57A1.57,1.57,0,0,0,122.38,139.24Z"/><circle class="cls-1" cx="137.67" cy="137.67" r="1.82"/><path class="cls-1" d="M153,139.7a2,2,0,1,0-2-2A2,2,0,0,0,153,139.7Z"/><path class="cls-1" d="M168.25,139.91a2.25,2.25,0,1,0-2.25-2.24A2.24,2.24,0,0,0,168.25,139.91Z"/><circle class="cls-1" cx="183.54" cy="137.67" r="2.42"/><circle class="cls-1" cx="198.83" cy="137.67" r="2.59"/><path class="cls-1" d="M214.13,140.38a2.72,2.72,0,1,0-2.72-2.71A2.71,2.71,0,0,0,214.13,140.38Z"/><path class="cls-1" d="M229.42,140.47a2.8,2.8,0,1,0-2.8-2.8A2.81,2.81,0,0,0,229.42,140.47Z"/><circle class="cls-1" cx="244.71" cy="137.67" r="2.88"/><circle class="cls-1" cx="260" cy="137.67" r="2.88"/><circle class="cls-1" cx="275.29" cy="137.67" r="2.88"/><path class="cls-1" d="M290.58,140.47a2.8,2.8,0,1,0-2.8-2.8A2.8,2.8,0,0,0,290.58,140.47Z"/><path class="cls-1" d="M305.87,140.38a2.72,2.72,0,1,0-2.71-2.71A2.71,2.71,0,0,0,305.87,140.38Z"/><circle class="cls-1" cx="321.17" cy="137.67" r="2.59"/><circle class="cls-1" cx="336.46" cy="137.67" r="2.42"/><path class="cls-1" d="M351.75,139.91a2.25,2.25,0,1,0-2.25-2.24A2.24,2.24,0,0,0,351.75,139.91Z"/><path class="cls-1" d="M367,139.7a2,2,0,1,0-2-2A2,2,0,0,0,367,139.7Z"/><circle class="cls-1" cx="382.33" cy="137.67" r="1.82"/><path class="cls-1" d="M397.62,139.24a1.57,1.57,0,1,0-1.56-1.57A1.57,1.57,0,0,0,397.62,139.24Z"/><path class="cls-1" d="M412.92,139a1.36,1.36,0,0,0,0-2.71,1.36,1.36,0,1,0,0,2.71Z"/><path class="cls-1" d="M428.21,138.73a1.06,1.06,0,1,0,0-2.12,1.06,1.06,0,0,0,0,2.12Z"/><path class="cls-1" d="M443.5,138.47a.81.81,0,1,0-.81-.8A.81.81,0,0,0,443.5,138.47Z"/><path class="cls-1" d="M458.79,138.22a.55.55,0,0,0,.55-.55.54.54,0,0,0-.55-.55.55.55,0,0,0-.55.55A.55.55,0,0,0,458.79,138.22Z"/><path class="cls-1" d="M474.08,137.92a.26.26,0,0,0,.26-.25.26.26,0,0,0-.26-.26.26.26,0,0,0-.25.26A.25.25,0,0,0,474.08,137.92Z"/><circle class="cls-1" cx="489.37" cy="137.67" r="0.04"/><path class="cls-1" d="M30.63,153.09a.13.13,0,0,0,0-.26.13.13,0,1,0,0,.26Z"/><path class="cls-1" d="M45.92,153.34a.38.38,0,1,0-.38-.38A.38.38,0,0,0,45.92,153.34Z"/><path class="cls-1" d="M61.21,153.64a.68.68,0,0,0,0-1.36.68.68,0,0,0,0,1.36Z"/><path class="cls-1" d="M76.5,153.93a1,1,0,1,0-1-1A1,1,0,0,0,76.5,153.93Z"/><circle class="cls-1" cx="91.79" cy="152.96" r="1.23"/><path class="cls-1" d="M107.08,154.49a1.53,1.53,0,1,0-1.52-1.53A1.53,1.53,0,0,0,107.08,154.49Z"/><circle class="cls-1" cx="122.38" cy="152.96" r="1.78"/><path class="cls-1" d="M137.67,155a2,2,0,1,0-2-2A2,2,0,0,0,137.67,155Z"/><path class="cls-1" d="M153,155.21a2.25,2.25,0,1,0-2.25-2.25A2.25,2.25,0,0,0,153,155.21Z"/><circle class="cls-1" cx="168.25" cy="152.96" r="2.5"/><circle class="cls-1" cx="183.54" cy="152.96" r="2.67"/><circle class="cls-1" cx="198.83" cy="152.96" r="2.88"/><circle class="cls-1" cx="214.13" cy="152.96" r="3.01"/><circle class="cls-1" cx="229.42" cy="152.96" r="3.14"/><circle class="cls-1" cx="244.71" cy="152.96" r="3.18"/><circle class="cls-1" cx="260" cy="152.96" r="3.22"/><circle class="cls-1" cx="275.29" cy="152.96" r="3.18"/><circle class="cls-1" cx="290.58" cy="152.96" r="3.14"/><circle class="cls-1" cx="305.87" cy="152.96" r="3.01"/><path class="cls-1" d="M321.17,155.84a2.88,2.88,0,1,0-2.89-2.88A2.88,2.88,0,0,0,321.17,155.84Z"/><path class="cls-1" d="M336.46,155.67a2.71,2.71,0,1,0-2.72-2.71A2.71,2.71,0,0,0,336.46,155.67Z"/><circle class="cls-1" cx="351.75" cy="152.96" r="2.5"/><path class="cls-1" d="M367,155.25a2.29,2.29,0,1,0-2.29-2.29A2.29,2.29,0,0,0,367,155.25Z"/><path class="cls-1" d="M382.33,155a2,2,0,1,0-2-2A2,2,0,0,0,382.33,155Z"/><circle class="cls-1" cx="397.62" cy="152.96" r="1.78"/><path class="cls-1" d="M412.92,154.49a1.53,1.53,0,1,0-1.53-1.53A1.53,1.53,0,0,0,412.92,154.49Z"/><path class="cls-1" d="M428.21,154.23a1.27,1.27,0,1,0-1.27-1.27A1.27,1.27,0,0,0,428.21,154.23Z"/><path class="cls-1" d="M443.5,153.93a1,1,0,0,0,0-2,1,1,0,1,0,0,2Z"/><path class="cls-1" d="M458.79,153.64a.68.68,0,1,0-.68-.68A.68.68,0,0,0,458.79,153.64Z"/><path class="cls-1" d="M474.08,153.38a.43.43,0,1,0-.42-.42A.42.42,0,0,0,474.08,153.38Z"/><path class="cls-1" d="M489.37,153.09a.13.13,0,0,0,0-.26.13.13,0,0,0,0,.26Z"/><path class="cls-1" d="M30.63,168.46a.21.21,0,0,0,0-.42.21.21,0,1,0,0,.42Z"/><path class="cls-1" d="M45.92,168.76a.51.51,0,1,0-.51-.51A.51.51,0,0,0,45.92,168.76Z"/><path class="cls-1" d="M61.21,169.06a.81.81,0,0,0,0-1.62.81.81,0,0,0,0,1.62Z"/><path class="cls-1" d="M76.5,169.35a1.1,1.1,0,1,0-1.1-1.1A1.1,1.1,0,0,0,76.5,169.35Z"/><path class="cls-1" d="M91.79,169.65a1.4,1.4,0,1,0-1.4-1.4A1.4,1.4,0,0,0,91.79,169.65Z"/><path class="cls-1" d="M107.08,170a1.7,1.7,0,1,0-1.69-1.7A1.7,1.7,0,0,0,107.08,170Z"/><circle class="cls-1" cx="122.38" cy="168.25" r="1.95"/><path class="cls-1" d="M137.67,170.5a2.25,2.25,0,1,0-2.25-2.25A2.24,2.24,0,0,0,137.67,170.5Z"/><circle class="cls-1" cx="152.96" cy="168.25" r="2.5"/><path class="cls-1" d="M168.25,171a2.71,2.71,0,1,0-2.71-2.71A2.71,2.71,0,0,0,168.25,171Z"/><circle class="cls-1" cx="183.54" cy="168.25" r="2.93"/><circle class="cls-1" cx="198.83" cy="168.25" r="3.14"/><circle class="cls-1" cx="214.13" cy="168.25" r="3.31"/><circle class="cls-1" cx="229.42" cy="168.25" r="3.43"/><circle class="cls-1" cx="244.71" cy="168.25" r="3.52"/><circle class="cls-1" cx="260" cy="168.25" r="3.56"/><circle class="cls-1" cx="275.29" cy="168.25" r="3.52"/><path class="cls-1" d="M290.58,171.69a3.44,3.44,0,1,0-3.43-3.44A3.44,3.44,0,0,0,290.58,171.69Z"/><path class="cls-1" d="M305.87,171.56a3.31,3.31,0,1,0-3.3-3.31A3.31,3.31,0,0,0,305.87,171.56Z"/><circle class="cls-1" cx="321.17" cy="168.25" r="3.14"/><circle class="cls-1" cx="336.46" cy="168.25" r="2.97"/><path class="cls-1" d="M351.75,171a2.76,2.76,0,1,0-2.76-2.76A2.77,2.77,0,0,0,351.75,171Z"/><circle class="cls-1" cx="367.04" cy="168.25" r="2.5"/><path class="cls-1" d="M382.33,170.5a2.25,2.25,0,1,0-2.24-2.25A2.25,2.25,0,0,0,382.33,170.5Z"/><path class="cls-1" d="M397.62,170.24a2,2,0,1,0-2-2A2,2,0,0,0,397.62,170.24Z"/><path class="cls-1" d="M412.92,170a1.7,1.7,0,1,0-1.7-1.7A1.7,1.7,0,0,0,412.92,170Z"/><path class="cls-1" d="M428.21,169.69a1.44,1.44,0,1,0-1.44-1.44A1.44,1.44,0,0,0,428.21,169.69Z"/><path class="cls-1" d="M443.5,169.4a1.15,1.15,0,1,0-1.15-1.15A1.15,1.15,0,0,0,443.5,169.4Z"/><path class="cls-1" d="M458.79,169.1a.85.85,0,1,0-.85-.85A.85.85,0,0,0,458.79,169.1Z"/><path class="cls-1" d="M474.08,168.8a.55.55,0,1,0,0-1.1.55.55,0,1,0,0,1.1Z"/><path class="cls-1" d="M489.37,168.5a.25.25,0,1,0,0-.5.25.25,0,0,0,0,.5Z"/><path class="cls-1" d="M15.33,183.58s.05,0,.05,0a0,0,0,0,0-.05,0,0,0,0,0,0,0,0A0,0,0,0,0,15.33,183.58Z"/><path class="cls-1" d="M30.63,183.88a.34.34,0,1,0-.34-.34A.34.34,0,0,0,30.63,183.88Z"/><path class="cls-1" d="M45.92,184.18a.64.64,0,0,0,.63-.64.63.63,0,0,0-.63-.63.64.64,0,0,0-.64.63A.64.64,0,0,0,45.92,184.18Z"/><path class="cls-1" d="M61.21,184.48a.94.94,0,1,0-.93-.94A.94.94,0,0,0,61.21,184.48Z"/><circle class="cls-1" cx="76.5" cy="183.54" r="1.27"/><path class="cls-1" d="M91.79,185.11a1.57,1.57,0,1,0-1.57-1.57A1.57,1.57,0,0,0,91.79,185.11Z"/><circle class="cls-1" cx="107.08" cy="183.54" r="1.87"/><path class="cls-1" d="M122.38,185.66a2.12,2.12,0,1,0-2.12-2.12A2.12,2.12,0,0,0,122.38,185.66Z"/><circle class="cls-1" cx="137.67" cy="183.54" r="2.42"/><path class="cls-1" d="M153,186.21a2.67,2.67,0,1,0-2.67-2.67A2.67,2.67,0,0,0,153,186.21Z"/><circle class="cls-1" cx="168.25" cy="183.54" r="2.93"/><circle class="cls-1" cx="183.54" cy="183.54" r="3.18"/><path class="cls-1" d="M198.83,186.93a3.39,3.39,0,1,0-3.39-3.39A3.39,3.39,0,0,0,198.83,186.93Z"/><circle class="cls-1" cx="214.13" cy="183.54" r="3.6"/><circle class="cls-1" cx="229.42" cy="183.54" r="3.73"/><circle class="cls-1" cx="244.71" cy="183.54" r="3.82"/><circle class="cls-1" cx="260" cy="183.54" r="3.86"/><circle class="cls-1" cx="275.29" cy="183.54" r="3.86"/><circle class="cls-1" cx="290.58" cy="183.54" r="3.73"/><circle class="cls-1" cx="305.87" cy="183.54" r="3.6"/><path class="cls-1" d="M321.17,187a3.44,3.44,0,1,0-3.44-3.44A3.44,3.44,0,0,0,321.17,187Z"/><circle class="cls-1" cx="336.46" cy="183.54" r="3.18"/><circle class="cls-1" cx="351.75" cy="183.54" r="2.97"/><path class="cls-1" d="M367,186.26a2.72,2.72,0,1,0-2.71-2.72A2.72,2.72,0,0,0,367,186.26Z"/><circle class="cls-1" cx="382.33" cy="183.54" r="2.46"/><path class="cls-1" d="M397.62,185.7a2.16,2.16,0,1,0-2.16-2.16A2.16,2.16,0,0,0,397.62,185.7Z"/><circle class="cls-1" cx="412.92" cy="183.54" r="1.87"/><path class="cls-1" d="M428.21,185.11a1.57,1.57,0,1,0-1.57-1.57A1.57,1.57,0,0,0,428.21,185.11Z"/><path class="cls-1" d="M443.5,184.81a1.27,1.27,0,1,0-1.27-1.27A1.27,1.27,0,0,0,443.5,184.81Z"/><path class="cls-1" d="M458.79,184.52a1,1,0,1,0,0-2,1,1,0,0,0,0,2Z"/><path class="cls-1" d="M474.08,184.22a.68.68,0,1,0,0-1.36.68.68,0,1,0,0,1.36Z"/><path class="cls-1" d="M489.37,183.88a.34.34,0,1,0-.33-.34A.34.34,0,0,0,489.37,183.88Z"/><path class="cls-1" d="M504.67,183.63a.09.09,0,0,0,.08-.09.09.09,0,0,0-.08-.08.09.09,0,0,0-.09.08A.09.09,0,0,0,504.67,183.63Z"/><path class="cls-1" d="M15.33,199a.13.13,0,0,0,.13-.13.12.12,0,0,0-.13-.12.12.12,0,0,0-.12.12A.12.12,0,0,0,15.33,199Z"/><path class="cls-1" d="M30.63,199.26a.43.43,0,1,0-.43-.43A.42.42,0,0,0,30.63,199.26Z"/><path class="cls-1" d="M45.92,199.55a.72.72,0,1,0-.72-.72A.72.72,0,0,0,45.92,199.55Z"/><path class="cls-1" d="M61.21,199.89a1.06,1.06,0,1,0-1.06-1.06A1.06,1.06,0,0,0,61.21,199.89Z"/><path class="cls-1" d="M76.5,200.19a1.36,1.36,0,1,0-1.36-1.36A1.36,1.36,0,0,0,76.5,200.19Z"/><path class="cls-1" d="M91.79,200.53a1.7,1.7,0,1,0-1.69-1.7A1.7,1.7,0,0,0,91.79,200.53Z"/><path class="cls-1" d="M107.08,200.83a2,2,0,1,0-2-2A2,2,0,0,0,107.08,200.83Z"/><path class="cls-1" d="M122.38,201.12a2.29,2.29,0,1,0-2.29-2.29A2.29,2.29,0,0,0,122.38,201.12Z"/><circle class="cls-1" cx="137.67" cy="198.83" r="2.59"/><path class="cls-1" d="M153,201.72a2.89,2.89,0,1,0-2.88-2.89A2.88,2.88,0,0,0,153,201.72Z"/><circle class="cls-1" cx="168.25" cy="198.83" r="3.14"/><path class="cls-1" d="M183.54,202.23a3.4,3.4,0,1,0-3.39-3.4A3.39,3.39,0,0,0,183.54,202.23Z"/><circle class="cls-1" cx="198.83" cy="198.83" r="3.65"/><circle class="cls-1" cx="214.13" cy="198.83" r="3.86"/><path class="cls-1" d="M229.42,202.86a4,4,0,1,0-4-4A4,4,0,0,0,229.42,202.86Z"/><circle class="cls-1" cx="244.71" cy="198.83" r="4.16"/><circle class="cls-1" cx="260" cy="198.83" r="4.2"/><circle class="cls-1" cx="275.29" cy="198.83" r="4.16"/><path class="cls-1" d="M290.58,202.86a4,4,0,1,0-4-4A4,4,0,0,0,290.58,202.86Z"/><circle class="cls-1" cx="305.87" cy="198.83" r="3.86"/><circle class="cls-1" cx="321.17" cy="198.83" r="3.69"/><path class="cls-1" d="M336.46,202.27a3.44,3.44,0,1,0-3.44-3.44A3.43,3.43,0,0,0,336.46,202.27Z"/><circle class="cls-1" cx="351.75" cy="198.83" r="3.14"/><path class="cls-1" d="M367,201.72a2.89,2.89,0,1,0-2.88-2.89A2.88,2.88,0,0,0,367,201.72Z"/><path class="cls-1" d="M382.33,201.42a2.59,2.59,0,1,0-2.58-2.59A2.59,2.59,0,0,0,382.33,201.42Z"/><path class="cls-1" d="M397.62,201.12a2.29,2.29,0,1,0-2.29-2.29A2.28,2.28,0,0,0,397.62,201.12Z"/><path class="cls-1" d="M412.92,200.83a2,2,0,1,0-2-2A2,2,0,0,0,412.92,200.83Z"/><path class="cls-1" d="M428.21,200.53a1.7,1.7,0,1,0-1.7-1.7A1.7,1.7,0,0,0,428.21,200.53Z"/><path class="cls-1" d="M443.5,200.23a1.4,1.4,0,1,0-1.4-1.4A1.4,1.4,0,0,0,443.5,200.23Z"/><path class="cls-1" d="M458.79,199.89a1.06,1.06,0,1,0,0-2.12,1.06,1.06,0,0,0,0,2.12Z"/><path class="cls-1" d="M474.08,199.6a.77.77,0,1,0,0-1.53.77.77,0,0,0,0,1.53Z"/><path class="cls-1" d="M489.37,199.3a.47.47,0,1,0-.46-.47A.47.47,0,0,0,489.37,199.3Z"/><path class="cls-1" d="M504.67,199a.12.12,0,0,0,.12-.13.12.12,0,0,0-.12-.12.12.12,0,0,0-.13.12A.13.13,0,0,0,504.67,199Z"/><path class="cls-1" d="M15.33,214.34a.22.22,0,1,0-.21-.21A.22.22,0,0,0,15.33,214.34Z"/><path class="cls-1" d="M30.63,214.63a.51.51,0,1,0-.51-.5A.5.5,0,0,0,30.63,214.63Z"/><path class="cls-1" d="M45.92,214.93a.81.81,0,1,0-.81-.8A.8.8,0,0,0,45.92,214.93Z"/><path class="cls-1" d="M61.21,215.27a1.15,1.15,0,1,0-1.15-1.14A1.14,1.14,0,0,0,61.21,215.27Z"/><path class="cls-1" d="M76.5,215.61A1.49,1.49,0,1,0,75,214.13,1.48,1.48,0,0,0,76.5,215.61Z"/><circle class="cls-1" cx="91.79" cy="214.13" r="1.78"/><path class="cls-1" d="M107.08,216.2a2.08,2.08,0,1,0-2.07-2.07A2.08,2.08,0,0,0,107.08,216.2Z"/><circle class="cls-1" cx="122.38" cy="214.13" r="2.42"/><path class="cls-1" d="M137.67,216.84a2.72,2.72,0,1,0-2.72-2.71A2.71,2.71,0,0,0,137.67,216.84Z"/><circle class="cls-1" cx="152.96" cy="214.13" r="3.01"/><path class="cls-1" d="M168.25,217.43a3.31,3.31,0,1,0-3.31-3.3A3.31,3.31,0,0,0,168.25,217.43Z"/><circle class="cls-1" cx="183.54" cy="214.13" r="3.6"/><circle class="cls-1" cx="198.83" cy="214.13" r="3.86"/><circle class="cls-1" cx="214.13" cy="214.13" r="4.11"/><circle class="cls-1" cx="229.42" cy="214.13" r="4.33"/><circle class="cls-1" cx="244.71" cy="214.13" r="4.45"/><circle class="cls-1" cx="260" cy="214.13" r="4.54"/><circle class="cls-1" cx="275.29" cy="214.13" r="4.45"/><circle class="cls-1" cx="290.58" cy="214.13" r="4.33"/><circle class="cls-1" cx="305.87" cy="214.13" r="4.11"/><path class="cls-1" d="M321.17,218a3.91,3.91,0,1,0-3.9-3.9A3.91,3.91,0,0,0,321.17,218Z"/><circle class="cls-1" cx="336.46" cy="214.13" r="3.6"/><path class="cls-1" d="M351.75,217.43a3.31,3.31,0,1,0-3.31-3.3A3.31,3.31,0,0,0,351.75,217.43Z"/><circle class="cls-1" cx="367.04" cy="214.13" r="3.01"/><path class="cls-1" d="M382.33,216.84a2.72,2.72,0,1,0-2.71-2.71A2.72,2.72,0,0,0,382.33,216.84Z"/><circle class="cls-1" cx="397.62" cy="214.13" r="2.42"/><path class="cls-1" d="M412.92,216.25a2.12,2.12,0,1,0-2.12-2.12A2.12,2.12,0,0,0,412.92,216.25Z"/><path class="cls-1" d="M428.21,215.91a1.79,1.79,0,1,0-1.78-1.78A1.78,1.78,0,0,0,428.21,215.91Z"/><path class="cls-1" d="M443.5,215.61a1.49,1.49,0,1,0-1.48-1.48A1.48,1.48,0,0,0,443.5,215.61Z"/><path class="cls-1" d="M458.79,215.31a1.19,1.19,0,1,0-1.19-1.18A1.18,1.18,0,0,0,458.79,215.31Z"/><path class="cls-1" d="M474.08,215a.85.85,0,1,0-.85-.84A.85.85,0,0,0,474.08,215Z"/><path class="cls-1" d="M489.37,214.63a.51.51,0,1,0-.5-.5A.5.5,0,0,0,489.37,214.63Z"/><path class="cls-1" d="M504.67,214.34a.22.22,0,0,0,0-.43.22.22,0,1,0,0,.43Z"/><path class="cls-1" d="M15.33,229.67a.26.26,0,0,0,.26-.25.26.26,0,0,0-.26-.26.26.26,0,0,0-.25.26A.25.25,0,0,0,15.33,229.67Z"/><path class="cls-1" d="M30.63,230a.55.55,0,0,0,.55-.55.56.56,0,0,0-1.11,0A.56.56,0,0,0,30.63,230Z"/><path class="cls-1" d="M45.92,230.31a.89.89,0,1,0-.89-.89A.89.89,0,0,0,45.92,230.31Z"/><circle class="cls-1" cx="61.21" cy="229.42" r="1.23"/><path class="cls-1" d="M76.5,230.94A1.53,1.53,0,1,0,75,229.42,1.53,1.53,0,0,0,76.5,230.94Z"/><circle class="cls-1" cx="91.79" cy="229.42" r="1.87"/><path class="cls-1" d="M107.08,231.58a2.17,2.17,0,1,0-2.16-2.16A2.17,2.17,0,0,0,107.08,231.58Z"/><circle class="cls-1" cx="122.38" cy="229.42" r="2.5"/><path class="cls-1" d="M137.67,232.22a2.8,2.8,0,1,0-2.8-2.8A2.81,2.81,0,0,0,137.67,232.22Z"/><circle class="cls-1" cx="152.96" cy="229.42" r="3.14"/><path class="cls-1" d="M168.25,232.85a3.44,3.44,0,1,0-3.43-3.43A3.43,3.43,0,0,0,168.25,232.85Z"/><circle class="cls-1" cx="183.54" cy="229.42" r="3.73"/><path class="cls-1" d="M198.83,233.45a4,4,0,1,0-4-4A4,4,0,0,0,198.83,233.45Z"/><circle class="cls-1" cx="214.13" cy="229.42" r="4.33"/><path class="cls-1" d="M229.42,234a4.58,4.58,0,1,0-4.58-4.58A4.58,4.58,0,0,0,229.42,234Z"/><circle class="cls-1" cx="244.71" cy="229.42" r="4.75"/><circle class="cls-1" cx="260" cy="229.42" r="4.83"/><circle class="cls-1" cx="275.29" cy="229.42" r="4.79"/><path class="cls-1" d="M290.58,234a4.58,4.58,0,1,0-4.58-4.58A4.58,4.58,0,0,0,290.58,234Z"/><circle class="cls-1" cx="305.87" cy="229.42" r="4.33"/><path class="cls-1" d="M321.17,233.45a4,4,0,1,0-4-4A4,4,0,0,0,321.17,233.45Z"/><circle class="cls-1" cx="336.46" cy="229.42" r="3.77"/><path class="cls-1" d="M351.75,232.89a3.48,3.48,0,1,0-3.48-3.47A3.47,3.47,0,0,0,351.75,232.89Z"/><circle class="cls-1" cx="367.04" cy="229.42" r="3.14"/><path class="cls-1" d="M382.33,232.26a2.84,2.84,0,1,0-2.84-2.84A2.84,2.84,0,0,0,382.33,232.26Z"/><circle class="cls-1" cx="397.62" cy="229.42" r="2.5"/><path class="cls-1" d="M412.92,231.62a2.21,2.21,0,1,0-2.21-2.2A2.21,2.21,0,0,0,412.92,231.62Z"/><circle class="cls-1" cx="428.21" cy="229.42" r="1.87"/><path class="cls-1" d="M443.5,231a1.57,1.57,0,1,0-1.57-1.57A1.57,1.57,0,0,0,443.5,231Z"/><circle class="cls-1" cx="458.79" cy="229.42" r="1.23"/><path class="cls-1" d="M474.08,230.31a.89.89,0,1,0-.89-.89A.89.89,0,0,0,474.08,230.31Z"/><circle class="cls-1" cx="489.37" cy="229.42" r="0.59"/><path class="cls-1" d="M504.67,229.67a.25.25,0,0,0,.25-.25.26.26,0,0,0-.25-.26.26.26,0,0,0-.26.26A.26.26,0,0,0,504.67,229.67Z"/><circle class="cls-1" cx="0.04" cy="244.71" r="0.04"/><path class="cls-1" d="M15.33,245a.26.26,0,0,0,.26-.25.26.26,0,0,0-.26-.26.26.26,0,0,0-.25.26A.25.25,0,0,0,15.33,245Z"/><path class="cls-1" d="M30.63,245.3a.59.59,0,0,0,.59-.59.6.6,0,1,0-1.19,0A.59.59,0,0,0,30.63,245.3Z"/><path class="cls-1" d="M45.92,245.6a.89.89,0,1,0-.89-.89A.89.89,0,0,0,45.92,245.6Z"/><circle class="cls-1" cx="61.21" cy="244.71" r="1.23"/><path class="cls-1" d="M76.5,246.28a1.57,1.57,0,1,0-1.57-1.57A1.57,1.57,0,0,0,76.5,246.28Z"/><circle class="cls-1" cx="91.79" cy="244.71" r="1.91"/><path class="cls-1" d="M107.08,246.91a2.21,2.21,0,1,0-2.2-2.2A2.2,2.2,0,0,0,107.08,246.91Z"/><circle class="cls-1" cx="122.38" cy="244.71" r="2.54"/><path class="cls-1" d="M137.67,247.59a2.88,2.88,0,1,0-2.89-2.88A2.88,2.88,0,0,0,137.67,247.59Z"/><circle class="cls-1" cx="152.96" cy="244.71" r="3.18"/><circle class="cls-1" cx="168.25" cy="244.71" r="3.52"/><circle class="cls-1" cx="183.54" cy="244.71" r="3.82"/><circle class="cls-1" cx="198.83" cy="244.71" r="4.16"/><circle class="cls-1" cx="214.13" cy="244.71" r="4.45"/><circle class="cls-1" cx="229.42" cy="244.71" r="4.75"/><circle class="cls-1" cx="244.71" cy="244.71" r="5"/><path class="cls-1" d="M260,249.88a5.17,5.17,0,1,0-5.17-5.17A5.16,5.16,0,0,0,260,249.88Z"/><circle class="cls-1" cx="275.29" cy="244.71" r="5.05"/><circle class="cls-1" cx="290.58" cy="244.71" r="4.79"/><circle class="cls-1" cx="305.87" cy="244.71" r="4.49"/><circle class="cls-1" cx="321.17" cy="244.71" r="4.16"/><circle class="cls-1" cx="336.46" cy="244.71" r="3.86"/><path class="cls-1" d="M351.75,248.23a3.52,3.52,0,1,0-3.52-3.52A3.53,3.53,0,0,0,351.75,248.23Z"/><path class="cls-1" d="M367,247.93a3.22,3.22,0,1,0-3.22-3.22A3.22,3.22,0,0,0,367,247.93Z"/><path class="cls-1" d="M382.33,247.59a2.88,2.88,0,1,0-2.88-2.88A2.88,2.88,0,0,0,382.33,247.59Z"/><path class="cls-1" d="M397.62,247.3a2.59,2.59,0,1,0-2.58-2.59A2.59,2.59,0,0,0,397.62,247.3Z"/><path class="cls-1" d="M412.92,247a2.25,2.25,0,1,0-2.25-2.25A2.24,2.24,0,0,0,412.92,247Z"/><path class="cls-1" d="M428.21,246.62a1.91,1.91,0,1,0-1.91-1.91A1.92,1.92,0,0,0,428.21,246.62Z"/><path class="cls-1" d="M443.5,246.32a1.61,1.61,0,1,0-1.61-1.61A1.61,1.61,0,0,0,443.5,246.32Z"/><path class="cls-1" d="M458.79,246a1.27,1.27,0,1,0-1.27-1.27A1.27,1.27,0,0,0,458.79,246Z"/><path class="cls-1" d="M474.08,245.64a.93.93,0,1,0-.93-.93A.94.94,0,0,0,474.08,245.64Z"/><circle class="cls-1" cx="489.37" cy="244.71" r="0.64"/><path class="cls-1" d="M504.67,245a.3.3,0,0,0,.29-.3.3.3,0,1,0-.59,0A.3.3,0,0,0,504.67,245Z"/><circle class="cls-1" cx="519.96" cy="244.71" r="0.04"/><circle class="cls-1" cx="0.04" cy="260" r="0.04"/><path class="cls-1" d="M15.33,260.3A.3.3,0,1,0,15,260,.3.3,0,0,0,15.33,260.3Z"/><path class="cls-1" d="M30.63,260.59A.59.59,0,1,0,30,260,.59.59,0,0,0,30.63,260.59Z"/><path class="cls-1" d="M45.92,260.93A.93.93,0,1,0,45,260,.93.93,0,0,0,45.92,260.93Z"/><path class="cls-1" d="M61.21,261.27A1.27,1.27,0,1,0,59.94,260,1.27,1.27,0,0,0,61.21,261.27Z"/><path class="cls-1" d="M76.5,261.57A1.57,1.57,0,1,0,74.93,260,1.57,1.57,0,0,0,76.5,261.57Z"/><circle class="cls-1" cx="91.79" cy="260" r="1.91"/><path class="cls-1" d="M107.08,262.25a2.25,2.25,0,1,0-2.24-2.25A2.25,2.25,0,0,0,107.08,262.25Z"/><circle class="cls-1" cx="122.38" cy="260" r="2.54"/><path class="cls-1" d="M137.67,262.88a2.88,2.88,0,1,0-2.89-2.88A2.88,2.88,0,0,0,137.67,262.88Z"/><circle class="cls-1" cx="152.96" cy="260" r="3.22"/><circle class="cls-1" cx="168.25" cy="260" r="3.56"/><circle class="cls-1" cx="183.54" cy="260" r="3.86"/><circle class="cls-1" cx="198.83" cy="260" r="4.2"/><path class="cls-1" d="M214.13,264.54a4.54,4.54,0,1,0-4.54-4.54A4.53,4.53,0,0,0,214.13,264.54Z"/><circle class="cls-1" cx="229.42" cy="260" r="4.83"/><path class="cls-1" d="M244.71,265.17a5.17,5.17,0,1,0-5.17-5.17A5.16,5.16,0,0,0,244.71,265.17Z"/><circle class="cls-1" cx="260" cy="260" r="5.39"/><path class="cls-1" d="M275.29,265.17a5.17,5.17,0,1,0-5.17-5.17A5.16,5.16,0,0,0,275.29,265.17Z"/><circle class="cls-1" cx="290.58" cy="260" r="4.88"/><path class="cls-1" d="M305.87,264.54a4.54,4.54,0,1,0-4.53-4.54A4.54,4.54,0,0,0,305.87,264.54Z"/><circle class="cls-1" cx="321.17" cy="260" r="4.2"/><path class="cls-1" d="M336.46,263.9a3.9,3.9,0,1,0-3.9-3.9A3.91,3.91,0,0,0,336.46,263.9Z"/><circle class="cls-1" cx="351.75" cy="260" r="3.56"/><path class="cls-1" d="M367,263.22a3.22,3.22,0,1,0-3.22-3.22A3.22,3.22,0,0,0,367,263.22Z"/><path class="cls-1" d="M382.33,262.93a2.93,2.93,0,1,0-2.92-2.93A2.93,2.93,0,0,0,382.33,262.93Z"/><path class="cls-1" d="M397.62,262.59A2.59,2.59,0,1,0,395,260,2.59,2.59,0,0,0,397.62,262.59Z"/><path class="cls-1" d="M412.92,262.25a2.25,2.25,0,1,0-2.25-2.25A2.24,2.24,0,0,0,412.92,262.25Z"/><path class="cls-1" d="M428.21,262a1.95,1.95,0,1,0-1.95-1.95A1.95,1.95,0,0,0,428.21,262Z"/><path class="cls-1" d="M443.5,261.61a1.61,1.61,0,1,0-1.61-1.61A1.61,1.61,0,0,0,443.5,261.61Z"/><path class="cls-1" d="M458.79,261.27a1.27,1.27,0,1,0-1.27-1.27A1.27,1.27,0,0,0,458.79,261.27Z"/><path class="cls-1" d="M474.08,260.93a.93.93,0,1,0-.93-.93A.93.93,0,0,0,474.08,260.93Z"/><circle class="cls-1" cx="489.37" cy="260" r="0.64"/><path class="cls-1" d="M504.67,260.3a.3.3,0,1,0-.3-.3A.3.3,0,0,0,504.67,260.3Z"/><circle class="cls-1" cx="519.96" cy="260" r="0.04"/><circle class="cls-1" cx="0.04" cy="275.29" r="0.04"/><path class="cls-1" d="M15.33,275.55a.26.26,0,0,0,.26-.26.26.26,0,0,0-.26-.25.25.25,0,0,0-.25.25A.26.26,0,0,0,15.33,275.55Z"/><path class="cls-1" d="M30.63,275.89a.6.6,0,0,0,.59-.6.6.6,0,0,0-1.19,0A.6.6,0,0,0,30.63,275.89Z"/><path class="cls-1" d="M45.92,276.18a.89.89,0,1,0-.89-.89A.89.89,0,0,0,45.92,276.18Z"/><circle class="cls-1" cx="61.21" cy="275.29" r="1.23"/><path class="cls-1" d="M76.5,276.86a1.57,1.57,0,1,0-1.57-1.57A1.57,1.57,0,0,0,76.5,276.86Z"/><circle class="cls-1" cx="91.79" cy="275.29" r="1.91"/><path class="cls-1" d="M107.08,277.5a2.21,2.21,0,1,0-2.2-2.21A2.21,2.21,0,0,0,107.08,277.5Z"/><circle class="cls-1" cx="122.38" cy="275.29" r="2.54"/><path class="cls-1" d="M137.67,278.18a2.89,2.89,0,1,0-2.89-2.89A2.89,2.89,0,0,0,137.67,278.18Z"/><circle class="cls-1" cx="152.96" cy="275.29" r="3.18"/><circle class="cls-1" cx="168.25" cy="275.29" r="3.52"/><circle class="cls-1" cx="183.54" cy="275.29" r="3.86"/><circle class="cls-1" cx="198.83" cy="275.29" r="4.16"/><circle class="cls-1" cx="214.13" cy="275.29" r="4.45"/><circle class="cls-1" cx="229.42" cy="275.29" r="4.79"/><circle class="cls-1" cx="244.71" cy="275.29" r="5.05"/><path class="cls-1" d="M260,280.47a5.18,5.18,0,1,0-5.17-5.18A5.17,5.17,0,0,0,260,280.47Z"/><circle class="cls-1" cx="275.29" cy="275.29" r="5.05"/><circle class="cls-1" cx="290.58" cy="275.29" r="4.79"/><circle class="cls-1" cx="305.87" cy="275.29" r="4.49"/><circle class="cls-1" cx="321.17" cy="275.29" r="4.16"/><circle class="cls-1" cx="336.46" cy="275.29" r="3.86"/><circle class="cls-1" cx="351.75" cy="275.29" r="3.56"/><path class="cls-1" d="M367,278.51a3.22,3.22,0,1,0-3.22-3.22A3.22,3.22,0,0,0,367,278.51Z"/><path class="cls-1" d="M382.33,278.18a2.89,2.89,0,1,0-2.88-2.89A2.89,2.89,0,0,0,382.33,278.18Z"/><path class="cls-1" d="M397.62,277.88a2.59,2.59,0,1,0-2.58-2.59A2.59,2.59,0,0,0,397.62,277.88Z"/><path class="cls-1" d="M412.92,277.54a2.25,2.25,0,1,0-2.25-2.25A2.24,2.24,0,0,0,412.92,277.54Z"/><path class="cls-1" d="M428.21,277.2a1.91,1.91,0,1,0-1.91-1.91A1.91,1.91,0,0,0,428.21,277.2Z"/><path class="cls-1" d="M443.5,276.9a1.61,1.61,0,1,0-1.61-1.61A1.61,1.61,0,0,0,443.5,276.9Z"/><path class="cls-1" d="M458.79,276.56a1.27,1.27,0,1,0-1.27-1.27A1.27,1.27,0,0,0,458.79,276.56Z"/><path class="cls-1" d="M474.08,276.22a.93.93,0,1,0-.93-.93A.93.93,0,0,0,474.08,276.22Z"/><circle class="cls-1" cx="489.37" cy="275.29" r="0.64"/><path class="cls-1" d="M504.67,275.59a.29.29,0,0,0,.29-.3.3.3,0,1,0-.59,0A.29.29,0,0,0,504.67,275.59Z"/><circle class="cls-1" cx="519.96" cy="275.29" r="0.04"/><path class="cls-1" d="M15.33,290.84a.26.26,0,0,0,.26-.26.26.26,0,0,0-.26-.25.25.25,0,0,0-.25.25A.26.26,0,0,0,15.33,290.84Z"/><path class="cls-1" d="M30.63,291.13a.55.55,0,0,0,.55-.55.56.56,0,1,0-.55.55Z"/><path class="cls-1" d="M45.92,291.47a.89.89,0,1,0-.89-.89A.89.89,0,0,0,45.92,291.47Z"/><circle class="cls-1" cx="61.21" cy="290.58" r="1.23"/><path class="cls-1" d="M76.5,292.11A1.53,1.53,0,1,0,75,290.58,1.53,1.53,0,0,0,76.5,292.11Z"/><circle class="cls-1" cx="91.79" cy="290.58" r="1.87"/><path class="cls-1" d="M107.08,292.75a2.17,2.17,0,1,0-2.16-2.17A2.17,2.17,0,0,0,107.08,292.75Z"/><circle class="cls-1" cx="122.38" cy="290.58" r="2.5"/><path class="cls-1" d="M137.67,293.38a2.8,2.8,0,1,0-2.8-2.8A2.8,2.8,0,0,0,137.67,293.38Z"/><circle class="cls-1" cx="152.96" cy="290.58" r="3.14"/><path class="cls-1" d="M168.25,294a3.44,3.44,0,1,0-3.43-3.44A3.43,3.43,0,0,0,168.25,294Z"/><circle class="cls-1" cx="183.54" cy="290.58" r="3.73"/><path class="cls-1" d="M198.83,294.61a4,4,0,1,0-4-4A4,4,0,0,0,198.83,294.61Z"/><circle class="cls-1" cx="214.13" cy="290.58" r="4.33"/><path class="cls-1" d="M229.42,295.16a4.58,4.58,0,1,0-4.58-4.58A4.58,4.58,0,0,0,229.42,295.16Z"/><circle class="cls-1" cx="244.71" cy="290.58" r="4.79"/><circle class="cls-1" cx="260" cy="290.58" r="4.88"/><circle class="cls-1" cx="275.29" cy="290.58" r="4.79"/><path class="cls-1" d="M290.58,295.21a4.63,4.63,0,1,0-4.62-4.63A4.63,4.63,0,0,0,290.58,295.21Z"/><circle class="cls-1" cx="305.87" cy="290.58" r="4.33"/><path class="cls-1" d="M321.17,294.65a4.07,4.07,0,1,0-4.07-4.07A4.07,4.07,0,0,0,321.17,294.65Z"/><circle class="cls-1" cx="336.46" cy="290.58" r="3.77"/><path class="cls-1" d="M351.75,294.06a3.48,3.48,0,1,0-3.48-3.48A3.48,3.48,0,0,0,351.75,294.06Z"/><circle class="cls-1" cx="367.04" cy="290.58" r="3.14"/><path class="cls-1" d="M382.33,293.42a2.84,2.84,0,1,0-2.84-2.84A2.84,2.84,0,0,0,382.33,293.42Z"/><circle class="cls-1" cx="397.62" cy="290.58" r="2.5"/><path class="cls-1" d="M412.92,292.79a2.21,2.21,0,1,0-2.21-2.21A2.21,2.21,0,0,0,412.92,292.79Z"/><circle class="cls-1" cx="428.21" cy="290.58" r="1.87"/><path class="cls-1" d="M443.5,292.15a1.57,1.57,0,1,0-1.57-1.57A1.57,1.57,0,0,0,443.5,292.15Z"/><circle class="cls-1" cx="458.79" cy="290.58" r="1.23"/><path class="cls-1" d="M474.08,291.47a.89.89,0,1,0-.89-.89A.89.89,0,0,0,474.08,291.47Z"/><circle class="cls-1" cx="489.37" cy="290.58" r="0.59"/><path class="cls-1" d="M504.67,290.84a.26.26,0,0,0,.25-.26.25.25,0,0,0-.25-.25.26.26,0,0,0-.26.25A.26.26,0,0,0,504.67,290.84Z"/><path class="cls-1" d="M15.33,306.09a.22.22,0,1,0-.21-.21A.22.22,0,0,0,15.33,306.09Z"/><path class="cls-1" d="M30.63,306.38a.51.51,0,1,0-.51-.5A.5.5,0,0,0,30.63,306.38Z"/><path class="cls-1" d="M45.92,306.68a.81.81,0,1,0-.81-.8A.8.8,0,0,0,45.92,306.68Z"/><path class="cls-1" d="M61.21,307a1.15,1.15,0,1,0-1.15-1.14A1.14,1.14,0,0,0,61.21,307Z"/><path class="cls-1" d="M76.5,307.36A1.49,1.49,0,1,0,75,305.88,1.48,1.48,0,0,0,76.5,307.36Z"/><circle class="cls-1" cx="91.79" cy="305.88" r="1.78"/><path class="cls-1" d="M107.08,308a2.08,2.08,0,1,0-2.07-2.07A2.08,2.08,0,0,0,107.08,308Z"/><circle class="cls-1" cx="122.38" cy="305.88" r="2.42"/><path class="cls-1" d="M137.67,308.59a2.72,2.72,0,1,0-2.72-2.71A2.71,2.71,0,0,0,137.67,308.59Z"/><circle class="cls-1" cx="152.96" cy="305.88" r="3.01"/><path class="cls-1" d="M168.25,309.18a3.31,3.31,0,1,0-3.31-3.3A3.31,3.31,0,0,0,168.25,309.18Z"/><circle class="cls-1" cx="183.54" cy="305.88" r="3.6"/><path class="cls-1" d="M198.83,309.73a3.86,3.86,0,1,0-3.86-3.85A3.85,3.85,0,0,0,198.83,309.73Z"/><path class="cls-1" d="M214.13,310a4.12,4.12,0,1,0-4.12-4.11A4.11,4.11,0,0,0,214.13,310Z"/><circle class="cls-1" cx="229.42" cy="305.88" r="4.33"/><path class="cls-1" d="M244.71,310.37a4.5,4.5,0,1,0-4.5-4.49A4.49,4.49,0,0,0,244.71,310.37Z"/><path class="cls-1" d="M260,310.41a4.54,4.54,0,1,0-4.54-4.53A4.53,4.53,0,0,0,260,310.41Z"/><path class="cls-1" d="M275.29,310.37a4.5,4.5,0,1,0-4.49-4.49A4.5,4.5,0,0,0,275.29,310.37Z"/><circle class="cls-1" cx="290.58" cy="305.88" r="4.33"/><path class="cls-1" d="M305.87,310a4.12,4.12,0,1,0-4.11-4.11A4.11,4.11,0,0,0,305.87,310Z"/><path class="cls-1" d="M321.17,309.78a3.91,3.91,0,1,0-3.9-3.9A3.91,3.91,0,0,0,321.17,309.78Z"/><circle class="cls-1" cx="336.46" cy="305.88" r="3.6"/><path class="cls-1" d="M351.75,309.22a3.35,3.35,0,1,0-3.35-3.34A3.34,3.34,0,0,0,351.75,309.22Z"/><circle class="cls-1" cx="367.04" cy="305.88" r="3.05"/><path class="cls-1" d="M382.33,308.63a2.76,2.76,0,1,0-2.75-2.75A2.75,2.75,0,0,0,382.33,308.63Z"/><circle class="cls-1" cx="397.62" cy="305.88" r="2.42"/><path class="cls-1" d="M412.92,308a2.13,2.13,0,1,0-2.12-2.12A2.12,2.12,0,0,0,412.92,308Z"/><path class="cls-1" d="M428.21,307.66a1.79,1.79,0,1,0-1.78-1.78A1.78,1.78,0,0,0,428.21,307.66Z"/><path class="cls-1" d="M443.5,307.36a1.49,1.49,0,1,0-1.48-1.48A1.48,1.48,0,0,0,443.5,307.36Z"/><path class="cls-1" d="M458.79,307.06a1.19,1.19,0,1,0-1.19-1.18A1.18,1.18,0,0,0,458.79,307.06Z"/><path class="cls-1" d="M474.08,306.72a.85.85,0,1,0-.85-.84A.85.85,0,0,0,474.08,306.72Z"/><path class="cls-1" d="M489.37,306.43a.56.56,0,1,0-.55-.55A.56.56,0,0,0,489.37,306.43Z"/><path class="cls-1" d="M504.67,306.09a.22.22,0,0,0,0-.43.22.22,0,1,0,0,.43Z"/><path class="cls-1" d="M15.33,321.29a.12.12,0,0,0,.13-.12.13.13,0,0,0-.13-.13.12.12,0,0,0-.12.13A.12.12,0,0,0,15.33,321.29Z"/><path class="cls-1" d="M30.63,321.59a.43.43,0,0,0,0-.85.43.43,0,1,0,0,.85Z"/><path class="cls-1" d="M45.92,321.93a.76.76,0,0,0,.76-.76.77.77,0,0,0-.76-.77.78.78,0,0,0-.77.77A.77.77,0,0,0,45.92,321.93Z"/><path class="cls-1" d="M61.21,322.23a1.06,1.06,0,0,0,0-2.12,1.06,1.06,0,0,0,0,2.12Z"/><path class="cls-1" d="M76.5,322.57a1.4,1.4,0,1,0-1.4-1.4A1.4,1.4,0,0,0,76.5,322.57Z"/><path class="cls-1" d="M91.79,322.86a1.7,1.7,0,1,0-1.69-1.69A1.7,1.7,0,0,0,91.79,322.86Z"/><path class="cls-1" d="M107.08,323.16a2,2,0,1,0-2-2A2,2,0,0,0,107.08,323.16Z"/><path class="cls-1" d="M122.38,323.46a2.29,2.29,0,1,0-2.29-2.29A2.3,2.3,0,0,0,122.38,323.46Z"/><path class="cls-1" d="M137.67,323.75a2.59,2.59,0,1,0-2.59-2.58A2.57,2.57,0,0,0,137.67,323.75Z"/><path class="cls-1" d="M153,324.05a2.89,2.89,0,1,0-2.88-2.88A2.88,2.88,0,0,0,153,324.05Z"/><circle class="cls-1" cx="168.25" cy="321.17" r="3.14"/><path class="cls-1" d="M183.54,324.6a3.44,3.44,0,1,0-3.43-3.43A3.44,3.44,0,0,0,183.54,324.6Z"/><circle class="cls-1" cx="198.83" cy="321.17" r="3.69"/><path class="cls-1" d="M214.13,325.07a3.9,3.9,0,1,0-3.91-3.9A3.91,3.91,0,0,0,214.13,325.07Z"/><path class="cls-1" d="M229.42,325.2a4,4,0,1,0-4-4A4,4,0,0,0,229.42,325.2Z"/><path class="cls-1" d="M244.71,325.32a4.16,4.16,0,1,0-4.16-4.15A4.15,4.15,0,0,0,244.71,325.32Z"/><path class="cls-1" d="M260,325.36a4.2,4.2,0,1,0-4.2-4.19A4.19,4.19,0,0,0,260,325.36Z"/><path class="cls-1" d="M275.29,325.32a4.16,4.16,0,1,0-4.15-4.15A4.15,4.15,0,0,0,275.29,325.32Z"/><path class="cls-1" d="M290.58,325.24a4.07,4.07,0,1,0-4.07-4.07A4.07,4.07,0,0,0,290.58,325.24Z"/><path class="cls-1" d="M305.87,325.07a3.9,3.9,0,1,0-3.9-3.9A3.91,3.91,0,0,0,305.87,325.07Z"/><circle class="cls-1" cx="321.17" cy="321.17" r="3.69"/><path class="cls-1" d="M336.46,324.6a3.44,3.44,0,1,0-3.44-3.43A3.43,3.43,0,0,0,336.46,324.6Z"/><circle class="cls-1" cx="351.75" cy="321.17" r="3.18"/><path class="cls-1" d="M367,324.05a2.89,2.89,0,1,0-2.88-2.88A2.88,2.88,0,0,0,367,324.05Z"/><path class="cls-1" d="M382.33,323.75a2.59,2.59,0,1,0-2.58-2.58A2.58,2.58,0,0,0,382.33,323.75Z"/><path class="cls-1" d="M397.62,323.5a2.34,2.34,0,1,0-2.33-2.33A2.34,2.34,0,0,0,397.62,323.5Z"/><path class="cls-1" d="M412.92,323.16a2,2,0,1,0-2-2A2,2,0,0,0,412.92,323.16Z"/><path class="cls-1" d="M428.21,322.86a1.7,1.7,0,1,0-1.7-1.69A1.69,1.69,0,0,0,428.21,322.86Z"/><path class="cls-1" d="M443.5,322.57a1.4,1.4,0,1,0-1.4-1.4A1.4,1.4,0,0,0,443.5,322.57Z"/><path class="cls-1" d="M458.79,322.23a1.06,1.06,0,1,0-1.06-1.06A1.06,1.06,0,0,0,458.79,322.23Z"/><path class="cls-1" d="M474.08,321.93a.77.77,0,0,0,.77-.76.78.78,0,0,0-.77-.77.77.77,0,0,0-.76.77A.76.76,0,0,0,474.08,321.93Z"/><path class="cls-1" d="M489.37,321.63a.47.47,0,1,0-.46-.46A.47.47,0,0,0,489.37,321.63Z"/><path class="cls-1" d="M504.67,321.34a.18.18,0,0,0,.17-.17.17.17,0,0,0-.17-.17.16.16,0,0,0-.17.17A.17.17,0,0,0,504.67,321.34Z"/><path class="cls-1" d="M15.33,336.54a.08.08,0,0,0,.09-.08.09.09,0,0,0-.09-.09.09.09,0,0,0-.08.09A.08.08,0,0,0,15.33,336.54Z"/><path class="cls-1" d="M30.63,336.8a.34.34,0,1,0-.34-.34A.34.34,0,0,0,30.63,336.8Z"/><path class="cls-1" d="M45.92,337.09a.63.63,0,0,0,.63-.63.64.64,0,0,0-.63-.64.64.64,0,0,0-.64.64A.64.64,0,0,0,45.92,337.09Z"/><path class="cls-1" d="M61.21,337.39a.93.93,0,0,0,0-1.86.93.93,0,1,0,0,1.86Z"/><circle class="cls-1" cx="76.5" cy="336.46" r="1.27"/><path class="cls-1" d="M91.79,338a1.57,1.57,0,1,0-1.57-1.57A1.57,1.57,0,0,0,91.79,338Z"/><circle class="cls-1" cx="107.08" cy="336.46" r="1.87"/><path class="cls-1" d="M122.38,338.58a2.12,2.12,0,1,0-2.12-2.12A2.12,2.12,0,0,0,122.38,338.58Z"/><circle class="cls-1" cx="137.67" cy="336.46" r="2.42"/><path class="cls-1" d="M153,339.17a2.72,2.72,0,1,0-2.72-2.71A2.71,2.71,0,0,0,153,339.17Z"/><path class="cls-1" d="M168.25,339.43a3,3,0,1,0-3-3A3,3,0,0,0,168.25,339.43Z"/><path class="cls-1" d="M183.54,339.64a3.18,3.18,0,1,0-3.18-3.18A3.18,3.18,0,0,0,183.54,339.64Z"/><path class="cls-1" d="M198.83,339.89a3.44,3.44,0,1,0-3.43-3.43A3.43,3.43,0,0,0,198.83,339.89Z"/><path class="cls-1" d="M214.13,340.06a3.61,3.61,0,1,0-3.61-3.6A3.6,3.6,0,0,0,214.13,340.06Z"/><circle class="cls-1" cx="229.42" cy="336.46" r="3.77"/><path class="cls-1" d="M244.71,340.32a3.86,3.86,0,1,0-3.86-3.86A3.86,3.86,0,0,0,244.71,340.32Z"/><path class="cls-1" d="M260,340.36a3.9,3.9,0,1,0-3.9-3.9A3.91,3.91,0,0,0,260,340.36Z"/><path class="cls-1" d="M275.29,340.32a3.86,3.86,0,1,0-3.86-3.86A3.86,3.86,0,0,0,275.29,340.32Z"/><circle class="cls-1" cx="290.58" cy="336.46" r="3.77"/><path class="cls-1" d="M305.87,340.06a3.61,3.61,0,1,0-3.6-3.6A3.6,3.6,0,0,0,305.87,340.06Z"/><path class="cls-1" d="M321.17,339.89a3.44,3.44,0,1,0-3.44-3.43A3.43,3.43,0,0,0,321.17,339.89Z"/><path class="cls-1" d="M336.46,339.68a3.22,3.22,0,1,0-3.22-3.22A3.22,3.22,0,0,0,336.46,339.68Z"/><path class="cls-1" d="M351.75,339.43a3,3,0,1,0-3-3A3,3,0,0,0,351.75,339.43Z"/><path class="cls-1" d="M367,339.17a2.72,2.72,0,1,0-2.71-2.71A2.71,2.71,0,0,0,367,339.17Z"/><circle class="cls-1" cx="382.33" cy="336.46" r="2.46"/><path class="cls-1" d="M397.62,338.62a2.16,2.16,0,1,0-2.16-2.16A2.17,2.17,0,0,0,397.62,338.62Z"/><circle class="cls-1" cx="412.92" cy="336.46" r="1.87"/><path class="cls-1" d="M428.21,338a1.57,1.57,0,1,0-1.57-1.57A1.58,1.58,0,0,0,428.21,338Z"/><path class="cls-1" d="M443.5,337.73a1.27,1.27,0,1,0-1.27-1.27A1.27,1.27,0,0,0,443.5,337.73Z"/><path class="cls-1" d="M458.79,337.43a1,1,0,1,0-1-1A1,1,0,0,0,458.79,337.43Z"/><path class="cls-1" d="M474.08,337.14a.68.68,0,1,0-.68-.68A.68.68,0,0,0,474.08,337.14Z"/><path class="cls-1" d="M489.37,336.84a.38.38,0,1,0-.38-.38A.38.38,0,0,0,489.37,336.84Z"/><path class="cls-1" d="M504.67,336.54a.08.08,0,0,0,.08-.08.09.09,0,0,0-.08-.09.09.09,0,0,0-.09.09A.08.08,0,0,0,504.67,336.54Z"/><path class="cls-1" d="M30.63,352a.25.25,0,1,0-.26-.25A.25.25,0,0,0,30.63,352Z"/><path class="cls-1" d="M45.92,352.3a.55.55,0,0,0,0-1.1.55.55,0,1,0,0,1.1Z"/><path class="cls-1" d="M61.21,352.56a.81.81,0,1,0-.81-.81A.81.81,0,0,0,61.21,352.56Z"/><path class="cls-1" d="M76.5,352.89a1.14,1.14,0,1,0-1.14-1.14A1.15,1.15,0,0,0,76.5,352.89Z"/><path class="cls-1" d="M91.79,353.19a1.44,1.44,0,1,0-1.44-1.44A1.43,1.43,0,0,0,91.79,353.19Z"/><path class="cls-1" d="M107.08,353.45a1.7,1.7,0,1,0-1.69-1.7A1.7,1.7,0,0,0,107.08,353.45Z"/><path class="cls-1" d="M122.38,353.7a2,2,0,1,0-2-1.95A2,2,0,0,0,122.38,353.7Z"/><path class="cls-1" d="M137.67,354a2.25,2.25,0,1,0-2.25-2.25A2.24,2.24,0,0,0,137.67,354Z"/><circle class="cls-1" cx="152.96" cy="351.75" r="2.5"/><path class="cls-1" d="M168.25,354.51a2.76,2.76,0,1,0-2.76-2.76A2.77,2.77,0,0,0,168.25,354.51Z"/><path class="cls-1" d="M183.54,354.72a3,3,0,1,0-3-3A3,3,0,0,0,183.54,354.72Z"/><circle class="cls-1" cx="198.83" cy="351.75" r="3.14"/><path class="cls-1" d="M214.13,355.06a3.31,3.31,0,1,0-3.31-3.31A3.31,3.31,0,0,0,214.13,355.06Z"/><path class="cls-1" d="M229.42,355.23a3.48,3.48,0,1,0-3.48-3.48A3.47,3.47,0,0,0,229.42,355.23Z"/><path class="cls-1" d="M244.71,355.27a3.52,3.52,0,1,0-3.52-3.52A3.53,3.53,0,0,0,244.71,355.27Z"/><path class="cls-1" d="M260,355.31a3.56,3.56,0,1,0-3.56-3.56A3.56,3.56,0,0,0,260,355.31Z"/><path class="cls-1" d="M275.29,355.31a3.56,3.56,0,1,0-3.56-3.56A3.56,3.56,0,0,0,275.29,355.31Z"/><path class="cls-1" d="M290.58,355.23a3.48,3.48,0,1,0-3.47-3.48A3.48,3.48,0,0,0,290.58,355.23Z"/><path class="cls-1" d="M305.87,355.1a3.35,3.35,0,1,0-3.35-3.35A3.35,3.35,0,0,0,305.87,355.1Z"/><path class="cls-1" d="M321.17,354.93a3.18,3.18,0,1,0-3.18-3.18A3.18,3.18,0,0,0,321.17,354.93Z"/><path class="cls-1" d="M336.46,354.72a3,3,0,1,0-3-3A3,3,0,0,0,336.46,354.72Z"/><path class="cls-1" d="M351.75,354.51a2.76,2.76,0,1,0-2.76-2.76A2.77,2.77,0,0,0,351.75,354.51Z"/><circle class="cls-1" cx="367.04" cy="351.75" r="2.5"/><path class="cls-1" d="M382.33,354a2.25,2.25,0,1,0-2.24-2.25A2.25,2.25,0,0,0,382.33,354Z"/><path class="cls-1" d="M397.62,353.74a2,2,0,1,0-2-2A2,2,0,0,0,397.62,353.74Z"/><path class="cls-1" d="M412.92,353.45a1.7,1.7,0,1,0-1.7-1.7A1.7,1.7,0,0,0,412.92,353.45Z"/><path class="cls-1" d="M428.21,353.19a1.44,1.44,0,1,0-1.44-1.44A1.44,1.44,0,0,0,428.21,353.19Z"/><path class="cls-1" d="M443.5,352.89a1.14,1.14,0,1,0-1.15-1.14A1.14,1.14,0,0,0,443.5,352.89Z"/><path class="cls-1" d="M458.79,352.6a.85.85,0,1,0-.85-.85A.85.85,0,0,0,458.79,352.6Z"/><path class="cls-1" d="M474.08,352.3a.55.55,0,1,0,0-1.1.55.55,0,1,0,0,1.1Z"/><path class="cls-1" d="M489.37,352a.25.25,0,1,0,0-.5.25.25,0,0,0,0,.5Z"/><circle class="cls-1" cx="504.67" cy="351.75" r="0.04"/><path class="cls-1" d="M30.63,367.17a.13.13,0,0,0,0-.26.13.13,0,0,0,0,.26Z"/><path class="cls-1" d="M45.92,367.47a.43.43,0,1,0-.43-.43A.42.42,0,0,0,45.92,367.47Z"/><path class="cls-1" d="M61.21,367.72a.68.68,0,1,0-.68-.68A.68.68,0,0,0,61.21,367.72Z"/><path class="cls-1" d="M76.5,368a1,1,0,1,0,0-1.95,1,1,0,0,0,0,1.95Z"/><circle class="cls-1" cx="91.79" cy="367.04" r="1.27"/><path class="cls-1" d="M107.08,368.57a1.53,1.53,0,1,0-1.52-1.53A1.53,1.53,0,0,0,107.08,368.57Z"/><path class="cls-1" d="M122.38,368.82a1.78,1.78,0,1,0-1.79-1.78A1.78,1.78,0,0,0,122.38,368.82Z"/><path class="cls-1" d="M137.67,369.08a2,2,0,1,0-2-2A2,2,0,0,0,137.67,369.08Z"/><path class="cls-1" d="M153,369.33a2.29,2.29,0,1,0-2.29-2.29A2.29,2.29,0,0,0,153,369.33Z"/><circle class="cls-1" cx="168.25" cy="367.04" r="2.5"/><path class="cls-1" d="M183.54,369.76a2.72,2.72,0,1,0-2.71-2.72A2.72,2.72,0,0,0,183.54,369.76Z"/><path class="cls-1" d="M198.83,369.93A2.89,2.89,0,1,0,196,367,2.89,2.89,0,0,0,198.83,369.93Z"/><path class="cls-1" d="M214.13,370.05a3,3,0,1,0-3-3A3,3,0,0,0,214.13,370.05Z"/><path class="cls-1" d="M229.42,370.18a3.14,3.14,0,1,0-3.14-3.14A3.14,3.14,0,0,0,229.42,370.18Z"/><path class="cls-1" d="M244.71,370.26a3.22,3.22,0,1,0-3.22-3.22A3.22,3.22,0,0,0,244.71,370.26Z"/><path class="cls-1" d="M260,370.26a3.22,3.22,0,1,0-3.22-3.22A3.22,3.22,0,0,0,260,370.26Z"/><path class="cls-1" d="M275.29,370.26a3.22,3.22,0,1,0-3.22-3.22A3.22,3.22,0,0,0,275.29,370.26Z"/><path class="cls-1" d="M290.58,370.18a3.14,3.14,0,1,0-3.13-3.14A3.14,3.14,0,0,0,290.58,370.18Z"/><circle class="cls-1" cx="305.87" cy="367.04" r="3.05"/><path class="cls-1" d="M321.17,369.93a2.89,2.89,0,1,0-2.89-2.89A2.89,2.89,0,0,0,321.17,369.93Z"/><path class="cls-1" d="M336.46,369.76a2.72,2.72,0,1,0-2.72-2.72A2.71,2.71,0,0,0,336.46,369.76Z"/><circle class="cls-1" cx="351.75" cy="367.04" r="2.5"/><path class="cls-1" d="M367,369.33a2.29,2.29,0,1,0-2.29-2.29A2.28,2.28,0,0,0,367,369.33Z"/><path class="cls-1" d="M382.33,369.08a2,2,0,1,0-2-2A2,2,0,0,0,382.33,369.08Z"/><path class="cls-1" d="M397.62,368.82a1.78,1.78,0,1,0-1.78-1.78A1.78,1.78,0,0,0,397.62,368.82Z"/><path class="cls-1" d="M412.92,368.57a1.53,1.53,0,1,0-1.53-1.53A1.53,1.53,0,0,0,412.92,368.57Z"/><path class="cls-1" d="M428.21,368.31a1.27,1.27,0,1,0-1.27-1.27A1.27,1.27,0,0,0,428.21,368.31Z"/><path class="cls-1" d="M443.5,368a1,1,0,1,0-1-1A1,1,0,0,0,443.5,368Z"/><path class="cls-1" d="M458.79,367.76a.72.72,0,1,0-.72-.72A.72.72,0,0,0,458.79,367.76Z"/><path class="cls-1" d="M474.08,367.47a.43.43,0,1,0,0-.85.43.43,0,0,0,0,.85Z"/><path class="cls-1" d="M489.37,367.17a.13.13,0,0,0,0-.26.13.13,0,0,0,0,.26Z"/><path class="cls-1" d="M30.63,382.38a0,0,0,0,0,0-.05,0,0,0,0,0,0,0,0,0,0,0,0-.05,0A0,0,0,0,0,30.63,382.38Z"/><path class="cls-1" d="M45.92,382.59a.26.26,0,0,0,.25-.26.25.25,0,0,0-.25-.25.26.26,0,0,0-.26.25A.26.26,0,0,0,45.92,382.59Z"/><path class="cls-1" d="M61.21,382.84a.51.51,0,1,0-.51-.51A.51.51,0,0,0,61.21,382.84Z"/><path class="cls-1" d="M76.5,383.14a.81.81,0,1,0-.81-.81A.81.81,0,0,0,76.5,383.14Z"/><path class="cls-1" d="M91.79,383.39a1.06,1.06,0,0,0,0-2.12,1.06,1.06,0,0,0,0,2.12Z"/><path class="cls-1" d="M107.08,383.69a1.36,1.36,0,1,0,0-2.71,1.36,1.36,0,0,0,0,2.71Z"/><path class="cls-1" d="M122.38,383.9a1.57,1.57,0,1,0-1.57-1.57A1.56,1.56,0,0,0,122.38,383.9Z"/><path class="cls-1" d="M137.67,384.16a1.83,1.83,0,1,0-1.83-1.83A1.83,1.83,0,0,0,137.67,384.16Z"/><path class="cls-1" d="M153,384.37a2,2,0,1,0-2-2A2,2,0,0,0,153,384.37Z"/><path class="cls-1" d="M168.25,384.58a2.25,2.25,0,1,0-2.25-2.25A2.25,2.25,0,0,0,168.25,384.58Z"/><circle class="cls-1" cx="183.54" cy="382.33" r="2.46"/><path class="cls-1" d="M198.83,384.92a2.59,2.59,0,1,0-2.58-2.59A2.59,2.59,0,0,0,198.83,384.92Z"/><path class="cls-1" d="M214.13,385.05a2.72,2.72,0,1,0-2.72-2.72A2.72,2.72,0,0,0,214.13,385.05Z"/><path class="cls-1" d="M229.42,385.17a2.84,2.84,0,1,0-2.84-2.84A2.84,2.84,0,0,0,229.42,385.17Z"/><path class="cls-1" d="M244.71,385.22a2.89,2.89,0,1,0-2.89-2.89A2.88,2.88,0,0,0,244.71,385.22Z"/><path class="cls-1" d="M260,385.26a2.93,2.93,0,1,0-2.93-2.93A2.93,2.93,0,0,0,260,385.26Z"/><path class="cls-1" d="M275.29,385.22a2.89,2.89,0,1,0-2.88-2.89A2.89,2.89,0,0,0,275.29,385.22Z"/><path class="cls-1" d="M290.58,385.17a2.84,2.84,0,1,0-2.84-2.84A2.84,2.84,0,0,0,290.58,385.17Z"/><path class="cls-1" d="M305.87,385.09a2.76,2.76,0,1,0-2.75-2.76A2.75,2.75,0,0,0,305.87,385.09Z"/><path class="cls-1" d="M321.17,384.92a2.59,2.59,0,1,0-2.59-2.59A2.58,2.58,0,0,0,321.17,384.92Z"/><circle class="cls-1" cx="336.46" cy="382.33" r="2.46"/><path class="cls-1" d="M351.75,384.58a2.25,2.25,0,1,0-2.25-2.25A2.25,2.25,0,0,0,351.75,384.58Z"/><path class="cls-1" d="M367,384.37a2,2,0,1,0-2-2A2,2,0,0,0,367,384.37Z"/><path class="cls-1" d="M382.33,384.16a1.83,1.83,0,1,0-1.82-1.83A1.83,1.83,0,0,0,382.33,384.16Z"/><path class="cls-1" d="M397.62,383.94a1.61,1.61,0,1,0-1.61-1.61A1.62,1.62,0,0,0,397.62,383.94Z"/><path class="cls-1" d="M412.92,383.69a1.36,1.36,0,1,0-1.36-1.36A1.35,1.35,0,0,0,412.92,383.69Z"/><path class="cls-1" d="M428.21,383.44a1.11,1.11,0,1,0-1.1-1.11A1.11,1.11,0,0,0,428.21,383.44Z"/><path class="cls-1" d="M443.5,383.14a.81.81,0,1,0,0-1.61.81.81,0,1,0,0,1.61Z"/><path class="cls-1" d="M458.79,382.88a.54.54,0,0,0,.55-.55.55.55,0,0,0-.55-.55.55.55,0,0,0-.55.55A.55.55,0,0,0,458.79,382.88Z"/><path class="cls-1" d="M474.08,382.59a.26.26,0,0,0,.26-.26.26.26,0,0,0-.26-.25.25.25,0,0,0-.25.25A.26.26,0,0,0,474.08,382.59Z"/><path class="cls-1" d="M489.37,382.38a0,0,0,0,0,.05-.05,0,0,0,0,0-.05,0,0,0,0,0,0,0,0A0,0,0,0,0,489.37,382.38Z"/><path class="cls-1" d="M45.92,397.71a.09.09,0,0,0,.08-.09.09.09,0,0,0-.08-.08.09.09,0,0,0-.09.08A.09.09,0,0,0,45.92,397.71Z"/><path class="cls-1" d="M61.21,398a.34.34,0,1,0-.34-.34A.34.34,0,0,0,61.21,398Z"/><path class="cls-1" d="M76.5,398.22a.6.6,0,1,0-.59-.6A.59.59,0,0,0,76.5,398.22Z"/><path class="cls-1" d="M91.79,398.47a.85.85,0,1,0-.85-.85A.85.85,0,0,0,91.79,398.47Z"/><path class="cls-1" d="M107.08,398.73a1.11,1.11,0,1,0-1.1-1.11A1.11,1.11,0,0,0,107.08,398.73Z"/><path class="cls-1" d="M122.38,399a1.36,1.36,0,1,0-1.36-1.36A1.36,1.36,0,0,0,122.38,399Z"/><path class="cls-1" d="M137.67,399.19a1.57,1.57,0,1,0-1.57-1.57A1.57,1.57,0,0,0,137.67,399.19Z"/><path class="cls-1" d="M153,399.41a1.79,1.79,0,1,0-1.78-1.79A1.79,1.79,0,0,0,153,399.41Z"/><path class="cls-1" d="M168.25,399.62a2,2,0,1,0-2-2A2,2,0,0,0,168.25,399.62Z"/><path class="cls-1" d="M183.54,399.79a2.17,2.17,0,1,0-2.16-2.17A2.16,2.16,0,0,0,183.54,399.79Z"/><path class="cls-1" d="M198.83,399.91a2.29,2.29,0,1,0-2.29-2.29A2.28,2.28,0,0,0,198.83,399.91Z"/><path class="cls-1" d="M214.13,400a2.42,2.42,0,1,0-2.42-2.42A2.41,2.41,0,0,0,214.13,400Z"/><path class="cls-1" d="M229.42,400.13a2.51,2.51,0,1,0-2.51-2.51A2.5,2.5,0,0,0,229.42,400.13Z"/><path class="cls-1" d="M244.71,400.21a2.59,2.59,0,1,0-2.59-2.59A2.58,2.58,0,0,0,244.71,400.21Z"/><path class="cls-1" d="M260,400.21a2.59,2.59,0,1,0-2.59-2.59A2.59,2.59,0,0,0,260,400.21Z"/><path class="cls-1" d="M275.29,400.21a2.59,2.59,0,1,0-2.58-2.59A2.59,2.59,0,0,0,275.29,400.21Z"/><path class="cls-1" d="M290.58,400.13a2.51,2.51,0,1,0-2.5-2.51A2.51,2.51,0,0,0,290.58,400.13Z"/><path class="cls-1" d="M305.87,400a2.42,2.42,0,1,0-2.41-2.42A2.42,2.42,0,0,0,305.87,400Z"/><path class="cls-1" d="M321.17,400a2.34,2.34,0,1,0-2.34-2.34A2.34,2.34,0,0,0,321.17,400Z"/><path class="cls-1" d="M336.46,399.79a2.17,2.17,0,1,0-2.16-2.17A2.17,2.17,0,0,0,336.46,399.79Z"/><path class="cls-1" d="M351.75,399.62a2,2,0,1,0-2-2A2,2,0,0,0,351.75,399.62Z"/><path class="cls-1" d="M367,399.41a1.79,1.79,0,1,0-1.78-1.79A1.78,1.78,0,0,0,367,399.41Z"/><path class="cls-1" d="M382.33,399.24a1.62,1.62,0,1,0-1.61-1.62A1.62,1.62,0,0,0,382.33,399.24Z"/><path class="cls-1" d="M397.62,399a1.36,1.36,0,1,0-1.35-1.36A1.36,1.36,0,0,0,397.62,399Z"/><path class="cls-1" d="M412.92,398.77a1.15,1.15,0,1,0-1.15-1.15A1.14,1.14,0,0,0,412.92,398.77Z"/><path class="cls-1" d="M428.21,398.52a.9.9,0,1,0-.89-.9A.89.89,0,0,0,428.21,398.52Z"/><path class="cls-1" d="M443.5,398.26a.64.64,0,1,0-.64-.64A.64.64,0,0,0,443.5,398.26Z"/><path class="cls-1" d="M458.79,398a.39.39,0,1,0-.38-.39A.38.38,0,0,0,458.79,398Z"/><path class="cls-1" d="M474.08,397.75a.13.13,0,0,0,.13-.13.12.12,0,0,0-.13-.12.12.12,0,0,0-.12.12A.12.12,0,0,0,474.08,397.75Z"/><path class="cls-1" d="M61.21,413.09a.18.18,0,0,0,.17-.17.17.17,0,0,0-.34,0A.18.18,0,0,0,61.21,413.09Z"/><path class="cls-1" d="M76.5,413.34a.43.43,0,1,0-.42-.42A.42.42,0,0,0,76.5,413.34Z"/><circle class="cls-1" cx="91.79" cy="412.92" r="0.64"/><path class="cls-1" d="M107.08,413.81a.89.89,0,1,0-.89-.89A.89.89,0,0,0,107.08,413.81Z"/><path class="cls-1" d="M122.38,414a1.11,1.11,0,1,0-1.11-1.1A1.1,1.1,0,0,0,122.38,414Z"/><path class="cls-1" d="M137.67,414.27a1.36,1.36,0,0,0,0-2.71,1.36,1.36,0,1,0,0,2.71Z"/><path class="cls-1" d="M153,414.44a1.53,1.53,0,1,0-1.53-1.52A1.53,1.53,0,0,0,153,414.44Z"/><path class="cls-1" d="M168.25,414.61a1.7,1.7,0,1,0-1.7-1.69A1.7,1.7,0,0,0,168.25,414.61Z"/><circle class="cls-1" cx="183.54" cy="412.92" r="1.87"/><path class="cls-1" d="M198.83,414.91a2,2,0,1,0-2-2A2,2,0,0,0,198.83,414.91Z"/><path class="cls-1" d="M214.13,415a2.12,2.12,0,1,0-2.12-2.12A2.12,2.12,0,0,0,214.13,415Z"/><path class="cls-1" d="M229.42,415.12a2.21,2.21,0,1,0-2.21-2.2A2.21,2.21,0,0,0,229.42,415.12Z"/><path class="cls-1" d="M244.71,415.16a2.25,2.25,0,1,0-2.25-2.24A2.24,2.24,0,0,0,244.71,415.16Z"/><path class="cls-1" d="M260,415.16a2.25,2.25,0,1,0-2.25-2.24A2.24,2.24,0,0,0,260,415.16Z"/><path class="cls-1" d="M275.29,415.16a2.25,2.25,0,1,0-2.25-2.24A2.24,2.24,0,0,0,275.29,415.16Z"/><path class="cls-1" d="M290.58,415.12a2.21,2.21,0,1,0-2.2-2.2A2.21,2.21,0,0,0,290.58,415.12Z"/><path class="cls-1" d="M305.87,415a2.12,2.12,0,1,0-2.12-2.12A2.11,2.11,0,0,0,305.87,415Z"/><path class="cls-1" d="M321.17,414.91a2,2,0,1,0-2-2A2,2,0,0,0,321.17,414.91Z"/><circle class="cls-1" cx="336.46" cy="412.92" r="1.87"/><path class="cls-1" d="M351.75,414.61a1.7,1.7,0,1,0-1.7-1.69A1.7,1.7,0,0,0,351.75,414.61Z"/><path class="cls-1" d="M367,414.44a1.53,1.53,0,1,0-1.53-1.52A1.53,1.53,0,0,0,367,414.44Z"/><path class="cls-1" d="M382.33,414.27a1.36,1.36,0,1,0-1.35-1.35A1.35,1.35,0,0,0,382.33,414.27Z"/><path class="cls-1" d="M397.62,414.06a1.15,1.15,0,1,0-1.14-1.14A1.14,1.14,0,0,0,397.62,414.06Z"/><path class="cls-1" d="M412.92,413.81a.89.89,0,1,0,0-1.78.89.89,0,1,0,0,1.78Z"/><path class="cls-1" d="M428.21,413.6a.68.68,0,0,0,0-1.36.68.68,0,0,0,0,1.36Z"/><path class="cls-1" d="M443.5,413.34a.43.43,0,1,0-.42-.42A.42.42,0,0,0,443.5,413.34Z"/><path class="cls-1" d="M458.79,413.09a.18.18,0,0,0,.17-.17.17.17,0,0,0-.34,0A.18.18,0,0,0,458.79,413.09Z"/><path class="cls-1" d="M61.21,428.25a0,0,0,0,0,0,0,0,0,0,0,0-.08,0A0,0,0,0,0,61.21,428.25Z"/><path class="cls-1" d="M76.5,428.42a.21.21,0,1,0-.21-.21A.21.21,0,0,0,76.5,428.42Z"/><path class="cls-1" d="M91.79,428.63a.43.43,0,1,0-.42-.42A.42.42,0,0,0,91.79,428.63Z"/><path class="cls-1" d="M107.08,428.89a.68.68,0,1,0,0-1.36.68.68,0,0,0,0,1.36Z"/><path class="cls-1" d="M122.38,429.06a.85.85,0,1,0-.85-.85A.85.85,0,0,0,122.38,429.06Z"/><path class="cls-1" d="M137.67,429.27a1.06,1.06,0,0,0,0-2.12,1.06,1.06,0,1,0,0,2.12Z"/><circle class="cls-1" cx="152.96" cy="428.21" r="1.27"/><path class="cls-1" d="M168.25,429.65a1.44,1.44,0,1,0-1.44-1.44A1.44,1.44,0,0,0,168.25,429.65Z"/><path class="cls-1" d="M183.54,429.78a1.57,1.57,0,1,0-1.57-1.57A1.57,1.57,0,0,0,183.54,429.78Z"/><path class="cls-1" d="M198.83,429.9a1.7,1.7,0,1,0-1.69-1.69A1.7,1.7,0,0,0,198.83,429.9Z"/><path class="cls-1" d="M214.13,430a1.78,1.78,0,1,0-1.79-1.78A1.78,1.78,0,0,0,214.13,430Z"/><circle class="cls-1" cx="229.42" cy="428.21" r="1.87"/><path class="cls-1" d="M244.71,430.12a1.91,1.91,0,1,0-1.91-1.91A1.92,1.92,0,0,0,244.71,430.12Z"/><path class="cls-1" d="M260,430.16a1.95,1.95,0,1,0-1.95-2A1.95,1.95,0,0,0,260,430.16Z"/><path class="cls-1" d="M275.29,430.12a1.91,1.91,0,1,0-1.91-1.91A1.91,1.91,0,0,0,275.29,430.12Z"/><circle class="cls-1" cx="290.58" cy="428.21" r="1.87"/><path class="cls-1" d="M305.87,430a1.78,1.78,0,1,0-1.78-1.78A1.79,1.79,0,0,0,305.87,430Z"/><path class="cls-1" d="M321.17,429.9a1.7,1.7,0,1,0-1.7-1.69A1.69,1.69,0,0,0,321.17,429.9Z"/><path class="cls-1" d="M336.46,429.78a1.57,1.57,0,1,0-1.57-1.57A1.58,1.58,0,0,0,336.46,429.78Z"/><path class="cls-1" d="M351.75,429.65a1.44,1.44,0,1,0-1.44-1.44A1.44,1.44,0,0,0,351.75,429.65Z"/><circle class="cls-1" cx="367.04" cy="428.21" r="1.27"/><path class="cls-1" d="M382.33,429.31a1.1,1.1,0,1,0-1.1-1.1A1.11,1.11,0,0,0,382.33,429.31Z"/><path class="cls-1" d="M397.62,429.1a.89.89,0,1,0-.89-.89A.89.89,0,0,0,397.62,429.1Z"/><path class="cls-1" d="M412.92,428.89a.68.68,0,1,0-.68-.68A.68.68,0,0,0,412.92,428.89Z"/><path class="cls-1" d="M428.21,428.67a.45.45,0,0,0,.46-.46.46.46,0,0,0-.46-.47.47.47,0,0,0-.47.47A.46.46,0,0,0,428.21,428.67Z"/><path class="cls-1" d="M443.5,428.42a.21.21,0,1,0-.21-.21A.21.21,0,0,0,443.5,428.42Z"/><path class="cls-1" d="M458.79,428.25a0,0,0,0,0,0,0,0,0,0,0,0-.08,0A0,0,0,0,0,458.79,428.25Z"/><circle class="cls-1" cx="76.5" cy="443.5" r="0.04"/><path class="cls-1" d="M91.79,443.71a.21.21,0,1,0-.21-.21A.21.21,0,0,0,91.79,443.71Z"/><path class="cls-1" d="M107.08,443.92a.42.42,0,1,0-.42-.42A.42.42,0,0,0,107.08,443.92Z"/><circle class="cls-1" cx="122.38" cy="443.5" r="0.64"/><path class="cls-1" d="M137.67,444.31a.81.81,0,1,0-.81-.81A.81.81,0,0,0,137.67,444.31Z"/><path class="cls-1" d="M153,444.48a1,1,0,1,0-1-1A1,1,0,0,0,153,444.48Z"/><path class="cls-1" d="M168.25,444.64a1.14,1.14,0,1,0-1.14-1.14A1.15,1.15,0,0,0,168.25,444.64Z"/><circle class="cls-1" cx="183.54" cy="443.5" r="1.27"/><path class="cls-1" d="M198.83,444.9a1.4,1.4,0,1,0-1.4-1.4A1.4,1.4,0,0,0,198.83,444.9Z"/><path class="cls-1" d="M214.13,445a1.48,1.48,0,1,0-1.49-1.48A1.48,1.48,0,0,0,214.13,445Z"/><path class="cls-1" d="M229.42,445.07a1.57,1.57,0,1,0-1.57-1.57A1.57,1.57,0,0,0,229.42,445.07Z"/><path class="cls-1" d="M244.71,445.11a1.61,1.61,0,1,0-1.61-1.61A1.61,1.61,0,0,0,244.71,445.11Z"/><path class="cls-1" d="M260,445.11a1.61,1.61,0,1,0-1.61-1.61A1.61,1.61,0,0,0,260,445.11Z"/><path class="cls-1" d="M275.29,445.11a1.61,1.61,0,1,0-1.61-1.61A1.61,1.61,0,0,0,275.29,445.11Z"/><path class="cls-1" d="M290.58,445.07A1.57,1.57,0,1,0,289,443.5,1.57,1.57,0,0,0,290.58,445.07Z"/><path class="cls-1" d="M305.87,445a1.48,1.48,0,1,0-1.48-1.48A1.49,1.49,0,0,0,305.87,445Z"/><path class="cls-1" d="M321.17,444.9a1.4,1.4,0,1,0-1.4-1.4A1.4,1.4,0,0,0,321.17,444.9Z"/><circle class="cls-1" cx="336.46" cy="443.5" r="1.27"/><path class="cls-1" d="M351.75,444.64a1.14,1.14,0,1,0-1.15-1.14A1.14,1.14,0,0,0,351.75,444.64Z"/><path class="cls-1" d="M367,444.48a1,1,0,1,0-1-1A1,1,0,0,0,367,444.48Z"/><path class="cls-1" d="M382.33,444.31a.81.81,0,1,0,0-1.62.81.81,0,0,0,0,1.62Z"/><circle class="cls-1" cx="397.62" cy="443.5" r="0.64"/><path class="cls-1" d="M412.92,443.92a.42.42,0,1,0-.43-.42A.42.42,0,0,0,412.92,443.92Z"/><path class="cls-1" d="M428.21,443.71a.21.21,0,1,0-.21-.21A.21.21,0,0,0,428.21,443.71Z"/><path class="cls-1" d="M443.5,443.54a0,0,0,0,0,0-.08,0,0,0,0,0,0,.08A0,0,0,0,0,443.5,443.54Z"/><circle class="cls-1" cx="91.79" cy="458.79" r="0.04"/><path class="cls-1" d="M107.08,459a.16.16,0,0,0,.17-.17.17.17,0,0,0-.17-.17.18.18,0,0,0-.17.17A.17.17,0,0,0,107.08,459Z"/><path class="cls-1" d="M122.38,459.13a.34.34,0,1,0-.34-.34A.34.34,0,0,0,122.38,459.13Z"/><circle class="cls-1" cx="137.67" cy="458.79" r="0.55"/><circle class="cls-1" cx="152.96" cy="458.79" r="0.68"/><path class="cls-1" d="M168.25,459.64a.85.85,0,1,0-.85-.85A.85.85,0,0,0,168.25,459.64Z"/><path class="cls-1" d="M183.54,459.77a1,1,0,1,0,0-1.95,1,1,0,0,0,0,1.95Z"/><path class="cls-1" d="M198.83,459.85a1.06,1.06,0,0,0,0-2.12,1.06,1.06,0,0,0,0,2.12Z"/><circle class="cls-1" cx="214.13" cy="458.79" r="1.19"/><circle class="cls-1" cx="229.42" cy="458.79" r="1.23"/><circle class="cls-1" cx="244.71" cy="458.79" r="1.27"/><circle class="cls-1" cx="260" cy="458.79" r="1.27"/><circle class="cls-1" cx="275.29" cy="458.79" r="1.27"/><circle class="cls-1" cx="290.58" cy="458.79" r="1.23"/><circle class="cls-1" cx="305.87" cy="458.79" r="1.19"/><path class="cls-1" d="M321.17,459.85a1.06,1.06,0,1,0-1.06-1.06A1.06,1.06,0,0,0,321.17,459.85Z"/><path class="cls-1" d="M336.46,459.77a1,1,0,1,0-1-1A1,1,0,0,0,336.46,459.77Z"/><path class="cls-1" d="M351.75,459.64a.85.85,0,1,0-.85-.85A.85.85,0,0,0,351.75,459.64Z"/><path class="cls-1" d="M367,459.51a.72.72,0,1,0-.72-.72A.72.72,0,0,0,367,459.51Z"/><circle class="cls-1" cx="382.33" cy="458.79" r="0.55"/><path class="cls-1" d="M397.62,459.17a.38.38,0,1,0-.38-.38A.38.38,0,0,0,397.62,459.17Z"/><path class="cls-1" d="M412.92,459a.17.17,0,0,0,.17-.17.18.18,0,0,0-.17-.17.17.17,0,0,0-.17.17A.16.16,0,0,0,412.92,459Z"/><path class="cls-1" d="M428.21,458.83a0,0,0,0,0,0-.08,0,0,0,0,0,0,.08Z"/><circle class="cls-1" cx="122.38" cy="474.08" r="0.08"/><path class="cls-1" d="M137.67,474.34a.26.26,0,0,0,.25-.26.25.25,0,0,0-.25-.25.26.26,0,0,0-.26.25A.26.26,0,0,0,137.67,474.34Z"/><path class="cls-1" d="M153,474.51a.43.43,0,1,0-.43-.43A.42.42,0,0,0,153,474.51Z"/><circle class="cls-1" cx="168.25" cy="474.08" r="0.55"/><circle class="cls-1" cx="183.54" cy="474.08" r="0.68"/><path class="cls-1" d="M198.83,474.85a.78.78,0,0,0,.77-.77.77.77,0,0,0-.77-.76.76.76,0,0,0-.76.76A.77.77,0,0,0,198.83,474.85Z"/><path class="cls-1" d="M214.13,474.93a.85.85,0,0,0,.84-.85.85.85,0,0,0-1.69,0A.85.85,0,0,0,214.13,474.93Z"/><path class="cls-1" d="M229.42,475a.89.89,0,1,0-.89-.89A.89.89,0,0,0,229.42,475Z"/><path class="cls-1" d="M244.71,475a.94.94,0,1,0-.93-.94A.94.94,0,0,0,244.71,475Z"/><path class="cls-1" d="M260,475a.94.94,0,1,0-.93-.94A.93.93,0,0,0,260,475Z"/><path class="cls-1" d="M275.29,475a.94.94,0,1,0-.93-.94A.93.93,0,0,0,275.29,475Z"/><path class="cls-1" d="M290.58,475a.89.89,0,1,0-.89-.89A.89.89,0,0,0,290.58,475Z"/><path class="cls-1" d="M305.87,474.93a.85.85,0,0,0,.85-.85.85.85,0,1,0-.85.85Z"/><path class="cls-1" d="M321.17,474.85a.77.77,0,0,0,.76-.77.76.76,0,0,0-.76-.76.77.77,0,0,0-.77.76A.78.78,0,0,0,321.17,474.85Z"/><circle class="cls-1" cx="336.46" cy="474.08" r="0.68"/><circle class="cls-1" cx="351.75" cy="474.08" r="0.55"/><path class="cls-1" d="M367,474.51a.43.43,0,1,0,0-.85.43.43,0,0,0,0,.85Z"/><path class="cls-1" d="M382.33,474.34a.26.26,0,0,0,.26-.26.26.26,0,0,0-.26-.25.25.25,0,0,0-.25.25A.26.26,0,0,0,382.33,474.34Z"/><path class="cls-1" d="M397.62,474.21a.13.13,0,0,0,.13-.13.12.12,0,0,0-.13-.12.12.12,0,0,0-.12.12A.12.12,0,0,0,397.62,474.21Z"/><circle class="cls-1" cx="137.67" cy="489.37" r="0.04"/><circle class="cls-1" cx="152.96" cy="489.37" r="0.13"/><path class="cls-1" d="M168.25,489.63a.26.26,0,1,0-.25-.26A.25.25,0,0,0,168.25,489.63Z"/><path class="cls-1" d="M183.54,489.71a.34.34,0,1,0-.34-.34A.34.34,0,0,0,183.54,489.71Z"/><path class="cls-1" d="M198.83,489.84a.47.47,0,1,0-.46-.47A.47.47,0,0,0,198.83,489.84Z"/><circle class="cls-1" cx="214.13" cy="489.37" r="0.51"/><circle class="cls-1" cx="229.42" cy="489.37" r="0.59"/><circle class="cls-1" cx="244.71" cy="489.37" r="0.64"/><circle class="cls-1" cx="260" cy="489.37" r="0.64"/><circle class="cls-1" cx="275.29" cy="489.37" r="0.64"/><circle class="cls-1" cx="290.58" cy="489.37" r="0.59"/><circle class="cls-1" cx="305.87" cy="489.37" r="0.55"/><path class="cls-1" d="M321.17,489.84a.47.47,0,1,0-.47-.47A.47.47,0,0,0,321.17,489.84Z"/><path class="cls-1" d="M336.46,489.76a.39.39,0,1,0-.38-.39A.38.38,0,0,0,336.46,489.76Z"/><path class="cls-1" d="M351.75,489.63a.26.26,0,1,0-.25-.26A.25.25,0,0,0,351.75,489.63Z"/><path class="cls-1" d="M367,489.5a.13.13,0,0,0,.13-.13.13.13,0,0,0-.26,0A.13.13,0,0,0,367,489.5Z"/><circle class="cls-1" cx="382.33" cy="489.37" r="0.04"/><circle class="cls-1" cx="183.54" cy="504.67" r="0.08"/><circle class="cls-1" cx="198.83" cy="504.67" r="0.13"/><path class="cls-1" d="M214.13,504.88a.22.22,0,0,0,0-.43.22.22,0,1,0,0,.43Z"/><path class="cls-1" d="M229.42,504.92a.25.25,0,0,0,.25-.25.26.26,0,0,0-.25-.26.26.26,0,0,0-.26.26A.26.26,0,0,0,229.42,504.92Z"/><path class="cls-1" d="M244.71,505a.3.3,0,1,0,0-.59.3.3,0,1,0,0,.59Z"/><path class="cls-1" d="M260,505a.3.3,0,1,0-.3-.29A.3.3,0,0,0,260,505Z"/><path class="cls-1" d="M275.29,505a.3.3,0,1,0,0-.59.3.3,0,1,0,0,.59Z"/><path class="cls-1" d="M290.58,504.92a.26.26,0,0,0,.26-.25.26.26,0,0,0-.26-.26.26.26,0,0,0-.25.26A.25.25,0,0,0,290.58,504.92Z"/><path class="cls-1" d="M305.87,504.88a.22.22,0,1,0-.21-.21A.22.22,0,0,0,305.87,504.88Z"/><path class="cls-1" d="M321.17,504.84a.18.18,0,0,0,.17-.17.17.17,0,0,0-.17-.17.16.16,0,0,0-.17.17A.17.17,0,0,0,321.17,504.84Z"/><circle class="cls-1" cx="336.46" cy="504.67" r="0.08"/><circle class="cls-1" cx="351.75" cy="504.67" r="0.04"/><circle class="cls-1" cx="244.71" cy="519.96" r="0.04"/><circle class="cls-1" cx="260" cy="519.96" r="0.04"/><circle class="cls-1" cx="275.29" cy="519.96" r="0.04"/></svg>