<svg id="Layer_1" data-name="Layer 1" xmlns="http://www.w3.org/2000/svg" viewBox="0 0 505.79 318.62"><defs><style>.cls-1{fill:#ff9231;}</style></defs><ellipse class="cls-1" cx="8.72" cy="10.5" rx="8.72" ry="10.5"/><path class="cls-1" d="M78.49,10.5c0,5.81-3.91,10.51-8.73,10.51S61,16.31,61,10.5,65,0,69.76,0,78.49,4.7,78.49,10.5Z"/><ellipse class="cls-1" cx="130.81" cy="10.5" rx="8.72" ry="10.5"/><path class="cls-1" d="M200.57,10.5c0,5.81-3.9,10.51-8.72,10.51s-8.72-4.7-8.72-10.51S187,0,191.85,0,200.57,4.7,200.57,10.5Z"/><path class="cls-1" d="M261.62,10.5c0,5.81-3.91,10.51-8.72,10.51s-8.72-4.7-8.72-10.51S248.08,0,252.9,0,261.62,4.7,261.62,10.5Z"/><path class="cls-1" d="M322.66,10.5c0,5.81-3.9,10.51-8.72,10.51s-8.72-4.7-8.72-10.51S309.13,0,313.94,0,322.66,4.7,322.66,10.5Z"/><path class="cls-1" d="M383.71,10.5C383.71,16.31,379.8,21,375,21s-8.73-4.7-8.73-10.51S370.17,0,375,0,383.71,4.7,383.71,10.5Z"/><path class="cls-1" d="M444.75,10.5c0,5.81-3.9,10.51-8.72,10.51s-8.72-4.7-8.72-10.51S431.21,0,436,0,444.75,4.7,444.75,10.5Z"/><path class="cls-1" d="M505.79,10.5c0,5.81-3.9,10.51-8.72,10.51s-8.72-4.7-8.72-10.51S492.26,0,497.07,0,505.79,4.7,505.79,10.5Z"/><ellipse class="cls-1" cx="8.72" cy="70.03" rx="8.72" ry="10.5"/><path class="cls-1" d="M78.49,70c0,5.8-3.91,10.5-8.73,10.5S61,75.83,61,70,65,59.52,69.76,59.52,78.49,64.23,78.49,70Z"/><ellipse class="cls-1" cx="130.81" cy="70.03" rx="8.72" ry="10.5"/><path class="cls-1" d="M200.57,70c0,5.8-3.9,10.5-8.72,10.5s-8.72-4.7-8.72-10.5,3.91-10.51,8.72-10.51S200.57,64.23,200.57,70Z"/><path class="cls-1" d="M261.62,70c0,5.8-3.91,10.5-8.72,10.5s-8.72-4.7-8.72-10.5,3.9-10.51,8.72-10.51S261.62,64.23,261.62,70Z"/><path class="cls-1" d="M322.66,70c0,5.8-3.9,10.5-8.72,10.5s-8.72-4.7-8.72-10.5,3.91-10.51,8.72-10.51S322.66,64.23,322.66,70Z"/><path class="cls-1" d="M383.71,70c0,5.8-3.91,10.5-8.72,10.5s-8.73-4.7-8.73-10.5,3.91-10.51,8.73-10.51S383.71,64.23,383.71,70Z"/><path class="cls-1" d="M444.75,70c0,5.8-3.9,10.5-8.72,10.5s-8.72-4.7-8.72-10.5,3.9-10.51,8.72-10.51S444.75,64.23,444.75,70Z"/><path class="cls-1" d="M505.79,70c0,5.8-3.9,10.5-8.72,10.5s-8.72-4.7-8.72-10.5,3.91-10.51,8.72-10.51S505.79,64.23,505.79,70Z"/><ellipse class="cls-1" cx="8.72" cy="129.55" rx="8.72" ry="10.5"/><path class="cls-1" d="M78.49,129.55c0,5.8-3.91,10.5-8.73,10.5S61,135.35,61,129.55s3.91-10.5,8.72-10.5S78.49,123.75,78.49,129.55Z"/><ellipse class="cls-1" cx="130.81" cy="129.55" rx="8.72" ry="10.5"/><path class="cls-1" d="M200.57,129.55c0,5.8-3.9,10.5-8.72,10.5s-8.72-4.7-8.72-10.5,3.91-10.5,8.72-10.5S200.57,123.75,200.57,129.55Z"/><path class="cls-1" d="M261.62,129.55c0,5.8-3.91,10.5-8.72,10.5s-8.72-4.7-8.72-10.5,3.9-10.5,8.72-10.5S261.62,123.75,261.62,129.55Z"/><path class="cls-1" d="M322.66,129.55c0,5.8-3.9,10.5-8.72,10.5s-8.72-4.7-8.72-10.5,3.91-10.5,8.72-10.5S322.66,123.75,322.66,129.55Z"/><path class="cls-1" d="M383.71,129.55c0,5.8-3.91,10.5-8.72,10.5s-8.73-4.7-8.73-10.5,3.91-10.5,8.73-10.5S383.71,123.75,383.71,129.55Z"/><path class="cls-1" d="M444.75,129.55c0,5.8-3.9,10.5-8.72,10.5s-8.72-4.7-8.72-10.5,3.9-10.5,8.72-10.5S444.75,123.75,444.75,129.55Z"/><path class="cls-1" d="M505.79,129.55c0,5.8-3.9,10.5-8.72,10.5s-8.72-4.7-8.72-10.5,3.91-10.5,8.72-10.5S505.79,123.75,505.79,129.55Z"/><ellipse class="cls-1" cx="8.72" cy="189.07" rx="8.72" ry="10.5"/><path class="cls-1" d="M78.49,189.07c0,5.8-3.91,10.51-8.73,10.51S61,194.87,61,189.07s3.91-10.5,8.72-10.5S78.49,183.27,78.49,189.07Z"/><ellipse class="cls-1" cx="130.81" cy="189.07" rx="8.72" ry="10.5"/><path class="cls-1" d="M200.57,189.07c0,5.8-3.9,10.51-8.72,10.51s-8.72-4.71-8.72-10.51,3.91-10.5,8.72-10.5S200.57,183.27,200.57,189.07Z"/><path class="cls-1" d="M261.62,189.07c0,5.8-3.91,10.51-8.72,10.51s-8.72-4.71-8.72-10.51,3.9-10.5,8.72-10.5S261.62,183.27,261.62,189.07Z"/><path class="cls-1" d="M322.66,189.07c0,5.8-3.9,10.51-8.72,10.51s-8.72-4.71-8.72-10.51,3.91-10.5,8.72-10.5S322.66,183.27,322.66,189.07Z"/><path class="cls-1" d="M383.71,189.07c0,5.8-3.91,10.51-8.72,10.51s-8.73-4.71-8.73-10.51,3.91-10.5,8.73-10.5S383.71,183.27,383.71,189.07Z"/><path class="cls-1" d="M444.75,189.07c0,5.8-3.9,10.51-8.72,10.51s-8.72-4.71-8.72-10.51,3.9-10.5,8.72-10.5S444.75,183.27,444.75,189.07Z"/><path class="cls-1" d="M505.79,189.07c0,5.8-3.9,10.51-8.72,10.51s-8.72-4.71-8.72-10.51,3.91-10.5,8.72-10.5S505.79,183.27,505.79,189.07Z"/><ellipse class="cls-1" cx="8.72" cy="248.6" rx="8.72" ry="10.5"/><path class="cls-1" d="M78.49,248.6c0,5.8-3.91,10.5-8.73,10.5S61,254.4,61,248.6s3.91-10.51,8.72-10.51S78.49,242.8,78.49,248.6Z"/><ellipse class="cls-1" cx="130.81" cy="248.6" rx="8.72" ry="10.5"/><path class="cls-1" d="M200.57,248.6c0,5.8-3.9,10.5-8.72,10.5s-8.72-4.7-8.72-10.5,3.91-10.51,8.72-10.51S200.57,242.8,200.57,248.6Z"/><path class="cls-1" d="M261.62,248.6c0,5.8-3.91,10.5-8.72,10.5s-8.72-4.7-8.72-10.5,3.9-10.51,8.72-10.51S261.62,242.8,261.62,248.6Z"/><path class="cls-1" d="M322.66,248.6c0,5.8-3.9,10.5-8.72,10.5s-8.72-4.7-8.72-10.5,3.91-10.51,8.72-10.51S322.66,242.8,322.66,248.6Z"/><path class="cls-1" d="M383.71,248.6c0,5.8-3.91,10.5-8.72,10.5s-8.73-4.7-8.73-10.5,3.91-10.51,8.73-10.51S383.71,242.8,383.71,248.6Z"/><path class="cls-1" d="M444.75,248.6c0,5.8-3.9,10.5-8.72,10.5s-8.72-4.7-8.72-10.5,3.9-10.51,8.72-10.51S444.75,242.8,444.75,248.6Z"/><path class="cls-1" d="M505.79,248.6c0,5.8-3.9,10.5-8.72,10.5s-8.72-4.7-8.72-10.5,3.91-10.51,8.72-10.51S505.79,242.8,505.79,248.6Z"/><ellipse class="cls-1" cx="8.72" cy="308.12" rx="8.72" ry="10.5"/><path class="cls-1" d="M78.49,308.12c0,5.8-3.91,10.5-8.73,10.5S61,313.92,61,308.12s3.91-10.5,8.72-10.5S78.49,302.32,78.49,308.12Z"/><ellipse class="cls-1" cx="130.81" cy="308.12" rx="8.72" ry="10.5"/><path class="cls-1" d="M200.57,308.12c0,5.8-3.9,10.5-8.72,10.5s-8.72-4.7-8.72-10.5,3.91-10.5,8.72-10.5S200.57,302.32,200.57,308.12Z"/><path class="cls-1" d="M261.62,308.12c0,5.8-3.91,10.5-8.72,10.5s-8.72-4.7-8.72-10.5,3.9-10.5,8.72-10.5S261.62,302.32,261.62,308.12Z"/><path class="cls-1" d="M322.66,308.12c0,5.8-3.9,10.5-8.72,10.5s-8.72-4.7-8.72-10.5,3.91-10.5,8.72-10.5S322.66,302.32,322.66,308.12Z"/><path class="cls-1" d="M383.71,308.12c0,5.8-3.91,10.5-8.72,10.5s-8.73-4.7-8.73-10.5,3.91-10.5,8.73-10.5S383.71,302.32,383.71,308.12Z"/><path class="cls-1" d="M444.75,308.12c0,5.8-3.9,10.5-8.72,10.5s-8.72-4.7-8.72-10.5,3.9-10.5,8.72-10.5S444.75,302.32,444.75,308.12Z"/><path class="cls-1" d="M505.79,308.12c0,5.8-3.9,10.5-8.72,10.5s-8.72-4.7-8.72-10.5,3.91-10.5,8.72-10.5S505.79,302.32,505.79,308.12Z"/></svg>