<svg id="Layer_1" data-name="Layer 1" xmlns="http://www.w3.org/2000/svg" viewBox="0 0 511.42 511.42"><defs><style>.cls-1{fill:#f97316;}.cls-2{fill:#fb923c;}</style></defs><rect class="cls-1" x="164.86" y="282.62" width="63.94" height="63.94" transform="translate(-164.8 231.32) rotate(-45)"/><rect class="cls-1" x="153.56" y="287.31" width="63.94" height="31.97" transform="translate(-160.12 220.02) rotate(-45)"/><path class="cls-2" d="M27.29,325.9,185.52,484.13A111.89,111.89,0,0,0,27.29,325.9Z"/><path class="cls-2" d="M504.47,7a24.13,24.13,0,0,0-33.89,0L202.49,275l33.88,33.89L504.47,40.84A24.13,24.13,0,0,0,504.47,7Z"/><path class="cls-1" d="M4.68,325.9a16,16,0,0,0,0,22.6L162.92,506.74a16,16,0,0,0,22.6-22.61L27.29,325.9A16,16,0,0,0,4.68,325.9Z"/></svg>