<svg id="Layer_1" data-name="Layer 1" xmlns="http://www.w3.org/2000/svg" viewBox="0 0 271.17 506.63"><defs><style>.cls-1{fill:#fb923c;}.cls-2{fill:#f97316;}</style></defs><path class="cls-1" d="M2.46,455.36,101.27,192h0c25.65-71.69-12.53-89.46,4.57-137.26S178.73,0,178.73,0L153.08,71.69l118.09,42.25c-31.5,59.14-84.26,36.37-105.91,96.88L73.32,480.72c-.11.31-.28.79-.4,1.11a37.84,37.84,0,0,1-48.6,22.41A37.87,37.87,0,0,1,2.46,455.36Z"/><path class="cls-2" d="M226,16.9s38.69,40.8,21.59,88.59l-47.24-16.9Z"/><path class="cls-2" d="M143,142.22,178.6,155a12.54,12.54,0,0,0,16-7.67l4.32-12.1a12.53,12.53,0,0,0-7.49-16.07l-35.57-12.73a12.53,12.53,0,0,0-16,7.67l-4.33,12.1A12.53,12.53,0,0,0,143,142.22Z"/><path class="cls-2" d="M20.63,476.79a19.19,19.19,0,0,1,9.07-25.34,18.65,18.65,0,0,1,25.05,9,19.19,19.19,0,0,1-9.07,25.34A18.65,18.65,0,0,1,20.63,476.79Z"/><path class="cls-2" d="M115.35,225.87l16.29,5.83L63.23,432.55a43.32,43.32,0,0,0-22.4-8Z"/></svg>