<svg id="Layer_1" data-name="Layer 1" xmlns="http://www.w3.org/2000/svg" viewBox="0 0 500.25 146.89"><defs><style>.cls-1{fill:#ff9231;}</style></defs><path class="cls-1" d="M250.14,0C142.83,0,49.08,59.32,0,146.89H9.56C57.81,64.09,147.6,8.32,250.14,8.32s192.3,55.77,240.55,138.57h9.56C451.17,59.31,357.45,0,250.14,0Z"/><path class="cls-1" d="M250.14,32.08c-88.77,0-167.07,45.7-212.6,114.8h9.18C91.25,82.19,165.81,39.71,250.14,39.71S409,82.19,453.52,146.88h9.19C417.2,77.78,338.9,32.09,250.14,32.08Z"/><path class="cls-1" d="M250.13,64.2A222,222,0,0,0,77.25,146.88h9a215.08,215.08,0,0,1,327.7,0h9A221.88,221.88,0,0,0,250.13,64.2Z"/><path class="cls-1" d="M250.13,128.36a157,157,0,0,0-74.19,18.53h12.61a152.54,152.54,0,0,1,123.15,0h12.64A157.16,157.16,0,0,0,250.13,128.36Zm0-32.08a189.51,189.51,0,0,0-129,50.61h9.34a183.69,183.69,0,0,1,239.42,0h9.34A189.66,189.66,0,0,0,250.13,96.28Zm0,32.08a157,157,0,0,0-74.19,18.53h12.61a152.54,152.54,0,0,1,123.15,0h12.64A157.16,157.16,0,0,0,250.13,128.36Z"/><path class="cls-1" d="M250.13,128.36a157,157,0,0,0-74.19,18.53h12.61a152.54,152.54,0,0,1,123.15,0h12.64A157.16,157.16,0,0,0,250.13,128.36Z"/></svg>