<svg id="Layer_1" data-name="Layer 1" xmlns="http://www.w3.org/2000/svg" viewBox="0 0 509.54 220.35"><defs><style>.cls-1{fill:#f97316;}.cls-2{fill:#fb923c;opacity:0.5;}</style></defs><path class="cls-1" d="M460.15,127.49c-4,27.27-25.19,53.31-51.56,64.4-37.15,15.63-79.84,8.79-118.41-2.9-31.43-9.52-62.32-22.15-94.43-28.12a204.33,204.33,0,0,0-22.1-2.94c-31.74-2.38-60.18,5.94-86.11,23.82-18.78,12.95-29.61,17.93-41.1,12.32-6.92-3.38-14.07-10.6-23.34-22.21a192.64,192.64,0,0,1-23.1-37V0H413.31c-2.37,10.87-3.05,21.68.18,32.47,7.19,24.09,31.71,39.07,42.22,61.9A58,58,0,0,1,460.15,127.49Z"/><path class="cls-2" d="M492.2,112.79c-9,8.52-20.1,13-32.05,14.7-21,2.91-44.61-3-64.57-11.72-31.35-13.65-62.7-33-96.76-30.09-30.09,2.61-55.91,22.49-76.51,44.58-9.2,9.86-17.78,20.35-26.56,30.61-10.89,12.74-22.1,25.13-35.18,35.54-23.63,18.82-56,30.51-84.29,20-12.17-4.55-22-12.41-29.84-22.29-15-18.9-23.08-45.17-27.25-69.67-6-35.31-7.26-74,11.74-104.37A95.11,95.11,0,0,1,47.83,0H479.62a130.87,130.87,0,0,1,24.15,38.91C513.67,63.48,511.46,94.6,492.2,112.79Z"/></svg>