<svg id="Layer_1" data-name="Layer 1" xmlns="http://www.w3.org/2000/svg" viewBox="0 0 465.12 233.69"><defs><style>.cls-1{fill:#fb923c;isolation:isolate;}.cls-1,.cls-2{opacity:0.05;}.cls-2{fill:#f97316;}</style></defs><path class="cls-1" d="M420.21,205.89c-8.4,11.94-19.64,20.93-32.4,27.8H61.05c-26.36-15-46.88-36.59-57.27-67C-3.79,144.54-.35,117.17,17.51,102A46.1,46.1,0,0,1,27,95.84c22.56-11.2,52.44-3.64,76,8.17,27,13.55,53.76,32.15,84,31.17,22.38-.73,42.68-12.31,60-27,3.33-2.81,6.56-5.75,9.66-8.74C275.79,81,292.44,59.51,314.2,44c19-13.5,43.55-21.92,65.76-16.75a55.69,55.69,0,0,1,9.58,3.16c30.66,13.37,42.18,50.66,46,83.88C439.18,145.79,438.43,180,420.21,205.89Z"/><path class="cls-2" d="M465.12,1.23V233.69H136.4c-52.57-20-94.4-53.38-107.8-107.45A81,81,0,0,1,27,95.84C29.23,79,37,63.2,50.71,53.44c28.37-20.13,68.12-7.53,97.77,10.67s58.48,42.16,93.21,44c1.74.09,3.47.13,5.2.1,28.74-.34,55.66-15.94,78.19-34.19C343.74,58.91,360.77,41.59,380,27.29a186.87,186.87,0,0,1,16.67-11.16C417.12,4.05,442.27-3,465.12,1.23Z"/></svg>